<?xml version="1.0" encoding="utf-8"?>
<!-- Generator: Adobe Illustrator 16.0.0, SVG Export Plug-In . SVG Version: 6.00 Build 0)  -->
<!DOCTYPE svg PUBLIC "-//W3C//DTD SVG 1.1//EN" "http://www.w3.org/Graphics/SVG/1.1/DTD/svg11.dtd">
<svg version="1.1" id="Capa_1" xmlns="http://www.w3.org/2000/svg" xmlns:xlink="http://www.w3.org/1999/xlink" x="0px" y="0px"
	 width="68.739px" height="79.536px" viewBox="5.398 0 68.739 79.536" enable-background="new 5.398 0 68.739 79.536"
	 xml:space="preserve">
<g>
	<path fill="#555555" d="M70.943,44.304l-9.735,9.312l2.951,0.858c-4.229,6.954-11.878,10.015-20.588,10.614V29.826h8.078
		c0.673,0.678,1.605,1.092,2.641,1.092c2.051,0,3.719-1.66,3.719-3.718c0-2.056-1.668-3.723-3.719-3.723
		c-1.024,0-1.957,0.419-2.641,1.098h-8.078v-4.251c3.926-1.533,6.73-5.333,6.73-9.8C50.303,4.73,45.581,0,39.769,0
		c-5.811,0-10.53,4.73-10.53,10.524c0,4.771,3.213,8.777,7.581,10.059v3.987h-8.933c-0.676-0.673-1.607-1.093-2.636-1.093
		c-2.053,0-3.723,1.667-3.723,3.723c0,2.058,1.67,3.718,3.723,3.718c1.028,0,1.96-0.414,2.636-1.092h8.933v35.242
		c-9.178-0.685-17.189-4.257-21.21-11.791l2.939-0.647l-9.099-9.92L5.398,55.551l3.431-0.768
		c5.015,10.988,16.448,19.838,29.359,20.692l2.004,4.06l1.999-4.05c12.28-0.823,23.211-8.896,28.617-19.065l3.329,0.975
		L70.943,44.304z M34.37,10.524c0-2.98,2.423-5.398,5.403-5.398c2.979,0,5.403,2.418,5.403,5.398s-2.43,5.403-5.408,5.403
		C36.788,15.928,34.37,13.505,34.37,10.524z"/>
</g>
</svg>
