<?xml version="1.0" encoding="utf-8"?>
<!-- Generator: Adobe Illustrator 16.0.0, SVG Export Plug-In . SVG Version: 6.00 Build 0)  -->
<!DOCTYPE svg PUBLIC "-//W3C//DTD SVG 1.1//EN" "http://www.w3.org/Graphics/SVG/1.1/DTD/svg11.dtd">
<svg version="1.1" id="Layer_1" xmlns="http://www.w3.org/2000/svg" xmlns:xlink="http://www.w3.org/1999/xlink" x="0px" y="0px"
	 width="549.487px" height="595.28px" viewBox="22.896 123.305 549.487 595.28"
	 enable-background="new 22.896 123.305 549.487 595.28" xml:space="preserve">
<g id="XMLID_518_">
	<g>
		<path fill="#555555" d="M572.383,462.157l-45.791-73.265l-45.79,73.265h21.369c0,0-39.686,128.214-149.583,128.214
			c0-51.241,0-111.251,0-164.846h54.948V352.26h-54.948c0-17.085,0-32.004,0-43.845c27.54-17.998,45.79-49.086,45.79-84.37
			c0-55.548-45.191-100.74-100.739-100.74S196.9,168.497,196.9,224.044c0,35.284,18.25,66.371,45.791,84.37
			c0,11.841,0,26.758,0,43.845h-54.949v73.266h54.949c0,53.595,0,113.604,0,164.846c-109.897,0-149.584-128.214-149.584-128.214
			h21.37l-45.791-73.265l-45.79,73.265h18.315c0,0-18.315,201.479,256.428,256.428c274.744-54.948,256.428-256.428,256.428-256.428
			H572.383z M297.641,269.837c-25.249,0-45.79-20.542-45.79-45.791c0-25.249,20.541-45.791,45.79-45.791
			s45.791,20.542,45.791,45.791C343.432,249.295,322.89,269.837,297.641,269.837z"/>
	</g>
</g>
</svg>
