<?xml version="1.0" encoding="utf-8"?>
<!-- Generator: Adobe Illustrator 16.0.0, SVG Export Plug-In . SVG Version: 6.00 Build 0)  -->
<!DOCTYPE svg PUBLIC "-//W3C//DTD SVG 1.1//EN" "http://www.w3.org/Graphics/SVG/1.1/DTD/svg11.dtd">
<svg version="1.1" xmlns="http://www.w3.org/2000/svg" xmlns:xlink="http://www.w3.org/1999/xlink" x="0px" y="0px"
	 width="173.417px" height="26.423px" viewBox="0 0 173.417 26.423" enable-background="new 0 0 173.417 26.423"
	 xml:space="preserve">
<g id="Layer_2" display="none">
	<rect x="-175.467" y="-114.327" display="inline" fill="#043749" width="557" height="347"/>
</g>
<g id="Layer_3">
	<g>
		<path fill="#FFFFFF" d="M41,18.893V7.269h3.07l2.415,4.26c0.689,1.225,1.379,2.674,1.897,3.984h0.052
			c-0.173-1.535-0.224-3.104-0.224-4.846V7.269h2.415v11.625h-2.76l-2.483-4.484c-0.69-1.242-1.449-2.742-2.018-4.104l-0.052,0.017
			c0.069,1.535,0.103,3.173,0.103,5.071v3.501H41z"/>
		<path fill="#FFFFFF" d="M59.466,18.307c-0.897,0.569-2.259,0.776-3.312,0.776c-1.845,0-3.829-0.673-3.829-2.604
			c0-1.035,0.845-1.811,1.845-2.018v-0.086c-0.914-0.293-1.448-0.931-1.448-1.758c0-1.156,1.155-2.346,3.673-2.346
			c1.225,0,2.104,0.208,2.828,0.638l-0.448,1.656c-0.448-0.242-1.225-0.483-1.984-0.483c-0.914,0-1.431,0.328-1.431,0.811
			c0,0.518,0.707,0.742,1.932,0.742h0.827v1.707h-0.81c-1.225,0.017-2.156,0.19-2.156,0.845c0,0.656,0.811,0.949,1.69,0.949
			c0.759,0,1.69-0.242,2.26-0.517L59.466,18.307z M58.293,6.82l-1.397,2.622h-1.69L56,6.82H58.293z"/>
		<path fill="#FFFFFF" d="M68.897,10.459c-0.121,1.328-0.242,3.708-0.242,5.502c0,0.949,0.328,1.19,0.793,1.156l-0.155,1.828
			c-0.139,0.069-0.552,0.138-0.915,0.138c-0.983,0-1.587-0.518-1.828-1.535h-0.035c-0.604,1.018-1.587,1.535-2.708,1.535
			c-1.948,0-3.518-1.639-3.518-4.226c0-2.846,1.931-4.587,3.828-4.587c0.983,0,1.828,0.414,2.312,1.294H66.5
			c0.052-0.415,0.121-0.776,0.207-1.104H68.897z M64.533,17.013c0.759,0,1.362-0.742,1.535-1.57
			c0.034-0.293,0.052-0.534,0.052-0.845c0-0.275,0-0.5-0.035-0.707c-0.155-0.965-0.741-1.621-1.483-1.621
			c-1.017,0-1.655,1.122-1.655,2.449C62.947,16.03,63.602,17.013,64.533,17.013z"/>
		<path fill="#FFFFFF" d="M74.393,7.269h2.604v5.14h0.051c0.259-0.448,0.535-0.862,0.794-1.276l2.638-3.863h3.225l-3.846,4.95
			l4.053,6.674h-3.07l-2.846-5.019l-1,1.224v3.794h-2.604V7.269z"/>
		<path fill="#FFFFFF" d="M93.016,10.459c-0.121,1.328-0.242,3.708-0.242,5.502c0,0.949,0.328,1.19,0.793,1.156l-0.154,1.828
			c-0.139,0.069-0.553,0.138-0.914,0.138c-0.983,0-1.587-0.518-1.828-1.535h-0.034c-0.605,1.018-1.588,1.535-2.708,1.535
			c-1.95,0-3.519-1.639-3.519-4.226c0-2.846,1.931-4.587,3.829-4.587c0.983,0,1.828,0.414,2.31,1.294h0.07
			c0.052-0.415,0.12-0.776,0.207-1.104H93.016z M88.652,17.013c0.759,0,1.363-0.742,1.535-1.57c0.035-0.293,0.052-0.534,0.052-0.845
			c0-0.275,0-0.5-0.034-0.707c-0.155-0.965-0.742-1.621-1.483-1.621c-1.018,0-1.656,1.122-1.656,2.449
			C87.065,16.03,87.721,17.013,88.652,17.013z"/>
		<path fill="#FFFFFF" d="M100.065,18.893c-0.224,0.104-0.673,0.19-1.208,0.19c-1.88,0-2.5-1.018-2.5-2.984v-3.656H95.65
			c-0.793,0-1.225,0.052-1.588,0.121l-0.328-1.552c0.364-0.259,1.035-0.552,2.968-0.552h4.829l-0.26,1.984h-2.293v3.484
			c0,0.862,0.346,1.138,0.863,1.138c0.138,0,0.258,0,0.327,0L100.065,18.893z"/>
		<path fill="#FFFFFF" d="M110.668,10.459c-0.12,1.328-0.242,3.708-0.242,5.502c0,0.949,0.329,1.19,0.794,1.156l-0.154,1.828
			c-0.138,0.069-0.553,0.138-0.915,0.138c-0.982,0-1.586-0.518-1.827-1.535h-0.034c-0.604,1.018-1.588,1.535-2.708,1.535
			c-1.949,0-3.519-1.639-3.519-4.226c0-2.846,1.932-4.587,3.829-4.587c0.982,0,1.828,0.414,2.311,1.294h0.069
			c0.052-0.415,0.12-0.776,0.207-1.104H110.668z M106.305,17.013c0.759,0,1.363-0.742,1.535-1.57
			c0.035-0.293,0.052-0.534,0.052-0.845c0-0.275,0-0.5-0.034-0.707c-0.155-0.965-0.742-1.621-1.482-1.621
			c-1.019,0-1.656,1.122-1.656,2.449C104.719,16.03,105.374,17.013,106.305,17.013z"/>
		<path fill="#FFFFFF" d="M114.442,10.459l1.638,3.812h0.068c0.173-0.466,0.362-0.932,0.604-1.484l0.966-2.328h2.5l-2.915,5.726
			l2.915,6.02l-2.483,0.586l-1.983-4.415l-0.086,0.017c-0.173,0.397-0.345,0.915-0.654,1.604l-1.243,2.794l-2.225-0.604l2.984-6.002
			l-2.897-5.726H114.442z"/>
		<path fill="#FFFFFF" d="M127.719,15.512c0,0.776,0.293,1.38,0.845,1.38c0.655,0,1.19-0.879,1.19-2.604
			c0-1.397-0.414-2.897-1.19-3.794v-0.035h2.381c0.638,0.604,1.361,2.087,1.361,3.933c0,3.019-1.586,4.691-3.517,4.691
			c-0.985,0-1.863-0.5-2.243-1.329h-0.087c-0.447,0.759-1.225,1.329-2.259,1.329c-1.742,0-3.397-1.466-3.397-4.467
			c0-1.949,0.724-3.398,1.397-4.157h2.361v0.035c-0.723,0.931-1.225,2.397-1.225,3.949c0,1.708,0.621,2.449,1.19,2.449
			c0.518,0,0.829-0.586,0.812-1.362l-0.034-3.053h2.466L127.719,15.512z M128.753,6.82l-1.396,2.622h-1.707l0.793-2.622H128.753z"/>
		<path fill="#FFFFFF" d="M134.043,22.308c-0.121-0.414-0.191-1.777-0.191-2.984v-3.829c0-2.466,0.777-3.535,1.605-4.225
			c0.794-0.655,1.689-1,2.862-1c2.518,0,4.175,1.759,4.175,4.364c0,2.966-2.001,4.45-3.916,4.45c-0.931,0-1.673-0.328-2.069-0.828
			h-0.034v1.086c0,1,0,2.311,0.12,2.967H134.043z M136.475,15.512c0,0.189,0.017,0.345,0.052,0.518
			c0.154,0.5,0.758,1.034,1.517,1.034c1.156,0,1.795-1.017,1.795-2.38c0-1.345-0.621-2.276-1.657-2.276
			c-0.965,0-1.706,0.862-1.706,2.484V15.512z"/>
		<path fill="#FFFFFF" d="M144.11,18.893V13.15c0-1.086-0.068-2.053-0.275-2.691h2.311c0.155,0.276,0.276,0.708,0.294,1.156h0.052
			c0.345-0.535,1.207-1.345,2.604-1.345c1.725,0,3.019,1.138,3.019,3.622v5.45c0,1,0.017,2.311,0.189,2.967h-2.501
			c-0.241-0.414-0.31-1.846-0.31-2.984v-5.105c0-1.086-0.38-1.828-1.328-1.828c-0.726,0-1.156,0.5-1.328,0.983
			c-0.069,0.155-0.104,0.414-0.104,0.656v4.863H144.11z"/>
		<path fill="#FFFFFF" d="M163.129,12.167c-0.415,0-0.983-0.034-1.829-0.12l-0.017,0.086c0.742,0.673,1.104,1.725,1.104,2.587
			c0,3.019-2.069,4.364-4.293,4.364c-2.468,0-4.365-1.587-4.365-4.312c0-2.725,1.777-4.501,4.675-4.501h4.847L163.129,12.167z
			 M159.8,14.65c0-1.242-0.466-2.518-1.62-2.518c-1.276,0-1.743,1.293-1.743,2.535c0,1.449,0.604,2.535,1.69,2.535
			C159.145,17.203,159.8,16.168,159.8,14.65z"/>
		<path fill="#FFFFFF" d="M164.539,18.893V13.15c0-1.086-0.069-2.053-0.276-2.691h2.312c0.154,0.276,0.275,0.708,0.294,1.156h0.051
			c0.345-0.535,1.207-1.345,2.604-1.345c1.725,0,3.018,1.138,3.018,3.622v5.45c0,1,0.018,2.311,0.189,2.967h-2.5
			c-0.242-0.414-0.311-1.846-0.311-2.984v-5.105c0-1.086-0.38-1.828-1.328-1.828c-0.726,0-1.156,0.5-1.328,0.983
			c-0.068,0.155-0.104,0.414-0.104,0.656v4.863H164.539z"/>
	</g>
	<path fill-rule="evenodd" clip-rule="evenodd" fill="#FFFFFF" d="M22.609,22.162c-4.944,4.943-12.958,4.943-17.901,0
		s-4.943-12.958,0-17.901c4.943-4.943,12.958-4.943,17.901,0C27.552,9.204,27.552,17.219,22.609,22.162z M15.791,7.389
		c0-1.165-0.944-2.109-2.108-2.109c-1.165,0-2.108,0.944-2.108,2.109v3.736H7.834c-1.164,0.001-2.108,0.945-2.109,2.109
		c0.001,1.164,0.945,2.108,2.109,2.108h3.739l-0.001,3.738c0.001,1.165,0.945,2.109,2.109,2.109s2.108-0.945,2.109-2.109l0-3.739
		l3.737,0.001c1.164,0,2.108-0.944,2.108-2.108c0-1.165-0.944-2.108-2.108-2.108h-3.737V7.389z"/>
</g>
<g id="Layer_4">
</g>
<g id="Layer_1" display="none">
	
		<image display="inline" overflow="visible" width="163" height="25" xlink:href="create_plus_icon.png"  transform="matrix(0.9999 0 0 0.9999 9.75 0.2998)">
	</image>
</g>
</svg>
