<?xml version="1.0" encoding="utf-8"?>
<!-- Generator: Adobe Illustrator 16.0.0, SVG Export Plug-In . SVG Version: 6.00 Build 0)  -->
<!DOCTYPE svg PUBLIC "-//W3C//DTD SVG 1.1//EN" "http://www.w3.org/Graphics/SVG/1.1/DTD/svg11.dtd">
<svg version="1.1" id="Capa_1" xmlns="http://www.w3.org/2000/svg" xmlns:xlink="http://www.w3.org/1999/xlink" x="0px" y="0px"
	 width="595.279px" height="520.87px" viewBox="0 160.51 595.279 520.87" enable-background="new 0 160.51 595.279 520.87"
	 xml:space="preserve">
<g>
	<g>
		<path fill="#555555" d="M521.093,234.92h-37.428v37.279c0,40.926-33.336,74.336-74.41,74.336c-41.335,0-74.41-33.299-74.41-74.336
			V234.92h-74.41v37.279c0,40.926-33.335,74.336-74.41,74.336c-41.371,0-74.409-33.299-74.409-74.336V234.92H74.187
			C33.224,234.92,0,268.479,0,309.627v297.008c0,41.334,33.298,74.744,74.187,74.744h446.906c40.963,0,74.187-33.559,74.187-74.744
			V309.627C595.28,268.367,561.982,234.92,521.093,234.92z"/>
		<path fill="#555555" d="M186.025,309.33c20.575,0,37.205-16.482,37.205-37.54v-73.74c0-20.723-16.519-37.54-37.205-37.54
			c-20.574,0-37.205,16.482-37.205,37.54v73.703C148.82,292.513,165.339,309.33,186.025,309.33z"/>
		<path fill="#555555" d="M409.255,309.33c20.574,0,37.205-16.482,37.205-37.54v-73.74c0-20.723-16.482-37.54-37.205-37.54
			c-20.574,0-37.205,16.482-37.205,37.54v73.703C372.05,292.513,388.531,309.33,409.255,309.33z"/>
	</g>
</g>
</svg>
