<?xml version="1.0" encoding="utf-8"?>
<!-- Generator: Adobe Illustrator 16.0.0, SVG Export Plug-In . SVG Version: 6.00 Build 0)  -->
<!DOCTYPE svg PUBLIC "-//W3C//DTD SVG 1.1//EN" "http://www.w3.org/Graphics/SVG/1.1/DTD/svg11.dtd">
<svg version="1.1" xmlns="http://www.w3.org/2000/svg" xmlns:xlink="http://www.w3.org/1999/xlink" x="0px" y="0px" width="710px"
	 height="708px" viewBox="0 0 710 708" enable-background="new 0 0 710 708" xml:space="preserve">
<symbol  id="Capsule_1_leaf-3__x28_black_x29_" viewBox="-123.1 -493.25 246.225 505.75">
	<g id="cap_1_">
		<path fill-rule="evenodd" clip-rule="evenodd" d="M-69.35-41.25c-19.167-19.133-28.75-42.233-28.75-69.3V-247.1
			c61.42-30.511,126.82-30.511,196.2,0v136.55c0,16.167-3.417,30.917-10.25,44.25c-4.6,9-10.75,17.35-18.45,25.05h-0.05
			C50.217-22.083,27.117-12.5,0.05-12.5H0C-27.1-12.5-50.217-22.083-69.35-41.25z M0,12.5h0.05c20.8,0,39.733-4.5,56.8-13.5
			c10.8-5.7,20.867-13.217,30.2-22.55v-0.05c0.267-0.267,0.534-0.533,0.8-0.8c23.5-23.833,35.25-52.55,35.25-86.15v-124.3
			c0.033-0.367,0.033-0.75,0-1.15v-134.15c0-34.033-12.017-63.05-36.05-87.05c-1.033-1.033-2.083-2.066-3.15-3.1l-0.15-0.15
			c-11.633-10.867-24.367-19.033-38.2-24.5c-14.033-5.533-29.2-8.3-45.5-8.3H0c-16.3,0-31.45,2.767-45.45,8.3
			c-13.867,5.467-26.617,13.633-38.25,24.5l0.15-0.1c-1.2,1.1-2.35,2.216-3.45,3.35c-0.067,0.034-0.117,0.083-0.15,0.15
			c-23.967,23.966-35.95,52.933-35.95,86.9v134.4c0,0.167,0,0.333,0,0.5v124.7c0,33.966,12.017,62.95,36.05,86.95l0.05,0.05
			C-77.7-14.217-67.633-6.7-56.8-1C-39.733,8-20.8,12.5,0,12.5z"/>
	</g>
	<g id="leaf_1_">
		<path fill-rule="evenodd" clip-rule="evenodd" d="M-81-170.3c57.867,3.466,85.1-15.284,81.7-56.25
			C-36.333-244.45-63.567-225.7-81-170.3z M29.25-47.3c17.433-52.934,7.783-83.717-28.95-92.35
			c-1.133-18.567,4.483-39.95,16.85-64.15c20.967-39.767,20.733-69.667-0.7-89.7h-31.9c31.934,21.9,39.117,51.8,21.55,89.7
			c-11.967,26.466-16.517,48.917-13.65,67.35C-29.783-106.717-17.517-77,29.25-47.3z M80.2-116.5c0.4-58-19.717-84.15-60.35-78.45
			C3.95-157.15,24.067-131,80.2-116.5z"/>
	</g>
</symbol>
<symbol  id="Capsule_2_node-3__x28_black_x29_" viewBox="-123.1 -493.25 246.225 505.75">
	<g id="cap_2_">
		<path fill-rule="evenodd" clip-rule="evenodd" d="M-69.35-41.25c-19.167-19.133-28.75-42.233-28.75-69.3V-247.1
			c68.026-35.449,133.426-35.449,196.2,0v136.55c0,27.066-9.567,50.167-28.7,69.3h-0.05C50.217-22.083,27.117-12.5,0.05-12.5H0
			C-27.1-12.5-50.217-22.083-69.35-41.25z M0,12.5h0.05c33.967,0,62.967-12.017,87-36.05v-0.05c24.034-24,36.05-52.983,36.05-86.95
			v-124.3c0.033-0.367,0.033-0.75,0-1.15v-134.15c0-34.033-12.017-63.05-36.05-87.05c-1.033-1.033-2.083-2.066-3.15-3.1l-0.15-0.15
			c-23.367-21.867-51.267-32.8-83.7-32.8H0c-32.433,0-60.333,10.933-83.7,32.8l0.15-0.1c-1.2,1.1-2.35,2.216-3.45,3.35
			c-0.067,0.034-0.117,0.083-0.15,0.15c-23.967,23.966-35.95,52.933-35.95,86.9v134.4c0,0.167,0,0.333,0,0.5v124.7
			c0,33.966,12.017,62.95,36.05,86.95l0.05,0.05C-63,0.483-34,12.5,0,12.5z"/>
	</g>
	<g id="node_1_">
		<polygon fill-rule="evenodd" clip-rule="evenodd" points="7.615,-94.081 7.615,-275.711 -8.255,-275.711 -8.255,-94.081 		"/>
		<polygon fill-rule="evenodd" clip-rule="evenodd" points="55.266,-209.981 55.266,-391.611 39.395,-391.611 39.395,-209.981 		"/>
		<path fill-rule="evenodd" clip-rule="evenodd" d="M-0.291-66.728c7.436,0,13.77-2.616,19.001-7.847
			c5.261-5.261,7.891-11.61,7.891-19.045s-2.63-13.77-7.891-19c-5.231-5.261-11.565-7.892-19.001-7.892
			c-7.436,0-13.784,2.63-19.045,7.892c-5.232,5.231-7.847,11.565-7.847,19s2.615,13.784,7.847,19.045
			C-14.075-69.343-7.727-66.728-0.291-66.728z"/>
		<path fill-rule="evenodd" clip-rule="evenodd" d="M47.309-169.928c7.436,0,13.77-2.616,19-7.847
			c5.261-5.261,7.892-11.61,7.892-19.045s-2.63-13.77-7.892-19c-5.231-5.261-11.565-7.892-19-7.892
			c-7.436,0-13.784,2.63-19.045,7.892c-5.232,5.231-7.847,11.565-7.847,19s2.615,13.784,7.847,19.045
			C33.525-172.543,39.873-169.928,47.309-169.928z"/>
		<polygon fill-rule="evenodd" clip-rule="evenodd" points="-39.084,-173.831 -39.084,-355.461 -54.955,-355.461 -54.955,-173.831 
					"/>
		<path fill-rule="evenodd" clip-rule="evenodd" d="M-47.041-133.777c7.436,0,13.77-2.616,19.001-7.847
			c5.261-5.261,7.891-11.61,7.891-19.045s-2.63-13.77-7.891-19c-5.231-5.261-11.565-7.892-19.001-7.892
			c-7.436,0-13.784,2.63-19.045,7.892c-5.232,5.231-7.847,11.565-7.847,19s2.615,13.784,7.847,19.045
			C-60.825-136.394-54.477-133.777-47.041-133.777z"/>
	</g>
</symbol>
<g id="Cap_1">
	
		<use xlink:href="#Capsule_1_leaf-3__x28_black_x29_"  width="246.225" height="505.75" x="-123.1" y="-493.25" transform="matrix(-0.7984 -0.7984 -0.7983 0.7983 52 437.0498)" overflow="visible"/>
</g>
<g id="Cap_2">
	
		<use xlink:href="#Capsule_2_node-3__x28_black_x29_"  width="246.225" height="505.75" x="-123.1" y="-493.25" transform="matrix(0.7984 0.7984 0.7983 -0.7983 659.0996 269.8501)" overflow="visible"/>
</g>
</svg>
