<?xml version="1.0" encoding="utf-8"?>
<!-- Generator: Adobe Illustrator 16.0.0, SVG Export Plug-In . SVG Version: 6.00 Build 0)  -->
<!DOCTYPE svg PUBLIC "-//W3C//DTD SVG 1.1//EN" "http://www.w3.org/Graphics/SVG/1.1/DTD/svg11.dtd">
<svg version="1.1" id="Capa_1" xmlns="http://www.w3.org/2000/svg" xmlns:xlink="http://www.w3.org/1999/xlink" x="0px" y="0px"
	 width="874.954px" height="593.799px" viewBox="0 0 874.954 593.799" enable-background="new 0 0 874.954 593.799"
	 xml:space="preserve">
<g>
	<g>
		<polygon fill="#6F6251" points="309.373,301.592 282.696,317.03 282.696,594.539 522.908,455.847 522.908,178.337 		"/>
		<polygon fill="#6F6251" points="352.844,52.735 260.467,-0.741 13.586,141.78 106.089,195.258 		"/>
		<polygon fill="#6F6251" points="507.222,141.78 400.763,81.141 154.008,223.662 168.087,230.949 260.467,284.302 352.35,231.319 
					"/>
		<polygon fill="#6F6251" points="135.357,325.675 91.143,302.951 91.143,232.309 0,179.819 0,455.353 238.482,593.058 
			238.482,317.524 135.357,258.12 		"/>
	</g>
</g>
<g>
	<path fill="#38A884" d="M651.578,283.039c0-53.284,49.059-116.101,49.059-116.101s49.058,62.817,49.058,116.101
		c0,53.285-49.058,76.854-49.058,76.854S651.578,336.323,651.578,283.039z M589.944,422.396
		c42.692,31.882,90.941,6.681,90.941,6.681s10.472-53.408-32.222-85.29c-42.684-31.899-122.371-30.186-122.371-30.186
		S547.26,390.495,589.944,422.396z M729.056,432.684c15.776,5.593,50.563,13.384,82.255-10.288
		c42.683-31.9,63.643-108.787,63.643-108.787s-79.68-1.705-122.364,30.178c-28.082,20.978-33.187,51.258-33.342,69.539h-0.009
		v73.339h-0.436H542.286c0,59.713,71.382,107.735,158.351,107.735c86.976,0,158.333-48.022,158.333-107.735H729.056V432.684z"/>
</g>
</svg>
