<?xml version="1.0" encoding="utf-8"?>
<!-- Generator: Adobe Illustrator 16.0.0, SVG Export Plug-In . SVG Version: 6.00 Build 0)  -->
<!DOCTYPE svg PUBLIC "-//W3C//DTD SVG 1.1//EN" "http://www.w3.org/Graphics/SVG/1.1/DTD/svg11.dtd">
<svg version="1.1" id="Capa_1" xmlns="http://www.w3.org/2000/svg" xmlns:xlink="http://www.w3.org/1999/xlink" x="0px" y="0px"
	 width="874.954px" height="593.799px" viewBox="0 0 874.954 593.799" enable-background="new 0 0 874.954 593.799"
	 xml:space="preserve">
<g>
	<g>
		<polygon fill="#6F6251" points="309.373,301.592 282.696,317.03 282.696,594.539 522.908,455.847 522.908,178.337 		"/>
		<polygon fill="#6F6251" points="352.844,52.735 260.467,-0.741 13.586,141.78 106.089,195.258 		"/>
		<polygon fill="#6F6251" points="507.222,141.78 400.763,81.141 154.008,223.662 168.087,230.949 260.467,284.302 352.35,231.319 
					"/>
		<polygon fill="#6F6251" points="135.357,325.675 91.143,302.951 91.143,232.309 0,179.819 0,455.353 238.482,593.058 
			238.482,317.524 135.357,258.12 		"/>
	</g>
</g>
<g>
	<g>
		<path fill="#C98A4B" d="M618.392,407.662c31.172,0,56.525-34.023,56.525-75.856c0-41.828-25.355-75.862-56.525-75.862
			c-31.161,0-56.517,34.033-56.517,75.862C561.876,373.639,587.231,407.662,618.392,407.662z"/>
		<path fill="#C98A4B" d="M786.047,481.453c-1.159-1.58-2.27-3.068-2.865-4.35c-12.639-27.054-47.283-58.948-103.411-59.741
			l-2.16-0.013c-55.266,0-89.652,30.207-103.41,58.487c-0.476,0.967-1.521,2.221-2.628,3.55c-1.31,1.556-2.606,3.146-3.715,4.876
			c-11.623,18.08-17.548,38.438-16.674,57.316c0.916,20.042,9.308,36.141,23.588,45.324c5.769,3.706,11.995,5.574,18.527,5.574
			c13.469,0,25.801-7.587,40.09-16.373c9.086-5.6,18.472-11.378,28.896-15.702c1.168-0.385,5.955-0.973,13.783-0.973
			c9.312,0,15.997,0.828,17.425,1.321c10.177,4.493,19.113,10.385,27.756,16.072c13.251,8.734,25.764,16.976,39.338,16.976
			c5.826,0,11.474-1.537,16.799-4.565c29.393-16.697,34.99-62.51,12.489-102.117C788.745,485.128,787.399,483.273,786.047,481.453z"
			/>
		<path fill="#C98A4B" d="M738.584,407.662c31.156,0,56.516-34.023,56.516-75.856c0-41.828-25.359-75.862-56.516-75.862
			c-31.175,0-56.528,34.033-56.528,75.862C682.055,373.639,707.409,407.662,738.584,407.662z"/>
		<path fill="#C98A4B" d="M831.41,368.71c-24.983,0-44.535,25.909-44.535,58.983c0,33.062,19.564,58.974,44.535,58.974
			c24.968,0,44.544-25.912,44.544-58.974C875.954,394.619,856.389,368.71,831.41,368.71z"/>
		<path fill="#C98A4B" d="M574.788,427.693c0-33.074-19.563-58.983-44.534-58.983c-24.973,0-44.539,25.909-44.539,58.983
			c0,33.062,19.566,58.974,44.539,58.974C555.225,486.667,574.788,460.755,574.788,427.693z"/>
	</g>
</g>
</svg>
