<?xml version="1.0" encoding="utf-8"?>
<!-- Generator: Adobe Illustrator 16.0.0, SVG Export Plug-In . SVG Version: 6.00 Build 0)  -->
<!DOCTYPE svg PUBLIC "-//W3C//DTD SVG 1.1//EN" "http://www.w3.org/Graphics/SVG/1.1/DTD/svg11.dtd">
<svg version="1.1" id="Capa_1" xmlns="http://www.w3.org/2000/svg" xmlns:xlink="http://www.w3.org/1999/xlink" x="0px" y="0px"
	 width="874.954px" height="593.799px" viewBox="0 0 874.954 593.799" enable-background="new 0 0 874.954 593.799"
	 xml:space="preserve">
<g>
	<g>
		<polygon fill="#6F6251" points="309.373,301.592 282.696,317.03 282.696,594.539 522.908,455.847 522.908,178.337 		"/>
		<polygon fill="#6F6251" points="352.844,52.735 260.467,-0.741 13.586,141.78 106.089,195.258 		"/>
		<polygon fill="#6F6251" points="507.222,141.78 400.763,81.141 154.008,223.662 168.087,230.949 260.467,284.302 352.35,231.319 
					"/>
		<polygon fill="#6F6251" points="135.357,325.675 91.143,302.951 91.143,232.309 0,179.819 0,455.353 238.482,593.058 
			238.482,317.524 135.357,258.12 		"/>
	</g>
</g>
<g>
	<path fill="#84BBBC" d="M869.411,384.775c-5.521-7.657-14.382-11.967-23.824-11.967H493.188c-9.442,0-18.304,4.311-23.824,11.967
		c-5.521,7.657-7.019,17.388-4.036,26.343l44.05,132.32c4,11.994,15.221,20.253,27.86,20.253h17.39
		c6.081,16.519,22.227,29.366,41.344,29.366s35.264-12.848,41.345-29.366h64.145c6.08,16.519,22.226,29.366,41.343,29.366
		s35.264-12.848,41.345-29.366h17.389c12.64,0,23.86-8.315,27.86-20.311l44.05-132.149
		C876.43,402.277,874.932,392.433,869.411,384.775z"/>
	<path fill="#84BBBC" d="M522.555,343.442h278.981c5.291,0,10.173-3.074,12.776-7.678c2.609-4.604,2.538-10.366-0.187-14.905
		l-44.05-73.473c-2.322-3.872-6.31-6.496-10.797-7.048c-4.489-0.516-8.977,0.982-12.175,4.181l-20.075,20.067l-63.156-50.528
		c-5.835-4.688-14.274-4.21-19.552,1.082l-51.248,51.247l-19.902-9.952c-6.33-3.161-14.059-1.348-18.312,4.324l-44.049,58.733
		c-3.342,4.452-3.879,10.632-1.392,15.607C511.908,340.073,516.991,343.442,522.555,343.442L522.555,343.442z"/>
</g>
</svg>
