<?xml version="1.0" encoding="utf-8"?>
<!-- Generator: Adobe Illustrator 16.0.0, SVG Export Plug-In . SVG Version: 6.00 Build 0)  -->
<!DOCTYPE svg PUBLIC "-//W3C//DTD SVG 1.1//EN" "http://www.w3.org/Graphics/SVG/1.1/DTD/svg11.dtd">
<svg version="1.1" id="Layer_1" xmlns="http://www.w3.org/2000/svg" xmlns:xlink="http://www.w3.org/1999/xlink" x="0px" y="0px"
	 width="184.508px" height="200px" viewBox="0 -12 184.508 200" enable-background="new 0 -12 184.508 200" xml:space="preserve">
<g>
	<path fill="#FFFFFF" d="M174.653-12H35.179c-5.423,0-9.857,4.666-9.857,10.368v162.278c0,5.7,4.435,10.366,9.857,10.366h139.475
		c5.419,0,9.854-4.666,9.854-10.366V-1.632C184.508-7.334,180.072-12,174.653-12z M63.668,150.572c0,2.69-2.095,4.895-4.654,4.895
		H44.75c-2.558,0-4.654-2.202-4.654-4.895v-15.003c0-2.695,2.096-4.899,4.654-4.899h14.264c2.56,0,4.654,2.202,4.654,4.899V150.572z
		 M63.668,113.379c0,2.691-2.095,4.892-4.654,4.892H44.75c-2.558,0-4.654-2.199-4.654-4.892V98.372c0-2.691,2.096-4.896,4.654-4.896
		h14.264c2.56,0,4.654,2.203,4.654,4.896V113.379z M63.668,76.185c0,2.691-2.095,4.892-4.654,4.892H44.75
		c-2.558,0-4.654-2.2-4.654-4.892V61.177c0-2.691,2.096-4.894,4.654-4.894h14.264c2.56,0,4.654,2.203,4.654,4.894V76.185z
		 M99.021,150.572c0,2.69-2.09,4.895-4.65,4.895H80.105c-2.558,0-4.651-2.202-4.651-4.895v-15.003c0-2.695,2.092-4.899,4.651-4.899
		h14.265c2.561,0,4.651,2.202,4.651,4.899L99.021,150.572L99.021,150.572z M99.021,113.379c0,2.691-2.09,4.892-4.65,4.892H80.105
		c-2.558,0-4.651-2.199-4.651-4.892V98.372c0-2.691,2.092-4.896,4.651-4.896h14.265c2.561,0,4.651,2.203,4.651,4.896L99.021,113.379
		L99.021,113.379z M99.021,76.185c0,2.691-2.09,4.892-4.65,4.892H80.105c-2.558,0-4.651-2.2-4.651-4.892V61.177
		c0-2.691,2.092-4.894,4.651-4.894h14.265c2.561,0,4.651,2.203,4.651,4.894L99.021,76.185L99.021,76.185z M134.376,150.572
		c0,2.69-2.092,4.895-4.65,4.895h-14.268c-2.558,0-4.65-2.202-4.65-4.895v-15.003c0-2.695,2.092-4.899,4.65-4.899h14.268
		c2.558,0,4.65,2.202,4.65,4.899V150.572z M134.376,113.379c0,2.691-2.092,4.892-4.65,4.892h-14.268c-2.558,0-4.65-2.199-4.65-4.892
		V98.372c0-2.691,2.092-4.896,4.65-4.896h14.268c2.558,0,4.65,2.203,4.65,4.896V113.379z M134.376,76.185
		c0,2.691-2.092,4.892-4.65,4.892h-14.268c-2.558,0-4.65-2.2-4.65-4.892V61.177c0-2.691,2.092-4.894,4.65-4.894h14.268
		c2.558,0,4.65,2.203,4.65,4.894V76.185z M169.731,150.572c0,2.69-2.093,4.895-4.654,4.895h-14.262
		c-2.561,0-4.653-2.202-4.653-4.895V98.371c0-2.691,2.092-4.895,4.653-4.895h14.262c2.562,0,4.654,2.202,4.654,4.895V150.572z
		 M169.731,76.185c0,2.691-2.093,4.892-4.654,4.892h-14.262c-2.561,0-4.653-2.2-4.653-4.892V61.177c0-2.691,2.092-4.894,4.653-4.894
		h14.262c2.562,0,4.654,2.203,4.654,4.894V76.185z M169.731,35.848c0,2.689-2.093,4.891-4.654,4.891H44.75
		c-2.558,0-4.654-2.201-4.654-4.891V8.438c0-2.691,2.096-4.895,4.654-4.895h120.327c2.562,0,4.654,2.203,4.654,4.895V35.848z"/>
</g>
</svg>
