<?xml version="1.0" encoding="utf-8"?>
<!-- Generator: Adobe Illustrator 16.0.0, SVG Export Plug-In . SVG Version: 6.00 Build 0)  -->
<!DOCTYPE svg PUBLIC "-//W3C//DTD SVG 1.1//EN" "http://www.w3.org/Graphics/SVG/1.1/DTD/svg11.dtd">
<svg version="1.1" id="Capa_1" xmlns="http://www.w3.org/2000/svg" xmlns:xlink="http://www.w3.org/1999/xlink" x="0px" y="0px"
	 width="523.982px" height="487.984px" viewBox="0 0 523.982 487.984" enable-background="new 0 0 523.982 487.984"
	 xml:space="preserve">
<g>
	<g>
		<path fill="#FFFFFF" d="M360.157,182.944c3.54,3.542,9.289,3.542,12.829,0L478.17,77.755c3.544-3.543,3.544-9.284,0-12.833
			c-3.54-3.543-9.287-3.543-12.83,0L360.157,170.108C356.608,173.652,356.608,179.401,360.157,182.944z"/>
		<path fill="#FFFFFF" d="M451.056,262.502L439.52,135.658l-31.668,31.668c1.844,11.757-1.743,24.204-10.805,33.264
			c-15.058,15.055-39.471,15.061-54.528,0c-15.057-15.056-15.057-39.476,0-54.531c9.06-9.059,21.498-12.643,33.253-10.806
			l31.679-31.678L280.601,92.04c-4.992-0.45-9.926,1.334-13.474,4.881L62.538,301.509c-6.591,6.598-6.596,17.283,0,23.875
			l45.508,45.514l22.455-22.455l64.152,64.152l-22.449,22.449l45.508,45.507c6.596,6.598,17.278,6.598,23.87,0l204.601-204.588
			C449.718,272.419,451.499,267.481,451.056,262.502z"/>
	</g>
</g>
</svg>
