<?xml version="1.0" encoding="utf-8"?>
<!-- Generator: Adobe Illustrator 16.0.0, SVG Export Plug-In . SVG Version: 6.00 Build 0)  -->
<!DOCTYPE svg PUBLIC "-//W3C//DTD SVG 1.1//EN" "http://www.w3.org/Graphics/SVG/1.1/DTD/svg11.dtd">
<svg version="1.1" id="Capa_1" xmlns="http://www.w3.org/2000/svg" xmlns:xlink="http://www.w3.org/1999/xlink" x="0px" y="0px"
	 width="448px" height="400.9px" viewBox="0 0 448 400.9" enable-background="new 0 0 448 400.9" xml:space="preserve">
<path fill="#FFFFFF" d="M353.353,243.405c4.993-4.994,7.646-11.669,7.646-18.463c0-3.354-0.646-6.747-1.983-9.981
	c-4.047-9.757-13.564-16.112-24.119-16.112h-26.093v-78.297c0-14.417-11.692-26.102-26.109-26.102H178.304
	c-14.425,0-26.109,11.685-26.109,26.102v78.297h-26.094c-10.563,0-20.08,6.364-24.118,16.112c-1.339,3.234-1.983,6.62-1.983,9.981
	c0,6.794,2.652,13.469,7.646,18.463l104.397,104.398c4.892,4.891,11.533,7.646,18.456,7.646c6.921,0,13.564-2.756,18.454-7.646
	L353.353,243.405z"/>
</svg>
