<?xml version="1.0" encoding="utf-8"?>
<!-- Generator: Adobe Illustrator 16.0.0, SVG Export Plug-In . SVG Version: 6.00 Build 0)  -->
<!DOCTYPE svg PUBLIC "-//W3C//DTD SVG 1.1//EN" "http://www.w3.org/Graphics/SVG/1.1/DTD/svg11.dtd">
<svg version="1.1" id="Capa_1" xmlns="http://www.w3.org/2000/svg" xmlns:xlink="http://www.w3.org/1999/xlink" x="0px" y="0px"
	 width="448px" height="400.9px" viewBox="0 0 448 400.9" enable-background="new 0 0 448 400.9" xml:space="preserve">
<path fill="#FFFFFF" d="M107.646,183.495c-4.994,4.994-7.646,11.669-7.646,18.463c0,3.354,0.646,6.747,1.983,9.981
	c4.046,9.757,13.564,16.112,24.119,16.112h26.093v78.297c0,14.417,11.692,26.102,26.109,26.102h104.391
	c14.425,0,26.109-11.685,26.109-26.102v-78.297h26.094c10.563,0,20.08-6.364,24.118-16.112c1.339-3.234,1.983-6.62,1.983-9.981
	c0-6.794-2.652-13.469-7.646-18.463L248.955,79.097c-4.892-4.891-11.533-7.646-18.456-7.646c-6.921,0-13.564,2.756-18.455,7.646
	L107.646,183.495z"/>
</svg>
