<?xml version="1.0" encoding="utf-8"?>
<!-- Generator: Adobe Illustrator 16.0.0, SVG Export Plug-In . SVG Version: 6.00 Build 0)  -->
<!DOCTYPE svg PUBLIC "-//W3C//DTD SVG 1.1//EN" "http://www.w3.org/Graphics/SVG/1.1/DTD/svg11.dtd">
<svg version="1.1" id="Capa_1" xmlns="http://www.w3.org/2000/svg" xmlns:xlink="http://www.w3.org/1999/xlink" x="0px" y="0px"
	 width="489.11px" height="595.281px" viewBox="49.608 123.305 489.11 595.281"
	 enable-background="new 49.608 123.305 489.11 595.281" xml:space="preserve">
<g>
	<g>
		<path fill="#FFFFFF" d="M496.067,371.338H371.48c-4.118,0-7.962-2.034-10.269-5.481c-2.307-3.398-2.777-7.714-1.239-11.534
			c8.011-20.017,12.079-41.124,12.079-62.752v-93.855c-0.002-41.049-33.387-74.411-74.411-74.411s-74.41,33.361-74.41,74.411v93.856
			c0,21.579,4.067,42.712,12.08,62.752c1.538,3.844,1.066,8.16-1.24,11.534c-2.307,3.423-6.151,5.481-10.268,5.481H99.213
			c-27.357,0-49.605,22.224-49.605,49.606v62.008h496.066v-62.008C545.673,393.563,523.424,371.338,496.067,371.338z
			 M297.64,222.519c-13.667,0-24.803-11.137-24.803-24.803c0-13.692,11.136-24.803,24.803-24.803
			c13.691,0,24.803,11.112,24.803,24.803C322.443,211.382,311.33,222.519,297.64,222.519z M508.468,507.757H86.812
			c-6.846,0-12.402,5.555-12.402,12.401v186.025c0,6.845,5.556,12.401,12.402,12.401h62.008c4.688,0,9.003-2.629,11.087-6.845
			l26.118-52.211v46.655c0,6.845,5.556,12.401,12.402,12.401h148.819v-64.587c0-6.846,5.556-12.402,12.401-12.402
			s12.402,5.556,12.402,12.402v64.587h24.804V610.915c0-6.87,5.555-12.401,12.401-12.401s12.402,5.531,12.402,12.401v107.671h24.803
			V582.167c0-6.846,5.556-12.402,12.402-12.402c6.846,0,12.402,5.556,12.402,12.402v136.418h37.205
			c6.846,0,12.402-5.556,12.402-12.401V520.158C520.869,513.312,515.314,507.757,508.468,507.757z"/>
	</g>
</g>
</svg>
