<?xml version="1.0" encoding="utf-8"?>
<!-- Generator: Adobe Illustrator 16.0.0, SVG Export Plug-In . SVG Version: 6.00 Build 0)  -->
<!DOCTYPE svg PUBLIC "-//W3C//DTD SVG 1.1//EN" "http://www.w3.org/Graphics/SVG/1.1/DTD/svg11.dtd">
<svg version="1.1" id="Layer_1" xmlns="http://www.w3.org/2000/svg" xmlns:xlink="http://www.w3.org/1999/xlink" x="0px" y="0px"
	 width="126.563px" height="124.825px" viewBox="0 0 126.563 124.825" enable-background="new 0 0 126.563 124.825"
	 xml:space="preserve">
<path fill="#333333" d="M87.243,64.108l32.886-32.878c3.954-3.957,3.954-10.363,0-14.325l-9.553-9.548
	c-3.958-3.956-10.372-3.956-14.326,0L63.378,40.242L30.493,7.357c-3.949-3.956-10.363-3.956-14.319,0l-9.548,9.548
	c-3.954,3.949-3.954,10.369,0,14.325l32.886,32.878L6.625,96.995c-3.954,3.955-3.954,10.369,0,14.323l9.548,9.54
	c3.957,3.956,10.371,3.956,14.319,0l32.885-32.886l32.872,32.886c3.954,3.956,10.368,3.956,14.326,0l9.553-9.54
	c3.954-3.969,3.954-10.368,0-14.338L87.243,64.108z"/>
</svg>
