<?xml version="1.0" encoding="utf-8"?>
<!-- Generator: Adobe Illustrator 16.0.0, SVG Export Plug-In . SVG Version: 6.00 Build 0)  -->
<!DOCTYPE svg PUBLIC "-//W3C//DTD SVG 1.1//EN" "http://www.w3.org/Graphics/SVG/1.1/DTD/svg11.dtd">
<svg version="1.1" id="Capa_1" xmlns="http://www.w3.org/2000/svg" xmlns:xlink="http://www.w3.org/1999/xlink" x="0px" y="0px"
	 width="595.279px" height="595.281px" viewBox="0 0 595.279 595.281" enable-background="new 0 0 595.279 595.281"
	 xml:space="preserve">
<g>
	<g id="Layer_5_45_">
		<g>
			<g>
				<path fill="#FFFFFF" d="M215.643,366.534c0,9.469-7.749,17.218-17.22,17.218h-71.171c-9.47,0-17.219-7.749-17.219-17.218v-78.06
					c0-9.469,7.749-17.217,17.219-17.217h71.171c9.472,0,17.22,7.748,17.22,17.217V366.534z"/>
			</g>
			<g>
				<path fill="#FFFFFF" d="M342.2,366.534c0,9.469-7.749,17.218-17.219,17.218h-71.17c-9.472,0-17.22-7.749-17.22-17.218V247.149
					c0-9.469,7.749-17.218,17.22-17.218h71.17c9.47,0,17.219,7.749,17.219,17.218V366.534z"/>
			</g>
			<g>
				<path fill="#FFFFFF" d="M468.759,366.534c0,9.469-7.747,17.218-17.221,17.218h-71.171c-9.469,0-17.218-7.749-17.218-17.218
					V201.233c0-9.47,7.749-17.219,17.218-17.219h71.171c9.474,0,17.221,7.749,17.221,17.219V366.534z"/>
			</g>
		</g>
	</g>
</g>
<g>
	<path fill="#933EC5" d="M332.438,340.158l-6.719-9.405c-1.345-2.689-2.688-4.032-2.688-6.72v-12.094V184.276
		c0-4.032-2.688-6.719-6.718-6.719h-40.315c-4.032,0-6.72,2.688-6.72,6.719v127.664v12.094c0,2.688-1.344,5.376-2.687,6.72
		l-6.719,9.405l-43.002,68.535c-2.688,4.032,0,10.752,5.375,10.752H368.72c5.377,0,8.064-5.377,5.377-10.752L332.438,340.158z"/>
	<path fill="#933EC5" d="M297.499,2.86C133.553,2.86,1.859,134.554,1.859,298.5c0,163.946,131.694,295.641,295.64,295.641
		c163.945,0,295.641-131.694,295.641-295.641C593.139,134.554,461.444,2.86,297.499,2.86z M458.757,451.696
		c-2.688,12.093-14.781,21.5-26.876,21.5c-49.722,0-217.698,0-266.075,0c-13.438,0-24.19-8.062-26.877-21.5
		c-1.343-8.063,0-14.782,4.032-20.158l75.252-118.256c0-1.343,1.345-2.688,1.345-4.032V182.932c0-4.032-2.688-6.719-6.719-6.719
		h-9.407c-8.062,0-13.437-5.375-13.437-13.439v-26.875c0-8.063,5.375-13.439,13.437-13.439h188.135
		c8.063,0,13.438,5.376,13.438,13.439v26.875c0,8.063-5.376,13.439-13.438,13.439h-6.72c-4.031,0-6.719,2.687-6.719,6.719V309.25
		c0,1.345,1.344,2.689,1.344,4.032l75.254,118.256C458.757,436.914,460.101,444.977,458.757,451.696z"/>
</g>
</svg>
