<?xml version="1.0" encoding="utf-8"?>
<!-- Generator: Adobe Illustrator 16.0.0, SVG Export Plug-In . SVG Version: 6.00 Build 0)  -->
<!DOCTYPE svg PUBLIC "-//W3C//DTD SVG 1.1//EN" "http://www.w3.org/Graphics/SVG/1.1/DTD/svg11.dtd">
<svg version="1.1" id="Capa_1" xmlns="http://www.w3.org/2000/svg" xmlns:xlink="http://www.w3.org/1999/xlink" x="0px" y="0px"
	 width="595.28px" height="503.894px" viewBox="-76.695 67.467 595.28 503.894"
	 enable-background="new -76.695 67.467 595.28 503.894" xml:space="preserve">
<g>
	<g>
		<path fill="#EAEAEA" d="M200.491,67.565l-70.934-0.086c-18.73,0-33.916,15.147-33.928,33.963L95.384,537.31
			c0,18.719,15.16,34,33.928,34l70.885,0.037c18.779,0,33.988-15.209,33.988-33.916l0.23-435.903
			C234.481,82.788,219.259,67.565,200.491,67.565z M193.719,521.05l-57.547,0.063c-6.555,0-11.92-5.354-11.92-11.908
			c0.012-6.553,5.344-11.92,11.932-11.92l57.561,0.074c6.541,0,11.896,5.355,11.896,11.896
			C205.639,515.818,200.309,521.05,193.719,521.05z M193.782,179.909l-57.547-0.036c-6.555,0-11.92-5.354-11.92-11.92
			s5.365-11.907,11.92-11.907l57.547-0.063c6.555,0,11.896,5.465,11.896,12.018C205.651,174.542,200.333,179.909,193.782,179.909z"
			/>
		<path fill="#EAEAEA" d="M28.364,67.552l-70.849-0.085c-18.767,0-33.987,15.147-34.024,33.963l-0.184,435.893
			c-0.051,18.719,15.146,34,33.877,34l70.86,0.037c18.793,0,34.025-15.209,34.051-33.916l0.184-435.902
			C62.327,82.774,47.143,67.552,28.364,67.552z M21.663,521.05l-57.572,0.063c-6.527,0-11.906-5.354-11.906-11.908
			c0.036-6.553,5.354-11.92,11.92-11.92l57.558,0.074c6.555,0,11.873,5.355,11.873,11.896
			C33.546,515.818,28.204,521.05,21.663,521.05z M21.663,179.909l-57.522-0.036c-6.541,0-11.885-5.354-11.885-11.92
			s5.344-11.907,11.885-11.907l57.522-0.063c6.564,0,11.883,5.465,11.883,12.018C33.546,174.542,28.204,179.909,21.663,179.909z"/>
		<path fill="#EAEAEA" d="M296.942,115.368c-2.348-10.809-13.008-17.667-23.828-15.295c-10.809,2.348-17.654,13.021-15.307,23.829
			l93.232,427.468c2.35,10.809,13.021,17.654,23.828,15.318c10.811-2.359,17.668-13.031,15.309-23.84L296.942,115.368z"/>
		<path fill="#EAEAEA" d="M518.122,514.937L424.887,87.458c-2.348-10.809-13.021-17.655-23.828-15.295
			c-10.811,2.359-17.668,13.021-15.307,23.829l93.234,427.481c2.348,10.809,13.021,17.643,23.828,15.295
			C513.612,536.406,520.481,525.744,518.122,514.937z"/>
		<path fill="#EAEAEA" d="M330.772,96.958c-1.088-4.988-6.002-8.155-10.992-7.066c-4.988,1.089-8.154,6.015-7.064,11.004
			l97.818,448.545c1.102,4.986,6.016,8.143,10.992,7.066c5.002-1.104,8.154-6.027,7.066-11.006L330.772,96.958z"/>
		<path fill="#EAEAEA" d="M362.866,89.95c-1.088-4.987-6.002-8.154-10.992-7.065c-4.975,1.087-8.143,6.015-7.064,10.991
			l97.832,448.559c1.088,4.975,6.002,8.143,10.992,7.041c4.986-1.088,8.154-6.002,7.053-10.992L362.866,89.95z"/>
	</g>
</g>
</svg>
