<?xml version="1.0" encoding="utf-8"?>
<!-- Generator: Adobe Illustrator 16.0.0, SVG Export Plug-In . SVG Version: 6.00 Build 0)  -->
<!DOCTYPE svg PUBLIC "-//W3C//DTD SVG 1.1//EN" "http://www.w3.org/Graphics/SVG/1.1/DTD/svg11.dtd">
<svg version="1.1" id="Capa_1" xmlns="http://www.w3.org/2000/svg" xmlns:xlink="http://www.w3.org/1999/xlink" x="0px" y="0px"
	 width="442.789px" height="565.972px" viewBox="123.183 0 442.789 565.972" enable-background="new 123.183 0 442.789 565.972"
	 xml:space="preserve">
<g>
	<g>
		<path fill="#EAEAEA" d="M166.453,323.893c-14.946,5.154-29.371,13.324-43.27,24.476c6.738,16.842,14.737,31.371,24.003,43.574
			c9.266,12.227,18.844,21.541,28.739,27.955c9.903,6.426,20.319,11.328,31.268,14.682c10.949,3.379,21.635,4.898,32.057,4.59
			c10.423-0.318,20.582-1.205,30.478-2.686c9.902-1.469,19.004-3.789,27.32-6.947c8.323-3.158,15.637-6.059,21.952-8.684
			s11.163-4.994,14.529-7.105l5.367-3.158c23.795,48,54.271,85.834,91.433,113.533c37.161,27.688,77.638,41.627,121.434,41.848
			c4.002,0,7.375-1.363,10.104-4.105c2.741-2.742,4.106-6.107,4.106-10.104c0-4.008-1.364-7.332-4.106-9.945
			c-2.729-2.637-6.102-3.947-10.104-3.947c-36.427-0.227-70.374-11.535-101.855-33.953c-31.475-22.43-57.956-53.428-79.431-93.018
			c7.575,2.955,15.151,5.379,22.734,7.264c7.576,1.896,16.316,3.268,26.212,4.105c9.902,0.852,19.479,0.582,28.739-0.787
			c9.267-1.359,19.059-4.371,29.37-9.01c10.318-4.627,20.006-10.832,29.051-18.629c9.058-7.785,17.956-18.323,26.689-31.586
			c8.738-13.262,16.585-28.635,23.531-46.114c-24.01-9.884-46.536-15.888-67.59-17.999c-21.053-2.1-38.69-1.311-52.9,2.369
			c-14.211,3.691-27.32,9.633-39.321,17.852c-12.001,8.201-21.316,16.322-27.95,24.314c-6.634,8.006-12.583,16.641-17.846,25.895
			c-11.156-27.572-19.473-58.207-24.951-91.911c1.476,0.221,3.373,0.484,5.687,0.79c2.318,0.319,7.216,0.594,14.688,0.79
			c7.479,0.22,14.799,0.159,21.953-0.147c7.16-0.319,15.741-1.371,25.741-3.158s19.32-4.205,27.95-7.265
			c8.635-3.048,17.479-7.522,26.529-13.421c9.053-5.894,16.947-12.73,23.686-20.527c6.744-7.784,12.478-17.735,17.215-29.841
			c4.737-12.106,7.736-25.527,8.997-40.27c-14.737-5.9-28.789-9.737-42.161-11.536c-13.373-1.793-25.215-1.683-35.533,0.318
			c-10.312,1.995-20,5.153-29.058,9.474c-9.051,4.315-16.787,9.584-23.213,15.79c-6.42,6.217-12.32,12.631-17.688,19.259
			c-5.367,6.64-9.786,13.274-13.262,19.902c-3.47,6.64-6.366,12.534-8.686,17.693c-2.313,5.16-3.996,9.315-5.055,12.473
			l-1.261,5.055c-2.528-25.685-3.788-46.211-3.788-61.585c1.683-1.273,3.947-2.95,6.787-5.062
			c2.846-2.099,8.005-6.787,15.477-14.051c7.479-7.265,14.162-14.792,20.057-22.589c5.899-7.785,11.585-17.571,17.057-29.364
			c5.477-11.794,8.953-23.642,10.422-35.533c1.474-11.897,0.213-25.269-3.789-40.123C381.001,28.893,373.633,14.321,362.892,0
			c-15.367,5.27-28.795,11.744-40.268,19.419c-11.474,7.687-20.373,15.747-26.689,24.168c-6.314,8.421-11.37,17.368-15.158,26.842
			c-3.788,9.474-5.949,18.85-6.476,28.103c-0.521,9.265-0.472,18.274,0.159,27.007c0.629,8.746,2.001,16.794,4.106,24.156
			c2.104,7.375,4.101,13.905,5.996,19.578c1.892,5.685,3.685,10.116,5.367,13.274l2.21,4.737c-0.208,1.047-0.317,6.365-0.317,15.937
			c0,9.584,0.109,17.124,0.317,22.589c-0.631-1.469-1.683-3.421-3.157-5.851c-1.476-2.417-4.683-6.94-9.634-13.58
			c-4.944-6.628-10.263-12.736-15.948-18.312c-5.686-5.581-13.157-11.426-22.424-17.534c-9.265-6.107-18.892-10.795-28.898-14.051
			c-10-3.256-21.793-4.786-35.373-4.59c-13.58,0.226-27.529,2.754-41.849,7.588c0.429,16.42,2.687,31.322,6.793,44.682
			c4.101,13.373,9.369,24.376,15.79,32.999c6.42,8.636,13.732,16.175,21.945,22.589c8.213,6.432,16.793,11.218,25.74,14.376
			c8.948,3.159,17.84,5.68,26.684,7.577c8.845,1.904,17.266,2.901,25.265,3c8.004,0.115,15.108,0,21.314-0.307
			c6.218-0.324,11.108-0.789,14.688-1.432l5.367-0.937c4.847,30.943,12.527,60.748,23.054,89.371
			c-1.267-1.463-3.159-3.402-5.687-5.832c-2.527-2.424-7.741-6.738-15.637-12.956c-7.895-6.206-16.053-11.731-24.474-16.579
			c-8.421-4.835-18.899-9.254-31.427-13.263c-12.527-3.996-24.896-6.095-37.111-6.315
			C194.954,316.246,181.373,318.724,166.453,323.893z"/>
	</g>
</g>
</svg>
