<?xml version="1.0" encoding="utf-8"?>
<!-- Generator: Adobe Illustrator 16.0.0, SVG Export Plug-In . SVG Version: 6.00 Build 0)  -->
<!DOCTYPE svg PUBLIC "-//W3C//DTD SVG 1.1//EN" "http://www.w3.org/Graphics/SVG/1.1/DTD/svg11.dtd">
<svg version="1.1" id="Capa_1" xmlns="http://www.w3.org/2000/svg" xmlns:xlink="http://www.w3.org/1999/xlink" x="0px" y="0px"
	 width="595.279px" height="575.441px" viewBox="0 0 595.279 575.441" enable-background="new 0 0 595.279 575.441"
	 xml:space="preserve">
<g>
	<path fill="#EAEAEA" d="M142.451,57.933c8.601,5.317,19.233,9.764,27.042,17.182c14.281,13.573,28.017,26.653,49.525,17.335
		c20.749-8.994,21.352-27.558,21.264-46.676c-0.146-30.432,13.415-43.78,43.431-43.933c10.948-0.06,21.895-0.108,32.843,0.012
		c26.901,0.293,40.961,14.441,41.471,41.653c0.114,5.971-0.191,11.96,0.188,17.908c0.934,14.623,7.621,25.825,21.4,31.443
		c14.22,5.797,27.302,3.153,38.47-7.672c1.793-1.729,3.542-3.495,5.312-5.245c27.066-26.725,43.965-26.794,70.789-0.311
		c7.432,7.341,15.114,14.449,22.311,22.019c16.713,17.578,16.654,38.226,0.047,55.627c-4.461,4.674-9.22,9.074-13.716,13.72
		c-10.388,10.749-13.318,23.354-7.297,37.026c5.872,13.336,16.251,21.054,31.444,21.072c7.465,0.01,14.967-0.313,22.381,0.28
		c20.365,1.637,33.102,13.976,34.227,34.452c0.904,16.367,0.978,32.879-0.053,49.225c-1.366,21.721-15.158,33.973-37.165,34.689
		c-7.458,0.246-14.94-0.099-22.384,0.32c-13.817,0.782-23.193,8.438-28.69,20.597c-5.636,12.455-3.808,24.428,5.114,34.807
		c5.17,6.024,11.31,11.203,16.669,17.08c15.346,16.817,15.61,37.063,0.205,53.525c-10.529,11.254-21.532,22.118-32.904,32.521
		c-15.432,14.112-35.643,14.019-51.283,0.273c-5.967-5.253-11.37-11.149-17.299-16.45c-10.691-9.558-23.298-11.389-36.2-6.286
		c-13.712,5.424-20.814,16.538-21.653,31.25c-0.479,8.438,0.174,16.951-0.474,25.36c-1.477,19.221-15.794,33.385-34.993,34.142
		c-15.396,0.612-30.855,0.544-46.268,0.064c-20.124-0.618-34.215-14.327-35.99-34.684c-0.817-9.395-0.362-18.899-1.189-28.3
		c-1.213-13.709-9.033-23.243-21.529-27.995c-12.357-4.688-24.571-3.4-34.924,5.777c-5.951,5.278-11.378,11.145-17.31,16.439
		c-15.993,14.263-36.814,14.292-52.432-0.257c-10.919-10.164-21.571-20.655-31.848-31.465c-16.091-16.929-15.841-37.228,0.28-54.494
		c4.752-5.091,9.98-9.737,14.695-14.863c9.721-10.567,11.957-23.075,6.519-36.009c-5.362-12.748-15.275-20.713-29.812-21.237
		c-7.954-0.298-15.94,0.141-23.874-0.386c-23.433-1.556-37.258-16.128-37.661-39.61c-0.222-12.935-0.21-25.875-0.003-38.811
		c0.368-22.93,13.38-37.326,36.104-39.56c7.896-0.775,15.908-0.364,23.868-0.397c15.226-0.056,25.669-7.905,31.357-21.219
		c5.508-12.895,3.289-25.432-6.417-36.024c-5.708-6.233-12.044-11.912-17.543-18.316c-11.549-13.444-13.395-32.442-2.222-45.203
		c13.057-14.908,27.655-28.603,42.646-41.597C124.071,62.265,132.442,61.498,142.451,57.933z M417.947,288.618
		c0.149-65.726-52.359-118.981-117.783-119.467c-66.808-0.499-121.244,53.508-120.751,119.81
		c0.488,65.383,53.718,118.629,118.853,118.884C364.277,408.108,417.807,354.775,417.947,288.618z"/>
</g>
</svg>
