<?xml version="1.0" encoding="utf-8"?>
<!-- Generator: Adobe Illustrator 16.0.0, SVG Export Plug-In . SVG Version: 6.00 Build 0)  -->
<!DOCTYPE svg PUBLIC "-//W3C//DTD SVG 1.1//EN" "http://www.w3.org/Graphics/SVG/1.1/DTD/svg11.dtd">
<svg version="1.1" id="Capa_1" xmlns="http://www.w3.org/2000/svg" xmlns:xlink="http://www.w3.org/1999/xlink" x="0px" y="0px"
	 width="595.28px" height="575.44px" viewBox="-76.695 -4.079 595.28 575.44" enable-background="new -76.695 -4.079 595.28 575.44"
	 xml:space="preserve">
<g>
	<circle fill="#EAEAEA" cx="359.844" cy="382.854" r="9.921"/>
	<circle fill="#EAEAEA" cx="379.686" cy="551.517" r="9.922"/>
	<circle fill="#EAEAEA" cx="131.653" cy="472.146" r="9.922"/>
	<circle fill="#EAEAEA" cx="290.394" cy="412.618" r="9.921"/>
	<circle fill="#EAEAEA" cx="439.215" cy="462.225" r="9.921"/>
	<circle fill="#EAEAEA" cx="72.124" cy="551.517" r="9.922"/>
	<path fill="#EAEAEA" d="M92.672,113.975c-18.74-18.731-43.653-29.06-70.153-29.06s-51.412,10.328-70.153,29.06
		c-18.741,18.741-29.06,43.654-29.06,70.164c0,26.5,10.317,51.412,29.06,70.153L106.7,408.63l140.309-140.308L92.672,113.975z"/>
	<path fill="#EAEAEA" d="M489.526,24.981c-18.742-18.741-43.654-29.06-70.154-29.06s-51.411,10.318-70.153,29.06L194.882,179.317
		l140.308,140.308l154.337-154.346c18.741-18.732,29.06-43.645,29.06-70.145S508.267,43.722,489.526,24.981z"/>
	<path fill="#EAEAEA" d="M320.158,343.169c0-21.887-17.799-39.688-39.686-39.688s-39.687,17.801-39.687,39.688
		c0,21.885,17.8,39.684,39.687,39.684S320.158,365.054,320.158,343.169z"/>
	<path fill="#EAEAEA" d="M211.024,382.853c-21.887,0-39.686,17.801-39.686,39.686c0,21.887,17.799,39.686,39.686,39.686
		c21.886,0,39.686-17.799,39.686-39.686C250.708,400.654,232.909,382.853,211.024,382.853z"/>
	<path fill="#EAEAEA" d="M310.237,442.382c-21.887,0-39.686,17.799-39.686,39.686s17.799,39.686,39.686,39.686
		s39.687-17.799,39.687-39.686S332.123,442.382,310.237,442.382z"/>
	<path fill="#EAEAEA" d="M211.024,491.988c-21.887,0-39.686,17.799-39.686,39.686s17.799,39.688,39.686,39.688
		c21.886,0,39.686-17.801,39.686-39.688S232.909,491.988,211.024,491.988z"/>
</g>
</svg>
