<?xml version="1.0" encoding="utf-8"?>
<!-- Generator: Adobe Illustrator 16.0.0, SVG Export Plug-In . SVG Version: 6.00 Build 0)  -->
<!DOCTYPE svg PUBLIC "-//W3C//DTD SVG 1.1//EN" "http://www.w3.org/Graphics/SVG/1.1/DTD/svg11.dtd">
<svg version="1.1" id="Capa_1" xmlns="http://www.w3.org/2000/svg" xmlns:xlink="http://www.w3.org/1999/xlink" x="0px" y="0px"
	 width="39.15px" height="39.301px" viewBox="0 8.699 39.15 39.301" enable-background="new 0 8.699 39.15 39.301"
	 xml:space="preserve">
<g>
	<g>
		<g>
			<path fill="#BB677D" d="M8.489,23.715c-1.841-1.843-1.823-4.846,0.052-6.667c1.824-1.767,4.796-1.715,6.628,0.118l4.093,4.092
				c0.968,0.966,2.53,0.966,3.498,0l1.479-1.476c0.965-0.968,0.965-2.532,0-3.498l-4.16-4.157
				C15.473,7.522,7.986,7.565,3.434,12.208c-4.478,4.564-4.399,12,0.173,16.572l4.066,4.066c0.966,0.968,2.53,0.967,3.498,0
				l1.476-1.477c0.967-0.967,0.966-2.532,0-3.497L8.489,23.715z"/>
			<path fill="#BB677D" d="M35.721,27.77l-4.157-4.158c-0.966-0.966-2.529-0.966-3.497,0l-1.477,1.477
				c-0.965,0.965-0.965,2.533,0,3.498l4.157,4.158c1.843,1.84,1.824,4.844-0.052,6.664c-1.822,1.768-4.795,1.716-6.627-0.116
				L19.976,35.2c-0.967-0.967-2.531-0.967-3.497,0L15,36.678c-0.962,0.965-0.962,2.533,0.002,3.497l4.063,4.064
				c4.576,4.573,12.008,4.652,16.574,0.174C40.289,39.854,40.324,32.373,35.721,27.77z"/>
			<path fill="#BB677D" d="M13.761,20.896l-1.476,1.477c-0.965,0.964-0.965,2.532,0,3.497l9.693,9.693
				c0.967,0.967,2.53,0.967,3.497,0l1.478-1.478c0.966-0.966,0.966-2.53,0-3.496l-9.694-9.693
				C16.294,19.931,14.726,19.931,13.761,20.896z"/>
		</g>
	</g>
</g>
</svg>
