<?xml version="1.0" encoding="utf-8"?>
<!-- Generator: Adobe Illustrator 16.0.0, SVG Export Plug-In . SVG Version: 6.00 Build 0)  -->
<!DOCTYPE svg PUBLIC "-//W3C//DTD SVG 1.1//EN" "http://www.w3.org/Graphics/SVG/1.1/DTD/svg11.dtd">
<svg version="1.1" id="Capa_1" xmlns="http://www.w3.org/2000/svg" xmlns:xlink="http://www.w3.org/1999/xlink" x="0px" y="0px"
	 width="612px" height="612px" viewBox="0 90 612 612" enable-background="new 0 90 612 612" xml:space="preserve">
<g>
	<g id="Delete_1_">
		<g>
			<path fill="#B61008" d="M302.75,89C132.789,89-5,226.79-5,396.75S132.789,704.5,302.75,704.5
				c169.961,0,307.75-137.79,307.75-307.75S472.711,89,302.75,89z M302.75,650.978c-140.401,0-254.229-113.825-254.229-254.228
				c0-140.403,113.828-254.228,254.229-254.228S556.98,256.347,556.98,396.75C556.98,537.152,443.151,650.978,302.75,650.978z
				 M400.491,308.477l-9.461-9.459c-7.842-7.828-20.569-7.828-28.407,0l-59.873,59.877l-59.873-59.877
				c-7.838-7.828-20.568-7.828-28.381,0l-9.488,9.459c-7.813,7.847-7.813,20.555,0,28.395l59.886,59.878l-59.886,59.873
				c-7.813,7.84-7.813,20.554,0,28.38l9.488,9.487c7.813,7.814,20.542,7.814,28.381,0l59.873-59.886l59.873,59.886
				c7.838,7.814,20.565,7.814,28.407,0l9.461-9.487c7.813-7.826,7.813-20.54,0-28.38l-59.887-59.873l59.887-59.878
				C408.305,329.032,408.305,316.324,400.491,308.477z"/>
		</g>
	</g>
</g>
<g>
	<path fill="#B61008" d="M343.68,397.091l69.896-69.888c11.054-11.062,11.054-28.989,0-40.044c-11.055-11.047-28.98-11.047-40.024,0
		l-69.906,69.895l-69.884-69.895c-11.054-11.047-28.995-11.047-40.035,0c-11.055,11.062-11.055,28.99,0,40.044l69.88,69.888
		l-69.88,69.882c-11.055,11.065-11.055,28.98,0,40.05c5.514,5.526,12.765,8.271,20.019,8.271c7.225,0,14.476-2.744,20.016-8.271
		l69.884-69.895l69.906,69.895c5.503,5.526,12.766,8.282,20.005,8.282c7.24,0,14.493-2.756,20.02-8.282
		c11.054-11.069,11.054-28.984,0-40.038L343.68,397.091z"/>
</g>
</svg>
