<?xml version="1.0" encoding="utf-8"?>
<!-- Generator: Adobe Illustrator 16.0.0, SVG Export Plug-In . SVG Version: 6.00 Build 0)  -->
<!DOCTYPE svg PUBLIC "-//W3C//DTD SVG 1.1//EN" "http://www.w3.org/Graphics/SVG/1.1/DTD/svg11.dtd">
<svg version="1.1" id="Layer_1" xmlns="http://www.w3.org/2000/svg" xmlns:xlink="http://www.w3.org/1999/xlink" x="0px" y="0px"
	 width="25.42px" height="34.667px" viewBox="0 0 25.42 34.667" enable-background="new 0 0 25.42 34.667" xml:space="preserve">
<g id="Delete__x2F__Trash">
	<path fill="#999999" d="M3.527,32.312c0,0,0.517,2.354,3.174,2.354h12.017c2.658,0,3.176-2.354,3.176-2.354l2.371-23.067H1.155
		L3.527,32.312z M17.332,12.711c0-0.638,0.519-1.155,1.155-1.155c0.639,0,1.156,0.517,1.156,1.155l-1.156,17.333
		c0,0.639-0.518,1.156-1.155,1.156s-1.155-0.519-1.155-1.156L17.332,12.711z M11.555,12.711c0-0.638,0.517-1.155,1.155-1.155
		c0.639,0,1.156,0.517,1.156,1.155v17.333c0,0.639-0.518,1.156-1.156,1.156c-0.638,0-1.155-0.519-1.155-1.156V12.711L11.555,12.711z
		 M6.933,11.556c0.639,0,1.156,0.517,1.156,1.155l1.156,17.333c0,0.639-0.518,1.156-1.156,1.156c-0.638,0-1.156-0.521-1.156-1.156
		L5.777,12.711C5.777,12.073,6.294,11.556,6.933,11.556z M23.571,4.625h-5.084V2.312C18.487,0.558,17.921,0,16.177,0H9.244
		c-1.6,0-2.312,0.775-2.312,2.312v2.313H1.849C0.827,4.625,0,5.401,0,6.359s0.827,1.733,1.849,1.733h21.722
		c1.021,0,1.849-0.776,1.849-1.733C25.42,5.401,24.595,4.625,23.571,4.625z M16.177,4.625H9.245V2.312h6.932V4.625L16.177,4.625z"/>
</g>
</svg>
