<?xml version="1.0" encoding="utf-8"?>
<!-- Generator: Adobe Illustrator 16.0.0, SVG Export Plug-In . SVG Version: 6.00 Build 0)  -->
<!DOCTYPE svg PUBLIC "-//W3C//DTD SVG 1.1//EN" "http://www.w3.org/Graphics/SVG/1.1/DTD/svg11.dtd">
<svg version="1.1" id="Capa_1" xmlns="http://www.w3.org/2000/svg" xmlns:xlink="http://www.w3.org/1999/xlink" x="0px" y="0px"
	 width="612px" height="612px" viewBox="0 90 612 612" enable-background="new 0 90 612 612" xml:space="preserve">
<g>
	<g>
		<g>
			<rect x="212.915" y="373.508" fill="#555555" width="236.257" height="47.251"/>
			<path fill="#555555" d="M307.654,609.766H71.161c-13.018,0-23.626-10.608-23.626-23.626V184.503h472.514v199.283
				c9.781-4.796,20.483-7.607,31.729-7.607c5.292,0,10.466,0.662,15.521,1.772V160.877C567.3,121.729,535.547,90,496.423,90H71.161
				c-39.124,0-70.877,31.729-70.877,70.877V586.14c0,39.124,31.753,70.877,70.877,70.877h222.672L307.654,609.766z"/>
			<rect x="212.915" y="279.005" fill="#555555" width="236.257" height="47.251"/>
			<polygon fill="#555555" points="212.915,515.263 380.563,515.263 428.051,468.011 212.915,468.011 			"/>
			<rect x="118.412" y="373.508" fill="#555555" width="47.251" height="47.251"/>
			<rect x="118.412" y="279.005" fill="#555555" width="47.251" height="47.251"/>
			<rect x="118.412" y="468.011" fill="#555555" width="47.251" height="47.252"/>
		</g>
	</g>
	<g>
		<path fill="#555555" d="M604.251,466.452l-35.841-35.911c-9.875-9.946-25.846-10.018-35.604-0.213l-28.823,29.013l71.586,71.893
			l28.847-29.036C614.221,492.393,614.15,476.375,604.251,466.452z"/>
		<path fill="#555555" d="M362.82,598c-1.583,1.299-2.93,2.905-3.544,5.032l-24.973,85.406c-1.11,3.71-0.071,7.726,2.646,10.467
			c2.032,2.008,4.726,3.095,7.49,3.095c0.992,0,2.008-0.142,2.977-0.449l85.1-25.09c1.984-0.567,3.521-1.796,4.819-3.261
			l116.688-116.12l-74.728-75.012L362.82,598z M374.137,671.617l-9.971-10.041l14.152-48.361l36.194,7.466l7.159,36.903
			L374.137,671.617z"/>
	</g>
</g>
</svg>
