<?xml version="1.0" encoding="utf-8"?>
<!-- Generator: Adobe Illustrator 16.0.0, SVG Export Plug-In . SVG Version: 6.00 Build 0)  -->
<!DOCTYPE svg PUBLIC "-//W3C//DTD SVG 1.1//EN" "http://www.w3.org/Graphics/SVG/1.1/DTD/svg11.dtd">
<svg version="1.1" id="Layer_1" xmlns="http://www.w3.org/2000/svg" xmlns:xlink="http://www.w3.org/1999/xlink" x="0px" y="0px"
	 width="595.279px" height="468.085px" viewBox="0 0 595.279 468.085" enable-background="new 0 0 595.279 468.085"
	 xml:space="preserve">
<g id="Capa_1" display="none">
	<path display="inline" fill="#777777" d="M173.415,217.658V624.23c0,47.594-36.982,86.313-82.444,86.313h-8.521
		C36.987,710.544,0,671.826,0,624.228v-406.57c0-47.59,36.986-86.313,82.448-86.313h8.521
		C136.432,131.345,173.415,170.068,173.415,217.658z M595.28,243.766v349.271c0,37.391-30.42,67.811-67.813,67.811H217.559
		c-8.075,0-14.618-6.543-14.618-14.617V195.661c0-8.075,6.543-14.618,14.618-14.618h314.996
		C567.141,181.043,595.28,209.18,595.28,243.766z M323.32,563.878c0-10.324-8.368-18.691-18.69-18.691s-18.689,8.367-18.689,18.691
		c0,10.322,8.367,18.689,18.689,18.689C314.951,582.568,323.32,574.201,323.32,563.878z M323.32,479.847
		c0-10.322-8.368-18.689-18.69-18.689s-18.689,8.367-18.689,18.689c0,10.324,8.367,18.691,18.689,18.691
		C314.951,498.539,323.32,490.171,323.32,479.847z M323.32,395.818c0-10.322-8.368-18.689-18.69-18.689s-18.689,8.367-18.689,18.689
		s8.367,18.689,18.689,18.689C314.951,414.509,323.32,406.142,323.32,395.818z M417.979,563.878c0-10.324-8.367-18.691-18.69-18.691
		c-10.322,0-18.689,8.367-18.689,18.691c0,10.322,8.367,18.689,18.689,18.689C409.612,582.568,417.979,574.201,417.979,563.878z
		 M417.979,479.847c0-10.322-8.367-18.689-18.69-18.689c-10.322,0-18.689,8.367-18.689,18.689c0,10.324,8.367,18.691,18.689,18.691
		C409.612,498.539,417.979,490.171,417.979,479.847z M417.979,395.818c0-10.322-8.367-18.689-18.69-18.689
		c-10.322,0-18.689,8.367-18.689,18.689s8.367,18.689,18.689,18.689C409.612,414.507,417.979,406.142,417.979,395.818z
		 M512.639,563.878c0-10.324-8.367-18.691-18.69-18.691s-18.689,8.367-18.689,18.691c0,10.322,8.366,18.689,18.689,18.689
		S512.639,574.201,512.639,563.878z M512.639,479.847c0-10.322-8.367-18.689-18.69-18.689s-18.689,8.367-18.689,18.689
		c0,10.324,8.366,18.691,18.689,18.691S512.639,490.171,512.639,479.847z M512.639,395.818c0-10.322-8.367-18.689-18.69-18.689
		s-18.689,8.367-18.689,18.689s8.366,18.689,18.689,18.689S512.639,406.142,512.639,395.818z M546.76,262.237
		c0-16.991-13.825-30.815-30.814-30.815H266.078c-8.075,0-14.618,6.542-14.618,14.619v55.832c0,8.074,6.543,14.617,14.618,14.617
		h266.063c8.075,0,14.618-6.543,14.618-14.617L546.76,262.237L546.76,262.237z"/>
</g>
<g>
	<g>
		<path fill="#999999" d="M297.639,320.427l-73.645-64.461L13.436,436.464c7.653,7.1,17.985,11.521,29.381,11.521h509.645
			c11.354,0,21.643-4.422,29.254-11.521L371.284,255.966L297.639,320.427z"/>
		<path fill="#999999" d="M581.844,34.31c-7.654-7.144-17.943-11.523-29.382-11.523H42.817c-11.353,0-21.643,4.422-29.296,11.608
			l284.118,243.511L581.844,34.31z"/>
		<polygon fill="#999999" points="0,60.12 0,413.375 205.499,238.746 		"/>
		<polygon fill="#999999" points="389.78,238.746 595.279,413.375 595.279,59.992 		"/>
	</g>
</g>
</svg>
