<?xml version="1.0" encoding="utf-8"?>
<!-- Generator: Adobe Illustrator 16.0.0, SVG Export Plug-In . SVG Version: 6.00 Build 0)  -->
<!DOCTYPE svg PUBLIC "-//W3C//DTD SVG 1.1//EN" "http://www.w3.org/Graphics/SVG/1.1/DTD/svg11.dtd">
<svg version="1.1" id="Capa_1" xmlns="http://www.w3.org/2000/svg" xmlns:xlink="http://www.w3.org/1999/xlink" x="0px" y="0px"
	 width="595.279px" height="766.606px" viewBox="0 33.842 595.279 766.606" enable-background="new 0 33.842 595.279 766.606"
	 xml:space="preserve">
<g>
	<path fill="#E9E9E0" d="M393.151,123.305H84.647c-8.589,0-15.552,6.963-15.552,20.474v564.177c0,3.668,6.963,10.63,15.552,10.63
		h425.986c8.589,0,15.552-6.962,15.552-10.63V261.261c0-7.398-0.988-9.78-2.731-11.534l-123.691-123.69
		C398.008,124.293,395.627,123.305,393.151,123.305z"/>
	<polygon fill="#D9D7CA" points="398.625,124.91 398.625,250.865 524.58,250.865 	"/>
	<path fill="#9777A8" d="M510.633,718.585H84.647c-8.589,0-15.552-6.962-15.552-15.552V537.875h457.09v165.158
		C526.185,711.623,519.222,718.585,510.633,718.585z"/>
	<g>
		<path fill="#FFFFFF" d="M180.933,577.408v83.424c0,5.039-0.925,9.28-2.764,12.714s-4.305,6.197-7.409,8.28
			c-3.104,2.084-6.665,3.54-10.683,4.358c-4.019,0.819-8.164,1.233-12.427,1.233c-2.126,0-4.635-0.223-7.483-0.659
			c-2.849-0.436-5.814-1.105-8.865-2.03s-5.985-1.967-8.791-3.125c-2.807-1.159-5.177-2.466-7.122-3.923l7.409-11.767
			c0.967,0.669,2.349,1.382,4.146,2.104s3.763,1.403,5.889,2.03s4.358,1.18,6.687,1.669s4.507,0.723,6.537,0.723
			c5.135,0,9.228-0.999,12.278-2.977c3.051-1.977,4.666-5.357,4.868-10.099v-81.968h17.73V577.408z"/>
		<path fill="#FFFFFF" d="M267.706,657.335c0,3.869-0.798,7.633-2.402,11.268c-1.605,3.636-3.849,6.836-6.761,9.589
			c-2.913,2.753-6.484,4.964-10.758,6.611c-4.273,1.648-9.1,2.467-14.531,2.467c-2.328,0-4.72-0.128-7.196-0.361
			c-2.477-0.234-4.965-0.659-7.483-1.233c-2.52-0.585-4.922-1.382-7.197-2.402c-2.274-1.021-4.23-2.254-5.889-3.71l3.051-12.501
			c1.36,0.776,3.072,1.53,5.155,2.254c2.084,0.723,4.231,1.403,6.464,2.03c2.231,0.627,4.453,1.137,6.686,1.53
			s4.306,0.585,6.251,0.585c5.91,0,10.438-1.382,13.585-4.146s4.72-6.856,4.72-12.278c0-3.295-1.105-6.102-3.338-8.429
			c-2.232-2.328-5.018-4.434-8.355-6.325c-3.338-1.893-6.952-3.773-10.832-5.666c-3.88-1.892-7.505-4.124-10.896-6.687
			c-3.391-2.562-6.197-5.591-8.43-9.078c-2.232-3.486-3.338-7.845-3.338-13.074c0-4.741,0.872-8.961,2.615-12.64
			c1.743-3.678,4.093-6.813,7.048-9.375c2.955-2.563,6.399-4.528,10.321-5.89c3.923-1.36,8.068-2.03,12.427-2.03
			c4.454,0,8.961,0.415,13.511,1.233s8.228,2.158,11.045,3.997c-0.585,1.254-1.255,2.636-2.03,4.146
			c-0.776,1.51-1.51,2.902-2.18,4.209c-0.67,1.308-1.254,2.402-1.743,3.274s-0.776,1.36-0.872,1.456
			c-0.584-0.287-1.232-0.669-1.966-1.158s-1.765-0.968-3.126-1.456c-1.36-0.489-3.146-0.819-5.378-1.021
			c-2.232-0.202-5.092-0.149-8.579,0.148c-1.945,0.202-3.773,0.744-5.527,1.669s-3.295,2.052-4.656,3.412
			c-1.36,1.36-2.423,2.881-3.199,4.582c-0.776,1.7-1.159,3.327-1.159,4.868c0,3.869,1.106,6.994,3.338,9.376
			c2.232,2.381,4.996,4.453,8.281,6.25c3.284,1.797,6.878,3.54,10.758,5.23c3.88,1.689,7.483,3.763,10.832,6.176
			c3.348,2.413,6.122,5.453,8.354,9.078S267.706,651.616,267.706,657.335z"/>
		<path fill="#FFFFFF" d="M372.921,632.631c0,9.015-1.137,16.955-3.412,23.833c-2.274,6.877-5.432,12.597-9.45,17.146
			c-4.018,4.55-8.716,7.994-14.095,10.322s-11.268,3.486-17.656,3.486s-12.278-1.158-17.657-3.486
			c-5.378-2.328-10.076-5.762-14.095-10.322c-4.019-4.56-7.175-10.269-9.45-17.146c-2.274-6.878-3.412-14.829-3.412-23.833
			s1.138-16.934,3.412-23.758c2.275-6.824,5.432-12.522,9.45-17.072c4.019-4.549,8.717-8.015,14.095-10.396
			c5.379-2.382,11.269-3.562,17.657-3.562s12.277,1.18,17.656,3.562c5.379,2.381,10.077,5.836,14.095,10.396
			c4.019,4.561,7.176,10.248,9.45,17.072C371.784,615.697,372.921,623.617,372.921,632.631z M327.871,673.185
			c3.583,0,6.995-0.702,10.248-2.104c3.252-1.403,6.154-3.71,8.716-6.899c2.563-3.188,4.582-7.388,6.027-12.575
			c1.446-5.188,2.232-11.502,2.328-18.964c-0.096-7.271-0.851-13.447-2.254-18.528c-1.402-5.081-3.337-9.279-5.814-12.575
			c-2.477-3.295-5.283-5.666-8.43-7.122s-6.463-2.179-9.96-2.179c-3.582,0-6.994,0.669-10.247,2.03
			c-3.253,1.36-6.155,3.656-8.717,6.898s-4.581,7.431-6.027,12.575c-1.456,5.135-2.232,11.428-2.328,18.89
			c0.096,7.271,0.851,13.469,2.254,18.603c1.403,5.135,3.338,9.322,5.814,12.575s5.283,5.613,8.43,7.122
			C321.058,672.44,324.385,673.185,327.871,673.185z"/>
		<path fill="#FFFFFF" d="M474.948,579.587v107.108h-17.731l-41.999-73.825v73.825h-17.73V579.587h17.73l41.999,73.826v-73.826
			H474.948z"/>
	</g>
	<g>
		<path fill="#9777A8" d="M207.285,325.275v-42.52c0-5.857,4.762-10.63,10.63-10.63c5.878,0,10.63-4.762,10.63-10.63
			c0-5.868-4.752-10.63-10.63-10.63c-17.582,0-31.891,14.308-31.891,31.89v42.52c0,11.725-9.535,21.26-21.26,21.26
			c-5.878,0-10.63,4.762-10.63,10.63s4.752,10.63,10.63,10.63c11.725,0,21.26,9.535,21.26,21.26v42.52
			c0,17.582,14.309,31.89,31.891,31.89c5.878,0,10.63-4.762,10.63-10.63c0-5.867-4.752-10.63-10.63-10.63
			c-5.868,0-10.63-4.772-10.63-10.63v-42.52c0-12.756-5.762-24.088-14.691-31.89C201.524,349.363,207.285,338.031,207.285,325.275z"
			/>
		<circle fill="#9777A8" cx="292.325" cy="319.96" r="15.945"/>
		<path fill="#9777A8" d="M419.885,346.535c-11.725,0-21.26-9.535-21.26-21.26v-42.52c0-17.582-14.309-31.89-31.891-31.89
			c-5.878,0-10.63,4.762-10.63,10.63c0,5.868,4.752,10.63,10.63,10.63c5.868,0,10.63,4.773,10.63,10.63v42.52
			c0,12.756,5.762,24.088,14.691,31.89c-8.93,7.802-14.691,19.134-14.691,31.89v42.52c0,5.857-4.762,10.63-10.63,10.63
			c-5.878,0-10.63,4.763-10.63,10.63c0,5.868,4.752,10.63,10.63,10.63c17.582,0,31.891-14.308,31.891-31.89v-42.52
			c0-11.725,9.535-21.26,21.26-21.26c5.878,0,10.63-4.762,10.63-10.63S425.763,346.535,419.885,346.535z"/>
		<path fill="#9777A8" d="M292.325,378.425c-5.879,0-10.63,4.763-10.63,10.63v31.89c0,5.867,4.751,10.63,10.63,10.63
			c5.878,0,10.63-4.763,10.63-10.63v-31.89C302.955,383.188,298.203,378.425,292.325,378.425z"/>
	</g>
</g>
<g>
	<path fill="#E9E9E0" d="M423.559,33.842H26.265c-11.062,0-20.028,8.967-20.028,26.366v726.55c0,4.725,8.967,13.69,20.028,13.69
		h548.588c11.06,0,20.026-8.966,20.026-13.69V211.501c0-9.527-1.271-12.594-3.518-14.853L432.073,37.36
		C429.814,35.114,426.747,33.842,423.559,33.842z"/>
	<polygon fill="#D9D7CA" points="430.609,35.908 430.609,198.114 592.814,198.114 	"/>
	<path fill="#0096E6" d="M574.854,800.446H26.265c-11.062,0-20.028-8.964-20.028-20.025V567.728H594.88v212.693
		C594.88,791.482,585.913,800.446,574.854,800.446z"/>
	<g>
		<path fill="#FFFFFF" d="M336.07,715.989c0,4.983-1.024,9.828-3.093,14.512c-2.066,4.683-4.955,8.804-8.705,12.349
			c-3.753,3.547-8.365,6.395-13.856,8.513c-5.489,2.124-11.729,3.178-18.711,3.178c-2.998,0-6.079-0.165-9.267-0.466
			c-3.192-0.301-6.393-0.848-9.638-1.586c-3.244-0.755-6.338-1.78-9.267-3.094c-2.929-1.315-5.462-2.903-7.584-4.775l3.928-16.101
			c1.74,0.998,3.957,1.969,6.639,2.901c2.684,0.932,5.45,1.807,8.323,2.613c2.863,0.822,5.736,1.468,8.612,1.973
			c2.862,0.493,5.545,0.751,8.05,0.751c7.61,0,13.442-1.778,17.495-5.337c4.054-3.561,6.078-8.832,6.078-15.813
			c0-4.244-1.436-7.857-4.299-10.854c-2.876-2.999-6.461-5.712-10.76-8.146c-4.299-2.438-8.952-4.86-13.951-7.297
			c-4.996-2.436-9.678-5.31-14.031-8.612c-4.367-3.298-7.981-7.199-10.855-11.689c-2.875-4.489-4.299-10.103-4.299-16.838
			c0-6.105,1.122-11.539,3.366-16.277c2.246-4.736,5.273-8.773,9.076-12.073c3.806-3.299,8.242-5.829,13.292-7.587
			c5.053-1.75,10.391-2.611,16.003-2.611c5.736,0,11.541,0.531,17.4,1.588c5.861,1.053,10.597,2.776,14.224,5.147
			c-0.753,1.615-1.628,3.393-2.615,5.338c-0.997,1.945-1.943,3.736-2.806,5.419c-0.877,1.685-1.63,3.094-2.245,4.219
			c-0.63,1.121-0.999,1.751-1.122,1.873c-0.753-0.369-1.586-0.859-2.532-1.489s-2.285-1.248-4.025-1.876
			c-1.752-0.631-4.052-1.056-6.926-1.315c-2.876-0.259-6.56-0.191-11.047,0.19c-2.506,0.261-4.86,0.96-7.12,2.149
			c-2.258,1.191-4.243,2.644-5.995,4.394c-1.751,1.754-3.122,3.71-4.12,5.901c-0.999,2.177-1.493,4.286-1.493,6.271
			c0,4.982,1.423,9.006,4.299,12.072c2.861,3.066,6.421,5.734,10.664,8.047c4.244,2.314,8.856,4.563,13.854,6.737
			c4.982,2.177,9.636,4.848,13.947,7.954c4.313,3.107,7.887,7.022,10.762,11.69C334.633,702.614,336.07,708.624,336.07,715.989z"/>
		<path fill="#FFFFFF" d="M396.332,754.553L353.47,615.864h25.641l32.005,119.031l33.883-119.031h25.45l-44.914,138.688H396.332z"/>
		<path fill="#FFFFFF" d="M175.827,753.045V632.142h-52.086v-17.028h70.83v137.932H175.827L175.827,753.045z"/>
		<path fill="#FFFFFF" d="M172.677,753.045V615.113h70.065v17.028h-51.523v120.907h-18.542V753.045z"/>
	</g>
	<g>
		<g id="keyboard-tab">
			<path fill="#0096E6" d="M288.946,271.907l70.234,70.234H82.142v39.019h277.037l-70.236,70.235l27.313,27.313l117.059-117.057
				L316.256,244.593L288.946,271.907z M452.826,244.592v234.116h39.02V244.592H452.826z"/>
		</g>
	</g>
</g>
</svg>
