<?xml version="1.0" encoding="utf-8"?>
<!-- Generator: Adobe Illustrator 16.0.0, SVG Export Plug-In . SVG Version: 6.00 Build 0)  -->
<!DOCTYPE svg PUBLIC "-//W3C//DTD SVG 1.1//EN" "http://www.w3.org/Graphics/SVG/1.1/DTD/svg11.dtd">
<svg version="1.1" id="Layer_1" xmlns="http://www.w3.org/2000/svg" xmlns:xlink="http://www.w3.org/1999/xlink" x="0px" y="0px"
	 width="512px" height="512px" viewBox="0 0 512 512" enable-background="new 0 0 512 512" xml:space="preserve">
<g>
	<path fill="#44B259" d="M286.254,292.072l-5.817-8.145c-1.164-2.328-2.328-3.491-2.328-5.818v-10.473V157.091
		c0-3.491-2.327-5.818-5.817-5.818h-34.909c-3.491,0-5.818,2.328-5.818,5.818v110.546v10.473c0,2.327-1.164,4.654-2.327,5.818
		l-5.818,8.145l-37.236,59.346c-2.327,3.491,0,9.31,4.654,9.31h126.836c4.655,0,6.982-4.655,4.655-9.31L286.254,292.072z"/>
	<path fill="#44B259" d="M256,0C114.036,0,0,114.036,0,256s114.036,256,256,256c141.963,0,256-114.036,256-256S397.963,0,256,0z
		 M395.636,388.654c-2.327,10.473-12.8,18.618-23.272,18.618c-43.055,0-188.509,0-230.399,0c-11.637,0-20.946-6.981-23.273-18.618
		c-1.163-6.981,0-12.8,3.491-17.454l65.163-102.4c0-1.163,1.164-2.327,1.164-3.491V155.927c0-3.491-2.327-5.818-5.818-5.818h-8.146
		c-6.981,0-11.636-4.655-11.636-11.637V115.2c0-6.982,4.654-11.637,11.636-11.637h162.909c6.981,0,11.637,4.655,11.637,11.637
		v23.272c0,6.982-4.655,11.637-11.637,11.637h-5.818c-3.491,0-5.818,2.327-5.818,5.818v109.381c0,1.164,1.164,2.328,1.164,3.491
		l65.163,102.4C395.636,375.854,396.8,382.836,395.636,388.654z"/>
</g>
</svg>
