<?xml version="1.0" encoding="utf-8"?>
<!-- Generator: Adobe Illustrator 16.0.0, SVG Export Plug-In . SVG Version: 6.00 Build 0)  -->
<!DOCTYPE svg PUBLIC "-//W3C//DTD SVG 1.1//EN" "http://www.w3.org/Graphics/SVG/1.1/DTD/svg11.dtd">
<svg version="1.1" id="Layer_1" xmlns="http://www.w3.org/2000/svg" xmlns:xlink="http://www.w3.org/1999/xlink" x="0px" y="0px"
	 width="192.023px" height="191.953px" viewBox="0 0 192.023 191.953" enable-background="new 0 0 192.023 191.953"
	 xml:space="preserve">
<g>
	<path fill="#FFFFFF" d="M44.043,18.808c2.881,1.781,6.442,3.27,9.058,5.755c4.783,4.546,9.384,8.927,16.588,5.806
		c6.949-3.012,7.151-9.23,7.122-15.633C76.761,4.543,81.303,0.072,91.357,0.021c3.667-0.02,7.333-0.036,11,0.004
		c9.011,0.098,13.72,4.837,13.891,13.951c0.038,2-0.064,4.006,0.063,5.998c0.313,4.898,2.553,8.65,7.168,10.532
		c4.763,1.941,9.145,1.056,12.885-2.57c0.601-0.579,1.187-1.171,1.779-1.757c9.065-8.951,14.726-8.974,23.71-0.104
		c2.489,2.459,5.063,4.84,7.473,7.375c5.598,5.888,5.578,12.804,0.016,18.632c-1.494,1.566-3.088,3.039-4.594,4.596
		c-3.479,3.6-4.461,7.822-2.444,12.401c1.967,4.467,5.443,7.052,10.532,7.058c2.5,0.003,5.013-0.104,7.496,0.094
		c6.821,0.548,11.087,4.681,11.464,11.539c0.303,5.482,0.327,11.012-0.018,16.488c-0.458,7.275-5.077,11.378-12.448,11.619
		c-2.498,0.082-5.004-0.034-7.497,0.107c-4.628,0.261-7.769,2.826-9.609,6.898c-1.888,4.172-1.275,8.182,1.713,11.657
		c1.731,2.019,3.788,3.753,5.583,5.721c5.14,5.634,5.229,12.415,0.068,17.929c-3.526,3.77-7.212,7.408-11.021,10.893
		c-5.169,4.727-11.938,4.695-17.177,0.091c-1.999-1.759-3.809-3.733-5.794-5.51c-3.581-3.2-7.804-3.813-12.125-2.104
		c-4.593,1.815-6.972,5.539-7.253,10.467c-0.16,2.826,0.059,5.678-0.158,8.494c-0.495,6.438-5.29,11.182-11.721,11.436
		c-5.157,0.204-10.335,0.181-15.497,0.021c-6.74-0.207-11.46-4.799-12.055-11.617c-0.273-3.146-0.121-6.33-0.398-9.479
		c-0.406-4.592-3.025-7.785-7.211-9.376c-4.139-1.57-8.229-1.139-11.697,1.936c-1.993,1.768-3.811,3.732-5.798,5.506
		c-5.356,4.777-12.33,4.787-17.562-0.086c-3.657-3.404-7.225-6.918-10.667-10.539c-5.39-5.67-5.306-12.469,0.094-18.252
		c1.592-1.705,3.343-3.262,4.922-4.979c3.256-3.54,4.005-7.729,2.184-12.061c-1.796-4.271-5.116-6.938-9.985-7.114
		c-2.664-0.099-5.339,0.047-7.996-0.129c-7.849-0.521-12.479-5.402-12.614-13.267c-0.074-4.332-0.07-8.667-0.001-13
		c0.123-7.68,4.481-12.502,12.093-13.25c2.645-0.259,5.328-0.122,7.994-0.133c5.1-0.019,8.598-2.647,10.503-7.107
		c1.845-4.319,1.102-8.518-2.149-12.066c-1.912-2.088-4.034-3.99-5.876-6.135c-3.868-4.503-4.486-10.866-0.744-15.14
		c4.373-4.993,9.263-9.58,14.284-13.932C37.886,20.259,40.69,20.002,44.043,18.808z M136.317,96.073
		c0.05-22.014-17.537-39.851-39.45-40.014C74.49,55.892,56.258,73.981,56.423,96.188c0.163,21.899,17.992,39.734,39.809,39.82
		C118.341,136.095,136.27,118.232,136.317,96.073z"/>
</g>
</svg>
