<?xml version="1.0" encoding="utf-8"?>
<!-- Generator: Adobe Illustrator 16.0.0, SVG Export Plug-In . SVG Version: 6.00 Build 0)  -->
<!DOCTYPE svg PUBLIC "-//W3C//DTD SVG 1.1//EN" "http://www.w3.org/Graphics/SVG/1.1/DTD/svg11.dtd">
<svg version="1.1" id="Capa_1" xmlns="http://www.w3.org/2000/svg" xmlns:xlink="http://www.w3.org/1999/xlink" x="0px" y="0px"
	 width="485.211px" height="485.211px" viewBox="0 0 485.211 485.211" enable-background="new 0 0 485.211 485.211"
	 xml:space="preserve">
<g>
	<path fill="#81709C" d="M394.235,333.586h-30.326c-33.495,0-60.653-27.158-60.653-60.654v-19.484
		c13.418-15.948,23.042-34.812,29.023-54.745c0.621-3.36,3.855-5.02,6.013-7.33c11.61-11.608,13.894-31.2,5.185-45.148
		c-1.186-2.117-3.322-3.953-3.201-6.576c0-17.784,0.089-35.597-0.022-53.366c-0.477-21.455-6.608-43.773-21.65-59.66
		c-12.144-12.836-28.818-20.479-46.021-23.75c-21.739-4.146-44.482-3.937-66.014,1.54c-18.658,4.709-36.188,15.637-47.027,31.836
		c-9.599,14.083-13.804,31.184-14.514,48.036c-0.266,18.094-0.061,36.233-0.115,54.371c0.412,3.631-2.667,6.088-4.059,9.094
		c-8.203,14.881-4.592,35.155,8.589,45.979c3.345,2.308,3.971,6.515,5.182,10.142c5.748,17.917,15.281,34.487,27.335,48.925v20.139
		c0,33.496-27.157,60.654-60.651,60.654H90.978c0,0-54.964,15.157-90.978,90.975v30.327c0,16.759,13.563,30.321,30.327,30.321
		h424.562c16.759,0,30.322-13.563,30.322-30.321V424.56C449.198,348.749,394.235,333.586,394.235,333.586z"/>
</g>
</svg>
