<?xml version="1.0" encoding="utf-8"?>
<!-- Generator: Adobe Illustrator 16.0.0, SVG Export Plug-In . SVG Version: 6.00 Build 0)  -->
<!DOCTYPE svg PUBLIC "-//W3C//DTD SVG 1.1//EN" "http://www.w3.org/Graphics/SVG/1.1/DTD/svg11.dtd">
<svg version="1.1" id="Capa_1" xmlns="http://www.w3.org/2000/svg" xmlns:xlink="http://www.w3.org/1999/xlink" x="0px" y="0px"
	 width="595.279px" height="595.281px" viewBox="0 0 595.279 595.281" enable-background="new 0 0 595.279 595.281"
	 xml:space="preserve">
<path fill="#848484" d="M297.14,1.5C134.266,1.5,1,134.767,1,297.641c0,162.892,133.266,296.14,296.141,296.14
	c162.892,0,296.14-133.248,296.14-296.14C593.28,134.767,460.032,1.5,297.14,1.5z M330.469,482.729h-74.052v-74.035h74.052V482.729z
	 M408.192,301.346c-14.821,14.803-29.606,22.215-44.428,25.902c-22.196,14.82-29.607,7.41-29.607,44.428h-74.035
	c0-74.035,44.428-96.25,74.035-111.052c11.098-3.707,18.51-7.411,25.921-14.804c3.687-3.706,11.097-11.116,3.687-25.92
	c-7.411-18.508-29.607-37.018-62.92-37.018c-51.819,0-59.231,44.429-62.936,55.527l-74.035-11.098
	c3.705-40.723,37.018-118.464,133.267-118.464c59.213,0,111.052,33.313,133.248,81.447
	C445.21,231.017,437.8,271.721,408.192,301.346z"/>
</svg>
