<?xml version="1.0" encoding="utf-8"?>
<!-- Generator: Adobe Illustrator 16.0.0, SVG Export Plug-In . SVG Version: 6.00 Build 0)  -->
<!DOCTYPE svg PUBLIC "-//W3C//DTD SVG 1.1//EN" "http://www.w3.org/Graphics/SVG/1.1/DTD/svg11.dtd">
<svg version="1.1" id="Capa_1" xmlns="http://www.w3.org/2000/svg" xmlns:xlink="http://www.w3.org/1999/xlink" x="0px" y="0px"
	 width="595.279px" height="595.281px" viewBox="0 0 595.279 595.281" enable-background="new 0 0 595.279 595.281"
	 xml:space="preserve">
<path fill="#2094C6" d="M296.14,0C133.266,0,0,133.267,0,296.14C0,459.032,133.266,592.28,296.14,592.28
	c162.892,0,296.14-133.248,296.14-296.14C592.28,133.267,459.032,0,296.14,0z M329.469,481.228h-74.052v-74.035h74.052V481.228z
	 M407.192,299.846c-14.821,14.803-29.606,22.214-44.428,25.901c-22.196,14.82-29.607,7.41-29.607,44.428h-74.035
	c0-74.035,44.428-96.249,74.035-111.052c11.098-3.706,18.51-7.411,25.921-14.803c3.687-3.706,11.097-11.116,3.687-25.92
	c-7.411-18.508-29.607-37.018-62.92-37.018c-51.819,0-59.231,44.429-62.936,55.527l-74.035-11.098
	c3.705-40.723,37.018-118.464,133.267-118.464c59.213,0,111.052,33.313,133.248,81.447
	C444.21,229.516,436.8,270.221,407.192,299.846z"/>
</svg>
