<?xml version="1.0" encoding="utf-8"?>
<!-- Generator: Adobe Illustrator 16.0.0, SVG Export Plug-In . SVG Version: 6.00 Build 0)  -->
<!DOCTYPE svg PUBLIC "-//W3C//DTD SVG 1.1//EN" "http://www.w3.org/Graphics/SVG/1.1/DTD/svg11.dtd">
<svg version="1.1" id="Capa_1" xmlns="http://www.w3.org/2000/svg" xmlns:xlink="http://www.w3.org/1999/xlink" x="0px" y="0px"
	 width="595.279px" height="595.28px" viewBox="0 123.305 595.279 595.28" enable-background="new 0 123.305 595.279 595.28"
	 xml:space="preserve">
<g>
	<path fill="#3C72A5" d="M297.627,123.305C133.267,123.305,0,256.572,0,420.933s133.267,297.652,297.627,297.652
		S595.28,585.293,595.28,420.933S461.988,123.305,297.627,123.305z M359.587,584.587c-15.32,6.048-27.516,10.634-36.662,13.809
		c-9.121,3.175-19.729,4.762-31.799,4.762c-18.545,0-32.982-4.535-43.263-13.581s-15.396-20.51-15.396-34.444
		c0-5.417,0.378-10.961,1.134-16.604c0.781-5.645,2.016-11.994,3.704-19.125l19.175-67.729c1.688-6.501,3.149-12.674,4.309-18.419
		c1.159-5.796,1.714-11.112,1.714-15.95c0-8.617-1.789-14.664-5.342-18.066c-3.604-3.401-10.382-5.064-20.485-5.064
		c-4.938,0-10.028,0.73-15.244,2.268c-5.166,1.587-9.65,3.024-13.329,4.435l5.064-20.864c12.548-5.115,24.567-9.499,36.031-13.127
		c11.465-3.679,22.3-5.493,32.505-5.493c18.419,0,32.63,4.485,42.633,13.354c9.953,8.895,14.967,20.46,14.967,34.671
		c0,2.948-0.353,8.139-1.033,15.547c-0.68,7.434-1.965,14.211-3.83,20.435l-19.073,67.528c-1.563,5.417-2.948,11.616-4.208,18.545
		c-1.235,6.93-1.84,12.221-1.84,15.773c0,8.971,1.99,15.093,6.022,18.344c3.98,3.25,10.961,4.888,20.838,4.888
		c4.661,0,9.877-0.831,15.773-2.443c5.846-1.613,10.078-3.049,12.749-4.284L359.587,584.587z M356.21,310.494
		c-8.895,8.265-19.604,12.397-32.126,12.397c-12.498,0-23.282-4.132-32.252-12.397c-8.92-8.265-13.43-18.318-13.43-30.06
		c0-11.716,4.535-21.795,13.43-30.136c8.97-8.365,19.754-12.522,32.252-12.522c12.522,0,23.257,4.157,32.126,12.522
		c8.895,8.34,13.354,18.419,13.354,30.136C369.565,292.201,365.105,302.229,356.21,310.494z"/>
</g>
</svg>
