<?xml version="1.0" encoding="utf-8"?>
<!-- Generator: Adobe Illustrator 16.0.0, SVG Export Plug-In . SVG Version: 6.00 Build 0)  -->
<!DOCTYPE svg PUBLIC "-//W3C//DTD SVG 1.1//EN" "http://www.w3.org/Graphics/SVG/1.1/DTD/svg11.dtd">
<svg version="1.1" id="Capa_1" xmlns="http://www.w3.org/2000/svg" xmlns:xlink="http://www.w3.org/1999/xlink" x="0px" y="0px"
	 width="595.279px" height="841.891px" viewBox="0 0 595.279 841.891" enable-background="new 0 0 595.279 841.891"
	 xml:space="preserve">
<path fill="#999999" d="M541.756,339.28l-100.11,45.767c9.417,20.598,14.191,42.654,14.191,65.553
	c0,87.072-70.839,157.91-157.911,157.91c-87.071,0-158.367-70.839-158.367-157.91c0-76.813,55.632-140.959,127.181-155.016v65.236
	l202.584-118.757L266.74,123.305v61.015C134.65,199.336,29.484,313.017,29.484,450.602c0,147.768,120.447,267.986,268.214,267.986
	c147.768,0,268.099-120.219,268.099-267.986C565.796,411.798,557.785,374.348,541.756,339.28z"/>
</svg>
