<?xml version="1.0" encoding="utf-8"?>
<!-- Generator: Adobe Illustrator 16.0.0, SVG Export Plug-In . SVG Version: 6.00 Build 0)  -->
<!DOCTYPE svg PUBLIC "-//W3C//DTD SVG 1.1//EN" "http://www.w3.org/Graphics/SVG/1.1/DTD/svg11.dtd">
<svg version="1.1" xmlns="http://www.w3.org/2000/svg" xmlns:xlink="http://www.w3.org/1999/xlink" x="0px" y="0px"
	 width="2325.815px" height="951.277px" viewBox="0 0 2325.815 951.277" enable-background="new 0 0 2325.815 951.277"
	 xml:space="preserve">
<symbol  id="Capsule_1_leaf-3" viewBox="-123.1 -493.25 246.225 505.75">
	<g id="cap_1_">
		<path fill-rule="evenodd" clip-rule="evenodd" fill="#FFFFFF" d="M-69.35-41.25c-19.167-19.133-28.75-42.233-28.75-69.3V-247.1
			c61.42-30.511,126.82-30.511,196.2,0v136.55c0,16.167-3.417,30.917-10.25,44.25c-4.6,9-10.75,17.35-18.45,25.05h-0.05
			C50.217-22.083,27.117-12.5,0.05-12.5H0C-27.1-12.5-50.217-22.083-69.35-41.25z M0,12.5h0.05c20.8,0,39.733-4.5,56.8-13.5
			c10.8-5.7,20.867-13.217,30.2-22.55v-0.05c0.267-0.267,0.534-0.533,0.8-0.8c23.5-23.833,35.25-52.55,35.25-86.15v-124.3
			c0.033-0.367,0.033-0.75,0-1.15v-134.15c0-34.033-12.017-63.05-36.05-87.05c-1.033-1.033-2.083-2.066-3.15-3.1l-0.15-0.15
			c-11.633-10.867-24.367-19.033-38.2-24.5c-14.033-5.533-29.2-8.3-45.5-8.3H0c-16.3,0-31.45,2.767-45.45,8.3
			c-13.867,5.467-26.617,13.633-38.25,24.5l0.15-0.1c-1.2,1.1-2.35,2.216-3.45,3.35c-0.067,0.034-0.117,0.083-0.15,0.15
			c-23.967,23.966-35.95,52.933-35.95,86.9v134.4c0,0.167,0,0.333,0,0.5v124.7c0,33.966,12.017,62.95,36.05,86.95l0.05,0.05
			C-77.7-14.217-67.633-6.7-56.8-1C-39.733,8-20.8,12.5,0,12.5z"/>
	</g>
	<g id="leaf_1_">
		
			<use xlink:href="#leaf-3"  width="80.428" height="122.8" x="-125.475" y="8.25" transform="matrix(2.0048 0 0 2.0048 170.4995 -310.0498)" overflow="visible"/>
	</g>
</symbol>
<symbol  id="Capsule_2_node-3" viewBox="-123.1 -493.25 246.225 505.75">
	<g id="cap_2_">
		<path fill-rule="evenodd" clip-rule="evenodd" fill="#FFFFFF" d="M-69.35-41.25c-19.167-19.133-28.75-42.233-28.75-69.3V-247.1
			c68.026-35.449,133.426-35.449,196.2,0v136.55c0,27.066-9.567,50.167-28.7,69.3h-0.05C50.217-22.083,27.117-12.5,0.05-12.5H0
			C-27.1-12.5-50.217-22.083-69.35-41.25z M0,12.5h0.05c33.967,0,62.967-12.017,87-36.05v-0.05c24.034-24,36.05-52.983,36.05-86.95
			v-124.3c0.033-0.367,0.033-0.75,0-1.15v-134.15c0-34.033-12.017-63.05-36.05-87.05c-1.033-1.033-2.083-2.066-3.15-3.1l-0.15-0.15
			c-23.367-21.867-51.267-32.8-83.7-32.8H0c-32.433,0-60.333,10.933-83.7,32.8l0.15-0.1c-1.2,1.1-2.35,2.216-3.45,3.35
			c-0.067,0.034-0.117,0.083-0.15,0.15c-23.967,23.966-35.95,52.933-35.95,86.9v134.4c0,0.167,0,0.333,0,0.5v124.7
			c0,33.966,12.017,62.95,36.05,86.95l0.05,0.05C-63,0.483-34,12.5,0,12.5z"/>
	</g>
	<g id="node_1_">
		
			<use xlink:href="#node-3"  width="168" height="368.466" x="198.45" y="-473.716" transform="matrix(0.8817 0 0 0.8817 -248.8999 26.0493)" overflow="visible"/>
	</g>
</symbol>
<symbol  id="leaf-3" viewBox="-125.475 8.25 80.428 122.8">
	<g id="Layer_2_2_">
		<path fill-rule="evenodd" clip-rule="evenodd" fill="#FFFFFF" d="M-75.175,57.4c-7.923,18.861,2.119,31.92,30.125,39.175
			C-44.865,67.642-54.907,54.583-75.175,57.4z M-84.7,41.65c-18.456-8.928-32.047,0.422-40.775,28.05
			C-96.582,71.428-82.99,62.078-84.7,41.65z M-82,53c-5.971,13.199-8.237,24.407-6.8,33.625
			c-11.104,14.811-4.996,29.619,18.325,44.425c8.71-26.407,3.893-41.749-14.45-46.025C-85.464,75.738-82.656,65.063-76.5,53
			c10.479-19.829,10.354-34.745-0.375-44.75H-92.75C-76.81,19.187-73.227,34.104-82,53z"/>
	</g>
</symbol>
<symbol  id="node-3" viewBox="198.45 -473.716 168 368.466">
	<g id="Layer_1_2_">
		<polygon fill-rule="evenodd" clip-rule="evenodd" fill="#FFFFFF" points="290.95,-136.27 290.95,-342.267 272.95,-342.267 
			272.95,-136.27 		"/>
		<polygon fill-rule="evenodd" clip-rule="evenodd" fill="#FFFFFF" points="344.95,-267.719 344.95,-473.716 326.95,-473.716 
			326.95,-267.719 		"/>
		<path fill-rule="evenodd" clip-rule="evenodd" fill="#FFFFFF" d="M281.95-105.25c8.433,0,15.617-2.967,21.55-8.9
			c5.967-5.967,8.95-13.167,8.95-21.6s-2.983-15.617-8.95-21.55c-5.933-5.967-13.117-8.95-21.55-8.95
			c-8.434,0-15.633,2.983-21.6,8.95c-5.934,5.933-8.9,13.117-8.9,21.55s2.966,15.633,8.9,21.6
			C266.317-108.217,273.517-105.25,281.95-105.25z"/>
		<path fill-rule="evenodd" clip-rule="evenodd" fill="#FFFFFF" d="M335.95-222.25c8.433,0,15.617-2.967,21.55-8.9
			c5.967-5.967,8.95-13.167,8.95-21.6s-2.983-15.617-8.95-21.55c-5.933-5.967-13.117-8.95-21.55-8.95
			c-8.434,0-15.633,2.983-21.6,8.95c-5.934,5.933-8.9,13.117-8.9,21.55s2.966,15.633,8.9,21.6
			C320.317-225.217,327.517-222.25,335.95-222.25z"/>
		<polygon fill-rule="evenodd" clip-rule="evenodd" fill="#FFFFFF" points="237.95,-226.719 237.95,-432.716 219.95,-432.716 
			219.95,-226.719 		"/>
		<path fill-rule="evenodd" clip-rule="evenodd" fill="#FFFFFF" d="M228.95-181.25c8.433,0,15.617-2.967,21.55-8.9
			c5.967-5.967,8.95-13.167,8.95-21.6s-2.983-15.617-8.95-21.55c-5.933-5.967-13.117-8.95-21.55-8.95
			c-8.434,0-15.633,2.983-21.6,8.95c-5.934,5.933-8.9,13.117-8.9,21.55s2.966,15.633,8.9,21.6
			C213.317-184.217,220.517-181.25,228.95-181.25z"/>
	</g>
</symbol>
<g id="Circle">
	<path fill-rule="evenodd" clip-rule="evenodd" fill="#3399CC" d="M1380.709,292.958c0,74.029-26.171,137.21-78.514,189.542
		c-52.342,52.355-115.535,78.532-189.578,78.532S975.381,534.855,923.039,482.5c-52.342-52.332-78.514-115.513-78.514-189.542
		c0-74.029,26.171-137.221,78.514-189.576c52.342-52.332,115.535-78.498,189.579-78.498s137.236,26.166,189.578,78.498
		C1354.538,155.737,1380.709,218.929,1380.709,292.958z"/>
	<g>
		<defs>
			<path id="SVGID_1_" d="M1302.195,103.382c-52.342-52.332-115.535-78.498-189.578-78.498S975.381,51.05,923.039,103.382
				c-52.342,52.355-78.514,115.547-78.514,189.576c0,74.029,26.171,137.21,78.514,189.542
				c52.342,52.355,115.535,78.532,189.579,78.532s137.236-26.177,189.578-78.532c52.342-52.332,78.514-115.513,78.514-189.542
				C1380.709,218.929,1354.538,155.737,1302.195,103.382z"/>
		</defs>
		<clipPath id="SVGID_2_">
			<use xlink:href="#SVGID_1_"  overflow="visible"/>
		</clipPath>
		<g id="Circle_fx" clip-path="url(#SVGID_2_)">
			
				<linearGradient id="SVGID_3_" gradientUnits="userSpaceOnUse" x1="1263.8706" y1="-244.0313" x2="1263.8706" y2="465.7749" gradientTransform="matrix(0.6383 0 0 0.6383 148.1285 222.6702)">
				<stop  offset="0" style="stop-color:#A33393;stop-opacity:0"/>
				<stop  offset="1" style="stop-color:#485099"/>
			</linearGradient>
			<polygon fill-rule="evenodd" clip-rule="evenodd" fill="url(#SVGID_3_)" points="963.154,591.433 790.875,119.246 
				1118.837,-4.521 			"/>
		</g>
		<g id="Circle_fx_1_" clip-path="url(#SVGID_2_)">
			
				<linearGradient id="SVGID_4_" gradientUnits="userSpaceOnUse" x1="1359.6992" y1="-160.0054" x2="1676.1522" y2="475.351" gradientTransform="matrix(0.6383 0 0 0.6383 148.1285 222.6702)">
				<stop  offset="0" style="stop-color:#A33393;stop-opacity:0.6196"/>
				<stop  offset="1" style="stop-color:#485099;stop-opacity:0.3882"/>
			</linearGradient>
			<polygon fill-rule="evenodd" clip-rule="evenodd" fill="url(#SVGID_4_)" points="1281.445,574.325 795.472,106.001 
				1155.093,-28.522 			"/>
		</g>
		<g id="Circle_fx_2_" clip-path="url(#SVGID_2_)">
			
				<linearGradient id="SVGID_5_" gradientUnits="userSpaceOnUse" x1="1801.0479" y1="393.8271" x2="1621.5558" y2="-292.856" gradientTransform="matrix(0.6383 0 0 0.6383 148.1285 222.6702)">
				<stop  offset="0" style="stop-color:#A33393;stop-opacity:0.102"/>
				<stop  offset="1" style="stop-color:#485099;stop-opacity:0.4902"/>
			</linearGradient>
			<polygon fill-rule="evenodd" clip-rule="evenodd" fill="url(#SVGID_5_)" points="1131.061,591.433 1130.965,-24.5 
				1510.629,533.474 			"/>
		</g>
	</g>
</g>
<g id="TXT">
	<path fill-rule="evenodd" clip-rule="evenodd" fill="#333333" d="M1286.559,752.127c-5.944-2.841-12.846-4.261-20.706-4.261
		c-8.061,0-14.928,1.52-20.609,4.558c-5.813,2.973-10.568,6.804-14.269,11.493c-3.897,4.756-6.771,9.975-8.619,15.656
		c-1.718,5.613-2.575,11.096-2.575,16.446c0,4.491,0.823,9.413,2.477,14.764c1.717,5.416,4.394,10.567,8.025,15.456
		c3.697,4.888,8.454,8.917,14.268,12.087c5.945,3.237,13.144,4.855,21.599,4.855c8.786,0,16.185-1.618,22.194-4.855
		c5.944-3.17,10.768-7.199,14.466-12.087c3.632-4.889,6.275-10.139,7.926-15.755c1.52-5.613,2.28-10.666,2.28-15.158
		c0-5.55-0.926-11.131-2.775-16.744c-1.981-5.681-4.954-10.833-8.917-15.457C1297.493,758.5,1292.57,754.836,1286.559,752.127z
		 M1313.015,701.894h55.882v187.064h-55.882v-20.213h-0.695c-2.51,4.491-5.614,8.422-9.312,11.791
		c-3.832,3.435-8.225,6.24-13.179,8.422c-4.954,2.31-10.171,3.963-15.655,4.954c-5.548,0.99-11.031,1.486-16.448,1.486
		c-14.795,0-28.005-2.71-39.631-8.126c-11.756-5.351-21.565-12.616-29.427-21.798c-7.992-9.247-14.136-19.882-18.428-31.903
		c-4.294-12.089-6.44-24.869-6.44-38.346c0-15.256,2.575-29.096,7.727-41.515c5.154-12.285,12.023-22.755,20.609-31.407
		c8.521-8.652,18.43-15.291,29.725-19.915c11.427-4.558,23.383-6.838,35.865-6.838c7.664,0,14.532,0.827,20.611,2.478
		c6.01,1.718,11.26,3.831,15.754,6.342c4.491,2.643,8.222,5.515,11.194,8.62c2.973,2.906,5.317,5.846,7.034,8.818h0.695V701.894z
		 M1139.919,734.293h-66.777c-1.719-4.69-4.229-9.546-7.532-14.565c-3.302-5.085-7.431-9.743-12.386-13.97
		c-4.888-4.295-10.699-7.828-17.437-10.603c-6.737-2.841-14.334-4.26-22.79-4.26c-10.898,0-20.442,2.146-28.634,6.44
		c-8.124,4.293-15.093,9.841-20.905,16.645c-5.68,6.869-9.975,14.697-12.881,23.482s-4.36,17.504-4.36,26.157
		c0,9.445,1.587,18.594,4.757,27.445c3.039,8.918,7.464,16.877,13.277,23.878c5.746,6.936,12.782,12.483,21.104,16.646
		c8.191,4.161,17.505,6.24,27.941,6.24c9.842,0,18.33-1.814,25.463-5.449c7.267-3.632,13.244-7.793,17.933-12.483
		c4.757-4.755,8.39-9.413,10.899-13.97c2.644-4.624,4.493-8.025,5.551-10.206h66.777c-3.565,14.796-9.377,28.205-17.438,40.228
		c-7.992,11.956-17.471,22.226-28.435,30.813c-10.965,8.521-23.284,15.159-36.958,19.915c-13.738,4.689-28.104,7.034-43.101,7.034
		c-19.683,0-37.585-3.599-53.701-10.8c-16.117-7.133-29.923-16.742-41.416-28.832c-11.427-11.955-20.377-25.761-26.851-41.414
		c-6.341-15.59-9.511-31.839-9.511-48.749c0-15.853,2.973-31.475,8.917-46.865c6.011-15.456,14.598-29.229,25.761-41.316
		c11.23-12.153,24.968-21.962,41.218-29.426c16.115-7.53,34.414-11.296,54.891-11.296c19.551,0,36.824,3.336,51.818,10.007
		c14.995,6.804,27.71,15.127,38.146,24.968c10.504,9.909,18.792,20.709,24.87,32.4
		C1134.142,714.015,1138.073,724.648,1139.919,734.293z M1418.437,701.894h52.611v20.607h0.99
		c5.614-7.266,13.145-13.574,22.59-18.924c9.447-5.351,21.337-8.026,35.669-8.026c16.58,0,30.615,3.238,42.107,9.711
		c11.627,6.539,21.072,14.795,28.34,24.771c7.33,9.974,12.582,21.005,15.752,33.093c3.303,11.956,4.955,23.35,4.955,34.184
		c0,13.475-2.246,26.155-6.738,38.045c-4.49,11.957-10.732,22.36-18.727,31.211c-8.123,8.917-17.734,15.953-28.832,21.104
		c-11.162,5.151-23.348,7.729-36.561,7.729c-8.52,0-15.853-0.893-21.995-2.677c-6.275-1.851-11.692-3.996-16.249-6.44
		c-4.492-2.51-8.225-5.02-11.197-7.53c-2.973-2.641-5.217-4.822-6.736-6.538v79.064h-55.98V701.894z M1667.128,712.494
		c6.672-5.481,14.332-9.676,22.986-12.582c8.785-2.907,18-4.361,27.645-4.361c6.143,0,13.111,0.761,20.904,2.28
		c7.861,1.65,15.357,4.623,22.492,8.917c7.068,4.161,13.277,10.072,18.627,17.735c5.352,7.53,8.654,17.505,9.908,29.922h-54.99
		c0-0.859-0.164-2.18-0.494-3.963c-0.332-1.651-1.09-3.171-2.279-4.558c-1.123-1.586-2.84-2.906-5.152-3.963
		c-2.379-1.123-5.613-1.685-9.711-1.685c-5.811,0-9.842,1.486-12.086,4.459c-2.445,2.84-3.666,5.515-3.666,8.024
		c0,5.152,2.906,9.282,8.719,12.386c5.943,2.973,12.584,5.614,19.914,7.927c7.861,2.179,15.754,4.591,23.682,7.232
		c7.926,2.575,14.926,5.977,21.006,10.206c6.141,4.227,11.162,9.642,15.059,16.249c3.832,6.473,5.748,14.795,5.748,24.968
		c0,9.908-2.049,18.792-6.145,26.652c-4.029,7.795-9.512,14.433-16.447,19.915c-7.002,5.614-15.094,9.843-24.275,12.684
		c-9.248,2.973-19.021,4.459-29.326,4.459c-7.268,0-14.996-0.893-23.186-2.677c-8.322-1.851-16.217-5.118-23.682-9.81
		c-7.33-4.754-13.736-11.129-19.221-19.121c-5.414-7.927-8.785-18.067-10.105-30.419h55.584c0.66,4.294,2.047,7.63,4.162,10.008
		c1.98,2.312,4.16,4.03,6.539,5.152c2.313,0.99,4.523,1.585,6.637,1.783c1.982,0.198,3.305,0.297,3.963,0.297
		c4.691,0,9.117-1.32,13.277-3.963c4.162-2.511,6.244-6.011,6.244-10.502c0-3.633-0.859-6.539-2.578-8.721
		c-1.916-2.31-4.82-4.458-8.717-6.44c-3.965-2.047-9.084-4.16-15.357-6.339c-6.211-2.313-13.84-5.187-22.889-8.622
		c-6.078-1.981-11.824-4.426-17.24-7.332c-5.35-2.904-10.072-6.372-14.17-10.403c-4.027-4.029-7.199-8.619-9.51-13.771
		c-2.379-5.153-3.566-10.933-3.566-17.34c0-9.182,1.947-17.604,5.846-25.266C1655.239,724.317,1660.522,717.845,1667.128,712.494z
		 M1484.126,763.422c-3.963,4.623-7.002,9.776-9.114,15.456c-1.981,5.615-2.974,11.229-2.974,16.844
		c0,5.813,1.058,11.626,3.17,17.439c2.181,5.68,5.318,10.766,9.413,15.257c3.897,4.492,8.72,8.061,14.466,10.701
		c5.813,2.708,12.385,4.063,19.717,4.063s13.904-1.354,19.716-4.063c5.682-2.641,10.504-6.209,14.467-10.701
		c4.096-4.491,7.232-9.577,9.412-15.257c2.047-5.813,3.07-11.627,3.07-17.439c0-5.614-0.99-11.229-2.973-16.844
		c-2.047-5.68-5.051-10.833-9.014-15.456c-3.832-4.558-8.652-8.29-14.467-11.196c-5.945-2.905-12.683-4.359-20.212-4.359
		c-7.596,0-14.333,1.454-20.213,4.359C1492.781,755.132,1487.958,758.864,1484.126,763.422z M1998.452,701.894v187.064h-53.008
		v-19.717h-0.693c-2.906,6.01-6.342,10.666-10.305,13.969c-4.094,3.37-8.389,5.944-12.881,7.729
		c-4.49,1.849-8.916,3.005-13.275,3.468c-4.359,0.395-8.322,0.595-11.891,0.595c-2.906,0-6.637-0.2-11.195-0.595
		c-4.49-0.463-9.313-1.554-14.465-3.271c-5.154-1.65-10.305-4.062-15.459-7.233c-5.15-3.104-9.742-7.231-13.77-12.385
		c-3.832-4.689-6.805-9.115-8.918-13.275c-2.047-4.229-3.732-8.522-5.055-12.881c-1.188-4.36-1.945-9.084-2.277-14.169
		c-0.33-5.021-0.496-10.834-0.496-17.438V701.894h55.883v103.539c0,3.169,0.164,6.936,0.494,11.295
		c0.33,4.426,1.387,8.554,3.172,12.385c1.85,3.832,4.854,7.067,9.016,9.709c4.029,2.71,9.775,4.063,17.24,4.063
		c4.094,0,7.992-0.595,11.691-1.783c3.83-1.322,7.299-3.369,10.404-6.143c2.906-2.842,5.316-6.705,7.23-11.594
		c1.721-4.954,2.576-11.162,2.576-18.626V701.894H1998.452z M2040.958,639.571h55.98v249.387h-55.98V639.571z M2297.876,725.078
		c8.717,9.247,15.555,20.113,20.508,32.597c4.953,12.484,7.432,25.827,7.432,40.028c0,3.831-0.133,6.672-0.396,8.522
		c-0.199,1.981-0.496,4.062-0.891,6.24h-140.199c1.783,11.165,6.77,19.883,14.961,26.158c8.258,6.143,17.867,9.215,28.832,9.215
		c8.52,0,15.357-1.719,20.508-5.152c5.154-3.236,9.646-7.333,13.477-12.287h57.268c-4.492,10.504-9.973,19.783-16.447,27.844
		c-6.604,7.858-13.771,14.53-21.5,20.013c-15.787,11.165-33.555,16.746-53.305,16.746c-13.541,0-26.223-2.511-38.047-7.53
		c-11.957-5.022-22.49-12.022-31.607-21.007c-9.049-9.048-16.215-19.583-21.5-31.607c-5.285-11.954-7.926-24.901-7.926-38.838
		c0-13.078,2.41-25.695,7.232-37.85c4.822-12.153,11.625-22.854,20.41-32.101c8.785-9.183,19.156-16.58,31.113-22.194
		c12.086-5.549,25.199-8.324,39.334-8.324s27.279,2.61,39.434,7.829C2278.653,708.663,2289.089,715.896,2297.876,725.078z
		 M2246.056,746.183c-5.152-2.313-11.363-3.468-18.627-3.468c-7.135,0-13.342,1.155-18.627,3.468
		c-5.152,2.179-9.348,4.986-12.582,8.422c-3.436,3.368-5.98,6.936-7.631,10.7c-1.717,3.566-2.908,6.737-3.566,9.511h84.811
		c-0.658-2.773-1.781-5.944-3.367-9.511c-1.783-3.765-4.326-7.332-7.629-10.7C2255.468,751.169,2251.208,748.361,2246.056,746.183z
		 M0,695.551v-55.979h161.699v55.979h-48.847v193.407H49.144V695.551H0z M354.609,753.118c-4.294,3.17-7.432,7.001-9.413,11.493
		c-2.048,4.491-3.236,9.082-3.566,13.771c-0.329,4.756-0.495,8.489-0.495,11.197v99.378h-55.98V701.894h52.115v19.915h0.693
		c1.189-1.982,2.907-4.427,5.153-7.332c2.245-2.973,5.317-5.847,9.214-8.62c3.897-2.841,8.885-5.284,14.962-7.333
		c6.142-1.981,13.54-2.973,22.193-2.973c4.03,0,8.454,0.431,13.277,1.29c4.821,0.857,9.611,2.542,14.366,5.053
		c4.689,2.575,9.28,5.978,13.772,10.204c4.491,4.294,8.653,9.908,12.484,16.844c5.813-9.247,13.541-17.141,23.185-23.68
		c9.644-6.473,21.666-9.711,36.065-9.711c3.369,0,7.101,0.199,11.195,0.596c4.03,0.463,8.257,1.354,12.683,2.676
		c4.359,1.386,8.687,3.303,12.979,5.746c4.359,2.51,8.454,5.813,12.286,9.908c4.294,4.689,7.827,9.115,10.603,13.276
		c2.576,4.161,4.656,8.917,6.241,14.268c1.387,5.417,2.313,11.626,2.775,18.627c0.462,7.134,0.692,15.854,0.692,26.157v102.153
		h-55.98V789.58c0-3.833-0.165-8.157-0.495-12.979s-1.354-9.314-3.071-13.476c-1.916-4.162-4.789-7.662-8.62-10.502
		c-3.699-2.973-9.182-4.459-16.447-4.459c-7.795,0-13.772,1.519-17.935,4.557c-4.16,2.973-7.166,6.606-9.016,10.899
		c-1.981,4.293-3.138,8.555-3.468,12.781c-0.33,4.294-0.496,7.827-0.496,10.603v101.954H400.68V787.3
		c0-2.51-0.164-5.978-0.495-10.402c-0.329-4.36-1.32-8.687-2.973-12.98c-1.782-4.228-4.59-7.894-8.422-10.998
		c-3.697-3.171-9.081-4.755-16.149-4.755C364.913,748.164,358.903,749.815,354.609,753.118z M242.846,682.077h-55.981v-42.506
		h55.981V682.077z M242.846,701.894v187.064h-55.981V701.894H242.846z M670.577,754.604c-3.435,3.368-5.978,6.936-7.628,10.7
		c-1.719,3.566-2.907,6.737-3.568,9.511h84.813c-0.661-2.773-1.784-5.944-3.369-9.511c-1.784-3.765-4.327-7.332-7.63-10.7
		c-3.367-3.436-7.629-6.243-12.78-8.422c-5.153-2.313-11.361-3.468-18.627-3.468c-7.134,0-13.344,1.155-18.629,3.468
		C678.007,748.361,673.812,751.169,670.577,754.604z M701.489,695.551c14.136,0,27.282,2.61,39.435,7.829
		c12.088,5.283,22.525,12.517,31.31,21.698c8.72,9.247,15.557,20.113,20.511,32.597c4.954,12.484,7.431,25.827,7.431,40.028
		c0,3.831-0.133,6.672-0.396,8.522c-0.199,1.981-0.495,4.062-0.892,6.24H658.687c1.784,11.165,6.771,19.883,14.961,26.158
		c8.257,6.143,17.867,9.215,28.832,9.215c8.521,0,15.357-1.719,20.511-5.152c5.151-3.236,9.643-7.333,13.475-12.287h57.269
		c-4.493,10.504-9.974,19.783-16.448,27.844c-6.604,7.858-13.771,14.53-21.5,20.013c-15.787,11.165-33.556,16.746-53.306,16.746
		c-13.54,0-26.222-2.511-38.045-7.53c-11.956-5.022-22.493-12.022-31.607-21.007c-9.051-9.048-16.217-19.583-21.502-31.607
		c-5.283-11.954-7.927-24.901-7.927-38.838c0-13.078,2.412-25.695,7.234-37.85c4.822-12.153,11.626-22.854,20.41-32.101
		c8.785-9.183,19.156-16.58,31.111-22.194C674.242,698.326,687.355,695.551,701.489,695.551z"/>
</g>
<g id="Cap_1">
	
		<use xlink:href="#Capsule_1_leaf-3"  width="246.225" height="505.75" x="-123.1" y="-493.25" transform="matrix(-0.5096 -0.5096 -0.5096 0.5096 918.6011 344.7002)" overflow="visible"/>
</g>
<g id="Cap_2">
	
		<use xlink:href="#Capsule_2_node-3"  width="246.225" height="505.75" x="-123.1" y="-493.25" transform="matrix(0.5096 0.5096 0.5096 -0.5096 1306.1011 237.9502)" overflow="visible"/>
</g>
</svg>
