<?xml version="1.0" encoding="utf-8"?>
<!-- Generator: Adobe Illustrator 16.0.0, SVG Export Plug-In . SVG Version: 6.00 Build 0)  -->
<!DOCTYPE svg PUBLIC "-//W3C//DTD SVG 1.1//EN" "http://www.w3.org/Graphics/SVG/1.1/DTD/svg11.dtd">
<svg version="1.1" id="Layer_1" xmlns="http://www.w3.org/2000/svg" xmlns:xlink="http://www.w3.org/1999/xlink" x="0px" y="0px"
	 width="156.2px" height="173.896px" viewBox="0 0 156.2 173.896" enable-background="new 0 0 156.2 173.896" xml:space="preserve">
<path fill="#555555" d="M88.36,87.06H67.843V1.444H88.36V87.06z"/>
<path fill="#555555" d="M101.273,22.088v20.001c21.128,8.983,35.994,29.836,35.994,54.106c0,32.457-26.543,58.862-59.168,58.862
	s-59.168-26.405-59.168-58.862c0-24.271,14.861-45.123,35.994-54.111V22.088C23.162,31.938-0.002,61.381-0.002,96.195
	c0,42.839,35.035,77.701,78.101,77.701c43.062,0,78.101-34.862,78.101-77.701C156.2,61.385,133.036,31.944,101.273,22.088z"/>
</svg>
