<?xml version="1.0" encoding="utf-8"?>
<!-- Generator: Adobe Illustrator 16.0.0, SVG Export Plug-In . SVG Version: 6.00 Build 0)  -->
<!DOCTYPE svg PUBLIC "-//W3C//DTD SVG 1.1//EN" "http://www.w3.org/Graphics/SVG/1.1/DTD/svg11.dtd">
<svg version="1.1" xmlns="http://www.w3.org/2000/svg" xmlns:xlink="http://www.w3.org/1999/xlink" x="0px" y="0px" width="349.5px"
	 height="95px" viewBox="0 0 349.5 95" enable-background="new 0 0 349.5 95" xml:space="preserve">
<g id="Layer_2_1_" display="none">
	<rect x="0" display="inline" width="349.875" height="94.716"/>
</g>
<g id="Layer_1" display="none">
	<g id="Layer_2">
		<rect x="0" display="inline" fill="#15476A" width="349" height="95"/>
	</g>
	<g id="Layer_4">
		<g display="inline">
			<path fill="#A6BEC9" d="M282.941,30.742c-0.647,0.312-2.186,0.696-4.129,0.696c-5.592,0-8.474-3.504-8.474-8.113
				c0-5.521,3.937-8.569,8.833-8.569c1.896,0,3.336,0.36,3.983,0.72l-0.77,2.88c-0.72-0.312-1.752-0.6-3.072-0.6
				c-2.879,0-5.135,1.752-5.135,5.353c0,3.24,1.92,5.28,5.159,5.28c1.128,0,2.328-0.216,3.072-0.528L282.941,30.742z"/>
			<path fill="#A6BEC9" d="M285.172,14.132h3.647v17.042h-3.647V14.132z"/>
			<path fill="#A6BEC9" d="M303.365,25.173c0,4.296-3.049,6.265-6.192,6.265c-3.433,0-6.072-2.256-6.072-6.049
				c0-3.816,2.496-6.24,6.289-6.24C300.965,19.149,303.365,21.621,303.365,25.173z M294.868,25.293c0,2.016,0.84,3.528,2.398,3.528
				c1.439,0,2.328-1.417,2.328-3.552c0-1.729-0.672-3.504-2.328-3.504C295.54,21.765,294.868,23.565,294.868,25.293z"/>
			<path fill="#A6BEC9" d="M316.685,27.405c0,1.536,0.049,2.785,0.097,3.769h-3.168l-0.168-1.656h-0.072
				c-0.455,0.72-1.561,1.92-3.672,1.92c-2.399,0-4.129-1.488-4.129-5.113v-6.888h3.647v6.313c0,1.704,0.553,2.736,1.85,2.736
				c1.008,0,1.606-0.696,1.822-1.272c0.098-0.216,0.146-0.48,0.146-0.792v-6.984h3.647V27.405L316.685,27.405z"/>
			<path fill="#A6BEC9" d="M330.988,14.132v13.537c0,1.32,0.048,2.712,0.098,3.504h-3.24l-0.146-1.703h-0.071
				c-0.721,1.296-2.16,1.968-3.673,1.968c-2.783,0-5.017-2.376-5.017-6.025c-0.022-3.96,2.447-6.264,5.257-6.264
				c1.464,0,2.567,0.528,3.097,1.32h0.048v-6.336L330.988,14.132L330.988,14.132z M327.34,24.405c0-0.192,0-0.456-0.049-0.672
				c-0.216-0.96-1.008-1.776-2.136-1.776c-1.682,0-2.521,1.488-2.521,3.336c0,1.992,0.983,3.24,2.496,3.24
				c1.058,0,1.92-0.72,2.137-1.752c0.049-0.264,0.071-0.552,0.071-0.84L327.34,24.405L327.34,24.405z"/>
		</g>
	</g>
	<g id="Layer_5">
		<g display="inline">
			<path fill="#018EE2" d="M239.592-5.984c1.131,1.664,2.533,3.186,2.764,5.318c-0.213,1.855-1.557,3.109-2.438,4.608
				c-0.338,0.388-0.643,0.801-0.901,1.246c-1.197,1.676-2.437,3.323-3.656,4.983c-0.741,0.595-1.438,1.236-2.006,2.005
				c-5.862,6.533-12.56,12.015-20.354,16.099c-1.619,0.85-3.244,1.697-4.915,2.44c-1.022,0.456-2.021,1.078-3.225,0.961
				c-5.142-1.635-10.356-2.925-15.746-3.422c-0.651-0.019-1.305-0.008-1.941-0.162c-2.403-0.451-4.827-0.101-7.237-0.21
				c-0.807-0.036-1.617,0.068-2.406-0.148c-1.26-0.694-0.453-1.521-0.061-2.211c2.495-4.367,4.973-8.746,7.533-13.074
				c2.846-4.812,5.543-9.708,8.354-14.541c0.506-0.869,1.014-1.738,1.545-2.594c0.418-0.677,0.971-1.155,1.836-1.106
				c11.812,0.026,23.613-0.041,35.416,0.032c0.853,0.607,0.281,1.25-0.021,1.813c-0.987,1.84-2.205,3.529-3.502,5.165
				c-0.891,1.124-2.104,1.253-3.407,1.251c-7.385-0.007-14.77,0.04-22.154-0.038c-1.658-0.017-2.629,0.503-3.459,1.972
				c-3.883,6.868-7.885,13.667-11.809,20.511c-0.183,0.318-0.412,0.622-0.408,1.208c1.305-0.047,2.512-0.351,3.715-0.628
				c17.906-4.151,31.759-14.058,41.735-29.453c0.501-0.771,0.815-1.769,1.982-1.83c1.21-0.117,2.441,0.238,3.634-0.197
				C238.833-5.984,239.213-5.984,239.592-5.984z"/>
			<path fill="#FDF4EF" d="M196.027,70.54c0.002-0.136,0.007-0.269,0.009-0.404c0.596-0.598,1.376-0.569,2.118-0.571
				c11.562-0.02,23.121-0.033,34.685,0.004c0.313,0,0.625,0.033,0.934,0.102c0.248,0.039,0.48,0.124,0.699,0.247
				c0.242,0.149,0.309,0.358,0.195,0.625C221.787,70.54,208.907,70.54,196.027,70.54z"/>
			<path fill="#A0DEF5" d="M196.029-5.598c0-0.128-0.002-0.258-0.002-0.386c12.248,0,24.496,0,36.744,0
				c-0.115,0.256-0.231,0.513-0.349,0.769c-0.462-0.661-1.153-0.377-1.741-0.377C219.132-5.608,207.582-5.601,196.029-5.598z"/>
			<path fill="#FEFAF4" d="M234.666,70.54c0.002-0.106,0.002-0.217,0.004-0.32c1.746-1.021,3.514-0.919,5.291-0.09
				c0.002,0.138,0.006,0.271,0.01,0.41C238.203,70.54,236.436,70.54,234.666,70.54z"/>
			<path fill="#AFE3F7" d="M234.639-5.67c0.008-0.105,0.02-0.209,0.027-0.314c1.264,0,2.524,0,3.789,0
				C237.24-5.19,235.914-5.734,234.639-5.67z"/>
			<path fill="#80BAD8" d="M239.961,70.13c-1.765,0.031-3.527,0.06-5.291,0.09c-0.125-0.047-0.248-0.092-0.371-0.14
				c-1.279-0.725-1.73-2.044-2.275-3.268c-0.379-0.85-0.914-1.615-1.238-2.483c-0.445-1.087-0.844-2.192-1.336-3.261
				c-0.361-1.121-0.936-2.17-1.219-3.322c-0.146-0.789-0.396-1.544-0.672-2.297c-0.572-1.122-0.307-2.547-1.281-3.529
				c-0.229-0.205-0.35-0.463-0.424-0.754c-1.981-9.199-2.486-18.472-1.526-27.829c0.045-0.441,0.146-0.87,0.333-1.273
				c0.881-1.481,2.229-2.545,3.438-3.723c4.063-3.964,7.604-8.349,10.764-13.05c0.203-0.481,0.406-0.962,0.681-1.41
				c0.938-1.516,1.877-3.032,2.813-4.546c0.817-0.103,0.832,0.658,1.078,1.083c5.871,10.11,11.691,20.251,17.596,30.343
				c1.08,1.845-0.535,2.819-0.963,4.184c-0.274,0.219-1.233-0.259-0.75,0.733c0.354,0.466,0.017,0.836-0.188,1.196
				c-5.142,8.929-10.291,17.854-15.527,26.933c-1.627-2.482-2.729-5.047-3.855-7.602c-0.356-0.809,0.25-1.305,0.572-1.868
				c3.943-6.87,7.9-13.732,11.861-20.589c0.475-0.822,0.932-1.494,0.299-2.572c-4.556-7.748-9.029-15.544-13.533-23.322
				c-0.088-0.152-0.215-0.28-0.422-0.543c-1.826,4.261-3.041,8.598-3.814,13.042C232,35.9,234.457,50.62,241.984,64.484
				c0.459,0.846,0.42,1.441-0.07,2.211C241.201,67.805,240.604,68.98,239.961,70.13z"/>
			<path fill="#EDB967" d="M259.314,35.678c-0.592-0.499-0.455-1.082-0.209-1.693c0.75-0.082,0.446,0.84,0.959,0.96
				C259.814,35.188,259.564,35.435,259.314,35.678z"/>
			<path fill="#E18501" d="M225.232,21.67c0.998-1.924,2.819-3.101,4.24-4.64c1.508-1.632,3.159-3.133,4.198-5.141
				c0.195-0.869,0.939-1.299,1.496-1.881c1.063-1.758,2.301-3.389,3.617-4.964c0.168,0.025,0.303,0.103,0.4,0.24
				C235.449,11.525,230.6,16.816,225.232,21.67z"/>
			<path fill="#0C7ABD" d="M205.098,31.461c-2.951-0.235-5.676-1.449-8.563-1.973c-2.305-0.419-4.561-1.11-6.936-1.041
				c-0.238-0.011-0.404-0.136-0.521-0.334c-0.043-0.155,0.004-0.275,0.131-0.369C194.633,28.425,200.023,29.269,205.098,31.461z"/>
			<path fill="#0D7ABC" d="M177.014,27.656c0-0.117,0.039-0.22,0.115-0.31c2.811,0.005,5.621-0.005,8.432,0.017
				c0.603,0.005,1.268-0.191,1.763,0.363c-0.327,0.393-0.782,0.467-1.255,0.506c-1.15,0.058-2.309-0.027-3.463,0.084
				C180.74,28.102,178.756,28.901,177.014,27.656z"/>
			<path fill="#E5F2F6" d="M235.168,10.008c-0.056,0.981-0.814,1.4-1.496,1.881c-0.172-0.023-0.345-0.047-0.517-0.071
				C233.688,11.061,234.162,10.238,235.168,10.008z"/>
			<path fill="#0E79BB" d="M186.139,27.749c0.396-0.007,0.787-0.014,1.182-0.022c0.631,0.007,1.26,0.013,1.889,0.018
				c0,0.101,0,0.201,0,0.3c-0.656,0.766-1.522,0.53-2.352,0.495c-0.207-0.042-0.398-0.121-0.578-0.238
				C186.096,28.153,186.051,27.967,186.139,27.749z"/>
			<path fill="#D9C2A3" d="M239.188,5.284c-0.135-0.08-0.268-0.16-0.398-0.24c0.064-0.507,0.226-0.955,0.752-1.164
				C239.423,4.348,239.303,4.816,239.188,5.284z"/>
			<path fill="#2163AA" d="M186.193,28.085c0.104,0.064,0.213,0.107,0.332,0.126c0.985,0.38,2.192-0.395,3.064,0.585
				c10.227,1.709,19.745,5.257,28.446,10.928c0.947,0.615,1.795,1.433,2.808,1.899c3.317,1.524,3.954,4.498,4.348,7.643
				c0.447,2.254,1.511,4.28,2.345,6.395c0.1,0.146,0.182,0.309,0.249,0.477c0.302,0.635,0.4,1.34,0.664,1.987
				c0.236,1.104,0.927,2.031,1.193,3.124c0.565,0.916,0.606,2.126,1.575,2.82c1.027,2.002,2.054,4.01,3.08,6.018
				c-10.053,0.023-20.104,0.053-30.157,0.074c-2.701,0.007-5.404-0.014-8.104-0.021c-6.026-10.437-12.052-20.875-18.185-31.499
				c3.01-0.031,5.698,0.09,8.393,0.422c0.908,0.111,1.087,0.78,1.406,1.335c4.039,6.953,8.062,13.917,12.07,20.885
				c0.411,0.715,0.701,1.335,1.776,1.327c9.148-0.053,18.299-0.026,27.848-0.026c-6.303-8.063-13.813-14.149-22.659-18.644
				c-8.828-4.482-18.244-6.621-28.078-7.13c-0.222-0.36-0.049-0.712,0.021-1.067c0.48-2.383-0.776-3.532-3.108-2.84
				c-0.233,0.071-0.463,0.162-0.715,0.167c-0.744-0.558-0.47-1.125-0.085-1.769c0.698-1.166,1.332-2.371,1.991-3.562
				c0.104-0.018,0.204-0.043,0.302-0.08c1.938,0.061,3.874,0.12,5.813,0.179C183.932,28.119,185.094,27.688,186.193,28.085z"/>
			<path fill="#E0743C" d="M174.805,33.066c0.911-1.264,2.082-1.295,3.271-0.538c1.492,0.953,1.596,2.107,0.531,4.278
				c-0.508-0.019-1.018-0.037-1.526-0.057c-0.015-0.062-0.054-0.13-0.034-0.177c0.783-2.446,0.783-2.446-1.841-2.775
				C175.071,33.555,174.939,33.311,174.805,33.066z"/>
			<path fill="#2163AA" d="M175.204,33.798c1.009-0.566,2.131-0.706,2.816,0.271c0.785,1.112-0.353,1.874-0.941,2.681
				C176.068,36.011,175.747,34.833,175.204,33.798z"/>
			<path fill="#CC574A" d="M227.479,56.158c-1.383-2.09-2.104-4.402-2.287-6.895c0.777,0.604,0.307,1.867,1.254,2.383
				c0.054,0.082,0.096,0.164,0.125,0.254C227.152,53.261,227.782,54.609,227.479,56.158z"/>
			<path fill="#CC5543" d="M229.396,61.418c-0.223-1.215-1.258-2.145-1.222-3.451c-0.043-0.301,0.104-0.408,0.388-0.378
				c0.414,1.138,1.112,2.177,1.203,3.429C229.964,61.445,229.736,61.484,229.396,61.418z"/>
			<path fill="#DC887C" d="M227.479,56.158c-0.302-1.418-0.604-2.838-0.908-4.258c1.223,0.855,0.871,2.3,1.293,3.457
				c0.193,0.394,0.328,0.76-0.34,0.776L227.479,56.158z"/>
			<path fill="#CD4729" d="M229.396,61.418c0.123-0.133,0.246-0.27,0.369-0.4c0.83,0.852,0.853,2.088,1.452,3.051
				C229.923,63.656,229.994,62.307,229.396,61.418z"/>
			<path fill="#E38C6D" d="M227.521,56.136c0.115-0.262,0.229-0.52,0.342-0.778c0.479,0.666,0.729,1.406,0.699,2.231
				c-0.129,0.127-0.258,0.253-0.388,0.378C227.795,57.417,227.602,56.796,227.521,56.136z"/>
			<path fill="#F8F7F7" d="M189.591,28.796c-0.954-0.546-2.12,0.011-3.065-0.585c0.896-0.056,1.787-0.111,2.684-0.167
				c0.131,0.135,0.263,0.269,0.392,0.403C189.6,28.563,189.596,28.68,189.591,28.796z"/>
			<path fill="#F7F3F1" d="M186.193,28.085c-1.127-0.041-2.278,0.29-3.367-0.25c1.104-0.027,2.208-0.059,3.313-0.086
				C186.172,27.856,186.189,27.971,186.193,28.085z"/>
		</g>
	</g>
	<g display="inline">
		<path fill="#FFFFFF" d="M231.416,68.116c-2.379-1.921-3.733-4.978-7.232-5.261c-0.477-0.041-0.942-0.313-1.399-0.511
			c-4.291-1.836-6.978-5.911-6.91-10.479c0.063-4.47,2.972-8.604,7.233-10.291c4.074-1.612,8.192-0.552,11.617,3.009
			c0.954,0.99,1.871,2.014,2.938,3.167c1.349-1.495,2.59-2.87,3.807-4.217c-6.902-8.637-14.296-10.847-23.602-5.493
			c-7.436,4.277-9.742,13.986-5.685,21.785C215.861,66.891,224.829,70.842,231.416,68.116z M250.285,60.706
			c5.975,8.854,14.053,9.763,21.587,6.303c7.432-3.409,10.744-11.215,8.468-19.429c-1.95-7.037-9.006-12.66-15.169-12.048
			c0,1.792,0,3.588,0,5.356c6.161,1.101,9.899,4.75,10.341,10.247c0.388,4.838-1.79,9.264-6.53,11.29
			c-4.669,1.996-9.082,0.954-12.478-2.907c-0.798-0.908-1.646-1.773-2.567-2.761C252.672,58.125,251.514,59.379,250.285,60.706z
			 M236.037,58.8c-2.43-2.608-4.684-5.028-6.854-7.36c-1.566,1.519-2.87,2.78-4.279,4.146c3.396,3.371,6.729,6.719,10.129,9.991
			c0.308,0.3,1.283,0.399,1.563,0.153c2.923-2.561,5.809-5.166,8.604-7.867c0.715-0.691,0.949-1.854,1.604-2.635
			c2.383-2.834,4.74-5.703,7.321-8.353c1.724-1.77,3.814-3.178,5.723-4.773c0.306-0.256,0.702-0.635,0.716-0.973
			c0.073-1.692,0.034-3.39,0.034-5.619c-1.953,0.965-3.81,1.42-5.021,2.562c-4.187,3.947-8.209,8.073-12.172,12.246
			C240.932,52.925,238.681,55.739,236.037,58.8z"/>
		<path fill="#FFFFFF" d="M231.416,68.116c-6.587,2.726-15.556-1.226-19.233-8.291c-4.059-7.798-1.751-17.508,5.685-21.785
			c9.306-5.354,16.698-3.144,23.602,5.493c-1.217,1.347-2.458,2.722-3.807,4.217c-1.065-1.152-1.982-2.177-2.938-3.167
			c-3.425-3.561-7.543-4.621-11.617-3.009c-4.263,1.687-7.17,5.821-7.233,10.291c-0.066,4.566,2.619,8.644,6.91,10.479
			c0.457,0.196,0.924,0.471,1.399,0.51C227.683,63.139,229.037,66.195,231.416,68.116z"/>
		<path fill="#FFFFFF" d="M250.285,60.706c1.229-1.327,2.387-2.581,3.65-3.949c0.921,0.986,1.771,1.853,2.567,2.761
			c3.396,3.861,7.809,4.903,12.478,2.907c4.74-2.026,6.918-6.452,6.53-11.29c-0.44-5.496-4.18-9.146-10.341-10.247
			c0-1.768,0-3.564,0-5.356c6.163-0.612,13.219,5.011,15.169,12.048c2.275,8.214-1.036,16.02-8.468,19.429
			C264.338,70.469,256.26,69.561,250.285,60.706z"/>
		<path fill="#00915A" d="M236.037,58.8c2.644-3.061,4.895-5.875,7.367-8.479c3.963-4.174,7.985-8.3,12.172-12.247
			c1.213-1.141,3.068-1.596,5.021-2.561c0,2.229,0.039,3.926-0.034,5.619c-0.014,0.337-0.41,0.717-0.716,0.973
			c-1.907,1.595-3.999,3.003-5.723,4.773c-2.581,2.648-4.938,5.518-7.321,8.354c-0.654,0.779-0.89,1.941-1.604,2.634
			c-2.795,2.7-5.681,5.308-8.604,7.866c-0.28,0.248-1.257,0.146-1.563-0.152c-3.4-3.271-6.732-6.62-10.129-9.991
			c1.409-1.364,2.713-2.628,4.279-4.146C231.354,53.771,233.608,56.189,236.037,58.8z"/>
	</g>
	<g display="inline">
		<path fill="#FFFFFF" d="M17.427,37.841c0-8.289,4.916-10.515,11.319-10.575c4.93-0.08,12.599,0.826,15.491,1.552v5.251
			c-3.658-0.289-12.771-0.572-14.091-0.572c-3.682-0.111-6.088,0.189-6.088,4.745v2.673c0,4.001,1.682,4.602,4.991,4.602h7.157
			c7.982,0,9.538,5.985,9.538,10.633v3.187c0,8.998-5.908,10.575-11.566,10.575c-5.563,0-11.762-0.631-15.472-1.609v-5.25
			c2.287,0.229,9.154,0.629,14.471,0.629c2.384,0,5.938-0.295,5.938-4.164v-2.847c0-2.698-0.813-4.522-4.108-4.522h-7.002
			c-9.747,0-10.576-6.57-10.576-10.632v-3.675H17.427z"/>
		<path fill="#FFFFFF" d="M50.789,39.099h5.173l1.458,3.418c2.987-1.96,5.387-3.821,9.942-3.821c3.816,0,6.789,1.537,8.063,4.118
			c2.812-2.158,6.545-4.118,11.393-4.118c6.18,0,9.176,4.324,9.176,10.355v20.403h-6.632V48.971c0-3.032-1.632-4.645-4.004-4.645
			c-3.596,0-6.069,0.643-8.803,2.682c0,0.16,0.021,1.789,0.021,1.969v20.479h-6.632V48.971c0-3.032-1.669-4.645-4.041-4.645
			c-3.602,0-5.383,0.907-8.482,2.821v22.307H50.79L50.789,39.099L50.789,39.099z"/>
		<path fill="#FFFFFF" d="M100.275,58.823c0-4.474,2.56-8.063,8.423-8.063c0,0,10.29,0.057,10.29,0c0,0,0.058-2.572,0-2.63
			c0-3.327-1.629-4.087-4.286-4.087c-3.177,0-9.83,0.406-13.435,0.666v-4.267c4.02-1.403,8.526-1.878,14.187-1.916
			c5.885-0.037,10.167,2.335,10.167,9.404v21.523h-5.165l-1.468-3.459c-0.254,0.42-5.647,3.859-10.489,3.801
			c-5.233-0.102-8.224-3.605-8.224-7.886V58.823z M109.939,64.165c3.793,0,9.049-2.556,9.049-2.556v-6.514l-9.288,0.693
			c-2.238,0.209-2.792,1.809-2.792,3.316v1.978C106.907,63.688,108.296,64.165,109.939,64.165z"/>
		<path fill="#FFFFFF" d="M130.923,39.099h5.373l1.258,3.83c2.606-2.021,5.551-4.153,9.658-4.153c1.438,0,2.924,0.074,3.689,0.397
			v6.434c-0.766-0.112-2.633-0.223-4.33-0.223c-3.772,0-6.156,0.781-9.018,3.356v20.714h-6.631V39.099z"/>
		<path fill="#FFFFFF" d="M152.983,40.47l5.179-1.429l1.229-8.461h5.401v8.461h7.541v5.431h-7.541v13.319
			c0,4.654,1.135,5.676,2.839,6.214c0,0,3.888,1.201,4.288,1.201v4.229h-6.272c-4.461,0-7.484-2.783-7.484-10.845v-14.12h-5.179
			V40.47z"/>
		<path fill="#FFFFFF" d="M177.611,27.608h16.841c8.547,0,11.462,5.534,11.462,11.062c0,3.99-1.48,8.123-5.559,9.06
			c3.135,0.612,6.067,3.905,6.067,9.663c0,7.07-3.066,12.063-11.871,12.063h-16.94V27.608z M194.152,44.643
			c3.388,0,5.21-1.946,5.21-5.553c0-4.484-2.838-5.45-5.21-5.45h-9.873v11.003H194.152z M194.352,63.422
			c2.545,0,5.439-1.003,5.439-6.305c0-3.489-1.537-6.643-5.439-6.643H184.28v12.946L194.352,63.422L194.352,63.422z"/>
	</g>
	<g display="inline">
		<path fill="#FFFFFF" d="M285.294,27.283h5.944v22.189h1.691l8.699-9.327h7.698l-10.893,11.762l10.893,15.451h-7.136l-9.263-13.019
			h-1.691v13.019h-5.944L285.294,27.283L285.294,27.283z"/>
		<path fill="#FFFFFF" d="M311.366,47.014c0-4.203,1.793-7.124,7.073-7.124c4.297,0,11.804,0.312,14.11,1.178v3.944h-12.712
			c-2.365,0-2.527,0.833-2.527,2.289v1.641c0,2.119,1.079,2.185,2.527,2.185h7.057c4.925,0,7.021,2.965,7.021,6.882v2.689
			c0,5.587-3.383,6.918-6.663,6.918c-4.196,0-12.849-0.428-14.76-1.297v-3.875h13.289c0.306,0,2.188,0.072,2.188-2.104v-1.723
			c0-1.382-0.437-2.154-2.188-2.154h-6.984c-4.817,0-7.432-1.812-7.432-7.09L311.366,47.014L311.366,47.014z"/>
	</g>
</g>
<g id="Layer_3">
	<g id="Layer_8">
		<g>
			<path fill="#FFFFFF" d="M16.088,37.575c0-8.289,4.916-10.515,11.319-10.574c4.93-0.08,12.6,0.826,15.492,1.552v5.251
				c-3.659-0.289-12.771-0.572-14.091-0.572c-3.683-0.111-6.088,0.189-6.088,4.745v2.673c0,4.001,1.681,4.602,4.99,4.602h7.157
				c7.983,0,9.538,5.985,9.538,10.634v3.187c0,8.998-5.908,10.575-11.565,10.575c-5.563,0-11.763-0.631-15.473-1.608v-5.25
				c2.287,0.229,9.155,0.629,14.472,0.629c2.384,0,5.937-0.295,5.937-4.164v-2.848c0-2.699-0.812-4.521-4.108-4.521h-7.002
				c-9.747,0-10.575-6.571-10.575-10.633v-3.676H16.088z"/>
			<path fill="#FFFFFF" d="M49.45,38.833h5.173l1.458,3.418c2.987-1.959,5.388-3.82,9.943-3.82c3.816,0,6.789,1.537,8.063,4.117
				c2.813-2.157,6.546-4.117,11.394-4.117c6.179,0,9.175,4.324,9.175,10.355v20.402h-6.63V48.706c0-3.033-1.632-4.646-4.004-4.646
				c-3.596,0-6.07,0.644-8.803,2.683c0,0.159,0.02,1.788,0.02,1.969v20.478h-6.631V48.706c0-3.033-1.669-4.646-4.041-4.646
				c-3.602,0-5.383,0.907-8.483,2.821v22.307h-6.631V38.833H49.45z"/>
			<path fill="#FFFFFF" d="M98.936,58.558c0-4.473,2.559-8.063,8.423-8.063c0,0,10.29,0.057,10.29,0c0,0,0.057-2.574,0-2.63
				c0-3.327-1.629-4.087-4.287-4.087c-3.176,0-9.83,0.406-13.434,0.666v-4.267c4.019-1.403,8.525-1.878,14.186-1.916
				c5.885-0.037,10.167,2.335,10.167,9.403v21.523h-5.165l-1.467-3.459c-0.254,0.42-5.648,3.859-10.49,3.801
				c-5.232-0.101-8.223-3.605-8.223-7.886V58.558z M108.6,63.899c3.793,0,9.049-2.555,9.049-2.555v-6.514l-9.289,0.692
				c-2.238,0.209-2.792,1.808-2.792,3.315v1.979C105.568,63.423,106.957,63.899,108.6,63.899z"/>
			<path fill="#FFFFFF" d="M129.584,38.833h5.373l1.259,3.83c2.605-2.021,5.551-4.152,9.657-4.152c1.438,0,2.925,0.074,3.69,0.396
				v6.434c-0.766-0.111-2.633-0.223-4.33-0.223c-3.773,0-6.157,0.781-9.018,3.356v20.714h-6.632V38.833z"/>
			<path fill="#FFFFFF" d="M151.644,40.204l5.178-1.429l1.229-8.461h5.4v8.461h7.541v5.431h-7.541v13.319
				c0,4.654,1.135,5.677,2.839,6.214c0,0,3.889,1.201,4.288,1.201v4.229h-6.271c-4.461,0-7.485-2.782-7.485-10.844V44.206h-5.178
				V40.204z"/>
			<path fill="#FFFFFF" d="M176.272,27.343h16.84c8.547,0,11.463,5.533,11.463,11.062c0,3.99-1.48,8.123-5.559,9.06
				c3.135,0.613,6.066,3.906,6.066,9.664c0,7.069-3.064,12.062-11.871,12.062h-16.939V27.343z M192.813,44.378
				c3.387,0,5.211-1.946,5.211-5.553c0-4.484-2.838-5.451-5.211-5.451h-9.873v11.004H192.813z M193.014,63.156
				c2.545,0,5.438-1.003,5.438-6.305c0-3.489-1.537-6.644-5.438-6.644h-10.072v12.947L193.014,63.156L193.014,63.156z"/>
		</g>
		<g>
			<path fill="#FFFFFF" d="M283.955,27.018h5.945v22.19h1.691l8.699-9.326h7.697l-10.893,11.762l10.893,15.451h-7.135l-9.264-13.018
				h-1.691v13.018h-5.945V27.018H283.955z"/>
			<path fill="#FFFFFF" d="M310.028,46.749c0-4.203,1.793-7.125,7.074-7.125c4.297,0,11.803,0.313,14.109,1.179v3.944H318.5
				c-2.365,0-2.527,0.832-2.527,2.289v1.64c0,2.12,1.078,2.185,2.527,2.185h7.057c4.924,0,7.02,2.965,7.02,6.883v2.688
				c0,5.587-3.383,6.918-6.662,6.918c-4.197,0-12.85-0.427-14.76-1.296v-3.876h13.289c0.305,0,2.188,0.073,2.188-2.104v-1.723
				c0-1.381-0.436-2.154-2.188-2.154h-6.984c-4.818,0-7.432-1.812-7.432-7.09V46.749L310.028,46.749z"/>
		</g>
		<g>
			<path fill="#00915A" d="M244.783,48.294c-1.404,1.576-9.652,10.567-9.678,10.596l-7.168-7.167l-3.947,3.948l10.771,10.772
				c2.736-1.824,6.383-6.268,13.221-13.669c3.445-3.733,6.738-8.965,11.377-10.813v-5.876
				C252.643,37.722,249.067,43.483,244.783,48.294z"/>
			<path fill="#FFFFFF" d="M263.862,35.641v5.544c5.508,0.204,9.854,4.637,10.363,9.884c0.779,7.997-5.67,13.495-13.016,12.373
				c-4.088-0.622-5.873-3.98-8.41-6.491c-1.66,1.815-1.668,1.818-3.688,4.049c2.197,2.454,3.477,4.33,5.912,5.858
				c6.271,3.931,15.152,2.181,20.059-2.773C285.076,53.98,277.932,36.12,263.862,35.641z"/>
			<path fill="#FFFFFF" d="M215.123,50c1.186-5.94,7.678-10.787,14.512-8.321c2.768,1.002,4.904,3.912,6.957,6.17
				c1.035-1.121,2.67-2.932,3.768-4.186c-4.242-4.148-7.457-8.775-15.848-7.956c-5.65,0.55-10.145,3.696-12.59,7.68
				c-8.121,13.235,4.523,29.03,18.498,25.058c-1.627-1.647-3.266-3.278-4.918-4.897C219.239,63.237,213.688,57.206,215.123,50z"/>
		</g>
	</g>
</g>
</svg>
