<?xml version="1.0" encoding="utf-8"?>
<!-- Generator: Adobe Illustrator 16.0.0, SVG Export Plug-In . SVG Version: 6.00 Build 0)  -->
<!DOCTYPE svg PUBLIC "-//W3C//DTD SVG 1.1//EN" "http://www.w3.org/Graphics/SVG/1.1/DTD/svg11.dtd">
<svg version="1.1" xmlns="http://www.w3.org/2000/svg" xmlns:xlink="http://www.w3.org/1999/xlink" x="0px" y="0px"
	 width="840.02px" height="839.948px" viewBox="0 0 840.02 839.948" enable-background="new 0 0 840.02 839.948"
	 xml:space="preserve">
<symbol  id="Capsule_1_leaf-3" viewBox="-123.1 -493.25 246.225 505.75">
	<g id="cap_1_">
		<path fill-rule="evenodd" clip-rule="evenodd" fill="#FFFFFF" d="M-69.35-41.25c-19.167-19.133-28.75-42.233-28.75-69.3V-247.1
			c61.42-30.511,126.82-30.511,196.2,0v136.55c0,16.167-3.417,30.917-10.25,44.25c-4.6,9-10.75,17.35-18.45,25.05h-0.05
			C50.217-22.083,27.117-12.5,0.05-12.5H0C-27.1-12.5-50.217-22.083-69.35-41.25z M0,12.5h0.05c20.8,0,39.733-4.5,56.8-13.5
			c10.8-5.7,20.867-13.217,30.2-22.55v-0.05c0.267-0.267,0.534-0.533,0.8-0.8c23.5-23.833,35.25-52.55,35.25-86.15v-124.3
			c0.033-0.367,0.033-0.75,0-1.15v-134.15c0-34.033-12.017-63.05-36.05-87.05c-1.033-1.033-2.083-2.066-3.15-3.1l-0.15-0.15
			c-11.633-10.867-24.367-19.033-38.2-24.5c-14.033-5.533-29.2-8.3-45.5-8.3H0c-16.3,0-31.45,2.767-45.45,8.3
			c-13.867,5.467-26.617,13.633-38.25,24.5l0.15-0.1c-1.2,1.1-2.35,2.216-3.45,3.35c-0.067,0.034-0.117,0.083-0.15,0.15
			c-23.967,23.966-35.95,52.933-35.95,86.9v134.4c0,0.167,0,0.333,0,0.5v124.7c0,33.966,12.017,62.95,36.05,86.95l0.05,0.05
			C-77.7-14.217-67.633-6.7-56.8-1C-39.733,8-20.8,12.5,0,12.5z"/>
	</g>
	<g id="leaf_1_">
		
			<use xlink:href="#leaf-3"  width="80.428" height="122.8" x="-125.475" y="8.25" transform="matrix(2.0048 0 0 2.0048 170.4995 -310.0498)" overflow="visible"/>
	</g>
</symbol>
<symbol  id="Capsule_2_node-3" viewBox="-123.1 -493.25 246.225 505.75">
	<g id="cap_2_">
		<path fill-rule="evenodd" clip-rule="evenodd" fill="#FFFFFF" d="M-69.35-41.25c-19.167-19.133-28.75-42.233-28.75-69.3V-247.1
			c68.026-35.449,133.426-35.449,196.2,0v136.55c0,27.066-9.567,50.167-28.7,69.3h-0.05C50.217-22.083,27.117-12.5,0.05-12.5H0
			C-27.1-12.5-50.217-22.083-69.35-41.25z M0,12.5h0.05c33.967,0,62.967-12.017,87-36.05v-0.05c24.034-24,36.05-52.983,36.05-86.95
			v-124.3c0.033-0.367,0.033-0.75,0-1.15v-134.15c0-34.033-12.017-63.05-36.05-87.05c-1.033-1.033-2.083-2.066-3.15-3.1l-0.15-0.15
			c-23.367-21.867-51.267-32.8-83.7-32.8H0c-32.433,0-60.333,10.933-83.7,32.8l0.15-0.1c-1.2,1.1-2.35,2.216-3.45,3.35
			c-0.067,0.034-0.117,0.083-0.15,0.15c-23.967,23.966-35.95,52.933-35.95,86.9v134.4c0,0.167,0,0.333,0,0.5v124.7
			c0,33.966,12.017,62.95,36.05,86.95l0.05,0.05C-63,0.483-34,12.5,0,12.5z"/>
	</g>
	<g id="node_1_">
		
			<use xlink:href="#node-3"  width="168" height="368.466" x="198.45" y="-473.716" transform="matrix(0.8817 0 0 0.8817 -248.8999 26.0493)" overflow="visible"/>
	</g>
</symbol>
<symbol  id="leaf-3" viewBox="-125.475 8.25 80.428 122.8">
	<g id="Layer_2_2_">
		<path fill-rule="evenodd" clip-rule="evenodd" fill="#FFFFFF" d="M-75.175,57.4c-7.923,18.861,2.119,31.92,30.125,39.175
			C-44.865,67.642-54.907,54.583-75.175,57.4z M-84.7,41.65c-18.456-8.928-32.047,0.422-40.775,28.05
			C-96.582,71.428-82.99,62.078-84.7,41.65z M-82,53c-5.971,13.199-8.237,24.407-6.8,33.625
			c-11.104,14.811-4.996,29.619,18.325,44.425c8.71-26.407,3.893-41.749-14.45-46.025C-85.464,75.738-82.656,65.063-76.5,53
			c10.479-19.829,10.354-34.745-0.375-44.75H-92.75C-76.81,19.187-73.227,34.104-82,53z"/>
	</g>
</symbol>
<symbol  id="node-3" viewBox="198.45 -473.716 168 368.466">
	<g id="Layer_1_2_">
		<polygon fill-rule="evenodd" clip-rule="evenodd" fill="#FFFFFF" points="290.95,-136.27 290.95,-342.267 272.95,-342.267 
			272.95,-136.27 		"/>
		<polygon fill-rule="evenodd" clip-rule="evenodd" fill="#FFFFFF" points="344.95,-267.719 344.95,-473.716 326.95,-473.716 
			326.95,-267.719 		"/>
		<path fill-rule="evenodd" clip-rule="evenodd" fill="#FFFFFF" d="M281.95-105.25c8.433,0,15.617-2.967,21.55-8.9
			c5.967-5.967,8.95-13.167,8.95-21.6s-2.983-15.617-8.95-21.55c-5.933-5.967-13.117-8.95-21.55-8.95
			c-8.434,0-15.633,2.983-21.6,8.95c-5.934,5.933-8.9,13.117-8.9,21.55s2.966,15.633,8.9,21.6
			C266.317-108.217,273.517-105.25,281.95-105.25z"/>
		<path fill-rule="evenodd" clip-rule="evenodd" fill="#FFFFFF" d="M335.95-222.25c8.433,0,15.617-2.967,21.55-8.9
			c5.967-5.967,8.95-13.167,8.95-21.6s-2.983-15.617-8.95-21.55c-5.933-5.967-13.117-8.95-21.55-8.95
			c-8.434,0-15.633,2.983-21.6,8.95c-5.934,5.933-8.9,13.117-8.9,21.55s2.966,15.633,8.9,21.6
			C320.317-225.217,327.517-222.25,335.95-222.25z"/>
		<polygon fill-rule="evenodd" clip-rule="evenodd" fill="#FFFFFF" points="237.95,-226.719 237.95,-432.716 219.95,-432.716 
			219.95,-226.719 		"/>
		<path fill-rule="evenodd" clip-rule="evenodd" fill="#FFFFFF" d="M228.95-181.25c8.433,0,15.617-2.967,21.55-8.9
			c5.967-5.967,8.95-13.167,8.95-21.6s-2.983-15.617-8.95-21.55c-5.933-5.967-13.117-8.95-21.55-8.95
			c-8.434,0-15.633,2.983-21.6,8.95c-5.934,5.933-8.9,13.117-8.9,21.55s2.966,15.633,8.9,21.6
			C213.317-184.217,220.517-181.25,228.95-181.25z"/>
	</g>
</symbol>
<g id="Circle">
	<path fill-rule="evenodd" clip-rule="evenodd" fill="#3399CC" d="M840.02,419.975c0,115.977-41.002,214.957-123.004,296.942
		c-82.003,82.021-181.005,123.031-297.006,123.031c-116.001,0-215.003-41.01-297.006-123.031C41.001,634.932,0,535.951,0,419.975
		s41.001-214.976,123.004-296.997C205.007,40.993,304.008,0,420.01,0c116.001,0,215.003,40.993,297.006,122.978
		C799.018,204.999,840.02,303.998,840.02,419.975z"/>
	<g>
		<defs>
			<path id="SVGID_1_" d="M717.016,122.978C635.013,40.993,536.011,0,420.01,0C304.008,0,205.007,40.993,123.004,122.978
				C41.001,204.999,0,303.998,0,419.975s41.001,214.957,123.004,296.942c82.003,82.021,181.004,123.031,297.006,123.031
				c116.001,0,215.003-41.01,297.006-123.031c82.002-81.985,123.004-180.966,123.004-296.942S799.018,204.999,717.016,122.978z"/>
		</defs>
		<clipPath id="SVGID_2_">
			<use xlink:href="#SVGID_1_"  overflow="visible"/>
		</clipPath>
		<g id="Circle_fx" clip-path="url(#SVGID_2_)">
			<linearGradient id="SVGID_3_" gradientUnits="userSpaceOnUse" x1="172.8218" y1="65.9009" x2="172.8217" y2="775.7005">
				<stop  offset="0" style="stop-color:#AD19A3;stop-opacity:0"/>
				<stop  offset="1" style="stop-color:#484F98"/>
			</linearGradient>
			<polygon fill-rule="evenodd" clip-rule="evenodd" fill="url(#SVGID_3_)" points="185.821,887.651 -84.079,147.901 
				429.722,-45.999 			"/>
		</g>
		<g id="Circle_fx_1_" clip-path="url(#SVGID_2_)">
			<linearGradient id="SVGID_4_" gradientUnits="userSpaceOnUse" x1="268.6499" y1="149.9268" x2="585.0997" y2="785.2766">
				<stop  offset="0" style="stop-color:#AD19A3;stop-opacity:0.6196"/>
				<stop  offset="1" style="stop-color:#484F98;stop-opacity:0.3882"/>
			</linearGradient>
			<polygon fill-rule="evenodd" clip-rule="evenodd" fill="url(#SVGID_4_)" points="684.472,860.851 -76.878,127.151 
				486.521,-83.599 			"/>
		</g>
		<g id="Circle_fx_2_" clip-path="url(#SVGID_2_)">
			<linearGradient id="SVGID_5_" gradientUnits="userSpaceOnUse" x1="709.9951" y1="703.7549" x2="530.5045" y2="17.0772">
				<stop  offset="0" style="stop-color:#AD19A3;stop-opacity:0.102"/>
				<stop  offset="1" style="stop-color:#484F98;stop-opacity:0.4902"/>
			</linearGradient>
			<polygon fill-rule="evenodd" clip-rule="evenodd" fill="url(#SVGID_5_)" points="448.872,887.651 448.722,-77.299 
				1043.521,796.851 			"/>
		</g>
	</g>
</g>
<g id="TXT" display="none">
	<path display="inline" fill-rule="evenodd" clip-rule="evenodd" fill="#3399CC" d="M991.972,960.301
		c4.399,4.667,7.85,10.15,10.35,16.45s3.75,13.033,3.75,20.2c0,1.933-0.066,3.366-0.2,4.3c-0.1,1-0.25,2.05-0.449,3.15h-70.75
		c0.899,5.633,3.416,10.033,7.55,13.199c4.167,3.101,9.017,4.65,14.55,4.65c4.3,0,7.75-0.867,10.35-2.6
		c2.601-1.634,4.867-3.7,6.801-6.2h28.899c-2.267,5.3-5.033,9.983-8.3,14.05c-3.333,3.967-6.95,7.333-10.85,10.1
		c-7.967,5.634-16.934,8.45-26.9,8.45c-6.833,0-13.233-1.267-19.2-3.8c-6.033-2.533-11.35-6.066-15.95-10.6
		c-4.566-4.567-8.183-9.884-10.85-15.95c-2.667-6.033-4-12.567-4-19.601c0-6.6,1.217-12.967,3.65-19.1
		c2.433-6.133,5.866-11.533,10.3-16.2c4.433-4.633,9.667-8.366,15.7-11.2c6.1-2.8,12.717-4.199,19.85-4.199s13.767,1.316,19.9,3.949
		C982.271,952.018,987.538,955.668,991.972,960.301z M976.121,980.601c-0.899-1.899-2.183-3.699-3.85-5.399
		c-1.7-1.733-3.85-3.15-6.45-4.25c-2.6-1.167-5.733-1.75-9.399-1.75c-3.601,0-6.733,0.583-9.4,1.75c-2.6,1.1-4.717,2.517-6.35,4.25
		c-1.733,1.7-3.018,3.5-3.851,5.399c-0.866,1.801-1.467,3.4-1.8,4.801h42.8C977.488,984.001,976.922,982.401,976.121,980.601z
		 M-48.179,938.601h-28.25v-21.449h28.25V938.601z M14.622,946.901c3.1-1,6.833-1.5,11.2-1.5c2.034,0,4.267,0.217,6.7,0.649
		c2.433,0.434,4.85,1.283,7.25,2.55c2.367,1.301,4.683,3.018,6.95,5.15c2.267,2.167,4.367,5,6.3,8.5
		c2.933-4.667,6.833-8.65,11.7-11.95c4.867-3.267,10.933-4.899,18.2-4.899c1.7,0,3.583,0.1,5.65,0.3
		c2.034,0.233,4.167,0.683,6.4,1.35c2.2,0.7,4.383,1.667,6.55,2.9c2.2,1.267,4.267,2.933,6.2,5c2.167,2.366,3.95,4.6,5.35,6.7
		c1.3,2.1,2.35,4.5,3.15,7.199c0.7,2.733,1.167,5.867,1.4,9.4c0.233,3.6,0.35,8,0.35,13.2v51.55h-28.25v-50.15
		c0-1.933-0.083-4.116-0.25-6.55c-0.167-2.433-0.684-4.7-1.55-6.8c-0.967-2.1-2.417-3.867-4.35-5.3c-1.867-1.5-4.633-2.25-8.3-2.25
		c-3.933,0-6.95,0.767-9.05,2.3c-2.1,1.5-3.617,3.333-4.55,5.5c-1,2.167-1.583,4.316-1.75,6.45c-0.167,2.167-0.25,3.95-0.25,5.35
		v51.45h-28.2v-51.3c0-1.267-0.083-3.017-0.25-5.25c-0.167-2.2-0.667-4.384-1.5-6.55c-0.9-2.134-2.317-3.983-4.25-5.551
		c-1.867-1.6-4.583-2.399-8.15-2.399c-3.9,0-6.933,0.833-9.1,2.5c-2.167,1.6-3.75,3.533-4.75,5.8c-1.034,2.267-1.633,4.583-1.8,6.95
		c-0.167,2.399-0.25,4.283-0.25,5.649v50.15h-28.25v-94.4h26.3v10.051h0.35c0.6-1,1.467-2.233,2.6-3.7
		c1.133-1.5,2.684-2.95,4.65-4.351C9.038,949.168,11.555,947.935,14.622,946.901z M-48.179,1043.001h-28.25v-94.4h28.25V1043.001z
		 M162.021,985.401h42.8c-0.333-1.4-0.9-3-1.7-4.801c-0.9-1.899-2.184-3.699-3.85-5.399c-1.7-1.733-3.85-3.15-6.45-4.25
		c-2.6-1.167-5.733-1.75-9.4-1.75c-3.6,0-6.733,0.583-9.4,1.75c-2.6,1.1-4.717,2.517-6.35,4.25c-1.733,1.7-3.017,3.5-3.85,5.399
		C162.955,982.401,162.355,984.001,162.021,985.401z M183.271,945.401c7.133,0,13.767,1.316,19.9,3.949
		c6.1,2.667,11.367,6.317,15.8,10.95c4.4,4.667,7.85,10.15,10.35,16.45s3.75,13.033,3.75,20.2c0,1.933-0.066,3.366-0.2,4.3
		c-0.1,1-0.25,2.05-0.45,3.15h-70.75c0.9,5.633,3.417,10.033,7.55,13.199c4.167,3.101,9.017,4.65,14.55,4.65
		c4.3,0,7.75-0.867,10.35-2.6c2.6-1.634,4.867-3.7,6.8-6.2h28.9c-2.267,5.3-5.033,9.983-8.3,14.05
		c-3.333,3.967-6.95,7.333-10.85,10.1c-7.966,5.634-16.933,8.45-26.9,8.45c-6.833,0-13.233-1.267-19.2-3.8
		c-6.033-2.533-11.35-6.066-15.95-10.6c-4.567-4.567-8.184-9.884-10.85-15.95c-2.667-6.033-4-12.567-4-19.601
		c0-6.6,1.217-12.967,3.65-19.1c2.434-6.133,5.867-11.533,10.3-16.2c4.433-4.633,9.667-8.366,15.7-11.2
		C169.521,946.801,176.138,945.401,183.271,945.401z M-170.729,945.401v-28.25h81.6v28.25h-24.65v97.6h-32.15v-97.6H-170.729z
		 M648.121,979.501c1.667,6.033,2.5,11.783,2.5,17.25c0,6.8-1.133,13.2-3.399,19.2c-2.267,6.033-5.417,11.283-9.45,15.75
		c-4.1,4.5-8.95,8.05-14.55,10.649c-5.634,2.601-11.784,3.9-18.45,3.9c-4.3,0-8-0.45-11.1-1.35c-3.167-0.934-5.9-2.018-8.2-3.25
		c-2.267-1.268-4.15-2.533-5.65-3.801c-1.5-1.333-2.633-2.433-3.4-3.3v39.9h-28.25V948.601h26.55v10.4h0.5
		c2.833-3.667,6.633-6.85,11.4-9.55s10.767-4.05,18-4.05c8.367,0,15.45,1.633,21.25,4.899c5.867,3.3,10.634,7.467,14.301,12.5
		C643.871,967.834,646.521,973.401,648.121,979.501z M665.672,963.751c2-3.833,4.666-7.1,8-9.8c3.366-2.767,7.232-4.884,11.6-6.351
		c4.434-1.467,9.083-2.199,13.95-2.199c3.1,0,6.616,0.383,10.55,1.149c3.967,0.833,7.75,2.333,11.35,4.5
		c3.567,2.101,6.7,5.083,9.4,8.95c2.7,3.8,4.367,8.833,5,15.1h-27.75c0-0.433-0.083-1.1-0.25-2c-0.167-0.833-0.55-1.6-1.15-2.3
		c-0.566-0.8-1.433-1.467-2.6-2c-1.2-0.566-2.833-0.85-4.9-0.85c-2.933,0-4.967,0.75-6.1,2.25c-1.233,1.433-1.85,2.783-1.85,4.05
		c0,2.6,1.467,4.684,4.399,6.25c3,1.5,6.351,2.833,10.05,4c3.967,1.1,7.95,2.316,11.95,3.65c4,1.3,7.533,3.017,10.601,5.149
		c3.1,2.134,5.633,4.867,7.6,8.2c1.934,3.267,2.9,7.467,2.9,12.6c0,5-1.033,9.483-3.101,13.45c-2.033,3.934-4.8,7.283-8.3,10.05
		c-3.533,2.834-7.617,4.967-12.25,6.4c-4.667,1.5-9.6,2.25-14.8,2.25c-3.667,0-7.567-0.45-11.7-1.35
		c-4.2-0.934-8.184-2.584-11.95-4.95c-3.7-2.4-6.933-5.617-9.7-9.65c-2.732-4-4.433-9.116-5.1-15.35h28.05
		c0.333,2.167,1.033,3.85,2.101,5.05c1,1.167,2.1,2.033,3.3,2.6c1.167,0.5,2.283,0.801,3.35,0.9c1,0.1,1.667,0.15,2,0.15
		c2.367,0,4.601-0.667,6.7-2c2.1-1.268,3.15-3.033,3.15-5.301c0-1.833-0.434-3.3-1.301-4.399c-0.967-1.167-2.433-2.25-4.399-3.25
		c-2-1.033-4.583-2.101-7.75-3.2c-3.134-1.167-6.983-2.617-11.55-4.35c-3.067-1-5.967-2.233-8.7-3.7
		c-2.7-1.467-5.083-3.217-7.15-5.25c-2.033-2.033-3.633-4.351-4.8-6.95c-1.2-2.6-1.8-5.517-1.8-8.75
		C662.722,971.868,663.705,967.618,665.672,963.751z M598.821,971.801c-3.833,0-7.233,0.733-10.2,2.2
		c-2.934,1.467-5.367,3.35-7.3,5.65c-2,2.333-3.533,4.933-4.6,7.8c-1,2.833-1.5,5.667-1.5,8.5c0,2.933,0.533,5.866,1.6,8.8
		c1.1,2.867,2.684,5.434,4.75,7.7c1.967,2.267,4.4,4.066,7.3,5.399c2.933,1.367,6.25,2.051,9.95,2.051c3.7,0,7.017-0.684,9.95-2.051
		c2.867-1.333,5.3-3.133,7.3-5.399c2.067-2.267,3.65-4.833,4.75-7.7c1.033-2.934,1.55-5.867,1.55-8.8c0-2.833-0.5-5.667-1.5-8.5
		c-1.033-2.867-2.55-5.467-4.55-7.8c-1.933-2.301-4.366-4.184-7.3-5.65C606.021,972.534,602.622,971.801,598.821,971.801z
		 M753.222,1005.051v-56.45h28.2v52.25c0,1.601,0.083,3.5,0.25,5.7c0.166,2.233,0.699,4.317,1.6,6.25
		c0.934,1.934,2.45,3.567,4.55,4.9c2.033,1.366,4.934,2.05,8.7,2.05c2.066,0,4.033-0.3,5.9-0.9c1.933-0.666,3.683-1.699,5.25-3.1
		c1.467-1.434,2.683-3.383,3.649-5.85c0.867-2.5,1.3-5.634,1.3-9.4v-51.9h28.25v94.4h-26.75v-9.95h-0.35
		c-1.467,3.033-3.2,5.384-5.2,7.05c-2.066,1.7-4.233,3-6.5,3.9c-2.267,0.934-4.5,1.517-6.7,1.75c-2.199,0.2-4.199,0.3-6,0.3
		c-1.467,0-3.35-0.1-5.649-0.3c-2.267-0.233-4.7-0.783-7.3-1.65c-2.601-0.833-5.2-2.05-7.801-3.649
		c-2.6-1.567-4.916-3.65-6.949-6.25c-1.934-2.367-3.434-4.601-4.5-6.7c-1.033-2.133-1.884-4.3-2.551-6.5
		c-0.6-2.2-0.982-4.583-1.149-7.15C753.305,1011.317,753.222,1008.384,753.222,1005.051z M890.571,917.151v125.85h-28.25v-125.85
		H890.571z M389.122,932.501c5.3,5,9.483,10.45,12.55,16.35c3.034,5.867,5.017,11.233,5.95,16.101h-33.7
		c-0.867-2.367-2.133-4.817-3.8-7.351c-1.667-2.566-3.75-4.916-6.25-7.05c-2.467-2.167-5.4-3.95-8.8-5.35
		c-3.4-1.434-7.233-2.15-11.5-2.15c-5.5,0-10.316,1.083-14.45,3.25c-4.1,2.167-7.617,4.967-10.55,8.4
		c-2.866,3.467-5.033,7.417-6.5,11.85c-1.466,4.434-2.2,8.833-2.2,13.2c0,4.767,0.8,9.383,2.4,13.85
		c1.533,4.5,3.767,8.518,6.7,12.051c2.9,3.5,6.45,6.3,10.65,8.399c4.133,2.101,8.833,3.15,14.1,3.15c4.966,0,9.25-0.917,12.85-2.75
		c3.667-1.833,6.684-3.934,9.05-6.3c2.4-2.4,4.233-4.75,5.5-7.051c1.333-2.333,2.267-4.05,2.8-5.149h33.7
		c-1.8,7.467-4.733,14.233-8.8,20.3c-4.033,6.033-8.816,11.217-14.35,15.55c-5.534,4.3-11.75,7.65-18.65,10.05
		c-6.933,2.367-14.183,3.551-21.75,3.551c-9.933,0-18.966-1.817-27.1-5.45c-8.134-3.601-15.1-8.45-20.9-14.55
		c-5.767-6.033-10.283-13-13.55-20.9c-3.2-7.867-4.8-16.066-4.8-24.6c0-8,1.5-15.884,4.5-23.65c3.033-7.8,7.366-14.75,13-20.85
		c5.667-6.134,12.6-11.084,20.8-14.851c8.133-3.8,17.367-5.7,27.7-5.7c9.866,0,18.583,1.684,26.15,5.051
		C377.438,923.334,383.855,927.534,389.122,932.501z M419.671,995.701c0-7.7,1.3-14.684,3.9-20.95c2.6-6.2,6.067-11.483,10.4-15.85
		c4.3-4.367,9.3-7.717,15-10.051c5.767-2.3,11.8-3.449,18.1-3.449c3.867,0,7.333,0.416,10.4,1.25
		c3.033,0.866,5.683,1.933,7.95,3.199c2.267,1.334,4.15,2.783,5.65,4.351c1.5,1.467,2.684,2.95,3.55,4.45h0.35v-10.051h28.2v94.4
		h-28.2v-10.2h-0.35c-1.267,2.267-2.833,4.25-4.7,5.95c-1.933,1.733-4.15,3.15-6.65,4.25c-2.5,1.167-5.133,2-7.9,2.5
		c-2.8,0.5-5.567,0.75-8.3,0.75c-7.466,0-14.133-1.367-20-4.1c-5.933-2.7-10.883-6.367-14.85-11
		c-4.034-4.667-7.134-10.033-9.3-16.101C420.755,1008.951,419.671,1002.501,419.671,995.701z M471.171,971.801
		c-4.066,0-7.533,0.767-10.4,2.3c-2.934,1.5-5.333,3.434-7.2,5.801c-1.966,2.399-3.417,5.033-4.35,7.899
		c-0.867,2.833-1.3,5.601-1.3,8.3c0,2.268,0.417,4.75,1.25,7.45c0.867,2.733,2.217,5.333,4.05,7.8c1.866,2.467,4.267,4.5,7.2,6.101
		c3,1.633,6.633,2.45,10.9,2.45c4.434,0,8.167-0.817,11.2-2.45c3-1.601,5.434-3.634,7.3-6.101c1.833-2.467,3.167-5.116,4-7.949
		c0.767-2.834,1.15-5.384,1.15-7.65c0-2.8-0.467-5.617-1.4-8.45c-1-2.866-2.5-5.467-4.5-7.8c-1.933-2.333-4.417-4.184-7.45-5.55
		C478.622,972.518,475.138,971.801,471.171,971.801z"/>
</g>
<g id="Cap_1">
	
		<use xlink:href="#Capsule_1_leaf-3"  width="246.225" height="505.75" x="-123.1" y="-493.25" transform="matrix(-0.7984 -0.7984 -0.7983 0.7983 116.0215 501.0508)" overflow="visible"/>
</g>
<g id="Cap_2">
	
		<use xlink:href="#Capsule_2_node-3"  width="246.225" height="505.75" x="-123.1" y="-493.25" transform="matrix(0.7984 0.7984 0.7983 -0.7983 723.1211 333.8511)" overflow="visible"/>
</g>
</svg>
