<?xml version="1.0" encoding="utf-8"?>
<!-- Generator: Adobe Illustrator 16.0.0, SVG Export Plug-In . SVG Version: 6.00 Build 0)  -->
<!DOCTYPE svg PUBLIC "-//W3C//DTD SVG 1.1//EN" "http://www.w3.org/Graphics/SVG/1.1/DTD/svg11.dtd">
<svg version="1.1" id="Layer_1" xmlns="http://www.w3.org/2000/svg" xmlns:xlink="http://www.w3.org/1999/xlink" x="0px" y="0px"
	 width="207.973px" height="40.996px" viewBox="0 0 207.973 40.996" enable-background="new 0 0 207.973 40.996"
	 xml:space="preserve">
<path fill-rule="evenodd" clip-rule="evenodd" fill="#F2F2F2" d="M8.043,26.693c1.77,0.002,3.28-0.629,4.53-1.891l6.309-6.368
	c-1.428-4.287-4.449-7.337-9.064-9.15l-6.308,6.368c-0.747,0.754-1.271,1.601-1.571,2.542c-0.203,0.634-0.305,1.311-0.305,2.029
	l0.002,0.002c-0.002,1.786,0.623,3.311,1.873,4.573L3.511,24.8C4.763,26.063,6.274,26.695,8.043,26.693z M2.356,25.966l-0.002-0.002
	c-0.961-0.97-1.628-2.063-2-3.279C0.118,21.915,0,21.095,0,20.225l0.002-0.002c0-0.025,0-0.05,0-0.074
	c0.015-2.208,0.799-4.095,2.352-5.662l5.743-5.797C8.112,8.67,8.129,8.652,8.149,8.635l6.198-6.256
	c1.573-1.587,3.468-2.38,5.687-2.379c0.095,0,0.192,0.001,0.289,0.002h0.014c1.039,0.036,2.005,0.249,2.897,0.639
	c0.904,0.396,1.732,0.975,2.485,1.735l0.002,0.002c0.753,0.76,1.325,1.596,1.716,2.507c0.388,0.902,0.6,1.877,0.635,2.927
	L28.071,7.8c0.005,0.107,0.006,0.213,0.005,0.317c0.001,0.005,0.001,0.009,0,0.014c0,2.235-0.785,4.146-2.354,5.729l-6.209,6.268
	c-0.008,0.008-0.015,0.016-0.023,0.023l-5.761,5.816c-1.569,1.584-3.463,2.375-5.682,2.374H8.041
	c-0.861,0.001-1.673-0.117-2.437-0.357C4.4,27.609,3.317,26.936,2.356,25.966z"/>
<path fill-rule="evenodd" clip-rule="evenodd" fill="#F2F2F2" d="M14.543,21.218c-2.833-2.537-3.226-4.682-1.176-6.434
	C15.906,15.677,16.298,17.821,14.543,21.218z M3.767,21.813c1.64-3.282,3.508-4.267,5.604-2.957c0.91-0.813,1.639-2.072,2.185-3.778
	c0.869-2.833,2.261-4.216,4.177-4.151l1.474,1.488c-2.487-0.468-4.2,0.592-5.14,3.178c-0.67,1.792-1.497,3.052-2.481,3.778
	C9.24,21.795,7.3,22.608,3.767,21.813z M4.611,16.209c2.661-2.724,4.799-3.005,6.412-0.844C10.011,17.869,7.874,18.151,4.611,16.209
	z"/>
<path fill-rule="evenodd" clip-rule="evenodd" fill="#F2F2F2" d="M32.954,14.302c-1.77-0.001-3.279,0.629-4.53,1.891l-6.309,6.368
	c1.505,4.826,4.526,7.876,9.064,9.15l6.308-6.368c1.25-1.262,1.876-2.786,1.876-4.571l-0.002-0.002
	c0.001-1.786-0.623-3.31-1.874-4.573l-0.002-0.002C36.234,14.932,34.723,14.301,32.954,14.302z M38.641,15.03l0.002,0.002
	c1.569,1.584,2.354,3.497,2.354,5.739l-0.002,0.002c0.001,2.24-0.782,4.152-2.352,5.737l-5.743,5.797
	c-0.015,0.019-0.033,0.037-0.053,0.054l-6.198,6.257c-1.572,1.587-3.468,2.38-5.687,2.378c-0.095,0-0.192-0.001-0.289-0.002H20.66
	c-2.09-0.07-3.884-0.861-5.382-2.374l-0.002-0.002c-1.498-1.513-2.282-3.324-2.351-5.433l0.002,0.011
	c-0.005-0.107-0.006-0.213-0.005-0.317c-0.001-0.005-0.001-0.01,0-0.014c0-2.236,0.785-4.145,2.354-5.729l6.209-6.268
	c0.008-0.008,0.015-0.015,0.023-0.023l5.761-5.816c1.569-1.584,3.463-2.375,5.682-2.374h0.005
	C35.175,12.652,37.07,13.444,38.641,15.03z"/>
<path fill-rule="evenodd" clip-rule="evenodd" fill="#F2F2F2" d="M34.069,20.356l-8.391,8.471l-0.733-0.74l8.391-8.471
	L34.069,20.356z"/>
<path fill-rule="evenodd" clip-rule="evenodd" fill="#F2F2F2" d="M30.916,27.983l-8.391,8.471l-0.733-0.74l8.391-8.471
	L30.916,27.983z"/>
<path fill-rule="evenodd" clip-rule="evenodd" fill="#F2F2F2" d="M34.967,18.711c0.344,0.347,0.515,0.764,0.515,1.252
	c0,0.491-0.172,0.909-0.515,1.256c-0.344,0.347-0.758,0.52-1.242,0.518c-0.485,0.002-0.899-0.171-1.242-0.518
	c-0.344-0.347-0.515-0.765-0.515-1.256c0-0.488,0.172-0.906,0.515-1.252s0.758-0.521,1.242-0.522
	C34.21,18.191,34.624,18.365,34.967,18.711z"/>
<path fill-rule="evenodd" clip-rule="evenodd" fill="#F2F2F2" d="M32.399,25.744c0.344,0.347,0.515,0.764,0.515,1.252
	c0,0.491-0.172,0.909-0.515,1.256c-0.344,0.347-0.758,0.52-1.242,0.518c-0.485,0.001-0.899-0.171-1.242-0.518
	c-0.344-0.347-0.515-0.766-0.515-1.256c0-0.488,0.172-0.905,0.515-1.252c0.344-0.347,0.758-0.521,1.242-0.522
	C31.641,25.224,32.055,25.398,32.399,25.744z"/>
<path fill-rule="evenodd" clip-rule="evenodd" fill="#F2F2F2" d="M28.227,21.897l-8.391,8.471l-0.733-0.74l8.391-8.471
	L28.227,21.897z"/>
<path fill-rule="evenodd" clip-rule="evenodd" fill="#F2F2F2" d="M29.71,19.658c0.344,0.347,0.515,0.764,0.515,1.252
	c0,0.491-0.172,0.909-0.515,1.256c-0.344,0.347-0.758,0.52-1.242,0.518c-0.485,0.001-0.899-0.171-1.242-0.518
	c-0.344-0.347-0.515-0.765-0.515-1.256c0-0.488,0.172-0.905,0.515-1.252c0.344-0.347,0.758-0.521,1.242-0.522
	C28.952,19.137,29.366,19.312,29.71,19.658z"/>
<path fill-rule="evenodd" clip-rule="evenodd" fill="#F2F2F2" d="M143.192,18.034c-0.371-0.171-0.801-0.256-1.291-0.256
	c-0.502,0-0.93,0.091-1.285,0.274c-0.362,0.179-0.659,0.409-0.889,0.69c-0.243,0.286-0.422,0.599-0.537,0.94
	c-0.107,0.337-0.161,0.667-0.161,0.988c0,0.27,0.051,0.565,0.155,0.887c0.107,0.325,0.274,0.635,0.5,0.928
	c0.23,0.294,0.527,0.536,0.889,0.726c0.371,0.195,0.819,0.292,1.346,0.292c0.548,0,1.009-0.097,1.384-0.292
	c0.371-0.19,0.671-0.432,0.902-0.726c0.226-0.294,0.391-0.609,0.494-0.946c0.095-0.337,0.142-0.641,0.142-0.91
	c0-0.333-0.058-0.669-0.173-1.006c-0.124-0.341-0.309-0.651-0.556-0.928C143.874,18.417,143.567,18.197,143.192,18.034z
	 M144.841,15.017h3.483v11.236h-3.483v-1.214h-0.043c-0.156,0.27-0.35,0.506-0.58,0.708c-0.239,0.206-0.513,0.375-0.822,0.506
	c-0.309,0.139-0.634,0.238-0.976,0.298c-0.346,0.06-0.688,0.089-1.025,0.089c-0.922,0-1.746-0.163-2.47-0.488
	c-0.733-0.322-1.344-0.758-1.834-1.309c-0.498-0.555-0.881-1.194-1.149-1.916c-0.268-0.726-0.401-1.494-0.401-2.303
	c0-0.917,0.161-1.748,0.482-2.493c0.321-0.738,0.75-1.367,1.285-1.887c0.531-0.52,1.149-0.918,1.853-1.196
	c0.712-0.274,1.458-0.411,2.236-0.411c0.478,0,0.906,0.05,1.285,0.149c0.375,0.103,0.702,0.23,0.982,0.381
	c0.28,0.159,0.512,0.331,0.698,0.518c0.185,0.175,0.332,0.351,0.438,0.53h0.043V15.017z M134.051,16.963h-4.163
	c-0.107-0.282-0.264-0.573-0.469-0.875c-0.206-0.306-0.463-0.585-0.772-0.839c-0.305-0.258-0.667-0.47-1.087-0.637
	c-0.42-0.171-0.893-0.256-1.42-0.256c-0.679,0-1.274,0.129-1.785,0.387c-0.506,0.258-0.941,0.591-1.303,1
	c-0.354,0.413-0.622,0.883-0.803,1.411c-0.181,0.528-0.272,1.051-0.272,1.571c0,0.567,0.099,1.117,0.297,1.648
	c0.189,0.536,0.465,1.014,0.828,1.434c0.358,0.417,0.797,0.75,1.315,1c0.511,0.25,1.091,0.375,1.742,0.375
	c0.614,0,1.143-0.109,1.587-0.327c0.453-0.218,0.826-0.468,1.118-0.75c0.297-0.286,0.523-0.565,0.679-0.839
	c0.165-0.278,0.28-0.482,0.346-0.613h4.163c-0.222,0.889-0.585,1.694-1.087,2.416c-0.498,0.718-1.089,1.335-1.772,1.851
	c-0.684,0.512-1.451,0.91-2.304,1.196c-0.856,0.282-1.752,0.423-2.687,0.423c-1.227,0-2.343-0.216-3.347-0.649
	c-1.005-0.428-1.865-1.006-2.582-1.732c-0.712-0.718-1.27-1.547-1.674-2.488c-0.395-0.937-0.593-1.913-0.593-2.928
	c0-0.952,0.186-1.891,0.556-2.815c0.375-0.928,0.91-1.756,1.606-2.482c0.7-0.73,1.556-1.319,2.569-1.768
	c1.005-0.452,2.145-0.678,3.422-0.678c1.219,0,2.295,0.2,3.23,0.601c0.935,0.409,1.727,0.908,2.378,1.5
	c0.655,0.595,1.171,1.244,1.55,1.946C133.691,15.745,133.936,16.383,134.051,16.963z M151.412,15.017h3.28v1.238h0.062
	c0.35-0.436,0.819-0.815,1.408-1.137c0.589-0.321,1.33-0.482,2.224-0.482c1.033,0,1.908,0.194,2.625,0.583
	c0.725,0.393,1.313,0.889,1.767,1.488c0.457,0.599,0.784,1.262,0.982,1.988c0.206,0.718,0.309,1.403,0.309,2.053
	c0,0.809-0.14,1.571-0.42,2.285c-0.28,0.718-0.669,1.343-1.167,1.875c-0.506,0.536-1.105,0.958-1.797,1.268
	c-0.696,0.309-1.456,0.464-2.279,0.464c-0.531,0-0.988-0.054-1.371-0.161c-0.391-0.111-0.729-0.24-1.013-0.387
	c-0.28-0.151-0.513-0.302-0.698-0.452c-0.185-0.159-0.325-0.29-0.42-0.393v4.749h-3.49V15.017z M166.915,15.653
	c0.416-0.329,0.893-0.581,1.433-0.756c0.548-0.175,1.122-0.262,1.723-0.262c0.383,0,0.817,0.046,1.303,0.137
	c0.49,0.099,0.957,0.278,1.402,0.535c0.441,0.25,0.828,0.605,1.161,1.065c0.333,0.452,0.54,1.051,0.618,1.797h-3.428
	c0-0.052-0.01-0.131-0.031-0.238c-0.021-0.099-0.068-0.19-0.142-0.273c-0.07-0.095-0.177-0.175-0.321-0.238
	c-0.148-0.067-0.35-0.101-0.605-0.101c-0.362,0-0.614,0.089-0.754,0.268c-0.152,0.171-0.229,0.331-0.229,0.482
	c0,0.31,0.181,0.558,0.543,0.744c0.371,0.178,0.784,0.337,1.241,0.476c0.49,0.131,0.982,0.276,1.476,0.434
	c0.494,0.155,0.931,0.359,1.31,0.613c0.383,0.254,0.696,0.579,0.939,0.976c0.239,0.389,0.358,0.889,0.358,1.5
	c0,0.595-0.128,1.129-0.383,1.601c-0.251,0.468-0.593,0.867-1.025,1.196c-0.437,0.337-0.941,0.591-1.513,0.762
	c-0.576,0.178-1.186,0.268-1.828,0.268c-0.453,0-0.935-0.054-1.445-0.161c-0.519-0.111-1.011-0.307-1.476-0.589
	c-0.457-0.286-0.856-0.669-1.198-1.149c-0.337-0.476-0.547-1.085-0.63-1.827h3.465c0.041,0.258,0.128,0.458,0.26,0.601
	c0.124,0.139,0.259,0.242,0.408,0.309c0.144,0.06,0.282,0.095,0.414,0.107c0.124,0.012,0.206,0.018,0.247,0.018
	c0.292,0,0.568-0.079,0.828-0.238c0.259-0.151,0.389-0.361,0.389-0.631c0-0.218-0.053-0.393-0.161-0.524
	c-0.119-0.139-0.301-0.268-0.543-0.387c-0.247-0.123-0.566-0.25-0.957-0.381c-0.387-0.139-0.863-0.312-1.427-0.518
	c-0.379-0.119-0.737-0.266-1.075-0.44c-0.333-0.174-0.628-0.383-0.883-0.625c-0.251-0.242-0.449-0.518-0.593-0.827
	c-0.148-0.309-0.222-0.656-0.222-1.042c0-0.552,0.121-1.057,0.364-1.518C166.173,16.364,166.503,15.975,166.915,15.653z
	 M155.507,18.712c-0.247,0.278-0.436,0.587-0.568,0.928c-0.124,0.337-0.185,0.675-0.185,1.012c0,0.349,0.066,0.698,0.198,1.048
	c0.136,0.341,0.332,0.646,0.587,0.916c0.243,0.27,0.543,0.484,0.902,0.643c0.363,0.163,0.772,0.244,1.229,0.244
	s0.867-0.082,1.229-0.244c0.354-0.159,0.655-0.373,0.902-0.643c0.255-0.27,0.451-0.575,0.587-0.916
	c0.128-0.349,0.191-0.698,0.191-1.048c0-0.337-0.062-0.675-0.185-1.012c-0.127-0.341-0.315-0.651-0.562-0.928
	c-0.239-0.274-0.539-0.498-0.902-0.672c-0.371-0.175-0.791-0.262-1.26-0.262c-0.473,0-0.893,0.087-1.26,0.262
	C156.047,18.215,155.746,18.439,155.507,18.712z M187.567,15.017v11.236h-3.304v-1.184h-0.043c-0.181,0.361-0.395,0.641-0.642,0.839
	c-0.255,0.202-0.523,0.357-0.803,0.464c-0.28,0.111-0.556,0.18-0.828,0.208c-0.271,0.024-0.519,0.036-0.741,0.036
	c-0.181,0-0.414-0.012-0.698-0.036c-0.28-0.028-0.581-0.094-0.902-0.197c-0.321-0.099-0.642-0.244-0.964-0.435
	c-0.321-0.187-0.607-0.434-0.858-0.744c-0.239-0.282-0.424-0.548-0.556-0.798c-0.128-0.254-0.233-0.512-0.315-0.774
	c-0.074-0.262-0.121-0.545-0.142-0.851c-0.021-0.302-0.031-0.651-0.031-1.047v-6.719h3.483v6.219c0,0.19,0.01,0.417,0.031,0.678
	c0.021,0.266,0.086,0.514,0.198,0.744c0.115,0.23,0.302,0.425,0.562,0.583c0.251,0.163,0.61,0.244,1.075,0.244
	c0.255,0,0.498-0.036,0.729-0.107c0.239-0.08,0.455-0.202,0.648-0.369c0.181-0.171,0.331-0.403,0.451-0.697
	c0.107-0.298,0.161-0.67,0.161-1.119v-6.178H187.567z M190.217,11.273h3.49v14.98h-3.49V11.273z M206.232,16.409
	c0.543,0.556,0.97,1.208,1.278,1.958c0.309,0.75,0.463,1.552,0.463,2.404c0,0.23-0.008,0.401-0.025,0.512
	c-0.012,0.119-0.031,0.244-0.055,0.375h-8.739c0.111,0.671,0.422,1.194,0.932,1.571c0.515,0.369,1.114,0.554,1.797,0.554
	c0.531,0,0.957-0.103,1.278-0.31c0.321-0.194,0.601-0.44,0.84-0.738h3.57c-0.28,0.631-0.622,1.188-1.025,1.672
	c-0.412,0.472-0.858,0.873-1.34,1.202c-0.984,0.671-2.092,1.006-3.323,1.006c-0.844,0-1.635-0.151-2.372-0.452
	c-0.745-0.302-1.402-0.722-1.97-1.262c-0.564-0.543-1.011-1.176-1.34-1.898c-0.329-0.718-0.494-1.496-0.494-2.333
	c0-0.785,0.15-1.543,0.451-2.273s0.725-1.373,1.272-1.928c0.548-0.552,1.194-0.996,1.939-1.333c0.753-0.333,1.571-0.5,2.452-0.5
	s1.7,0.157,2.458,0.47C205.033,15.423,205.684,15.858,206.232,16.409z M203.001,17.677c-0.321-0.139-0.708-0.208-1.161-0.208
	c-0.445,0-0.832,0.07-1.161,0.208c-0.321,0.131-0.583,0.3-0.784,0.506c-0.214,0.202-0.373,0.417-0.476,0.643
	c-0.107,0.214-0.181,0.405-0.222,0.571h5.287c-0.041-0.167-0.111-0.357-0.21-0.571c-0.111-0.226-0.27-0.441-0.476-0.643
	C203.588,17.977,203.323,17.808,203.001,17.677z M62.995,14.636v-3.363h10.079v3.363H70.03v11.617h-3.971V14.636H62.995z
	 M85.099,18.094c-0.268,0.19-0.463,0.421-0.587,0.69c-0.127,0.27-0.202,0.546-0.222,0.827c-0.021,0.286-0.031,0.51-0.031,0.673
	v5.969h-3.49V15.017h3.249v1.196h0.043c0.074-0.119,0.181-0.266,0.321-0.44c0.14-0.178,0.331-0.351,0.574-0.518
	c0.243-0.171,0.554-0.317,0.933-0.44c0.383-0.119,0.844-0.178,1.383-0.178c0.251,0,0.527,0.026,0.828,0.077
	c0.301,0.052,0.599,0.153,0.896,0.303c0.292,0.155,0.579,0.359,0.859,0.613c0.28,0.258,0.539,0.595,0.778,1.012
	c0.362-0.555,0.844-1.03,1.445-1.422c0.601-0.389,1.351-0.583,2.248-0.583c0.21,0,0.443,0.012,0.698,0.036
	c0.251,0.028,0.515,0.081,0.791,0.161c0.272,0.083,0.542,0.198,0.809,0.345c0.272,0.151,0.527,0.349,0.766,0.595
	c0.268,0.282,0.488,0.547,0.661,0.797c0.16,0.25,0.29,0.536,0.389,0.857c0.086,0.325,0.144,0.698,0.173,1.119
	c0.029,0.429,0.043,0.952,0.043,1.571v6.136h-3.49v-5.969c0-0.23-0.01-0.49-0.031-0.78c-0.021-0.29-0.084-0.559-0.191-0.809
	c-0.119-0.25-0.299-0.46-0.537-0.631c-0.231-0.178-0.572-0.268-1.025-0.268c-0.486,0-0.859,0.091-1.118,0.274
	c-0.259,0.179-0.447,0.397-0.562,0.655c-0.123,0.258-0.195,0.514-0.216,0.768c-0.021,0.258-0.031,0.47-0.031,0.637v6.124h-3.483
	v-6.106c0-0.151-0.01-0.359-0.031-0.625c-0.021-0.262-0.082-0.522-0.185-0.78c-0.111-0.254-0.286-0.474-0.525-0.661
	c-0.231-0.19-0.566-0.286-1.007-0.286C85.742,17.796,85.367,17.895,85.099,18.094z M78.133,13.826h-3.49v-2.553h3.49V13.826z
	 M78.133,15.017v11.236h-3.49V15.017H78.133z M104.795,18.183c-0.214,0.202-0.373,0.417-0.476,0.643
	c-0.107,0.214-0.181,0.405-0.222,0.571h5.287c-0.042-0.167-0.111-0.357-0.21-0.571c-0.111-0.226-0.27-0.441-0.476-0.643
	c-0.21-0.206-0.476-0.375-0.797-0.506c-0.321-0.139-0.708-0.208-1.161-0.208c-0.445,0-0.832,0.07-1.161,0.208
	C105.258,17.808,104.997,17.977,104.795,18.183z M106.722,14.636c0.881,0,1.701,0.157,2.458,0.47
	c0.753,0.317,1.404,0.752,1.952,1.303c0.544,0.556,0.97,1.208,1.279,1.958c0.309,0.75,0.463,1.552,0.463,2.404
	c0,0.23-0.008,0.401-0.025,0.512c-0.012,0.119-0.031,0.244-0.056,0.375h-8.739c0.111,0.671,0.422,1.194,0.932,1.571
	c0.515,0.369,1.114,0.554,1.797,0.554c0.531,0,0.957-0.103,1.279-0.31c0.321-0.194,0.601-0.44,0.84-0.738h3.57
	c-0.28,0.631-0.622,1.188-1.025,1.672c-0.412,0.472-0.858,0.873-1.34,1.202c-0.984,0.671-2.092,1.006-3.323,1.006
	c-0.844,0-1.635-0.151-2.372-0.452c-0.745-0.302-1.402-0.722-1.97-1.262c-0.564-0.543-1.011-1.176-1.34-1.898
	c-0.329-0.718-0.494-1.496-0.494-2.333c0-0.785,0.15-1.543,0.451-2.273c0.301-0.73,0.725-1.373,1.272-1.928
	c0.548-0.552,1.194-0.996,1.939-1.333C105.023,14.802,105.841,14.636,106.722,14.636z"/>
</svg>
