<?xml version="1.0" encoding="utf-8"?>
<!-- Generator: Adobe Illustrator 16.0.0, SVG Export Plug-In . SVG Version: 6.00 Build 0)  -->
<!DOCTYPE svg PUBLIC "-//W3C//DTD SVG 1.1//EN" "http://www.w3.org/Graphics/SVG/1.1/DTD/svg11.dtd">
<svg version="1.1" id="Capa_1" xmlns="http://www.w3.org/2000/svg" xmlns:xlink="http://www.w3.org/1999/xlink" x="0px" y="0px"
	 width="595.279px" height="595.281px" viewBox="0 0 595.279 595.281" enable-background="new 0 0 595.279 595.281"
	 xml:space="preserve">
<g>
	<g id="Layer_5_45_">
		<g>
			<g>
				<path fill="#FFFFFF" d="M215.643,364.348c0,9.469-7.749,17.218-17.22,17.218h-71.171c-9.47,0-17.219-7.749-17.219-17.218v-78.06
					c0-9.469,7.749-17.217,17.219-17.217h71.171c9.472,0,17.22,7.748,17.22,17.217V364.348z"/>
			</g>
			<g>
				<path fill="#FFFFFF" d="M342.2,364.348c0,9.469-7.749,17.218-17.219,17.218h-71.17c-9.472,0-17.22-7.749-17.22-17.218V244.962
					c0-9.469,7.749-17.218,17.22-17.218h71.17c9.47,0,17.219,7.749,17.219,17.218V364.348z"/>
			</g>
			<g>
				<path fill="#FFFFFF" d="M468.759,364.348c0,9.469-7.747,17.218-17.221,17.218h-71.171c-9.469,0-17.218-7.749-17.218-17.218
					V199.046c0-9.47,7.749-17.219,17.218-17.219h71.171c9.474,0,17.221,7.749,17.221,17.219V364.348z"/>
			</g>
		</g>
	</g>
</g>
<path fill="#E52046" d="M-0.141,297.909c0,164.239,133.151,297.372,297.392,297.372c164.24,0,297.392-133.133,297.392-297.372
	c0-164.269-133.151-297.411-297.392-297.411C133.01,0.498-0.141,133.641-0.141,297.909z"/>
<g>
	<path fill="#FFFFFF" d="M298.119,133.778c-73.961,0-133.941,59.99-133.941,133.9c0,111.386,133.941,202.504,133.941,202.504
		s133.938-97.851,133.938-202.504C432.056,193.769,372.107,133.778,298.119,133.778z M298.119,331.537
		c-35.284,0-63.86-28.588-63.86-63.859c0-35.242,28.576-63.83,63.86-63.83c35.261,0,63.848,28.587,63.848,63.83
		C361.967,302.949,333.38,331.537,298.119,331.537z"/>
</g>
</svg>
