<?xml version="1.0" encoding="utf-8"?>
<!-- Generator: Adobe Illustrator 16.0.0, SVG Export Plug-In . SVG Version: 6.00 Build 0)  -->
<!DOCTYPE svg PUBLIC "-//W3C//DTD SVG 1.1//EN" "http://www.w3.org/Graphics/SVG/1.1/DTD/svg11.dtd">
<svg version="1.1" id="Capa_1" xmlns="http://www.w3.org/2000/svg" xmlns:xlink="http://www.w3.org/1999/xlink" x="0px" y="0px"
	 width="20.449px" height="30.333px" viewBox="0 0 20.449 30.333" enable-background="new 0 0 20.449 30.333" xml:space="preserve">
<circle opacity="0.7" fill="#FFFFFF" enable-background="new    " cx="10.543" cy="10.074" r="7.794"/>
<path fill="#DAA823" d="M9.5,0.025C4.333,0.381,0.202,4.657,0.007,9.832c-0.121,3.251,1.277,6.176,3.539,8.129
	c0.608,0.524,1.162,1.106,1.673,1.729c1.545,1.875,4.05,5.539,5.006,10.498c0.955-4.958,3.458-8.621,5.003-10.497
	c0.504-0.608,1.043-1.188,1.643-1.7c2.189-1.875,3.578-4.658,3.578-7.767C20.449,4.337,15.477-0.388,9.5,0.025z M10.226,17.426
	c-4.005,0-7.252-3.246-7.252-7.251c0-4.004,3.247-7.251,7.252-7.251c4.004,0,7.25,3.247,7.25,7.251
	C17.477,14.18,14.229,17.426,10.226,17.426z"/>
<g>
	<g>
		<path fill="#DAA823" d="M10.471,6.557L9.432,6.556c-0.274,0-0.496,0.221-0.498,0.498l-0.003,6.384
			c0,0.275,0.223,0.498,0.497,0.498h1.039c0.275,0,0.498-0.223,0.498-0.496l0.003-6.385C10.97,6.779,10.747,6.557,10.471,6.557z
			 M10.372,13.198L9.529,13.2c-0.097,0-0.175-0.079-0.175-0.174s0.078-0.174,0.175-0.174h0.843c0.097,0,0.174,0.079,0.174,0.174
			C10.546,13.122,10.469,13.198,10.372,13.198z M10.374,8.202L9.531,8.201c-0.097,0-0.174-0.078-0.174-0.174
			s0.077-0.174,0.174-0.174l0.843-0.001c0.095,0,0.174,0.08,0.174,0.176C10.546,8.124,10.469,8.202,10.374,8.202z"/>
		<path fill="#DAA823" d="M7.951,6.557L6.913,6.556c-0.274,0-0.497,0.221-0.499,0.497l-0.001,6.385
			c-0.001,0.275,0.221,0.498,0.496,0.498h1.039c0.274,0,0.498-0.221,0.498-0.496l0.003-6.384C8.447,6.779,8.226,6.557,7.951,6.557z
			 M7.853,13.198L7.01,13.2c-0.097,0-0.174-0.079-0.174-0.174s0.077-0.174,0.174-0.174h0.843c0.095,0,0.173,0.079,0.173,0.174
			C8.025,13.122,7.948,13.198,7.853,13.198z M7.853,8.202L7.01,8.201c-0.095,0-0.174-0.078-0.174-0.174S6.915,7.853,7.01,7.853
			l0.843-0.001c0.095,0,0.173,0.08,0.173,0.176S7.948,8.202,7.853,8.202z"/>
		<path fill="#DAA823" d="M11.884,7.256c-0.034-0.158-0.19-0.258-0.349-0.224c-0.158,0.035-0.259,0.191-0.225,0.349l1.366,6.26
			c0.034,0.158,0.19,0.259,0.349,0.225c0.158-0.034,0.259-0.19,0.225-0.349L11.884,7.256z"/>
		<path fill="#DAA823" d="M15.123,13.108l-1.366-6.26c-0.033-0.158-0.19-0.259-0.349-0.224c-0.158,0.034-0.259,0.19-0.223,0.348
			l1.364,6.262c0.034,0.158,0.19,0.258,0.349,0.224C15.058,13.422,15.157,13.268,15.123,13.108z"/>
		<path fill="#DAA823" d="M12.38,6.987c-0.017-0.073-0.088-0.119-0.162-0.104c-0.072,0.016-0.119,0.088-0.104,0.162l1.433,6.57
			c0.017,0.073,0.089,0.118,0.162,0.104c0.072-0.018,0.119-0.089,0.104-0.162L12.38,6.987z"/>
		<path fill="#DAA823" d="M12.85,6.884c-0.017-0.073-0.089-0.12-0.162-0.104c-0.072,0.017-0.119,0.088-0.103,0.161l1.433,6.569
			c0.016,0.073,0.088,0.12,0.161,0.104c0.072-0.016,0.119-0.089,0.104-0.162L12.85,6.884z"/>
	</g>
</g>
</svg>
