<?xml version="1.0" encoding="utf-8"?>
<!-- Generator: Adobe Illustrator 16.0.0, SVG Export Plug-In . SVG Version: 6.00 Build 0)  -->
<!DOCTYPE svg PUBLIC "-//W3C//DTD SVG 1.1//EN" "http://www.w3.org/Graphics/SVG/1.1/DTD/svg11.dtd">
<svg version="1.1" id="Capa_1" xmlns="http://www.w3.org/2000/svg" xmlns:xlink="http://www.w3.org/1999/xlink" x="0px" y="0px"
	 width="20.449px" height="30.333px" viewBox="0 0 20.449 30.333" enable-background="new 0 0 20.449 30.333" xml:space="preserve">
<circle opacity="0.7" fill="#FFFFFF" cx="10.543" cy="10.074" r="7.794"/>
<path fill="#CC5882" d="M9.5,0.025C4.333,0.381,0.202,4.657,0.007,9.832c-0.121,3.251,1.277,6.176,3.539,8.129
	c0.608,0.525,1.162,1.107,1.673,1.729c1.545,1.875,4.05,5.539,5.006,10.498c0.955-4.958,3.458-8.621,5.003-10.497
	c0.504-0.608,1.043-1.188,1.643-1.7c2.189-1.875,3.578-4.658,3.578-7.767C20.449,4.337,15.477-0.388,9.5,0.025z M10.226,17.426
	c-4.005,0-7.252-3.246-7.252-7.251c0-4.004,3.247-7.251,7.252-7.251c4.004,0,7.25,3.247,7.25,7.251
	C17.477,14.18,14.229,17.426,10.226,17.426z"/>
<g>
	<circle fill="#CC5882" cx="12.004" cy="11.26" r="0.138"/>
	<circle fill="#CC5882" cx="12.28" cy="13.6" r="0.138"/>
	<circle fill="#CC5882" cx="8.836" cy="12.499" r="0.137"/>
	<circle fill="#CC5882" cx="11.039" cy="11.673" r="0.138"/>
	<circle fill="#CC5882" cx="13.105" cy="12.361" r="0.137"/>
	<circle fill="#CC5882" cx="8.01" cy="13.6" r="0.138"/>
	<path fill="#CC5882" d="M8.295,7.528c-0.26-0.26-0.606-0.404-0.974-0.404c-0.368,0-0.713,0.144-0.974,0.404
		c-0.26,0.26-0.403,0.606-0.403,0.974s0.144,0.713,0.403,0.974l2.142,2.142l1.948-1.948L8.295,7.528z"/>
	<path fill="#CC5882" d="M13.803,6.292c-0.26-0.26-0.605-0.403-0.973-0.403c-0.368,0-0.714,0.143-0.974,0.403L9.714,8.435
		l1.947,1.946l2.142-2.142c0.261-0.26,0.404-0.605,0.404-0.974C14.207,6.898,14.063,6.553,13.803,6.292z"/>
	<path fill="#CC5882" d="M11.452,10.708c0-0.303-0.246-0.549-0.55-0.549c-0.304,0-0.551,0.246-0.551,0.549
		c0,0.304,0.246,0.552,0.551,0.552C11.206,11.26,11.452,11.013,11.452,10.708z"/>
	<path fill="#CC5882" d="M9.938,11.26c-0.304,0-0.551,0.246-0.551,0.551c0,0.304,0.247,0.551,0.551,0.551
		c0.305,0,0.551-0.247,0.551-0.551C10.489,11.505,10.243,11.26,9.938,11.26z"/>
	<path fill="#CC5882" d="M11.315,12.085c-0.304,0-0.552,0.247-0.552,0.551c0,0.303,0.248,0.551,0.552,0.551s0.551-0.248,0.551-0.551
		C11.866,12.333,11.619,12.085,11.315,12.085z"/>
	<path fill="#CC5882" d="M9.938,12.774c-0.304,0-0.551,0.247-0.551,0.551c0,0.303,0.247,0.551,0.551,0.551
		c0.305,0,0.551-0.247,0.551-0.551C10.489,13.021,10.243,12.774,9.938,12.774z"/>
</g>
</svg>
