<?xml version="1.0" encoding="utf-8"?>
<!-- Generator: Adobe Illustrator 16.0.0, SVG Export Plug-In . SVG Version: 6.00 Build 0)  -->
<!DOCTYPE svg PUBLIC "-//W3C//DTD SVG 1.1//EN" "http://www.w3.org/Graphics/SVG/1.1/DTD/svg11.dtd">
<svg version="1.1" id="Capa_1" xmlns="http://www.w3.org/2000/svg" xmlns:xlink="http://www.w3.org/1999/xlink" x="0px" y="0px"
	 width="20.449px" height="30.333px" viewBox="0 0 20.449 30.333" enable-background="new 0 0 20.449 30.333" xml:space="preserve">
<circle opacity="0.7" fill="#FFFFFF" enable-background="new    " cx="10.543" cy="10.074" r="7.794"/>
<path fill="#555555" d="M9.5,0.025C4.333,0.381,0.202,4.657,0.007,9.832c-0.121,3.251,1.277,6.176,3.539,8.129
	c0.608,0.524,1.162,1.106,1.673,1.729c1.545,1.875,4.05,5.539,5.006,10.498c0.955-4.958,3.458-8.621,5.003-10.497
	c0.504-0.608,1.043-1.188,1.643-1.7c2.189-1.875,3.578-4.658,3.578-7.767C20.449,4.337,15.477-0.388,9.5,0.025z M10.226,17.426
	c-4.005,0-7.252-3.246-7.252-7.251c0-4.004,3.247-7.251,7.252-7.251c4.004,0,7.25,3.247,7.25,7.251
	C17.477,14.18,14.229,17.426,10.226,17.426z"/>
<g>
	<g>
		<path fill="#555555" d="M12.879,6.404c-0.584-0.422-1.318-0.633-2.203-0.633c-0.672,0-1.24,0.149-1.701,0.445
			C8.243,6.681,7.854,7.47,7.807,8.582h1.696c0-0.324,0.094-0.636,0.284-0.937c0.188-0.301,0.51-0.451,0.963-0.451
			c0.46,0,0.777,0.122,0.95,0.366c0.175,0.244,0.261,0.515,0.261,0.811c0,0.258-0.13,0.495-0.285,0.708
			c-0.086,0.125-0.199,0.241-0.34,0.346c0,0-0.919,0.59-1.322,1.063c-0.234,0.275-0.256,0.687-0.275,1.276
			c-0.002,0.042,0.014,0.129,0.161,0.129s1.188,0,1.319,0s0.157-0.098,0.16-0.14c0.008-0.214,0.033-0.324,0.072-0.449
			c0.072-0.234,0.275-0.439,0.502-0.615l0.466-0.321c0.421-0.329,0.758-0.598,0.905-0.809c0.254-0.347,0.433-0.774,0.433-1.283
			C13.757,7.45,13.464,6.825,12.879,6.404z M10.648,12.912c-0.584-0.018-1.066,0.387-1.084,1.021
			c-0.018,0.633,0.44,1.052,1.025,1.069c0.61,0.018,1.079-0.373,1.097-1.007C11.705,13.362,11.26,12.93,10.648,12.912z"/>
	</g>
</g>
</svg>
