<?xml version="1.0" encoding="utf-8"?>
<!-- Generator: Adobe Illustrator 16.0.0, SVG Export Plug-In . SVG Version: 6.00 Build 0)  -->
<!DOCTYPE svg PUBLIC "-//W3C//DTD SVG 1.1//EN" "http://www.w3.org/Graphics/SVG/1.1/DTD/svg11.dtd">
<svg version="1.1" id="Capa_1" xmlns="http://www.w3.org/2000/svg" xmlns:xlink="http://www.w3.org/1999/xlink" x="0px" y="0px"
	 width="20.449px" height="30.333px" viewBox="0 0 20.449 30.333" enable-background="new 0 0 20.449 30.333" xml:space="preserve">
<circle opacity="0.7" fill="#FFFFFF" enable-background="new    " cx="10.543" cy="10.074" r="7.794"/>
<path fill="#E52046" d="M9.5,0.025C4.333,0.381,0.202,4.657,0.007,9.832c-0.121,3.251,1.277,6.176,3.539,8.129
	c0.608,0.524,1.162,1.106,1.673,1.729c1.545,1.875,4.05,5.539,5.006,10.498c0.955-4.958,3.458-8.621,5.003-10.497
	c0.504-0.608,1.043-1.188,1.643-1.7c2.189-1.875,3.578-4.658,3.578-7.767C20.449,4.337,15.477-0.388,9.5,0.025z M10.226,17.426
	c-4.005,0-7.252-3.246-7.252-7.251c0-4.004,3.247-7.251,7.252-7.251c4.004,0,7.25,3.247,7.25,7.251
	C17.477,14.18,14.229,17.426,10.226,17.426z"/>
<g id="XMLID_143_">
	<path id="XMLID_152_" fill="#E52046" d="M7.245,6.711h5.959c0.264,0,0.477-0.189,0.477-0.42c0-0.232-0.213-0.421-0.477-0.421H7.245
		c-0.264,0-0.477,0.188-0.477,0.421C6.768,6.522,6.981,6.711,7.245,6.711z"/>
	<path id="XMLID_151_" fill="#E52046" d="M7.245,7.99c-0.146,0-0.264,0.104-0.264,0.231c0,0.128,0.118,0.232,0.264,0.232
		c0.145,0,0.262-0.104,0.262-0.232C7.507,8.094,7.389,7.99,7.245,7.99z"/>
	<path id="XMLID_145_" fill="#E52046" d="M13.204,7.131c-0.766,0-5.193,0-5.959,0c-0.783,0-1.236,0.58-1.236,1.09
		c0,0.603,0.553,1.091,1.236,1.091c0.302,0,0.576-0.101,0.791-0.26v4.659c0,0.251,0.231,0.455,0.515,0.455h3.347
		c0.285,0,0.517-0.204,0.517-0.455V9.052c0.215,0.16,0.487,0.259,0.791,0.259c0.683,0,1.235-0.488,1.235-1.09
		C14.44,7.708,13.981,7.131,13.204,7.131z M9.271,13.287c0,0.115-0.106,0.209-0.238,0.209c-0.132,0-0.238-0.094-0.238-0.209V9.244
		c0-0.116,0.106-0.21,0.238-0.21c0.131,0,0.238,0.094,0.238,0.21V13.287z M10.462,13.287c0,0.115-0.105,0.209-0.238,0.209
		c-0.132,0-0.236-0.094-0.236-0.209V9.244c0-0.116,0.104-0.21,0.236-0.21c0.133,0,0.238,0.094,0.238,0.21V13.287z M11.653,13.287
		c0,0.115-0.107,0.209-0.238,0.209s-0.238-0.094-0.238-0.209V9.244c0-0.116,0.107-0.21,0.238-0.21s0.238,0.094,0.238,0.21V13.287z
		 M13.204,8.875c-0.408,0-0.739-0.292-0.739-0.653c0-0.082,0.019-0.159,0.05-0.231c-5.753,0,0.414,0-4.582,0
		c0.032,0.072,0.051,0.15,0.051,0.231c0,0.36-0.333,0.653-0.739,0.653c-0.408,0-0.74-0.292-0.74-0.653
		c0-0.359,0.332-0.652,0.74-0.652c2.174,0,3.738,0,5.959,0c0.408,0,0.74,0.293,0.74,0.652C13.944,8.583,13.612,8.875,13.204,8.875z"
		/>
	<path id="XMLID_144_" fill="#E52046" d="M13.204,7.99c-0.146,0-0.264,0.104-0.264,0.231c0,0.128,0.117,0.232,0.264,0.232
		c0.145,0,0.264-0.104,0.264-0.232C13.468,8.094,13.349,7.99,13.204,7.99z"/>
</g>
</svg>
