<?xml version="1.0" encoding="utf-8"?>
<!-- Generator: Adobe Illustrator 16.0.0, SVG Export Plug-In . SVG Version: 6.00 Build 0)  -->
<!DOCTYPE svg PUBLIC "-//W3C//DTD SVG 1.1//EN" "http://www.w3.org/Graphics/SVG/1.1/DTD/svg11.dtd">
<svg version="1.1" id="Capa_1" xmlns="http://www.w3.org/2000/svg" xmlns:xlink="http://www.w3.org/1999/xlink" x="0px" y="0px"
	 width="20.449px" height="30.333px" viewBox="0 0 20.449 30.333" enable-background="new 0 0 20.449 30.333" xml:space="preserve">
<circle opacity="0.7" fill="#FFFFFF" enable-background="new    " cx="10.543" cy="10.074" r="7.794"/>
<path fill="#916541" d="M9.5,0.025C4.333,0.381,0.202,4.657,0.007,9.832c-0.121,3.251,1.277,6.176,3.539,8.129
	c0.608,0.523,1.162,1.105,1.673,1.729c1.545,1.875,4.05,5.539,5.006,10.498c0.955-4.958,3.458-8.621,5.003-10.497
	c0.504-0.608,1.043-1.188,1.643-1.7c2.189-1.875,3.578-4.658,3.578-7.767C20.449,4.337,15.477-0.388,9.5,0.025z M10.226,17.426
	c-4.005,0-7.252-3.246-7.252-7.251c0-4.004,3.247-7.251,7.252-7.251c4.004,0,7.25,3.247,7.25,7.251
	C17.477,14.18,14.229,17.426,10.226,17.426z"/>
<g>
	<g>
		<polygon fill="#916541" points="10.997,10.133 10.619,10.327 10.619,13.822 14.027,12.076 14.027,8.582 		"/>
		<polygon fill="#916541" points="11.613,6.999 10.303,6.327 6.799,8.121 8.112,8.793 		"/>
		<polygon fill="#916541" points="13.805,8.121 12.295,7.358 8.792,9.152 8.992,9.243 10.303,9.915 11.607,9.248 		"/>
		<polygon fill="#916541" points="8.527,10.437 7.899,10.15 7.899,9.26 6.606,8.6 6.606,12.069 9.991,13.803 9.991,10.334 
			8.527,9.585 		"/>
	</g>
</g>
</svg>
