<?xml version="1.0" encoding="utf-8"?>
<!-- Generator: Adobe Illustrator 16.0.0, SVG Export Plug-In . SVG Version: 6.00 Build 0)  -->
<!DOCTYPE svg PUBLIC "-//W3C//DTD SVG 1.1//EN" "http://www.w3.org/Graphics/SVG/1.1/DTD/svg11.dtd">
<svg version="1.1" id="Capa_1" xmlns="http://www.w3.org/2000/svg" xmlns:xlink="http://www.w3.org/1999/xlink" x="0px" y="0px"
	 width="20.449px" height="30.333px" viewBox="0 0 20.449 30.333" enable-background="new 0 0 20.449 30.333" xml:space="preserve">
<circle opacity="0.7" fill="#FFFFFF" enable-background="new    " cx="10.543" cy="10.074" r="7.794"/>
<path fill="#38A884" d="M9.5,0.025C4.333,0.381,0.202,4.658,0.007,9.833c-0.121,3.251,1.277,6.176,3.539,8.129
	c0.608,0.525,1.162,1.107,1.673,1.729c1.545,1.875,4.05,5.539,5.006,10.498c0.955-4.957,3.458-8.621,5.003-10.496
	c0.504-0.609,1.043-1.189,1.643-1.701c2.189-1.875,3.578-4.657,3.578-7.766C20.449,4.337,15.477-0.388,9.5,0.025z M10.226,17.426
	c-4.005,0-7.252-3.246-7.252-7.251c0-4.004,3.247-7.251,7.252-7.251c4.004,0,7.25,3.247,7.25,7.251
	C17.477,14.181,14.229,17.426,10.226,17.426z"/>
<g>
	<path fill="#38A884" d="M9.125,7.886c0-1.195,1.101-2.604,1.101-2.604s1.1,1.408,1.1,2.604c0,1.193-1.1,1.723-1.1,1.723
		S9.125,9.08,9.125,7.886z M7.743,11.01c0.957,0.715,2.039,0.149,2.039,0.149s0.234-1.197-0.723-1.912S6.316,8.571,6.316,8.571
		S6.786,10.295,7.743,11.01z M10.861,11.24c0.354,0.125,1.134,0.3,1.845-0.23c0.958-0.715,1.427-2.438,1.427-2.438
		s-1.787-0.039-2.744,0.676c-0.629,0.47-0.744,1.15-0.748,1.56l0,0v1.644h-0.01H6.675c0,1.339,1.6,2.416,3.55,2.416
		c1.95,0,3.55-1.076,3.55-2.416h-2.914V11.24L10.861,11.24z"/>
</g>
</svg>
