<?xml version="1.0" encoding="utf-8"?>
<!-- Generator: Adobe Illustrator 16.0.0, SVG Export Plug-In . SVG Version: 6.00 Build 0)  -->
<!DOCTYPE svg PUBLIC "-//W3C//DTD SVG 1.1//EN" "http://www.w3.org/Graphics/SVG/1.1/DTD/svg11.dtd">
<svg version="1.1" id="Capa_1" xmlns="http://www.w3.org/2000/svg" xmlns:xlink="http://www.w3.org/1999/xlink" x="0px" y="0px"
	 width="595.279px" height="575.438px" viewBox="0 0 595.279 575.438" enable-background="new 0 0 595.279 575.438"
	 xml:space="preserve">
<g>
	<path fill="#999999" d="M554.777,437.442l3.239-1.14l2.161-7.953c0,0-83.174,37.485-259.786,37.485
		c-176.606,0-272.748-74.981-272.748-74.981l2.703,12.492c0,0,4.323,5.679,29.703,20.457c3.781,9.657,8.098,19.313,12.962,27.266
		c42.671,11.929,126.386,27.835,237.096,27.835C414.893,478.909,518.049,449.377,554.777,437.442z"/>
	<path fill="#999999" d="M310.114,484.025c-118.819,0-199.29-17.608-235.478-27.265c15.123,26.131,33.484,43.74,43.748,52.832
		c14.581,11.93,37.807,24.992,45.368,24.992c17.277,0.57,346.192-1.14,346.192-1.14l15.665-29.538l24.845-59.64
		C510.487,456.754,411.113,484.025,310.114,484.025z"/>
	<path fill="#999999" d="M130.81,393.132c0,0-5.4-187.46,131.238-345.939c68.052,87.48,128.542,153.37,128.542,153.37l3.238,223.248
		L130.81,393.132z"/>
	<g>
		<path fill="#999999" d="M349.539,66.504h-7.019l-1.084,72.145c4.322,6.25,7.562,9.086,11.342,14.208L349.539,66.504z"/>
	</g>
	<path fill="#999999" d="M105.424,387.452L1.185,376.094c0,0-15.122-104.52,62.646-183.485
		c28.626,47.147,38.884,67.029,38.884,67.029L105.424,387.452z"/>
	<g>
		<path fill="#999999" d="M84.359,187.499h-1.083l-0.542,30.671c1.083,1.14,1.619,2.273,2.161,3.407L84.359,187.499z"/>
		<g>
			<g>
				<path fill="#999999" d="M356.023,424.943l-19.445-2.267v37.49c6.483,0,13.503-0.569,19.98-0.569L356.023,424.943z"/>
				<g>
					<path fill="#999999" d="M213.442,430.06h-57.251v12.499c17.284,4.546,36.729,8.516,57.251,11.929V430.06z"/>
				</g>
			</g>
			<path fill="#999999" d="M87.056,389.155l-5.936-0.569l-0.542,26.701c2.155,1.14,4.322,2.273,6.478,3.412V389.155z"/>
		</g>
	</g>
	<path fill="#999999" d="M412.19,423.815c0,0-10.8-182.344,55.626-277.213c61.574,49.419,112.342,92.59,112.342,92.59l15.122,159.62
		L412.19,423.815z"/>
	<g>
		<g>
			<path fill="#999999" d="M515.887,414.718l-8.104,1.14l-3.238,25.561c3.238-1.139,5.941-1.702,8.639-2.267L515.887,414.718z"/>
		</g>
		<path fill="#999999" d="M542.351,153.415h-1.613l-5.399,43.74c1.083,0.57,1.619,1.14,2.696,1.703L542.351,153.415z"/>
	</g>
</g>
</svg>
