<?xml version="1.0" encoding="utf-8"?>
<!-- Generator: Adobe Illustrator 16.0.0, SVG Export Plug-In . SVG Version: 6.00 Build 0)  -->
<!DOCTYPE svg PUBLIC "-//W3C//DTD SVG 1.1//EN" "http://www.w3.org/Graphics/SVG/1.1/DTD/svg11.dtd">
<svg version="1.1" id="Capa_1" xmlns="http://www.w3.org/2000/svg" xmlns:xlink="http://www.w3.org/1999/xlink" x="0px" y="0px"
	 width="595.279px" height="536.171px" viewBox="123.305 29.555 595.279 536.171"
	 enable-background="new 123.305 29.555 595.279 536.171" xml:space="preserve">
<path fill="#999999" d="M665.557,29.555c-29.244,0-53.036,23.793-53.036,53.036c0,6.847,1.352,13.679,3.938,20.011l-87.086,87.086
	c-22.099-16.432-49.459-26.169-79.051-26.169c-23.634,0-46.687,6.288-67.022,18.231l-54.715-62.83
	c3.704-7.358,5.645-15.486,5.645-23.77c0-29.238-23.79-53.025-53.031-53.025s-53.03,23.787-53.03,53.025
	c0,29.244,23.789,53.037,53.03,53.037c5.527,0,10.938-0.845,16.146-2.515L351.45,207.8c-21.897,24.415-33.887,55.605-33.887,88.477
	c0,13.175,1.955,26.201,5.816,38.793l-119.154,84.807c-8.372-5.21-17.921-7.941-27.889-7.941
	c-29.242,0.001-53.032,23.788-53.032,53.028c0,29.244,23.79,53.035,53.032,53.035c29.241,0,53.031-23.791,53.031-53.035
	c0-3.914-0.431-7.794-1.284-11.592l113.633-80.873c14.646,20.797,35.079,37.101,58.529,46.702l-12.67,35.726
	c-26.955,2.463-48.18,25.26-48.18,52.808c0,29.241,23.79,53.029,53.031,53.029s53.032-23.788,53.032-53.029
	c0-15.556-6.897-30.304-18.667-40.349l13.736-38.729c3.328,0.253,6.605,0.381,9.793,0.381c17.004,0,33.543-3.195,49.237-9.506
	l56.978,68.685c-3.942,7.542-6.008,15.913-6.008,24.475c0,29.244,23.787,53.036,53.024,53.036c29.245,0,53.038-23.792,53.038-53.036
	c0-29.238-23.793-53.025-53.038-53.025c-5.244,0-10.397,0.766-15.375,2.281l-52.884-63.747
	c30.452-25.352,47.781-62.128,47.781-101.92c0-28.802-9.223-55.489-24.865-77.269l87.329-87.328
	c6.333,2.584,13.168,3.937,20.017,3.937c29.239,0,53.027-23.787,53.027-53.025C718.584,53.348,694.796,29.555,665.557,29.555z
	 M450.323,224.69c39.473,0,71.587,32.114,71.587,71.588c0,39.473-32.112,71.587-71.587,71.587s-71.59-32.114-71.59-71.587
	C378.733,256.804,410.848,224.69,450.323,224.69z"/>
</svg>
