<?xml version="1.0" encoding="utf-8"?>
<!-- Generator: Adobe Illustrator 16.0.0, SVG Export Plug-In . SVG Version: 6.00 Build 0)  -->
<!DOCTYPE svg PUBLIC "-//W3C//DTD SVG 1.1//EN" "http://www.w3.org/Graphics/SVG/1.1/DTD/svg11.dtd">
<svg version="1.1" id="Capa_1" xmlns="http://www.w3.org/2000/svg" xmlns:xlink="http://www.w3.org/1999/xlink" x="0px" y="0px"
	 width="792.711px" height="794.708px" viewBox="0 5.292 792.711 794.708" enable-background="new 0 5.292 792.711 794.708"
	 xml:space="preserve">
<g>
	<g id="Layer_5_87_">
		<g>
			<path fill="#555555" d="M206.137,509.368c-12.146-12.139-16.717-6.039-19.417-3.333c-69.93,69.927-132.007,238.646-99.19,222.166
				c119.476-59.987,139.383-42.125,209.305-112.05c2.705-2.703,8.92-7.159-3.577-19.658L206.137,509.368z"/>
			<path fill="#555555" d="M583.1,508.432c-3.166-10.085,3.471-14.944,6.266-17.96C743.698,323.848,841.786,101.853,769.1,29.161
				c-72.307-72.299-287.456,28.652-454.035,181.874c-3.293,3.035-9.788,8.783-21.412,6.357l-51.9-12.358
				c-14.409-3.427-34.769,2.334-45.243,12.808L6.079,408.273c-10.473,10.476-7.071,20.928,7.561,23.226l137.736,21.646
				c14.631,2.302,35.176-4.388,45.647-14.863c0,0,7.104-7.127,14.247,0.012c39.393,39.388,112.596,112.591,150.127,150.124
				c7.46,7.458,0.313,14.553,0.313,14.553c-10.477,10.476-17.16,31.014-14.861,45.649l21.643,137.73
				c2.299,14.639,12.752,18.041,23.226,7.564l190.438-190.436c10.471-10.474,16.236-30.83,12.804-45.238L583.1,508.432z
				 M540.464,262.404c-32.256-32.255-32.256-84.546,0-116.797c32.253-32.255,84.544-32.255,116.801,0
				c32.251,32.248,32.251,84.541,0,116.794C625.009,294.657,572.714,294.657,540.464,262.404z"/>
		</g>
	</g>
</g>
</svg>
