<?xml version="1.0" encoding="utf-8"?>
<!-- Generator: Adobe Illustrator 16.0.0, SVG Export Plug-In . SVG Version: 6.00 Build 0)  -->
<!DOCTYPE svg PUBLIC "-//W3C//DTD SVG 1.1//EN" "http://www.w3.org/Graphics/SVG/1.1/DTD/svg11.dtd">
<svg version="1.1" id="Capa_1" xmlns="http://www.w3.org/2000/svg" xmlns:xlink="http://www.w3.org/1999/xlink" x="0px" y="0px"
	 width="792.711px" height="800px" viewBox="0 0 792.711 800" enable-background="new 0 0 792.711 800" xml:space="preserve">
<g>
	<g id="Layer_5_87_">
		<g>
			<path fill="#999999" d="M207.51,507.433c-12.227-12.22-16.828-6.079-19.547-3.355C117.568,574.47,55.076,744.313,88.113,727.723
				c120.271-60.387,140.312-42.405,210.699-112.796c2.723-2.721,8.979-7.207-3.601-19.789L207.51,507.433z"/>
			<path fill="#999999" d="M586.984,506.49c-3.188-10.152,3.493-15.044,6.308-18.08C748.652,320.677,847.393,97.203,774.222,24.027
				c-72.788-72.781-289.37,28.843-457.059,183.085c-3.315,3.055-9.854,8.841-21.555,6.399l-52.245-12.44
				c-14.505-3.45-35.001,2.349-45.545,12.893L6.119,405.664c-10.543,10.546-7.118,21.067,7.611,23.381l138.653,21.789
				c14.729,2.317,35.41-4.416,45.951-14.962c0,0,7.151-7.174,14.342,0.012c39.655,39.65,113.346,113.341,151.127,151.124
				c7.51,7.508,0.314,14.649,0.314,14.649c-10.547,10.546-17.274,31.221-14.96,45.954l21.787,138.647
				c2.314,14.736,12.837,18.161,23.381,7.615L586.032,602.17c10.541-10.544,16.345-31.035,12.89-45.54L586.984,506.49z
				 M544.064,258.823c-32.471-32.47-32.471-85.109,0-117.575c32.468-32.47,85.107-32.47,117.579,0
				c32.466,32.463,32.466,85.104,0,117.572C629.172,291.291,576.529,291.291,544.064,258.823z"/>
		</g>
	</g>
</g>
</svg>
