<?xml version="1.0" encoding="utf-8"?>
<!-- Generator: Adobe Illustrator 16.0.0, SVG Export Plug-In . SVG Version: 6.00 Build 0)  -->
<!DOCTYPE svg PUBLIC "-//W3C//DTD SVG 1.1//EN" "http://www.w3.org/Graphics/SVG/1.1/DTD/svg11.dtd">
<svg version="1.1" id="Capa_1" xmlns="http://www.w3.org/2000/svg" xmlns:xlink="http://www.w3.org/1999/xlink" x="0px" y="0px"
	 width="413.506px" height="367.402px" viewBox="0 0 413.506 367.402" enable-background="new 0 0 413.506 367.402"
	 xml:space="preserve">
<g>
	<g>
		<g>
			<path fill="#BB677D" d="M380.435,126.986h-26.318c3.088,17.349-4.332,35.634-20.2,45.453c-7.015,4.336-15.062,6.629-23.279,6.629
				c-15.465,0-29.553-7.844-37.68-20.984c-5.746-9.293-7.609-20.425-5.688-31.097H146.244c1.915,10.671,0.053,21.802-5.692,31.104
				c-8.121,13.135-22.208,20.979-37.673,20.979c-8.227,0-16.271-2.293-23.289-6.629c-15.867-9.819-23.289-28.104-20.195-45.453
				H33.077c-18.271,0-33.075,14.805-33.075,33.075c0,18.259,14.805,33.063,33.075,33.063h3.646l24.255,147.517
				c2.542,15.432,15.875,26.764,31.523,26.764h228.501c15.647,0,28.979-11.332,31.522-26.764l24.246-147.515h3.657
				c18.271,0,33.074-14.808,33.074-33.063C413.509,141.791,398.699,126.986,380.435,126.986z M141.034,329.135
				c-0.999,0.146-1.987,0.225-2.971,0.225c-9.65,0-18.11-7.066-19.602-16.904l-13.735-91.553
				c-1.627-10.84,5.841-20.942,16.683-22.567c10.854-1.579,20.937,5.838,22.566,16.673l13.739,91.563
				C159.344,317.404,151.875,327.509,141.034,329.135z M226.6,309.507c0,10.966-8.877,19.851-19.841,19.851
				c-10.963,0-19.838-8.887-19.838-19.851v-91.56c0-10.955,8.876-19.84,19.838-19.84c10.964,0,19.841,8.885,19.841,19.84V309.507z
				 M308.787,220.9l-13.743,91.553c-1.479,9.84-9.938,16.906-19.592,16.906c-0.984,0-1.971-0.078-2.973-0.227
				c-10.842-1.625-18.309-11.729-16.68-22.566l13.734-91.562c1.633-10.845,11.674-18.31,22.566-16.677
				C302.946,199.955,310.412,210.06,308.787,220.9z"/>
			<path fill="#BB677D" d="M86.555,161.189c5.085,3.15,10.738,4.649,16.324,4.649c10.396,0,20.561-5.223,26.419-14.71
				c5.403-8.739,5.869-19.077,2.307-27.927l58.924-95.229c5.323-8.611,2.661-19.891-5.948-25.225C181.576,0.892,178.244,0,174.958,0
				c-6.14,0-12.133,3.083-15.608,8.695l-58.903,95.229c-9.504,0.764-18.55,5.779-23.951,14.517
				C67.466,133.028,71.984,152.167,86.555,161.189z"/>
			<path fill="#BB677D" d="M281.909,123.201c-3.563,8.851-3.107,19.188,2.299,27.927c5.869,9.489,16.022,14.71,26.428,14.71
				c5.584,0,11.231-1.5,16.324-4.649c14.573-9.021,19.082-28.162,10.06-42.747c-5.392-8.736-14.445-13.753-23.939-14.517
				L254.153,8.695C250.685,3.081,244.691,0,238.552,0c-3.285,0-6.617,0.893-9.627,2.748c-8.606,5.335-11.25,16.613-5.945,25.226
				L281.909,123.201z"/>
		</g>
	</g>
</g>
</svg>
