<?xml version="1.0" encoding="utf-8"?>
<!-- Generator: Adobe Illustrator 16.0.0, SVG Export Plug-In . SVG Version: 6.00 Build 0)  -->
<!DOCTYPE svg PUBLIC "-//W3C//DTD SVG 1.1//EN" "http://www.w3.org/Graphics/SVG/1.1/DTD/svg11.dtd">
<svg version="1.1" id="Capa_1" xmlns="http://www.w3.org/2000/svg" xmlns:xlink="http://www.w3.org/1999/xlink" x="0px" y="0px"
	 width="595.279px" height="575.438px" viewBox="123.305 9.922 595.279 575.438"
	 enable-background="new 123.305 9.922 595.279 575.438" xml:space="preserve">
<g>
	<circle fill="#999999" cx="559.843" cy="396.854" r="9.921"/>
	<circle fill="#999999" cx="579.686" cy="565.517" r="9.921"/>
	<circle fill="#999999" cx="331.653" cy="486.146" r="9.921"/>
	<circle fill="#999999" cx="490.394" cy="426.617" r="9.921"/>
	<circle fill="#999999" cx="639.214" cy="476.225" r="9.921"/>
	<circle fill="#999999" cx="272.124" cy="565.517" r="9.921"/>
	<path fill="#999999" d="M292.672,127.975c-18.741-18.731-43.654-29.06-70.154-29.06s-51.412,10.328-70.153,29.06
		c-18.741,18.741-29.06,43.654-29.06,70.164c0,26.5,10.318,51.412,29.06,70.153L306.7,422.63l140.308-140.308L292.672,127.975z"/>
	<path fill="#999999" d="M689.526,38.981c-18.742-18.741-43.654-29.06-70.154-29.06s-51.412,10.318-70.154,29.06L394.881,193.317
		l140.308,140.308l154.337-154.346c18.741-18.732,29.059-43.645,29.059-70.145S708.267,57.722,689.526,38.981z"/>
	<path fill="#999999" d="M520.158,357.169c0-21.887-17.799-39.686-39.686-39.686s-39.686,17.799-39.686,39.686
		c0,21.886,17.799,39.685,39.686,39.685S520.158,379.054,520.158,357.169z"/>
	<path fill="#999999" d="M411.024,396.853c-21.887,0-39.686,17.8-39.686,39.686c0,21.887,17.799,39.686,39.686,39.686
		c21.886,0,39.685-17.799,39.685-39.686C450.708,414.653,432.909,396.853,411.024,396.853z"/>
	<path fill="#999999" d="M510.237,456.382c-21.887,0-39.686,17.799-39.686,39.686s17.799,39.686,39.686,39.686
		s39.686-17.799,39.686-39.686S532.123,456.382,510.237,456.382z"/>
	<path fill="#999999" d="M411.024,505.988c-21.887,0-39.686,17.799-39.686,39.686s17.799,39.686,39.686,39.686
		c21.886,0,39.685-17.799,39.685-39.686S432.909,505.988,411.024,505.988z"/>
</g>
</svg>
