<?xml version="1.0" encoding="utf-8"?>
<!-- Generator: Adobe Illustrator 16.0.0, SVG Export Plug-In . SVG Version: 6.00 Build 0)  -->
<!DOCTYPE svg PUBLIC "-//W3C//DTD SVG 1.1//EN" "http://www.w3.org/Graphics/SVG/1.1/DTD/svg11.dtd">
<svg version="1.1" id="Capa_1" xmlns="http://www.w3.org/2000/svg" xmlns:xlink="http://www.w3.org/1999/xlink" x="0px" y="0px"
	 width="595.279px" height="486.975px" viewBox="0 0 595.279 486.975" enable-background="new 0 0 595.279 486.975"
	 xml:space="preserve">
<path fill="#999999" d="M595.02,427.78v39.062c0,11.121-9.012,20.133-20.133,20.133H20.132C9.014,486.975,0,477.963,0,466.842
	V427.78c0-11.121,9.016-20.133,20.132-20.133h554.757C586.008,407.647,595.02,416.662,595.02,427.78z M575.148,0H452.937
	c-11.121,0-20.132,9.011-20.132,20.132v332.854c0,11.119,9.011,20.133,20.132,20.133h122.211c11.121,0,20.132-9.014,20.132-20.133
	V20.132C595.28,9.011,586.269,0,575.148,0z M358.614,125.266h-122.21c-11.118,0-20.133,9.01-20.133,20.131v207.588
	c0,11.119,9.015,20.133,20.133,20.133h122.21c11.121,0,20.133-9.014,20.133-20.133V145.396
	C378.746,134.279,369.735,125.266,358.614,125.266z M144.767,257.692H22.553c-11.118,0-20.134,9.011-20.134,20.132v75.161
	c0,11.119,9.016,20.132,20.134,20.132h122.211c11.116,0,20.133-9.013,20.133-20.132v-75.161
	C164.899,266.703,155.885,257.692,144.767,257.692z"/>
</svg>
