<?xml version="1.0" encoding="utf-8"?>
<!-- Generator: Adobe Illustrator 16.0.0, SVG Export Plug-In . SVG Version: 6.00 Build 0)  -->
<!DOCTYPE svg PUBLIC "-//W3C//DTD SVG 1.1//EN" "http://www.w3.org/Graphics/SVG/1.1/DTD/svg11.dtd">
<svg version="1.1" id="Capa_1" xmlns="http://www.w3.org/2000/svg" xmlns:xlink="http://www.w3.org/1999/xlink" x="0px" y="0px"
	 width="487.248px" height="595.277px" viewBox="0 0 487.248 595.277" enable-background="new 0 0 487.248 595.277"
	 xml:space="preserve">
<g>
	<g>
		<path fill="#547992" d="M128.307,186.74c2.066,9.509,5.236,15.665,8.936,19.501c8.798,61.237,63.765,113.424,107.911,111.242
			c56.16-2.757,95.967-63.281,104.901-111.242c3.698-3.813,7.259-11.967,9.396-21.545c2.389-11.002,4.961-27.586-1.654-36.361
			c-0.391-0.459-2.917-2.779-3.354-3.17c6.315-22.786,20.189-63.442-14.355-99.986c-18.721-19.8-44.722-29.746-68.22-37.602
			c-69.368-23.176-118.34,9.326-140.94,63.373c-1.632,3.836-12.175,28.115,0.597,74.215c-1.24,0.827-2.365,1.884-3.308,3.17
			C121.577,157.086,125.896,175.737,128.307,186.74z"/>
		<path fill="#547992" d="M487.07,523.521c-1.931-42.149-4.318-108.944-41.14-163.59c0,0-10.497-14.311-35.396-23.819
			c0,0-54.07-16.469-78.97-34.271l-11.369,7.786l1.263,73.916l-68.266,182.24c-1.492,3.997-5.306,6.64-9.555,6.64
			c-4.25,0-8.063-2.643-9.557-6.64l-68.242-182.24c0,0,1.264-73.687,1.24-73.916c0.16,0.62-11.394-7.786-11.394-7.786
			c-24.854,17.802-78.946,34.271-78.946,34.271c-24.898,9.51-35.396,23.819-35.396,23.819C4.546,414.576,2.113,481.37,0.183,523.521
			c-1.332,29.125,4.776,39.99,12.449,43.091c95.231,38.222,366.709,38.222,461.964,0
			C482.315,563.533,488.378,552.646,487.07,523.521z"/>
		<path fill="#547992" d="M246.073,341.027l-3.078,0.068c-9.923,0-19.938-1.93-29.769-5.329l27.059,41.415l-24.279,23.429
			l24.991,151.76c0.207,1.311,1.332,2.251,2.664,2.251c1.311,0,2.436-0.94,2.665-2.251l24.99-151.76l-24.302-23.429l26.667-40.795
			C264.976,338.937,255.765,340.637,246.073,341.027z"/>
	</g>
</g>
</svg>
