<?xml version="1.0" encoding="utf-8"?>
<!-- Generator: Adobe Illustrator 16.0.0, SVG Export Plug-In . SVG Version: 6.00 Build 0)  -->
<!DOCTYPE svg PUBLIC "-//W3C//DTD SVG 1.1//EN" "http://www.w3.org/Graphics/SVG/1.1/DTD/svg11.dtd">
<svg version="1.1" id="Layer_1" xmlns="http://www.w3.org/2000/svg" xmlns:xlink="http://www.w3.org/1999/xlink" x="0px" y="0px"
	 width="31.721px" height="26.188px" viewBox="0 0 31.721 26.188" enable-background="new 0 0 31.721 26.188" xml:space="preserve">
<g id="Layer_1_1_">
	<path id="opened_box" fill="#555555" d="M10.262,16.73L0.01,11.951l4.779-3.187l10.252,4.778L10.262,16.73z M31.534,4.779L21.282,0
		l-4.78,3.188l10.252,4.779L31.534,4.779z M21.467,16.73l10.254-4.78l-4.779-3.187L16.69,13.542L21.467,16.73z M4.975,7.966
		l10.252-4.779L10.446,0L0.195,4.779L4.975,7.966z M10.4,18.552l-5.611-2.614v5.469l10.252,4.779V15.458L10.4,18.552z
		 M21.328,18.552l-4.641-3.095v10.729l10.251-4.778V15.94L21.328,18.552z"/>
</g>
</svg>
