<?xml version="1.0" encoding="utf-8"?>
<!-- Generator: Adobe Illustrator 16.0.0, SVG Export Plug-In . SVG Version: 6.00 Build 0)  -->
<!DOCTYPE svg PUBLIC "-//W3C//DTD SVG 1.1//EN" "http://www.w3.org/Graphics/SVG/1.1/DTD/svg11.dtd">
<svg version="1.1" id="Capa_1" xmlns="http://www.w3.org/2000/svg" xmlns:xlink="http://www.w3.org/1999/xlink" x="0px" y="0px"
	 width="462.139px" height="597.158px" viewBox="0 0 462.139 597.158" enable-background="new 0 0 462.139 597.158"
	 xml:space="preserve">
<g>
	<g>
		<path fill="#DAA823" d="M215.188,109.036l-55.066-0.067c-14.542,0-26.33,11.76-26.343,26.367l-0.188,338.381
			c0,14.531,11.769,26.396,26.34,26.396l55.031,0.027c14.578,0,26.386-11.809,26.386-26.33l0.178-338.41
			C241.577,120.853,229.76,109.036,215.188,109.036z M209.931,461.096l-44.676,0.048c-5.087,0-9.254-4.156-9.254-9.244
			c0.01-5.086,4.146-9.254,9.264-9.254l44.688,0.059c5.075,0,9.233,4.156,9.233,9.234
			C219.185,457.032,215.049,461.096,209.931,461.096z M209.979,196.253l-44.676-0.027c-5.087,0-9.253-4.156-9.253-9.255
			c0-5.098,4.166-9.243,9.253-9.243l44.676-0.051c5.089,0,9.236,4.243,9.236,9.331C219.195,192.085,215.065,196.253,209.979,196.253
			z"/>
		<path fill="#DAA823" d="M81.559,109.025l-55.003-0.066c-14.569,0-26.386,11.759-26.415,26.367L0.001,473.729
			c-0.04,14.53,11.759,26.395,26.3,26.395l55.012,0.027c14.589,0,26.415-11.808,26.437-26.33l0.143-338.409
			C107.927,120.843,96.137,109.025,81.559,109.025z M76.356,461.096l-44.691,0.048c-5.067,0-9.244-4.156-9.244-9.244
			c0.025-5.086,4.157-9.254,9.254-9.254l44.685,0.059c5.087,0,9.22,4.156,9.22,9.234C85.584,457.032,81.435,461.096,76.356,461.096z
			 M76.356,196.253l-44.655-0.027c-5.078,0-9.229-4.156-9.229-9.255c0-5.098,4.148-9.243,9.229-9.243l44.653-0.051
			c5.1,0,9.229,4.243,9.229,9.331C85.584,192.085,81.435,196.253,76.356,196.253z"/>
		<path fill="#DAA823" d="M290.07,146.147c-1.822-8.393-10.1-13.715-18.5-11.875c-8.391,1.823-13.705,10.108-11.883,18.5
			l72.379,331.861c1.824,8.392,10.109,13.707,18.5,11.894c8.393-1.83,13.715-10.115,11.885-18.508L290.07,146.147z"/>
		<path fill="#DAA823" d="M461.779,456.349l-72.381-331.87c-1.824-8.393-10.109-13.707-18.5-11.875
			c-8.391,1.831-13.715,10.108-11.883,18.5l72.381,331.872c1.822,8.391,10.109,13.696,18.5,11.872
			C458.279,473.017,463.611,464.739,461.779,456.349z"/>
		<path fill="#DAA823" d="M316.327,131.854c-0.844-3.872-4.654-6.331-8.527-5.486c-3.873,0.845-6.332,4.67-5.486,8.543
			l75.941,348.226c0.854,3.871,4.67,6.32,8.529,5.482c3.887-0.854,6.332-4.679,5.486-8.543L316.327,131.854z"/>
		<path fill="#DAA823" d="M341.243,126.414c-0.844-3.872-4.654-6.331-8.529-5.485c-3.861,0.845-6.32,4.67-5.484,8.533
			l75.951,348.236c0.846,3.861,4.66,6.32,8.533,5.465c3.869-0.844,6.328-4.66,5.477-8.529L341.243,126.414z"/>
	</g>
</g>
</svg>
