<?xml version="1.0" encoding="utf-8"?>
<!-- Generator: Adobe Illustrator 16.0.0, SVG Export Plug-In . SVG Version: 6.00 Build 0)  -->
<!DOCTYPE svg PUBLIC "-//W3C//DTD SVG 1.1//EN" "http://www.w3.org/Graphics/SVG/1.1/DTD/svg11.dtd">
<svg version="1.1" id="Capa_1" xmlns="http://www.w3.org/2000/svg" xmlns:xlink="http://www.w3.org/1999/xlink" x="0px" y="0px"
	 width="462.139px" height="597.158px" viewBox="0 0 462.139 597.158" enable-background="new 0 0 462.139 597.158"
	 xml:space="preserve">
<g>
	<g>
		<path fill="#999999" d="M215.201,109.188l-55.026-0.067c-14.53,0-26.309,11.75-26.319,26.346l-0.19,338.118
			c0,14.521,11.76,26.377,26.319,26.377l54.988,0.026c14.567,0,26.365-11.797,26.365-26.309l0.179-338.146
			C241.569,120.996,229.76,109.188,215.201,109.188z M209.948,460.973l-44.641,0.048c-5.085,0-9.248-4.152-9.248-9.236
			c0.01-5.085,4.145-9.248,9.256-9.248l44.651,0.058c5.074,0,9.229,4.154,9.229,9.229
			C219.196,456.913,215.06,460.973,209.948,460.973z M209.996,196.336l-44.641-0.028c-5.084,0-9.247-4.153-9.247-9.246
			c0-5.094,4.163-9.237,9.247-9.237l44.641-0.049c5.085,0,9.229,4.239,9.229,9.323C219.204,192.172,215.078,196.336,209.996,196.336
			z"/>
		<path fill="#999999" d="M81.676,109.177l-54.96-0.065c-14.558,0-26.365,11.75-26.394,26.347L0.179,473.596
			c-0.039,14.521,11.75,26.377,26.279,26.377l54.969,0.026c14.578,0,26.395-11.799,26.414-26.309l0.142-338.146
			C108.022,120.985,96.243,109.177,81.676,109.177z M76.477,460.973l-44.66,0.048c-5.063,0-9.236-4.152-9.236-9.236
			c0.028-5.085,4.153-9.248,9.247-9.248l44.65,0.058c5.083,0,9.209,4.154,9.209,9.229C85.696,456.913,81.552,460.973,76.477,460.973
			z M76.477,196.336l-44.621-0.028c-5.074,0-9.22-4.153-9.22-9.246c0-5.094,4.146-9.237,9.22-9.237l44.621-0.049
			c5.093,0,9.219,4.239,9.219,9.323C85.696,192.172,81.552,196.336,76.477,196.336z"/>
		<path fill="#999999" d="M290.022,146.27c-1.821-8.384-10.09-13.705-18.484-11.865c-8.384,1.821-13.694,10.101-11.873,18.485
			l72.323,331.602c1.823,8.386,10.101,13.696,18.484,11.885c8.386-1.832,13.705-10.109,11.875-18.495L290.022,146.27z"/>
		<path fill="#999999" d="M461.6,456.229l-72.326-331.61c-1.82-8.385-10.102-13.696-18.484-11.864
			c-8.386,1.83-13.706,10.101-11.874,18.484l72.325,331.612c1.821,8.385,10.103,13.686,18.484,11.864
			C458.101,472.885,463.429,464.614,461.6,456.229z"/>
		<path fill="#999999" d="M316.265,131.988c-0.844-3.87-4.655-6.327-8.526-5.481c-3.87,0.844-6.326,4.666-5.48,8.536l75.882,347.953
			c0.854,3.868,4.666,6.317,8.526,5.482c3.881-0.855,6.325-4.676,5.481-8.537L316.265,131.988z"/>
		<path fill="#999999" d="M341.161,126.552c-0.844-3.869-4.656-6.326-8.527-5.481c-3.858,0.844-6.316,4.667-5.479,8.526
			l75.892,347.963c0.845,3.859,4.655,6.316,8.527,5.463c3.868-0.845,6.325-4.656,5.471-8.526L341.161,126.552z"/>
	</g>
</g>
</svg>
