<?xml version="1.0" encoding="utf-8"?>
<!-- Generator: Adobe Illustrator 16.0.0, SVG Export Plug-In . SVG Version: 6.00 Build 0)  -->
<!DOCTYPE svg PUBLIC "-//W3C//DTD SVG 1.1//EN" "http://www.w3.org/Graphics/SVG/1.1/DTD/svg11.dtd">
<svg version="1.1" id="Capa_1" xmlns="http://www.w3.org/2000/svg" xmlns:xlink="http://www.w3.org/1999/xlink" x="0px" y="0px"
	 width="792.711px" height="746px" viewBox="0 28.5 792.711 746" enable-background="new 0 28.5 792.711 746" xml:space="preserve">
<g>
	<g>
		<path fill="#555555" d="M391.722,212.595L115.98,439.914c0,0.322-0.081,0.795-0.243,1.437c-0.158,0.639-0.241,1.103-0.241,1.431
			v230.187c0,8.311,3.038,15.514,9.114,21.579c6.074,6.069,13.267,9.122,21.58,9.122h184.143V519.516h122.779v184.159h184.143
			c8.311,0,15.514-3.046,21.58-9.128c6.076-6.06,9.123-13.267,9.123-21.579V442.781c0-1.275-0.173-2.24-0.483-2.867L391.722,212.595
			z"/>
		<path fill="#555555" d="M772.963,388.121l-105.016-87.28v-195.66c0-4.474-1.438-8.152-4.324-11.031
			c-2.862-2.875-6.539-4.313-11.022-4.313h-92.074c-4.479,0-8.155,1.438-11.035,4.313c-2.874,2.879-4.31,6.56-4.31,11.031v93.512
			l-117.01-97.833c-10.221-8.313-22.371-12.468-36.44-12.468c-14.068,0-26.217,4.155-36.445,12.468L10.472,388.121
			c-3.195,2.552-4.947,5.989-5.273,10.307c-0.325,4.314,0.792,8.08,3.354,11.275l29.732,35.488
			c2.561,2.875,5.914,4.634,10.072,5.276c3.838,0.324,7.675-0.798,11.514-3.355l331.852-276.714l331.855,276.714
			c2.563,2.229,5.914,3.343,10.071,3.343h1.44c4.152-0.632,7.496-2.401,10.071-5.271l29.735-35.483
			c2.558-3.202,3.678-6.963,3.346-11.281C777.912,394.115,776.155,390.678,772.963,388.121z"/>
	</g>
</g>
</svg>
