<?xml version="1.0" encoding="utf-8"?>
<!-- Generator: Adobe Illustrator 16.0.0, SVG Export Plug-In . SVG Version: 6.00 Build 0)  -->
<!DOCTYPE svg PUBLIC "-//W3C//DTD SVG 1.1//EN" "http://www.w3.org/Graphics/SVG/1.1/DTD/svg11.dtd">
<svg version="1.1" id="Capa_1" xmlns="http://www.w3.org/2000/svg" xmlns:xlink="http://www.w3.org/1999/xlink" x="0px" y="0px"
	 width="399.445px" height="612px" viewBox="0 0 399.445 612" enable-background="new 0 0 399.445 612" xml:space="preserve">
<g>
	<path fill="#39A784" d="M353.61,56.471h-39.291V19.645C314.319,8.801,305.518,0,294.672,0H104.775
		C93.93,0,85.128,8.801,85.128,19.645v36.828H45.84c-25.328,0-45.841,20.522-45.841,45.839v463.849
		c0,25.313,20.51,45.839,45.841,45.839h307.77c25.328,0,45.838-20.521,45.838-45.839V102.31
		C399.448,77.008,378.938,56.471,353.61,56.471z M252.112,102.31V56.471v-17.18h22.92v17.183v45.839v43.376h-22.92V102.31
		L252.112,102.31z M124.422,102.31V56.471v-17.18h72.028v17.183v45.839v43.376h-72.028V102.31L124.422,102.31z M136.431,558.226
		c0,10.856-8.802,19.646-19.646,19.646H85.132c-10.847,0-19.646-8.789-19.646-19.646V524.41c0-10.856,8.801-19.646,19.646-19.646
		h31.652c10.846,0,19.646,8.788,19.646,19.646L136.431,558.226L136.431,558.226z M136.431,459.451
		c0,10.854-8.802,19.645-19.646,19.645H85.132c-10.847,0-19.646-8.788-19.646-19.645v-33.815c0-10.854,8.801-19.646,19.646-19.646
		h31.652c10.846,0,19.646,8.789,19.646,19.646L136.431,459.451L136.431,459.451z M136.431,360.689
		c0,10.854-8.802,19.646-19.646,19.646H85.132c-10.847,0-19.646-8.789-19.646-19.646v-33.826c0-10.857,8.801-19.646,19.646-19.646
		h31.652c10.846,0,19.646,8.788,19.646,19.646L136.431,360.689L136.431,360.689z M235.202,558.226
		c0,10.856-8.801,19.646-19.645,19.646H183.89c-10.846,0-19.646-8.789-19.646-19.646V524.41c0-10.856,8.802-19.646,19.646-19.646
		h31.667c10.844,0,19.645,8.788,19.645,19.646V558.226L235.202,558.226z M235.202,459.451c0,10.854-8.801,19.645-19.645,19.645
		H183.89c-10.846,0-19.646-8.788-19.646-19.645v-33.815c0-10.854,8.802-19.646,19.646-19.646h31.667
		c10.844,0,19.645,8.789,19.645,19.646V459.451L235.202,459.451z M235.202,360.689c0,10.854-8.801,19.646-19.645,19.646H183.89
		c-10.846,0-19.646-8.789-19.646-19.646v-33.826c0-10.857,8.802-19.646,19.646-19.646h31.667c10.844,0,19.645,8.788,19.645,19.646
		V360.689L235.202,360.689z M333.966,558.226c0,10.856-8.802,19.646-19.646,19.646h-31.654c-10.844,0-19.645-8.789-19.645-19.646
		V524.41c0-10.856,8.801-19.646,19.645-19.646h31.654c10.846,0,19.646,8.788,19.646,19.646V558.226z M333.966,459.451
		c0,10.854-8.802,19.645-19.646,19.645h-31.654c-10.844,0-19.645-8.788-19.645-19.645v-33.815c0-10.854,8.801-19.646,19.645-19.646
		h31.654c10.846,0,19.646,8.789,19.646,19.646V459.451z M333.966,360.689c0,10.854-8.802,19.646-19.646,19.646h-31.654
		c-10.844,0-19.645-8.789-19.645-19.646v-33.826c0-10.857,8.801-19.646,19.645-19.646h31.654c10.846,0,19.646,8.788,19.646,19.646
		V360.689z M333.966,245.979c0,18.531-15.033,33.554-33.564,33.554H99.041c-18.528,0-33.554-15.023-33.554-33.554v-34.666
		c0-18.546,15.022-33.566,33.554-33.566H300.4c18.529,0,33.564,15.023,33.564,33.566L333.966,245.979L333.966,245.979z"/>
</g>
</svg>
