<?xml version="1.0" encoding="utf-8"?>
<!-- Generator: Adobe Illustrator 16.0.0, SVG Export Plug-In . SVG Version: 6.00 Build 0)  -->
<!DOCTYPE svg PUBLIC "-//W3C//DTD SVG 1.1//EN" "http://www.w3.org/Graphics/SVG/1.1/DTD/svg11.dtd">
<svg version="1.1" id="Capa_1" xmlns="http://www.w3.org/2000/svg" xmlns:xlink="http://www.w3.org/1999/xlink" x="0px" y="0px"
	 width="595.279px" height="841.891px" viewBox="0 0 595.279 841.891" enable-background="new 0 0 595.279 841.891"
	 xml:space="preserve">
<g>
	<path fill="#1E8E90" d="M513.093,175.637v-42.299c0-5.475-4.533-10.033-10.08-10.033H10.08c-5.547,0-10.08,4.558-10.08,10.033
		v492.956c0,5.644,4.533,10.081,10.08,10.081h42.229c5.569,0,10.104-4.438,10.104-10.081V185.717h440.601
		C508.559,185.717,513.093,181.231,513.093,175.637z"/>
	<path fill="#1E8E90" d="M585.199,205.444H92.22c-5.522,0-10.081,4.534-10.081,10.128v492.883c0,5.596,4.559,10.129,10.081,10.129
		h492.979c5.547,0,10.08-4.533,10.08-10.129V215.573C595.28,209.978,590.771,205.444,585.199,205.444z M433.582,577.12
		l-167.438-14.831c-12.251-1.085-15.169-9.092-6.463-17.701l40.129-40.177c4.292-4.438,10.08-10.032,15.771-15.772l-85.516-85.49
		c-8.705-8.707-8.705-22.936,0-31.616l18.28-18.231c8.656-8.658,22.838-8.658,31.472,0l85.587,85.491
		c5.645-5.739,11.407-11.455,15.772-15.771l40.081-40.083c8.706-8.706,16.614-5.788,17.749,6.367l14.831,167.534
		C454.973,569.065,445.882,578.206,433.582,577.12z"/>
</g>
</svg>
