<?xml version="1.0" encoding="utf-8"?>
<!-- Generator: Adobe Illustrator 16.0.0, SVG Export Plug-In . SVG Version: 6.00 Build 0)  -->
<!DOCTYPE svg PUBLIC "-//W3C//DTD SVG 1.1//EN" "http://www.w3.org/Graphics/SVG/1.1/DTD/svg11.dtd">
<svg version="1.1" id="Capa_1" xmlns="http://www.w3.org/2000/svg" xmlns:xlink="http://www.w3.org/1999/xlink" x="0px" y="0px"
	 width="595.279px" height="841.891px" viewBox="0 0 595.279 841.891" enable-background="new 0 0 595.279 841.891"
	 xml:space="preserve">
<g>
	<path fill="#A84E47" d="M82.188,666.253v42.3c0,5.475,4.533,10.032,10.08,10.032h492.932c5.547,0,10.08-4.558,10.08-10.032V215.597
		c0-5.644-4.533-10.081-10.08-10.081h-42.228c-5.57,0-10.104,4.438-10.104,10.081v440.575l-440.6,0.001
		C86.721,656.173,82.188,660.658,82.188,666.253z"/>
	<path fill="#A84E47" d="M10.08,636.445H503.06c5.522,0,10.081-4.533,10.081-10.129V133.434c0-5.596-4.559-10.129-10.081-10.129
		H10.08c-5.547,0-10.08,4.533-10.08,10.129v492.884C0,631.912,4.509,636.445,10.08,636.445z M161.698,264.77l167.438,14.831
		c12.251,1.085,15.169,9.092,6.463,17.701l-40.129,40.177c-4.292,4.438-10.08,10.032-15.771,15.772l85.516,85.491
		c8.705,8.706,8.705,22.935,0,31.616l-18.28,18.231c-8.657,8.658-22.838,8.658-31.472,0l-85.587-85.491
		c-5.644,5.739-11.407,11.455-15.772,15.771l-40.081,40.082c-8.706,8.705-16.615,5.787-17.749-6.367l-14.831-167.534
		C140.307,272.824,149.399,263.684,161.698,264.77z"/>
</g>
</svg>
