<?xml version="1.0" encoding="utf-8"?>
<!-- Generator: Adobe Illustrator 16.0.0, SVG Export Plug-In . SVG Version: 6.00 Build 0)  -->
<!DOCTYPE svg PUBLIC "-//W3C//DTD SVG 1.1//EN" "http://www.w3.org/Graphics/SVG/1.1/DTD/svg11.dtd">
<svg version="1.1" id="Capa_1" xmlns="http://www.w3.org/2000/svg" xmlns:xlink="http://www.w3.org/1999/xlink" x="0px" y="0px"
	 width="595.279px" height="595.28px" viewBox="0 123.305 595.279 595.28" enable-background="new 0 123.305 595.279 595.28"
	 xml:space="preserve">
<rect x="0" y="123.305" fill="#D6D7D8" width="595.279" height="595.28"/>
<g>
	<path fill="#878787" d="M208.246,358.504v48.532h-6.264v-48.532H208.246z"/>
	<path fill="#878787" d="M219.694,381.619c0-3.601-0.072-6.553-0.288-9.433h5.544l0.288,5.617h0.216
		c1.944-3.313,5.184-6.409,10.945-6.409c4.752,0,8.353,2.88,9.865,6.984h0.144c1.08-1.944,2.448-3.456,3.888-4.536
		c2.088-1.584,4.393-2.448,7.705-2.448c4.608,0,11.449,3.024,11.449,15.121v20.522h-6.192v-19.729
		c0-6.697-2.448-10.729-7.561-10.729c-3.601,0-6.409,2.664-7.489,5.76c-0.288,0.864-0.504,2.016-0.504,3.168v21.53h-6.193v-20.882
		c0-5.544-2.448-9.577-7.272-9.577c-3.96,0-6.841,3.168-7.849,6.336c-0.36,0.936-0.504,2.016-0.504,3.096v21.026h-6.193V381.619z"/>
	<path fill="#878787" d="M299.039,407.037l-0.504-4.393h-0.216c-1.945,2.736-5.689,5.185-10.657,5.185
		c-7.057,0-10.657-4.968-10.657-10.009c0-8.425,7.489-13.033,20.954-12.961v-0.72c0-2.88-0.792-8.065-7.921-8.065
		c-3.24,0-6.625,1.008-9.073,2.592l-1.44-4.176c2.88-1.872,7.057-3.096,11.449-3.096c10.658,0,13.25,7.272,13.25,14.257v13.033
		c0,3.024,0.145,5.977,0.576,8.353H299.039z M298.103,389.251c-6.913-0.144-14.761,1.08-14.761,7.849
		c0,4.104,2.736,6.049,5.977,6.049c4.536,0,7.417-2.88,8.424-5.833c0.216-0.648,0.36-1.368,0.36-2.016V389.251z"/>
	<path fill="#878787" d="M344.472,372.186c-0.145,2.521-0.288,5.329-0.288,9.577v20.234c0,7.993-1.585,12.889-4.969,15.914
		c-3.384,3.168-8.28,4.176-12.673,4.176c-4.176,0-8.785-1.008-11.594-2.88l1.585-4.824c2.304,1.44,5.904,2.736,10.225,2.736
		c6.481,0,11.233-3.384,11.233-12.169v-3.888h-0.145c-1.943,3.24-5.688,5.833-11.089,5.833c-8.641,0-14.833-7.345-14.833-16.994
		c0-11.809,7.705-18.505,15.697-18.505c6.049,0,9.361,3.168,10.873,6.048h0.145l0.287-5.256H344.472z M337.919,385.939
		c0-1.08-0.072-2.016-0.359-2.88c-1.152-3.672-4.249-6.697-8.857-6.697c-6.049,0-10.369,5.113-10.369,13.177
		c0,6.841,3.457,12.529,10.297,12.529c3.889,0,7.417-2.448,8.785-6.481c0.359-1.08,0.504-2.304,0.504-3.384V385.939z"/>
	<path fill="#878787" d="M358.22,390.763c0.145,8.569,5.617,12.097,11.953,12.097c4.537,0,7.273-0.792,9.649-1.8l1.08,4.537
		c-2.232,1.008-6.049,2.16-11.593,2.16c-10.729,0-17.138-7.057-17.138-17.57c0-10.513,6.192-18.793,16.345-18.793
		c11.377,0,14.402,10.009,14.402,16.417c0,1.296-0.145,2.304-0.217,2.952H358.22z M376.798,386.227
		c0.072-4.033-1.656-10.297-8.785-10.297c-6.408,0-9.217,5.905-9.721,10.297H376.798z"/>
	<path fill="#878787" d="M111.732,453.619c0-3.601-0.072-6.553-0.288-9.433h5.617l0.36,5.76h0.144
		c1.728-3.312,5.761-6.553,11.521-6.553c4.825,0,12.313,2.881,12.313,14.834v20.81h-6.336v-20.09c0-5.616-2.088-10.297-8.064-10.297
		c-4.177,0-7.417,2.952-8.497,6.48c-0.288,0.792-0.432,1.872-0.432,2.952v20.954h-6.336V453.619z"/>
	<path fill="#878787" d="M183.23,461.323c0,12.89-8.929,18.506-17.354,18.506c-9.433,0-16.706-6.912-16.706-17.93
		c0-11.665,7.632-18.506,17.281-18.506C176.461,443.394,183.23,450.667,183.23,461.323z M155.58,461.684
		c0,7.633,4.392,13.394,10.584,13.394c6.049,0,10.585-5.688,10.585-13.537c0-5.905-2.952-13.394-10.441-13.394
		C158.82,448.146,155.58,455.059,155.58,461.684z"/>
	<path fill="#878787" d="M198.852,434.177v10.01h9.073v4.824h-9.073v18.793c0,4.321,1.224,6.769,4.752,6.769
		c1.656,0,2.88-0.216,3.672-0.432l0.288,4.753c-1.224,0.504-3.168,0.863-5.617,0.863c-2.952,0-5.329-0.936-6.84-2.664
		c-1.8-1.872-2.448-4.968-2.448-9.072v-19.01h-5.401v-4.824h5.401v-8.354L198.852,434.177z"/>
	<path fill="#878787" d="M249.612,479.037l-0.504-4.393h-0.216c-1.944,2.736-5.688,5.185-10.657,5.185
		c-7.057,0-10.657-4.969-10.657-10.009c0-8.425,7.489-13.033,20.954-12.961v-0.721c0-2.88-0.792-8.064-7.921-8.064
		c-3.24,0-6.625,1.008-9.073,2.593l-1.44-4.177c2.88-1.872,7.057-3.097,11.449-3.097c10.657,0,13.25,7.273,13.25,14.258v13.033
		c0,3.024,0.144,5.977,0.576,8.353H249.612z M248.676,461.252c-6.913-0.145-14.761,1.08-14.761,7.849
		c0,4.104,2.736,6.048,5.977,6.048c4.536,0,7.417-2.88,8.424-5.832c0.216-0.648,0.36-1.368,0.36-2.017V461.252z"/>
	<path fill="#878787" d="M266.89,444.187l6.841,19.585c1.152,3.169,2.088,6.049,2.808,8.929h0.216c0.792-2.88,1.8-5.76,2.953-8.929
		l6.769-19.585h6.625l-13.681,34.851h-6.049l-13.249-34.851H266.89z"/>
	<path fill="#878787" d="M318.083,479.037l-0.504-4.393h-0.217c-1.943,2.736-5.688,5.185-10.656,5.185
		c-7.057,0-10.658-4.969-10.658-10.009c0-8.425,7.489-13.033,20.955-12.961v-0.721c0-2.88-0.793-8.064-7.922-8.064
		c-3.24,0-6.624,1.008-9.072,2.593l-1.439-4.177c2.88-1.872,7.057-3.097,11.448-3.097c10.657,0,13.249,7.273,13.249,14.258v13.033
		c0,3.024,0.145,5.977,0.576,8.353H318.083z M317.147,461.252c-6.913-0.145-14.761,1.08-14.761,7.849
		c0,4.104,2.735,6.048,5.977,6.048c4.535,0,7.416-2.88,8.424-5.832c0.217-0.648,0.36-1.368,0.36-2.017V461.252z"/>
	<path fill="#878787" d="M340.545,434.394c0.072,2.16-1.513,3.888-4.032,3.888c-2.232,0-3.816-1.728-3.816-3.888
		c0-2.232,1.656-3.961,3.961-3.961C339.032,430.433,340.545,432.161,340.545,434.394z M333.489,479.037v-34.851h6.337v34.851
		H333.489z"/>
	<path fill="#878787" d="M350.336,427.913h6.337v51.124h-6.337V427.913z"/>
	<path fill="#878787" d="M386.625,479.037l-0.504-4.393h-0.216c-1.945,2.736-5.689,5.185-10.657,5.185
		c-7.057,0-10.657-4.969-10.657-10.009c0-8.425,7.488-13.033,20.954-12.961v-0.721c0-2.88-0.792-8.064-7.921-8.064
		c-3.24,0-6.625,1.008-9.072,2.593l-1.44-4.177c2.88-1.872,7.057-3.097,11.448-3.097c10.658,0,13.25,7.273,13.25,14.258v13.033
		c0,3.024,0.145,5.977,0.576,8.353H386.625z M385.689,461.252c-6.912-0.145-14.761,1.08-14.761,7.849
		c0,4.104,2.735,6.048,5.977,6.048c4.536,0,7.417-2.88,8.425-5.832c0.216-0.648,0.359-1.368,0.359-2.017V461.252z"/>
	<path fill="#878787" d="M401.743,479.037c0.144-2.376,0.287-5.904,0.287-9.001v-42.123h6.266v21.89h0.144
		c2.231-3.889,6.265-6.409,11.881-6.409c8.642,0,14.761,7.201,14.689,17.786c0,12.457-7.849,18.649-15.626,18.649
		c-5.04,0-9.072-1.944-11.664-6.553h-0.217l-0.287,5.761H401.743z M408.296,465.068c0,0.792,0.144,1.584,0.287,2.304
		c1.225,4.393,4.896,7.417,9.506,7.417c6.624,0,10.584-5.4,10.584-13.394c0-6.984-3.6-12.961-10.369-12.961
		c-4.32,0-8.352,2.952-9.648,7.776c-0.145,0.721-0.359,1.584-0.359,2.593V465.068z"/>
	<path fill="#878787" d="M442.998,427.913h6.337v51.124h-6.337V427.913z"/>
	<path fill="#878787" d="M463.518,462.764c0.144,8.568,5.616,12.097,11.953,12.097c4.536,0,7.272-0.792,9.649-1.8l1.08,4.536
		c-2.232,1.009-6.049,2.16-11.594,2.16c-10.729,0-17.137-7.057-17.137-17.569s6.191-18.794,16.345-18.794
		c11.377,0,14.401,10.01,14.401,16.418c0,1.296-0.145,2.304-0.216,2.952H463.518z M482.095,458.228
		c0.072-4.032-1.656-10.297-8.784-10.297c-6.409,0-9.217,5.904-9.721,10.297H482.095z"/>
</g>
</svg>
