<?xml version="1.0" encoding="utf-8"?>
<!-- Generator: Adobe Illustrator 16.0.0, SVG Export Plug-In . SVG Version: 6.00 Build 0)  -->
<!DOCTYPE svg PUBLIC "-//W3C//DTD SVG 1.1//EN" "http://www.w3.org/Graphics/SVG/1.1/DTD/svg11.dtd">
<svg version="1.1" id="Capa_1" xmlns="http://www.w3.org/2000/svg" xmlns:xlink="http://www.w3.org/1999/xlink" x="0px" y="0px"
	 width="595.279px" height="595.281px" viewBox="0 0 595.279 595.281" enable-background="new 0 0 595.279 595.281"
	 xml:space="preserve">
<rect x="0" fill="#D6D7D8" width="595.279" height="595.28"/>
<g>
	<path fill="#F2F2F2" d="M245.928,171.763C245.928,110.837,302.025,39,302.025,39s56.099,71.837,56.099,132.763
		c0,60.926-56.099,87.883-56.099,87.883S245.928,232.699,245.928,171.763z M175.448,331.119
		c48.82,36.457,103.993,7.637,103.993,7.637s11.974-61.065-36.845-97.533c-48.809-36.468-139.934-34.514-139.934-34.514
		S126.639,294.641,175.448,331.119z M334.524,342.883c18.042,6.395,57.821,15.306,94.06-11.764
		c48.808-36.479,72.776-124.4,72.776-124.4s-91.113-1.944-139.924,34.514c-32.111,23.982-37.948,58.609-38.128,79.514h-0.01v83.865
		h-0.498h-201.85c0,68.28,81.627,123.195,181.074,123.195c99.459,0,181.056-54.915,181.056-123.195H334.524V342.883z"/>
</g>
</svg>
