<?xml version="1.0" encoding="utf-8"?>
<!-- Generator: Adobe Illustrator 16.0.0, SVG Export Plug-In . SVG Version: 6.00 Build 0)  -->
<!DOCTYPE svg PUBLIC "-//W3C//DTD SVG 1.1//EN" "http://www.w3.org/Graphics/SVG/1.1/DTD/svg11.dtd">
<svg version="1.1" id="Capa_1" xmlns="http://www.w3.org/2000/svg" xmlns:xlink="http://www.w3.org/1999/xlink" x="0px" y="0px"
	 width="595.279px" height="595.281px" viewBox="0 0 595.279 595.281" enable-background="new 0 0 595.279 595.281"
	 xml:space="preserve">
<rect x="0" fill="#D6D7D8" width="595.279" height="595.28"/>
<g>
	<path fill="#F2F2F2" d="M522.62,272.266c-6.009-8.334-15.653-13.025-25.931-13.025H113.143c-10.276,0-19.921,4.691-25.93,13.025
		c-6.009,8.334-7.638,18.923-4.393,28.669l47.943,144.017c4.353,13.054,16.566,22.043,30.322,22.043h18.928
		c6.618,17.979,24.19,31.962,44.997,31.962c20.806,0,38.38-13.983,44.999-31.962h69.813c6.62,17.979,24.192,31.962,44.999,31.962
		s38.381-13.983,44.999-31.962h18.925c13.757,0,25.971-9.051,30.322-22.105l47.944-143.829
		C530.26,291.314,528.629,280.6,522.62,272.266z"/>
	<path fill="#F2F2F2" d="M145.106,227.279h303.64c5.76,0,11.073-3.347,13.906-8.356c2.84-5.01,2.762-11.283-0.203-16.223
		l-47.944-79.967c-2.527-4.213-6.866-7.069-11.751-7.67c-4.885-0.562-9.77,1.069-13.249,4.55l-21.851,21.841l-68.737-54.995
		c-6.353-5.102-15.538-4.582-21.281,1.177l-55.777,55.777l-21.662-10.831c-6.89-3.441-15.301-1.467-19.93,4.706l-47.942,63.924
		c-3.637,4.847-4.221,11.572-1.515,16.987C133.518,223.612,139.051,227.279,145.106,227.279L145.106,227.279z"/>
</g>
</svg>
