<?xml version="1.0" encoding="utf-8"?>
<!-- Generator: Adobe Illustrator 16.0.0, SVG Export Plug-In . SVG Version: 6.00 Build 0)  -->
<!DOCTYPE svg PUBLIC "-//W3C//DTD SVG 1.1//EN" "http://www.w3.org/Graphics/SVG/1.1/DTD/svg11.dtd">
<svg version="1.1" id="Capa_1" xmlns="http://www.w3.org/2000/svg" xmlns:xlink="http://www.w3.org/1999/xlink" x="0px" y="0px"
	 width="595.279px" height="595.281px" viewBox="0 0 595.279 595.281" enable-background="new 0 0 595.279 595.281"
	 xml:space="preserve">
<rect x="0" y="0" fill="#D6D7D8" width="595.279" height="595.28"/>
<g>
	<circle fill="#F2F2F2" cx="408.799" cy="379.957" r="8.231"/>
	<circle fill="#F2F2F2" cx="425.26" cy="519.896" r="8.232"/>
	<circle fill="#F2F2F2" cx="219.469" cy="454.042" r="8.232"/>
	<circle fill="#F2F2F2" cx="351.176" cy="404.652" r="8.231"/>
	<circle fill="#F2F2F2" cx="474.652" cy="445.811" r="8.231"/>
	<circle fill="#F2F2F2" cx="170.078" cy="519.896" r="8.232"/>
	<path fill="#F2F2F2" d="M187.127,156.869c-15.549-15.541-36.219-24.111-58.206-24.111c-21.987,0-42.656,8.569-58.205,24.111
		c-15.549,15.549-24.111,36.219-24.111,58.214c0,21.987,8.56,42.656,24.111,58.206l128.05,128.054L315.179,284.93L187.127,156.869z"
		/>
	<path fill="#F2F2F2" d="M516.394,83.031c-15.55-15.549-36.22-24.111-58.206-24.111c-21.987,0-42.655,8.561-58.205,24.111
		L271.93,211.083l116.413,116.413l128.053-128.06c15.55-15.542,24.111-36.212,24.111-58.199
		C540.507,119.25,531.944,98.581,516.394,83.031z"/>
	<path fill="#F2F2F2" d="M375.871,347.031c0-18.159-14.768-32.93-32.927-32.93c-18.16,0-32.928,14.771-32.928,32.93
		c0,18.157,14.768,32.925,32.928,32.925C361.103,379.956,375.871,365.188,375.871,347.031z"/>
	<path fill="#F2F2F2" d="M285.323,379.956c-18.16,0-32.927,14.77-32.927,32.928c0,18.159,14.768,32.927,32.927,32.927
		c18.158,0,32.928-14.768,32.928-32.927C318.249,394.725,303.481,379.956,285.323,379.956z"/>
	<path fill="#F2F2F2" d="M367.639,429.347c-18.16,0-32.928,14.768-32.928,32.927s14.768,32.927,32.928,32.927
		c18.159,0,32.929-14.768,32.929-32.927S385.798,429.347,367.639,429.347z"/>
	<path fill="#F2F2F2" d="M285.323,470.504c-18.16,0-32.927,14.768-32.927,32.927c0,18.16,14.768,32.931,32.927,32.931
		c18.158,0,32.928-14.771,32.928-32.931C318.251,485.272,303.481,470.504,285.323,470.504z"/>
</g>
</svg>
