<?xml version="1.0" encoding="utf-8"?>
<!-- Generator: Adobe Illustrator 16.0.0, SVG Export Plug-In . SVG Version: 6.00 Build 0)  -->
<!DOCTYPE svg PUBLIC "-//W3C//DTD SVG 1.1//EN" "http://www.w3.org/Graphics/SVG/1.1/DTD/svg11.dtd">
<svg version="1.1" id="Capa_1" xmlns="http://www.w3.org/2000/svg" xmlns:xlink="http://www.w3.org/1999/xlink" x="0px" y="0px"
	 width="595.279px" height="595.281px" viewBox="0 0 595.279 595.281" enable-background="new 0 0 595.279 595.281"
	 xml:space="preserve">
<rect x="0" fill="#D6D7D8" width="595.279" height="595.28"/>
<g>
	<g>
		<path fill="#F2F2F2" d="M301.201,90.019l-55.026-0.067c-14.53,0-26.309,11.75-26.319,26.346l-0.189,338.118
			c0,14.521,11.76,26.377,26.318,26.377l54.988,0.026c14.567,0,26.365-11.797,26.365-26.31l0.179-338.146
			C327.568,101.827,315.76,90.019,301.201,90.019z M295.947,441.804l-44.641,0.049c-5.085,0-9.248-4.152-9.248-9.236
			c0.01-5.085,4.146-9.248,9.256-9.248l44.651,0.058c5.074,0,9.229,4.154,9.229,9.229
			C305.195,437.744,301.059,441.804,295.947,441.804z M295.996,177.167l-44.642-0.028c-5.084,0-9.247-4.153-9.247-9.246
			c0-5.094,4.163-9.237,9.247-9.237l44.642-0.049c5.085,0,9.229,4.239,9.229,9.323C305.204,173.003,301.078,177.167,295.996,177.167
			z"/>
		<path fill="#F2F2F2" d="M167.676,90.008l-54.96-0.065c-14.558,0-26.365,11.75-26.395,26.347l-0.143,338.137
			c-0.039,14.521,11.75,26.377,26.279,26.377l54.969,0.026c14.578,0,26.395-11.799,26.414-26.309l0.142-338.146
			C194.021,101.816,182.243,90.008,167.676,90.008z M162.476,441.804l-44.66,0.049c-5.063,0-9.235-4.152-9.235-9.236
			c0.027-5.085,4.152-9.248,9.247-9.248l44.649,0.058c5.083,0,9.209,4.154,9.209,9.229
			C171.695,437.744,167.552,441.804,162.476,441.804z M162.476,177.167l-44.621-0.028c-5.073,0-9.22-4.153-9.22-9.246
			c0-5.094,4.146-9.237,9.22-9.237l44.621-0.049c5.093,0,9.219,4.239,9.219,9.323C171.695,173.003,167.552,177.167,162.476,177.167z
			"/>
		<path fill="#F2F2F2" d="M376.021,127.101c-1.82-8.384-10.09-13.705-18.483-11.865c-8.385,1.821-13.694,10.101-11.873,18.485
			l72.322,331.602c1.823,8.386,10.102,13.696,18.484,11.885c8.386-1.832,13.705-10.109,11.875-18.495L376.021,127.101z"/>
		<path fill="#F2F2F2" d="M547.599,437.06L475.273,105.45c-1.82-8.385-10.102-13.696-18.484-11.864
			c-8.386,1.83-13.705,10.101-11.873,18.484l72.324,331.611c1.821,8.386,10.104,13.687,18.484,11.864
			C544.1,453.716,549.428,445.445,547.599,437.06z"/>
		<path fill="#F2F2F2" d="M402.264,112.819c-0.844-3.87-4.655-6.327-8.526-5.481c-3.869,0.844-6.325,4.666-5.479,8.536
			l75.882,347.953c0.854,3.868,4.666,6.316,8.525,5.481c3.882-0.854,6.325-4.676,5.481-8.536L402.264,112.819z"/>
		<path fill="#F2F2F2" d="M427.16,107.383c-0.844-3.869-4.655-6.326-8.526-5.481c-3.858,0.844-6.316,4.667-5.479,8.526
			l75.893,347.962c0.845,3.859,4.654,6.316,8.526,5.464c3.868-0.846,6.325-4.656,5.472-8.526L427.16,107.383z"/>
	</g>
</g>
</svg>
