<?xml version="1.0" encoding="utf-8"?>
<!-- Generator: Adobe Illustrator 16.0.0, SVG Export Plug-In . SVG Version: 6.00 Build 0)  -->
<!DOCTYPE svg PUBLIC "-//W3C//DTD SVG 1.1//EN" "http://www.w3.org/Graphics/SVG/1.1/DTD/svg11.dtd">
<svg version="1.1" id="Capa_1" xmlns="http://www.w3.org/2000/svg" xmlns:xlink="http://www.w3.org/1999/xlink" x="0px" y="0px"
	 width="595.279px" height="595.281px" viewBox="0 0 595.279 595.281" enable-background="new 0 0 595.279 595.281"
	 xml:space="preserve">
<rect x="0" fill="#D6D7D8" width="595.279" height="595.28"/>
<g>
	<g>
		<path fill="#F2F2F2" d="M230.383,277.429c38.421,0,69.67-41.938,69.67-93.499c0-51.557-31.251-93.507-69.67-93.507
			c-38.41,0-69.664,41.948-69.664,93.507C160.719,235.491,191.973,277.429,230.383,277.429z"/>
		<path fill="#F2F2F2" d="M437.031,368.381c-1.43-1.945-2.798-3.781-3.532-5.359c-15.577-33.346-58.28-72.659-127.463-73.637
			l-2.662-0.015c-68.12,0-110.505,37.232-127.463,72.09c-0.585,1.191-1.873,2.737-3.239,4.375c-1.615,1.917-3.212,3.878-4.579,6.011
			c-14.326,22.284-21.63,47.377-20.552,70.646c1.129,24.705,11.472,44.548,29.074,55.866c7.111,4.568,14.786,6.871,22.837,6.871
			c16.601,0,31.801-9.351,49.414-20.182c11.199-6.901,22.767-14.023,35.616-19.354c1.44-0.475,7.341-1.199,16.99-1.199
			c11.476,0,19.716,1.021,21.476,1.628c12.545,5.538,23.56,12.802,34.213,19.812c16.333,10.766,31.755,20.924,48.486,20.924
			c7.182,0,14.142-1.895,20.707-5.627c36.228-20.58,43.128-77.048,15.394-125.868C440.355,372.912,438.697,370.626,437.031,368.381z
			"/>
		<path fill="#F2F2F2" d="M378.527,277.429c38.403,0,69.662-41.938,69.662-93.499c0-51.557-31.259-93.507-69.662-93.507
			c-38.425,0-69.674,41.948-69.674,93.507C308.853,235.491,340.102,277.429,378.527,277.429z"/>
		<path fill="#F2F2F2" d="M492.944,229.417c-30.793,0-54.893,31.934-54.893,72.702c0,40.75,24.115,72.688,54.893,72.688
			c30.775,0,54.904-31.938,54.904-72.688C547.848,261.353,523.734,229.417,492.944,229.417z"/>
		<path fill="#F2F2F2" d="M176.636,302.119c0-40.767-24.114-72.702-54.893-72.702c-30.78,0-54.898,31.936-54.898,72.702
			c0,40.75,24.119,72.688,54.898,72.688C152.524,374.808,176.636,342.869,176.636,302.119z"/>
	</g>
</g>
</svg>
