<?xml version="1.0" encoding="utf-8"?>
<!-- Generator: Adobe Illustrator 16.0.0, SVG Export Plug-In . SVG Version: 6.00 Build 0)  -->
<!DOCTYPE svg PUBLIC "-//W3C//DTD SVG 1.1//EN" "http://www.w3.org/Graphics/SVG/1.1/DTD/svg11.dtd">
<svg version="1.1" id="Capa_1" xmlns="http://www.w3.org/2000/svg" xmlns:xlink="http://www.w3.org/1999/xlink" x="0px" y="0px"
	 width="595.279px" height="595.281px" viewBox="0 0 595.279 595.281" enable-background="new 0 0 595.279 595.281"
	 xml:space="preserve">
<rect x="0" fill="#D6D7D8" width="595.279" height="595.28"/>
<g>
	<g>
		<g>
			<path fill="#F2F2F2" d="M168.485,246.605c-21.325-21.345-21.123-56.131,0.597-77.227c21.127-20.472,55.561-19.864,76.775,1.364
				l47.412,47.403c11.209,11.193,29.308,11.193,40.52,0l17.126-17.098c11.175-11.212,11.175-29.328,0-40.521l-48.189-48.156
				c-53.337-53.333-140.062-52.833-192.789,0.939c-51.871,52.872-50.96,139.01,2.01,191.962l47.096,47.103
				c11.196,11.212,29.306,11.2,40.516,0l17.098-17.104c11.205-11.199,11.188-29.332,0-40.507L168.485,246.605z"/>
			<path fill="#F2F2F2" d="M483.933,293.576l-48.155-48.162c-11.188-11.193-29.298-11.193-40.507,0l-17.106,17.108
				c-11.176,11.178-11.176,29.344,0,40.521l48.157,48.168c21.347,21.312,21.13,56.109-0.6,77.193
				c-21.11,20.478-55.544,19.877-76.766-1.346l-47.409-47.408c-11.198-11.199-29.315-11.199-40.508,0l-17.126,17.116
				c-11.148,11.175-11.148,29.341,0.027,40.507l47.07,47.083c53.003,52.974,139.101,53.891,191.984,2.014
				C536.853,433.562,537.26,346.9,483.933,293.576z"/>
			<path fill="#F2F2F2" d="M229.558,213.947l-17.098,17.105c-11.183,11.164-11.183,29.333,0,40.508l112.277,112.284
				c11.2,11.201,29.312,11.201,40.511,0l17.115-17.114c11.188-11.188,11.188-29.312,0-40.499L270.072,213.947
				C258.896,202.772,240.734,202.772,229.558,213.947z"/>
		</g>
	</g>
</g>
</svg>
