<?xml version="1.0" encoding="utf-8"?>
<!-- Generator: Adobe Illustrator 16.0.0, SVG Export Plug-In . SVG Version: 6.00 Build 0)  -->
<!DOCTYPE svg PUBLIC "-//W3C//DTD SVG 1.1//EN" "http://www.w3.org/Graphics/SVG/1.1/DTD/svg11.dtd">
<svg version="1.1" id="Layer_1" xmlns="http://www.w3.org/2000/svg" xmlns:xlink="http://www.w3.org/1999/xlink" x="0px" y="0px"
	 width="37.365px" height="37.365px" viewBox="-2.99 -4.234 37.365 37.365" enable-background="new -2.99 -4.234 37.365 37.365"
	 xml:space="preserve">
<g id="Layer_2">
	<rect x="-2.99" y="-4.234" fill="#B9C3C6" width="37.365" height="37.365"/>
</g>
<path fill="#FAFBFC" d="M21.094,12.068V10.97c0-2.719-2.158-4.945-4.795-4.945s-4.795,2.226-4.795,4.945v1.099
	c0,2.72,2.158,4.945,4.795,4.945S21.094,14.788,21.094,12.068z M16.299-0.2C8.648-0.2,2.446,6.193,2.446,14.083
	c0,4.14,1.705,7.868,4.433,10.473c2.46,2.355,5.542,3.622,8.649,3.791l-2.078-2.062l2.128-4.942l-2.273-1.871l-6.224,2.069
	c-1.57-2.055-2.504-4.645-2.504-7.458c0-6.666,5.257-12.086,11.722-12.086s11.723,5.42,11.723,12.086
	c0,2.809-0.935,5.399-2.501,7.454l-6.228-2.065l-2.276,1.871l2.127,4.939l-2.078,2.063c3.194-0.172,6.25-1.488,8.652-3.789
	c2.731-2.604,4.434-6.333,4.434-10.473C30.151,6.193,23.95-0.2,16.299-0.2z"/>
</svg>
