<?xml version="1.0" encoding="utf-8"?>
<!-- Generator: Adobe Illustrator 16.0.0, SVG Export Plug-In . SVG Version: 6.00 Build 0)  -->
<!DOCTYPE svg PUBLIC "-//W3C//DTD SVG 1.1//EN" "http://www.w3.org/Graphics/SVG/1.1/DTD/svg11.dtd">
<svg version="1.1" id="Layer_1" xmlns="http://www.w3.org/2000/svg" xmlns:xlink="http://www.w3.org/1999/xlink" x="0px" y="0px"
	 width="595.279px" height="468.085px" viewBox="0 0 595.279 468.085" enable-background="new 0 0 595.279 468.085"
	 xml:space="preserve">
<g id="Capa_1" display="none">
	<path display="inline" fill="#777777" d="M173.415,217.658V624.23c0,47.594-36.981,86.313-82.443,86.313H82.45
		C36.987,710.544,0,671.826,0,624.228v-406.57c0-47.59,36.986-86.313,82.448-86.313h8.521
		C136.432,131.345,173.415,170.068,173.415,217.658z M595.28,243.766v349.271c0,37.391-30.42,67.811-67.813,67.811H217.559
		c-8.075,0-14.618-6.543-14.618-14.617V195.661c0-8.075,6.543-14.618,14.618-14.618h314.996
		C567.141,181.043,595.28,209.18,595.28,243.766z M323.319,563.878c0-10.324-8.367-18.691-18.689-18.691
		c-10.321,0-18.688,8.367-18.688,18.691c0,10.322,8.367,18.689,18.688,18.689C314.951,582.568,323.319,574.201,323.319,563.878z
		 M323.319,479.847c0-10.322-8.367-18.689-18.689-18.689c-10.321,0-18.688,8.367-18.688,18.689c0,10.324,8.367,18.691,18.688,18.691
		C314.951,498.539,323.319,490.171,323.319,479.847z M323.319,395.818c0-10.322-8.367-18.689-18.689-18.689
		c-10.321,0-18.688,8.367-18.688,18.689s8.367,18.689,18.688,18.689C314.951,414.509,323.319,406.142,323.319,395.818z
		 M417.979,563.878c0-10.324-8.366-18.691-18.689-18.691c-10.321,0-18.688,8.367-18.688,18.691c0,10.322,8.367,18.689,18.688,18.689
		C409.612,582.568,417.979,574.201,417.979,563.878z M417.979,479.847c0-10.322-8.366-18.689-18.689-18.689
		c-10.321,0-18.688,8.367-18.688,18.689c0,10.324,8.367,18.691,18.688,18.691C409.612,498.539,417.979,490.171,417.979,479.847z
		 M417.979,395.818c0-10.322-8.366-18.689-18.689-18.689c-10.321,0-18.688,8.367-18.688,18.689s8.367,18.689,18.688,18.689
		C409.612,414.507,417.979,406.142,417.979,395.818z M512.639,563.878c0-10.324-8.367-18.691-18.689-18.691
		c-10.323,0-18.688,8.367-18.688,18.691c0,10.322,8.365,18.689,18.688,18.689C504.271,582.568,512.639,574.201,512.639,563.878z
		 M512.639,479.847c0-10.322-8.367-18.689-18.689-18.689c-10.323,0-18.688,8.367-18.688,18.689c0,10.324,8.365,18.691,18.688,18.691
		C504.271,498.539,512.639,490.171,512.639,479.847z M512.639,395.818c0-10.322-8.367-18.689-18.689-18.689
		c-10.323,0-18.688,8.367-18.688,18.689s8.365,18.689,18.688,18.689C504.271,414.507,512.639,406.142,512.639,395.818z
		 M546.76,262.237c0-16.991-13.825-30.815-30.813-30.815H266.078c-8.075,0-14.618,6.542-14.618,14.619v55.832
		c0,8.074,6.543,14.617,14.618,14.617h266.063c8.075,0,14.618-6.543,14.618-14.617L546.76,262.237L546.76,262.237z"/>
</g>
<g id="Layer_2">
	<g>
		<path fill="#999999" d="M229.698,78.35c-24.215,1.53-45.556,4.383-64.136,8.618c-18.506,4.254-31.565,10.371-39.174,18.506
			c1.191,5.092,1.825,13.543,1.825,25.372v11.659H0c4.663-37.217,14.363-65.61,29.083-85.178
			C43.054,39.064,62.25,27.069,86.54,21.305c24.326-5.746,40.91-9.459,49.751-11.155c20.13-3.695,41.582-6.344,64.285-7.854
			c22.703-1.53,55.201-2.294,97.437-2.294c62.083,0,105.771,1.268,130.771,3.805c25.071,2.556,51.076,8.04,78.089,16.491
			c27.014,8.451,47.012,21.304,60.104,38.542c14.253,18.953,23.653,46.861,28.28,83.668H468.999v-6.063
			c0-14.215,0.411-24.515,1.418-30.967c-7.834-8.431-21.304-14.755-40.555-18.991c-19.142-4.232-39.438-7.014-61.075-8.375
			c-21.677-1.324-45.146-2.033-70.74-2.033C276.633,76.037,253.855,76.821,229.698,78.35z M128.195,152.11v21.827
			c0,10.484-5.167,15.727-15.5,15.727h-99.86c-2.703,0-5.465-1.699-8.447-5.074C1.456,181.175,0,177.63,0,173.937V152.11H128.195
			L128.195,152.11z M49.751,437.156V334.742c0-11.156,1.456-20.596,4.367-28.17c2.984-7.611,7.872-15.82,14.738-24.625
			L179.758,131.33V99.393h47.867l2.239,31.956H363.19V99.393h54.136v34.474l114.541,148.082
			c8.619,10.521,13.915,18.768,16.006,24.885c2.126,6.045,3.174,15.41,3.174,27.908v102.414c0,20.633-8.356,30.93-25.072,30.93
			H72.53C57.344,468.085,49.751,457.789,49.751,437.156z M383.674,267.769c23.915-11.488,35.894-25.332,35.894-41.6
			c0-15.912-12.015-29.492-36.079-40.815c-24.103-11.341-52.566-16.978-85.476-16.978c-33.394,0-62.121,5.746-86.224,17.219
			c-24.063,11.511-36.115,25.055-36.115,40.574c0,16.268,11.978,30.109,35.931,41.6c23.916,11.531,52.755,17.238,86.371,17.238
			C331.179,285.007,359.722,279.261,383.674,267.769z M595.257,173.937c0,4.066-1.193,7.686-3.509,10.895
			c-2.351,3.209-4.849,4.832-7.534,4.832H482.173c-3.175,0-6.194-1.438-9.028-4.311c-2.801-2.873-4.291-6.68-4.291-11.417v-21.845
			h126.29v21.845L595.257,173.937L595.257,173.937z"/>
	</g>
</g>
</svg>
