<?xml version="1.0" encoding="utf-8"?>
<!-- Generator: Adobe Illustrator 16.0.0, SVG Export Plug-In . SVG Version: 6.00 Build 0)  -->
<!DOCTYPE svg PUBLIC "-//W3C//DTD SVG 1.1//EN" "http://www.w3.org/Graphics/SVG/1.1/DTD/svg11.dtd">
<svg version="1.1" id="Layer_1" xmlns="http://www.w3.org/2000/svg" xmlns:xlink="http://www.w3.org/1999/xlink" x="0px" y="0px"
	 width="26.316px" height="26.422px" viewBox="0 0 26.316 26.422" enable-background="new 0 0 26.316 26.422" xml:space="preserve">
<g id="Layer_2" display="none">
	<rect x="-175.467" y="-114.327" display="inline" fill="#043749" width="557" height="347"/>
</g>
<g id="Layer_3">
	<path fill="#FFFFFF" d="M22.609,22.163c-4.944,4.942-12.958,4.942-17.901,0c-4.943-4.943-4.943-12.958,0-17.902
		c4.943-4.943,12.958-4.943,17.901,0C27.552,9.204,27.552,17.219,22.609,22.163z M15.791,7.389c0-1.165-0.944-2.109-2.108-2.109
		c-1.165,0-2.108,0.944-2.108,2.109v3.736H7.834c-1.164,0.001-2.108,0.945-2.109,2.109c0.001,1.164,0.945,2.108,2.109,2.108h3.739
		l-0.001,3.738c0.001,1.164,0.945,2.108,2.109,2.108s2.108-0.944,2.109-2.108v-3.74l3.737,0.002c1.164,0,2.108-0.944,2.108-2.108
		c0-1.165-0.944-2.108-2.108-2.108H15.79L15.791,7.389L15.791,7.389z"/>
</g>
<g id="Layer_4">
</g>
<g id="Layer_1_1_" display="none">
</g>
</svg>
