<?xml version="1.0" encoding="utf-8"?>
<!-- Generator: Adobe Illustrator 16.0.0, SVG Export Plug-In . SVG Version: 6.00 Build 0)  -->
<!DOCTYPE svg PUBLIC "-//W3C//DTD SVG 1.1//EN" "http://www.w3.org/Graphics/SVG/1.1/DTD/svg11.dtd">
<svg version="1.1" id="Layer_1" xmlns="http://www.w3.org/2000/svg" xmlns:xlink="http://www.w3.org/1999/xlink" x="0px" y="0px"
	 width="147.018px" height="147.019px" viewBox="-10.129 -9.399 147.018 147.019"
	 enable-background="new -10.129 -9.399 147.018 147.019" xml:space="preserve">
<path fill="#999999" d="M80.253,47.232L80.259,0.73C80.257-4.864,75.728-9.394,70.13-9.399L56.623-9.396
	c-5.596,0.001-10.131,4.537-10.13,10.13l0.009,46.498l-46.506,0c-5.59-0.005-10.125,4.531-10.125,10.125l0,13.503
	C-10.133,76.448-5.593,80.987,0,80.989l46.502-0.006v46.509c0.001,5.593,4.536,10.128,10.128,10.128l13.497-0.005
	c5.596-0.001,10.131-4.536,10.126-10.126l-0.001-46.507l46.498,0.01c5.593,0.002,10.129-4.534,10.13-10.13l0.009-13.5
	c-0.01-5.603-4.535-10.127-10.139-10.139L80.253,47.232z"/>
</svg>
