<?xml version="1.0" encoding="utf-8"?>
<!-- Generator: Adobe Illustrator 16.0.0, SVG Export Plug-In . SVG Version: 6.00 Build 0)  -->
<!DOCTYPE svg PUBLIC "-//W3C//DTD SVG 1.1//EN" "http://www.w3.org/Graphics/SVG/1.1/DTD/svg11.dtd">
<svg version="1.1" id="Layer_1" xmlns="http://www.w3.org/2000/svg" xmlns:xlink="http://www.w3.org/1999/xlink" x="0px" y="0px"
	 width="60.996px" height="61.003px" viewBox="0 0 60.996 61.003" enable-background="new 0 0 60.996 61.003" xml:space="preserve">
<path fill="#CCCCCC" d="M-0.002,59.003h61v2h-61V59.003z"/>
<path fill="#CCCCCC" d="M26.292,8.362L26.292,8.362L26.292,8.362L26.292,8.362 M60.996,0H0v61.003c0-4.072,1.492-4.127,3.147-4.969
	c5.318-2.58,15.385-7.166,15.954-7.466c0.597-0.299,0.597-2.741,1.303-2.878c0.705-0.136,1.926-0.434,1.926-0.434l0.298-3.529
	c0,0-1.302-2.661-1.872-4.453c-0.569-1.792-0.868-2.66-0.868-2.66s-0.002,0-0.007,0c-0.09,0-1.11-0.074-1.784-3.367
	c-0.705-3.448-0.787-4.587-0.353-4.805c0.116-0.058,0.226-0.079,0.325-0.079c0.272,0,0.462,0.161,0.462,0.161
	s-1.411-7.249-0.706-9.339c0.732-2.063,1.139-2.824,1.655-3.692c0.733-1.222,1.221-1.955,2.768-3.095
	c1.493-1.113,2.09-1.331,2.09-1.331c0.027,0-0.353-0.19-0.977-0.625c-0.57-0.38-0.977-1.194-0.977-1.194s1.085,0.435,2.307,0.787
	c1.058,0.306,1.484,0.327,1.579,0.327c0.011,0,0.018,0,0.021,0C26.28,8.36,26.183,8.321,25.37,7.656
	c-0.542-0.461-0.678-1.14-0.678-1.14s1.52,0.841,2.822,1.14c1.302,0.298,5.318,0.082,7.326,0.516s4.098,1.737,5.102,2.524
	c1.004,0.788,1.574,2.878,1.574,2.878s2.984,1.357,2.197,6.597c-0.787,5.24-0.787,6.461-0.787,6.461s0.127-0.045,0.29-0.045
	c0.372,0,0.935,0.236,0.634,1.783c-0.436,2.227-0.787,4.398-1.356,5.403c-0.57,1.004-1.222,1.004-1.222,1.004
	s-0.569,2.797-1.438,4.534c-0.841,1.71-1.141,2.362-1.141,2.362l0.082,0.217v3.367c0,0,1.193,0.298,1.927,0.434
	c0.733,0.137,0.733,2.579,1.303,2.878c0.569,0.271,10.582,4.724,15.954,7.194c0.923,0.436,3.039,0.732,3.039,5.186V0"/>
</svg>
