<?xml version="1.0" encoding="utf-8"?>
<!-- Generator: Adobe Illustrator 16.0.0, SVG Export Plug-In . SVG Version: 6.00 Build 0)  -->
<!DOCTYPE svg PUBLIC "-//W3C//DTD SVG 1.1//EN" "http://www.w3.org/Graphics/SVG/1.1/DTD/svg11.dtd">
<svg version="1.1" id="Capa_1" xmlns="http://www.w3.org/2000/svg" xmlns:xlink="http://www.w3.org/1999/xlink" x="0px" y="0px"
	 width="511.627px" height="438.533px" viewBox="0 36.547 511.627 438.533" enable-background="new 0 36.547 511.627 438.533"
	 xml:space="preserve">
<g>
	<g>
		<path fill="#04A6E4" d="M392.857,292.354h-18.274c-2.669,0-4.858,0.854-6.563,2.572c-1.718,1.708-2.573,3.897-2.573,6.563v91.36
			c0,12.563-4.47,23.315-13.415,32.263c-8.944,8.944-19.701,13.414-32.264,13.414H82.224c-12.563,0-23.317-4.47-32.265-13.414
			c-8.944-8.946-13.417-19.698-13.417-32.263V155.31c0-12.562,4.472-23.313,13.417-32.259c8.947-8.947,19.702-13.418,32.265-13.418
			h200.994c2.669,0,4.858-0.859,6.569-2.57c1.711-1.713,2.566-3.9,2.566-6.567V82.221c0-2.662-0.855-4.853-2.566-6.563
			c-1.711-1.713-3.9-2.568-6.569-2.568H82.224c-22.648,0-42.017,8.042-58.103,24.125C8.042,113.297,0,132.665,0,155.313v237.542
			c0,22.647,8.042,42.019,24.123,58.096c16.086,16.084,35.454,24.13,58.103,24.13h237.543c22.646,0,42.017-8.046,58.101-24.13
			c16.085-16.077,24.127-35.447,24.127-58.096v-91.357c0-2.669-0.855-4.859-2.573-6.57
			C397.71,293.209,395.519,292.354,392.857,292.354z"/>
		<path fill="#04A6E4" d="M506.199,41.971c-3.617-3.617-7.904-5.424-12.85-5.424H347.172c-4.948,0-9.233,1.807-12.848,5.424
			c-3.617,3.615-5.428,7.898-5.428,12.847c0,4.949,1.811,9.233,5.428,12.85l50.247,50.248L198.424,304.067
			c-1.905,1.902-2.855,4.093-2.855,6.563c0,2.479,0.953,4.668,2.855,6.571l32.549,32.544c1.902,1.902,4.093,2.852,6.566,2.852
			c2.475,0,4.665-0.947,6.567-2.852l186.148-186.148l50.251,50.248c3.613,3.617,7.897,5.426,12.847,5.426s9.233-1.809,12.851-5.426
			c3.617-3.616,5.425-7.897,5.425-12.847V54.818C511.627,49.866,509.813,45.586,506.199,41.971z"/>
	</g>
</g>
</svg>
