<?xml version="1.0" encoding="utf-8"?>
<!-- Generator: Adobe Illustrator 16.0.0, SVG Export Plug-In . SVG Version: 6.00 Build 0)  -->
<!DOCTYPE svg PUBLIC "-//W3C//DTD SVG 1.1//EN" "http://www.w3.org/Graphics/SVG/1.1/DTD/svg11.dtd">
<svg version="1.1" id="Capa_1" xmlns="http://www.w3.org/2000/svg" xmlns:xlink="http://www.w3.org/1999/xlink" x="0px" y="0px"
	 width="595.279px" height="595.281px" viewBox="0 0 595.279 595.281" enable-background="new 0 0 595.279 595.281"
	 xml:space="preserve">
<g>
	<g>
		<path fill="#DD812F" d="M297.634-0.695c-164.375,0-297.63,133.266-297.63,297.635c0,164.369,133.255,297.646,297.63,297.646
			s297.646-133.27,297.646-297.646C595.279,132.563,462.009-0.695,297.634-0.695z M264.532,296.939
			c0,6.216-1.133,12.126-3.113,17.662l83.077,39.967c9.563-10.467,23.277-17.055,38.566-17.055
			c28.877,0,52.291,23.406,52.291,52.281c0,28.881-23.42,52.297-52.303,52.297c-28.877,0-52.304-23.416-52.304-52.297
			c0-2.768,0.288-5.471,0.7-8.115l-88.435-42.535c-8.646,6.326-19.267,10.098-30.796,10.098c-28.881,0-52.297-23.406-52.297-52.306
			c0-28.872,23.416-52.282,52.297-52.282c11.529,0,22.154,3.772,30.802,10.092l88.44-42.525c-0.416-2.651-0.7-5.342-0.7-8.116
			c0-28.887,23.421-52.297,52.304-52.297c28.877,0,52.297,23.411,52.297,52.297c0,28.881-23.42,52.297-52.297,52.297
			c-15.279,0-29.004-6.604-38.566-17.061l-83.077,39.951C263.401,284.821,264.532,290.744,264.532,296.939z"/>
	</g>
</g>
</svg>
