<?xml version="1.0" encoding="utf-8"?>
<!-- Generator: Adobe Illustrator 16.0.0, SVG Export Plug-In . SVG Version: 6.00 Build 0)  -->
<!DOCTYPE svg PUBLIC "-//W3C//DTD SVG 1.1//EN" "http://www.w3.org/Graphics/SVG/1.1/DTD/svg11.dtd">
<svg version="1.1" id="Capa_1" xmlns="http://www.w3.org/2000/svg" xmlns:xlink="http://www.w3.org/1999/xlink" x="0px" y="0px"
	 width="595.279px" height="595.28px" viewBox="0 123.305 595.279 595.28" enable-background="new 0 123.305 595.279 595.28"
	 xml:space="preserve">
<g>
	<path fill="#FFFFFF" d="M573.485,213.126l-68.024-68.027c-13.957-13.956-32.881-21.794-52.617-21.794h-43.588v130.218
		c0,10.273-8.329,18.603-18.603,18.603H93.013c-10.273,0-18.603-8.329-18.603-18.603V123.305H37.205
		C16.658,123.305,0,139.961,0,160.51v520.87c0,20.548,16.658,37.205,37.205,37.205h520.87c20.546,0,37.204-16.657,37.204-37.205
		V265.742C595.28,246.006,587.442,227.08,573.485,213.126z M520.87,644.175H74.41V420.945h446.46V644.175z"/>
	<rect x="260.435" y="123.305" fill="#FFFFFF" width="74.41" height="111.615"/>
</g>
</svg>
