<?xml version="1.0" encoding="utf-8"?>
<!-- Generator: Adobe Illustrator 16.0.0, SVG Export Plug-In . SVG Version: 6.00 Build 0)  -->
<!DOCTYPE svg PUBLIC "-//W3C//DTD SVG 1.1//EN" "http://www.w3.org/Graphics/SVG/1.1/DTD/svg11.dtd">
<svg version="1.1" id="Layer_1" xmlns="http://www.w3.org/2000/svg" xmlns:xlink="http://www.w3.org/1999/xlink" x="0px" y="0px"
	 width="595.279px" height="468.085px" viewBox="0 0 595.279 468.085" enable-background="new 0 0 595.279 468.085"
	 xml:space="preserve">
<g id="Capa_1" display="none">
	<path display="inline" fill="#777777" d="M173.415,217.658V624.23c0,47.594-36.981,86.313-82.443,86.313H82.45
		C36.987,710.544,0,671.826,0,624.228v-406.57c0-47.59,36.986-86.313,82.448-86.313h8.521
		C136.432,131.345,173.415,170.068,173.415,217.658z M595.28,243.766v349.271c0,37.391-30.42,67.811-67.813,67.811H217.559
		c-8.075,0-14.618-6.543-14.618-14.617V195.661c0-8.075,6.543-14.618,14.618-14.618h314.996
		C567.141,181.043,595.28,209.18,595.28,243.766z M323.319,563.878c0-10.324-8.367-18.691-18.689-18.691
		c-10.321,0-18.688,8.367-18.688,18.691c0,10.322,8.367,18.689,18.688,18.689C314.951,582.568,323.319,574.201,323.319,563.878z
		 M323.319,479.847c0-10.322-8.367-18.689-18.689-18.689c-10.321,0-18.688,8.367-18.688,18.689c0,10.324,8.367,18.691,18.688,18.691
		C314.951,498.539,323.319,490.171,323.319,479.847z M323.319,395.818c0-10.322-8.367-18.689-18.689-18.689
		c-10.321,0-18.688,8.367-18.688,18.689s8.367,18.689,18.688,18.689C314.951,414.509,323.319,406.142,323.319,395.818z
		 M417.979,563.878c0-10.324-8.366-18.691-18.689-18.691c-10.321,0-18.688,8.367-18.688,18.691c0,10.322,8.367,18.689,18.688,18.689
		C409.612,582.568,417.979,574.201,417.979,563.878z M417.979,479.847c0-10.322-8.366-18.689-18.689-18.689
		c-10.321,0-18.688,8.367-18.688,18.689c0,10.324,8.367,18.691,18.688,18.691C409.612,498.539,417.979,490.171,417.979,479.847z
		 M417.979,395.818c0-10.322-8.366-18.689-18.689-18.689c-10.321,0-18.688,8.367-18.688,18.689s8.367,18.689,18.688,18.689
		C409.612,414.507,417.979,406.142,417.979,395.818z M512.639,563.878c0-10.324-8.367-18.691-18.689-18.691
		c-10.323,0-18.688,8.367-18.688,18.691c0,10.322,8.365,18.689,18.688,18.689C504.271,582.568,512.639,574.201,512.639,563.878z
		 M512.639,479.847c0-10.322-8.367-18.689-18.689-18.689c-10.323,0-18.688,8.367-18.688,18.689c0,10.324,8.365,18.691,18.688,18.691
		C504.271,498.539,512.639,490.171,512.639,479.847z M512.639,395.818c0-10.322-8.367-18.689-18.689-18.689
		c-10.323,0-18.688,8.367-18.688,18.689s8.365,18.689,18.688,18.689C504.271,414.507,512.639,406.142,512.639,395.818z
		 M546.76,262.237c0-16.991-13.825-30.815-30.813-30.815H266.078c-8.075,0-14.618,6.542-14.618,14.619v55.832
		c0,8.074,6.543,14.617,14.618,14.617h266.063c8.075,0,14.618-6.543,14.618-14.617L546.76,262.237L546.76,262.237z"/>
</g>
<g>
	<g id="Layer_5_38_">
		<path fill="#999999" d="M590.033,83.279c2.83,4.548-1.044,8.269-8.61,8.269H17.076c-7.564,0-11.599-3.759-8.963-8.355
			L49.63,10.753c2.635-4.595,10.979-8.355,18.542-8.355h457.801c7.562,0,16.066,3.718,18.896,8.265L590.033,83.279z"/>
		<path fill="#999999" d="M3.322,137.028c0,17.842,22.318,32.305,49.851,32.305c20.725,0,38.49-8.195,46.007-19.86
			c1.491-2.312,4.938-2.279,6.441,0.048c7.536,11.639,25.286,19.812,45.98,19.812c20.783,0,38.595-8.246,46.078-19.964
			c1.454-2.28,4.738-2.463,6.112-0.258c7.382,11.854,25.302,20.222,46.242,20.222c20.937,0,38.852-8.365,46.234-20.22
			c1.374-2.206,4.587-2.206,5.959,0c7.385,11.855,25.304,20.22,46.238,20.22c20.938,0,38.855-8.365,46.235-20.22
			c1.378-2.206,4.582-2.206,5.953,0c7.387,11.854,25.305,20.222,46.241,20.222c20.943,0,38.858-8.365,46.242-20.22
			c1.371-2.206,4.582-2.206,5.952,0c7.384,11.854,25.299,20.221,46.241,20.221c27.534,0,49.849-14.463,49.849-32.305v-13.655
			c0,0,0-6.375-10.387-6.375c-141.92,0-423.161,0-567.677,0c-13.792,0-13.792,6.626-13.792,6.626L3.322,137.028z"/>
		<path fill="#999999" d="M580.719,437.5c0-0.006,0-0.013,0-0.017V309.384c0-7.77-9.81-14.128-21.796-14.128H39.58
			c-11.989,0-21.801,6.358-21.801,14.128v128.099c0,0.836,0,4.559,0,5.644c0,13.785,17.244,24.959,38.515,24.959
			c14.582,0,27.239-5.261,33.769-13.009c0.932-1.109,1.603-3.466,10.869-3.466h397.241c8.719,0,10.328,2.328,11.244,3.42
			c6.521,7.772,19.198,13.055,33.81,13.055c21.268,0,37.494-11.174,37.494-24.959C580.721,441.19,580.719,440.696,580.719,437.5z"/>
		<path fill="#999999" d="M118.681,191.296c-0.262-2.302-3.217-4.136-6.83-4.136H91.988c-3.784,0-6.876,2.004-6.876,4.457v0.058
			v73.773v0.058c0,2.454,3.096,4.457,6.876,4.457h19.863c3.613,0,6.57-1.834,6.83-4.136c0.017-0.039,0.048-0.076,0.048-0.116v-0.205
			v-73.891v-0.204C118.729,191.371,118.697,191.334,118.681,191.296z"/>
		<path fill="#999999" d="M515.215,191.296c-0.26-2.302-3.217-4.136-6.828-4.136h-19.865c-3.783,0-6.877,2.004-6.877,4.457v0.058
			v73.773v0.058c0,2.454,3.094,4.457,6.877,4.457h19.865c3.614,0,6.569-1.834,6.828-4.136c0.017-0.039,0.049-0.076,0.049-0.116
			v-0.205v-73.891v-0.204C515.266,191.371,515.23,191.334,515.215,191.296z"/>
	</g>
</g>
</svg>
