<?xml version="1.0" encoding="utf-8"?>
<!-- Generator: Adobe Illustrator 16.0.0, SVG Export Plug-In . SVG Version: 6.00 Build 0)  -->
<!DOCTYPE svg PUBLIC "-//W3C//DTD SVG 1.1//EN" "http://www.w3.org/Graphics/SVG/1.1/DTD/svg11.dtd">
<svg version="1.1" id="Layer_1" xmlns="http://www.w3.org/2000/svg" xmlns:xlink="http://www.w3.org/1999/xlink" x="0px" y="0px"
	 width="182.09px" height="184.368px" viewBox="0 0 182.09 184.368" enable-background="new 0 0 182.09 184.368"
	 xml:space="preserve">
<g id="Layer_2" display="none">
	<rect x="-290.688" y="-110.453" display="inline" fill="#3683C5" width="1005.101" height="456.045"/>
</g>
<g id="Layer_1_1_">
	<path fill="#777777" d="M13.165,182.083c3.047,3.047,7.987,3.047,11.034,0l5.351-5.352L5.351,152.532L0,157.883
		c-3.047,3.047-3.047,7.988,0,11.035L13.165,182.083z"/>
	<g>
		<g>
			<path fill="#777777" d="M69.735,134.987c11.33,6.928,24.178,10.396,37.029,10.396c18.187,0,36.375-6.938,50.25-20.814
				c27.752-27.752,27.752-72.748,0-100.501c-13.875-13.875-32.063-20.814-50.25-20.814c-18.188,0-36.375,6.938-50.25,20.814
				c-23.681,23.681-27.15,59.914-10.418,87.279l-34.528,34.526l23.64,23.642L69.735,134.987z M57.846,54.448
				c2.65-6.536,6.552-12.407,11.595-17.452c5.044-5.043,10.916-8.945,17.452-11.595c6.322-2.564,13.007-3.864,19.871-3.864
				c6.864,0,13.551,1.3,19.873,3.864c6.534,2.65,12.406,6.552,17.45,11.595c5.043,5.044,8.946,10.916,11.595,17.452
				c2.564,6.322,3.864,13.007,3.864,19.871c0,6.864-1.3,13.549-3.864,19.871c-2.648,6.536-6.552,12.407-11.595,17.452
				c-5.044,5.043-10.916,8.944-17.451,11.595c-6.321,2.564-13.008,3.864-19.872,3.864c-6.863,0-13.549-1.3-19.871-3.864
				c-1.267-0.514-2.508-1.076-3.724-1.683c-5.057-2.524-9.661-5.847-13.728-9.913c-4.066-4.066-7.389-8.672-9.913-13.729
				c-0.606-1.215-1.169-2.457-1.683-3.724c-2.563-6.322-3.864-13.008-3.864-19.871C53.981,67.455,55.282,60.77,57.846,54.448z"/>
			<path fill="#777777" d="M12.809,181.135c2.977,2.977,7.803,2.977,10.778,0l5.227-5.227l-23.64-23.641l-5.227,5.227
				c-2.977,2.978-2.977,7.803,0,10.779L12.809,181.135z"/>
		</g>
	</g>
</g>
</svg>
