<?xml version="1.0" encoding="utf-8"?>
<!-- Generator: Adobe Illustrator 16.0.0, SVG Export Plug-In . SVG Version: 6.00 Build 0)  -->
<!DOCTYPE svg PUBLIC "-//W3C//DTD SVG 1.1//EN" "http://www.w3.org/Graphics/SVG/1.1/DTD/svg11.dtd">
<svg version="1.1" id="Capa_1" xmlns="http://www.w3.org/2000/svg" xmlns:xlink="http://www.w3.org/1999/xlink" x="0px" y="0px"
	 width="595.279px" height="430.265px" viewBox="0 0 595.279 430.265" enable-background="new 0 0 595.279 430.265"
	 xml:space="preserve">
<g>
	<path fill="#555555" d="M555.777,345.052l3.239-1.011l2.161-7.05c0,0-83.174,33.229-259.786,33.229
		c-176.606,0-272.748-66.467-272.748-66.467l2.703,11.074c0,0,4.323,5.034,29.703,18.133c3.781,8.562,8.098,17.119,12.962,24.17
		c42.671,10.574,126.386,24.674,237.096,24.674C415.893,381.81,519.049,355.63,555.777,345.052z"/>
	<path fill="#555555" d="M311.114,386.344c-118.819,0-199.29-15.608-235.478-24.168c15.123,23.163,33.484,38.772,43.748,46.832
		c14.581,10.575,37.807,22.154,45.368,22.154c17.277,0.505,346.192-1.012,346.192-1.012l15.665-26.183l24.845-52.867
		C511.487,362.169,412.113,386.344,311.114,386.344z"/>
	<path fill="#555555" d="M131.81,305.774c0,0-5.4-166.17,131.238-306.65C331.1,76.668,391.591,135.075,391.591,135.075
		l3.238,197.894L131.81,305.774z"/>
	<g>
		<path fill="#555555" d="M350.539,16.242h-7.019l-1.084,63.951c4.322,5.54,7.562,8.055,11.342,12.595L350.539,16.242z"/>
	</g>
	<path fill="#555555" d="M106.424,300.74L2.185,290.67c0,0-15.122-92.649,62.646-162.646c28.626,41.792,38.884,59.416,38.884,59.416
		L106.424,300.74z"/>
	<g>
		<path fill="#555555" d="M85.359,123.495h-1.083l-0.542,27.188c1.083,1.011,1.619,2.015,2.161,3.02L85.359,123.495z"/>
		<g>
			<g>
				<path fill="#555555" d="M357.023,333.972l-19.445-2.009v33.232c6.483,0,13.503-0.505,19.98-0.505L357.023,333.972z"/>
				<g>
					<path fill="#555555" d="M214.442,338.508h-57.251v11.078c17.284,4.03,36.729,7.549,57.251,10.575V338.508z"/>
				</g>
			</g>
			<path fill="#555555" d="M88.056,302.25l-5.936-0.506l-0.542,23.669c2.155,1.011,4.322,2.015,6.478,3.024V302.25z"/>
		</g>
	</g>
	<path fill="#555555" d="M413.19,332.973c0,0-10.8-161.636,55.626-245.73c61.574,43.807,112.342,82.075,112.342,82.075
		l15.122,141.491L413.19,332.973z"/>
	<g>
		<g>
			<path fill="#555555" d="M516.887,324.909l-8.104,1.009l-3.238,22.658c3.238-1.01,5.941-1.508,8.639-2.009L516.887,324.909z"/>
		</g>
		<path fill="#555555" d="M543.351,93.282h-1.613l-5.399,38.772c1.083,0.505,1.619,1.01,2.696,1.51L543.351,93.282z"/>
	</g>
</g>
</svg>
