<?xml version="1.0" encoding="utf-8"?>
<!-- Generator: Adobe Illustrator 16.0.0, SVG Export Plug-In . SVG Version: 6.00 Build 0)  -->
<!DOCTYPE svg PUBLIC "-//W3C//DTD SVG 1.1//EN" "http://www.w3.org/Graphics/SVG/1.1/DTD/svg11.dtd">
<svg version="1.1" id="Capa_1" xmlns="http://www.w3.org/2000/svg" xmlns:xlink="http://www.w3.org/1999/xlink" x="0px" y="0px"
	 width="565.074px" height="439.814px" viewBox="0 0 565.074 439.814" enable-background="new 0 0 565.074 439.814"
	 xml:space="preserve">
<polygon fill="#555555" points="484.489,304.935 484.489,225.075 446.345,225.075 446.345,304.935 398.667,304.935 465.418,384.792 
	532.167,304.935 "/>
<g>
	<path fill="#555555" d="M317.689,73.698h-32.105V57.646c0-8.869-7.183-16.053-16.052-16.053h-80.263
		c-8.868,0-16.053,7.184-16.053,16.053v16.053h-32.105c-13.276,0-24.079,10.803-24.079,24.079v272.894
		c0,13.275,10.803,24.08,24.079,24.08h176.578c13.276,0,24.08-10.804,24.08-24.08V97.777
		C341.769,84.501,330.966,73.698,317.689,73.698z M325.716,370.671c0,4.43-3.596,8.025-8.026,8.025H141.111
		c-4.43,0-8.026-3.596-8.026-8.025V97.777c0-4.43,3.596-8.026,8.026-8.026h48.158h80.263h48.157c4.431,0,8.026,3.596,8.026,8.026
		V370.671z"/>
	<rect x="149.138" y="282.382" fill="#555555" width="160.526" height="80.263"/>
</g>
</svg>
