<?xml version="1.0" encoding="utf-8"?>
<!-- Generator: Adobe Illustrator 16.0.0, SVG Export Plug-In . SVG Version: 6.00 Build 0)  -->
<!DOCTYPE svg PUBLIC "-//W3C//DTD SVG 1.1//EN" "http://www.w3.org/Graphics/SVG/1.1/DTD/svg11.dtd">
<svg version="1.1" id="Capa_1" xmlns="http://www.w3.org/2000/svg" xmlns:xlink="http://www.w3.org/1999/xlink" x="0px" y="0px"
	 width="47px" height="31.908px" viewBox="0 15.093 47 31.908" enable-background="new 0 15.093 47 31.908" xml:space="preserve">
<g>
	<g id="Layer_1_87_">
		<g>
			<path fill="#555555" d="M9.926,32.185H3.088c-1.258,0-2.278,1.021-2.278,2.28V44.72C0.811,45.982,1.832,47,3.088,47h6.837
				c1.259,0,2.279-1.019,2.279-2.28V34.465C12.206,33.206,11.186,32.185,9.926,32.185z"/>
			<path fill="#555555" d="M27.596,24.209h-6.837c-1.258,0-2.278,1.021-2.278,2.28v18.233c0,1.261,1.021,2.279,2.278,2.279h6.837
				c1.259,0,2.28-1.019,2.28-2.279V26.486C29.876,25.231,28.856,24.209,27.596,24.209z"/>
			<path fill="#555555" d="M45.27,15.093h-6.835c-1.261,0-2.281,1.021-2.281,2.279V44.72c0,1.262,1.021,2.28,2.281,2.28h6.835
				c1.26,0,2.28-1.019,2.28-2.28V17.373C47.55,16.114,46.53,15.093,45.27,15.093z"/>
		</g>
	</g>
</g>
</svg>
