<?xml version="1.0" encoding="utf-8"?>
<!-- Generator: Adobe Illustrator 16.0.0, SVG Export Plug-In . SVG Version: 6.00 Build 0)  -->
<!DOCTYPE svg PUBLIC "-//W3C//DTD SVG 1.1//EN" "http://www.w3.org/Graphics/SVG/1.1/DTD/svg11.dtd">
<svg version="1.1" id="Capa_1" xmlns="http://www.w3.org/2000/svg" xmlns:xlink="http://www.w3.org/1999/xlink" x="0px" y="0px"
	 width="565.074px" height="439.814px" viewBox="0 0 565.074 439.814" enable-background="new 0 0 565.074 439.814"
	 xml:space="preserve">
<polygon fill="#555555" points="485.822,304.934 485.822,225.073 447.678,225.073 447.678,304.934 400,304.934 466.751,384.79 
	533.5,304.934 "/>
<g id="sack_with_money">
	<path fill="#555555" d="M276.049,35.924c-11.544,0-11.544-11.087-23.114-11.087c-11.533,0-11.533,11.087-23.076,11.087
		s-11.543-11.087-23.087-11.087c-11.543,0-11.543,11.087-23.058,11.087c-11.532,0-11.532-11.087-23.047-11.087
		s-11.515,11.087-23.039,11.087c-11.523,0-11.523-11.087-23.057-11.087l39.565,102.405c15.454,2.724,33.206,4.385,52.731,4.385
		c19.849,0,37.854-1.708,53.479-4.518l38.826-102.272C287.619,24.837,287.619,35.924,276.049,35.924z"/>
	<path fill="#555555" d="M271.653,149.776c-20.086,4.101-42.441,6.104-64.785,6.104c-22.336,0-44.71-2.003-64.806-6.104
		c-45.07,28.08-75.931,84.303-75.931,149.365c0,93.092,63.011,115.836,140.736,115.836c77.732,0,140.744-22.744,140.744-115.836
		C347.612,234.07,316.732,177.856,271.653,149.776z M220.29,355.516v24.405h-23.456v-22.735
		c-16.033-0.722-31.591-5.021-40.686-10.289l7.188-28.002c10.053,5.504,24.167,10.526,39.725,10.526
		c13.632,0,22.964-5.249,22.964-14.837c0-9.094-7.651-14.827-25.364-20.827c-25.611-8.601-43.077-20.579-43.077-43.788
		c0-21.054,14.847-37.562,40.448-42.593v-22.725h23.456v21.054c16.031,0.722,26.798,4.073,34.693,7.896l-6.938,27.035
		c-6.219-2.628-17.23-8.135-34.469-8.135c-15.55,0-20.57,6.701-20.57,13.414c0,7.879,8.373,12.909,28.715,20.579
		c28.479,10.043,39.963,23.209,39.963,44.737C262.882,332.534,247.81,350.723,220.29,355.516z"/>
</g>
</svg>
