<?xml version="1.0" encoding="utf-8"?>
<!-- Generator: Adobe Illustrator 16.0.0, SVG Export Plug-In . SVG Version: 6.00 Build 0)  -->
<!DOCTYPE svg PUBLIC "-//W3C//DTD SVG 1.1//EN" "http://www.w3.org/Graphics/SVG/1.1/DTD/svg11.dtd">
<svg version="1.1" id="Capa_1" xmlns="http://www.w3.org/2000/svg" xmlns:xlink="http://www.w3.org/1999/xlink" x="0px" y="0px"
	 width="565.074px" height="439.814px" viewBox="0 0 565.074 439.814" enable-background="new 0 0 565.074 439.814"
	 xml:space="preserve">
<g>
	<g>
		<polygon fill="#555555" points="220.22,99.993 208.719,131.63 231.987,131.63 		"/>
		<path fill="#555555" d="M140.861,289.697c0.229-0.878,0.344-1.872,0.344-2.903c0-2.293-0.535-4.203-1.604-5.77
			c-1.72-2.827-4.853-4.737-8.406-4.737h-24.759v0.534v20.289v0.573h24.759C136.047,297.684,140.021,294.244,140.861,289.697z"/>
		<path fill="#555555" d="M133.754,336.617c5.96,0,10.813-4.853,10.813-10.813v-0.726v-1.222c0-5.961-4.853-10.813-10.813-10.813
			h-12.838h-14.481v23.574h16.659H133.754z"/>
		<g>
			<path fill="#555555" d="M293.044,204.379c5.273,0,9.553-4.28,9.553-9.553V50.552c0-5.273-4.279-9.552-9.553-9.552H148.77
				c-5.273,0-9.552,4.278-9.552,9.552v144.274c0,5.272,4.279,9.553,9.552,9.553H293.044z M177.35,161.088l30.567-78.518
				c1.414-3.668,4.967-6.075,8.903-6.075h7.26c3.896,0,7.412,2.369,8.863,5.999l31.445,78.556c1.49,3.783-1.26,7.871-5.31,7.871
				h-6.267c-3.936,0-7.488-2.445-8.902-6.113l-5.617-14.596h-35.686l-5.234,14.443c-1.376,3.782-4.967,6.304-8.979,6.304h-5.731
				C178.649,168.883,175.898,164.833,177.35,161.088z"/>
			<path fill="#555555" d="M199.434,385.601c5.273,0,9.552-4.279,9.552-9.552V231.774c0-5.273-4.279-9.553-9.552-9.553H55.16
				c-5.273,0-9.552,4.279-9.552,9.553v144.274c0,5.272,4.279,9.552,9.552,9.552H199.434z M87.331,270.44
				c0-5.272,4.279-9.552,9.552-9.552h27.242c7.183,0,12.647,0.306,16.2,0.917c3.592,0.611,6.839,1.91,9.667,3.82
				c2.827,1.91,5.234,4.547,7.106,7.718c1.873,3.21,2.866,6.878,2.866,10.852c0,4.317-1.184,8.329-3.515,11.959
				c-2.14,3.324-5.043,5.923-8.635,7.718c5.158,1.682,9.208,4.395,12.036,8.101c3.018,3.936,4.546,8.636,4.546,13.946
				c0,4.164-0.994,8.291-2.942,12.265c-1.949,3.936-4.624,7.145-8.023,9.514c-3.363,2.369-7.565,3.859-12.495,4.395
				c-3.057,0.343-10.545,0.534-22.199,0.611l0,0H96.921c-5.273,0-9.552-4.279-9.552-9.552V270.44H87.331L87.331,270.44z"/>
			<path fill="#555555" d="M386.655,222.222H242.38c-5.271,0-9.552,4.279-9.552,9.553v144.274c0,5.272,4.28,9.552,9.552,9.552
				h144.275c5.273,0,9.552-4.279,9.552-9.552V231.774C396.207,226.501,391.928,222.222,386.655,222.222z M350.663,331.804
				c-2.6,5.119-5.923,9.208-9.935,12.265c-6.38,4.853-14.595,7.298-24.415,7.298c-12.15,0-22.275-4.203-30.107-12.494
				c-7.834-8.291-11.77-19.792-11.77-34.158c0-15.168,3.975-27.166,11.846-35.572c7.871-8.444,18.34-12.685,31.139-12.685
				c11.195,0,20.403,3.362,27.396,9.973c1.72,1.604,3.247,3.477,4.585,5.655c3.324,5.311,0.383,12.341-5.73,13.793l-0.688,0.152
				c-3.974,0.955-8.023-0.879-10.163-4.355c-1.108-1.834-2.483-3.438-4.165-4.738c-3.324-2.674-7.45-4.012-12.227-4.012
				c-6.61,0-12.036,2.408-16.124,7.145c-4.127,4.738-6.229,12.571-6.229,23.308c0,11.348,2.064,19.563,6.113,24.339
				c4.051,4.776,9.361,7.183,15.857,7.183c4.775,0,8.94-1.528,12.341-4.546c1.911-1.72,3.554-3.974,4.892-6.802
				c1.986-4.202,6.725-6.343,11.156-4.967l0.688,0.229C350.663,320.493,353.261,326.684,350.663,331.804z"/>
		</g>
	</g>
</g>
<polygon fill="#555555" points="470.345,304.932 470.345,384.792 508.489,384.792 508.489,304.932 556.167,304.932 489.416,225.075 
	422.667,304.932 "/>
</svg>
