<?xml version="1.0" encoding="utf-8"?>
<!-- Generator: Adobe Illustrator 16.0.0, SVG Export Plug-In . SVG Version: 6.00 Build 0)  -->
<!DOCTYPE svg PUBLIC "-//W3C//DTD SVG 1.1//EN" "http://www.w3.org/Graphics/SVG/1.1/DTD/svg11.dtd">
<svg version="1.1" id="Capa_1" xmlns="http://www.w3.org/2000/svg" xmlns:xlink="http://www.w3.org/1999/xlink" x="0px" y="0px"
	 width="565.074px" height="439.814px" viewBox="0 0 565.074 439.814" enable-background="new 0 0 565.074 439.814"
	 xml:space="preserve">
<polygon fill="#555555" points="514.28,311.301 514.28,231.44 476.136,231.44 476.136,311.301 428.458,311.301 495.209,391.157 
	561.958,311.301 "/>
<g>
	<g>
		<path fill="#555555" d="M269.941,362.159h-26.759V116.92h112.774l-47.769,75.8c-2.423,3.843-1.271,8.925,2.573,11.347
			c1.364,0.859,2.879,1.267,4.379,1.267c2.732,0,5.403-1.36,6.968-3.84l41.43-65.741l41.426,65.741
			c2.424,3.844,7.506,4.996,11.349,2.573c3.843-2.422,4.993-7.504,2.572-11.347l-47.768-75.8h0.603
			c7.043,0,12.752-5.71,12.752-12.752c0-7.041-5.709-12.751-12.752-12.751h-93.809c-5.297-7.706-13.115-13.541-22.269-16.31
			c-1.309-14.824-13.75-26.449-28.914-26.449c-15.165,0-27.606,11.625-28.915,26.449c-9.154,2.77-16.972,8.604-22.269,16.31H81.736
			c-7.042,0-12.752,5.71-12.752,12.751c0,7.042,5.709,12.752,12.752,12.752h0.604l-47.769,75.8
			c-2.423,3.843-1.27,8.925,2.573,11.347c1.363,0.859,2.879,1.267,4.378,1.267c2.731,0,5.405-1.36,6.969-3.84l41.429-65.741
			l41.428,65.741c2.423,3.844,7.504,4.996,11.347,2.573c3.844-2.422,4.996-7.504,2.574-11.347L97.5,116.92h112.775v245.237h-26.759
			c-16.014,0-28.998,12.984-28.998,29h144.421C298.939,375.142,285.955,362.159,269.941,362.159z"/>
		<path fill="#555555" d="M150.453,214.083H29.385c-2.422,0-4.385,1.963-4.385,4.386c0,35.796,29.123,64.919,64.92,64.919
			c35.796,0,64.92-29.123,64.92-64.919C154.839,216.047,152.875,214.083,150.453,214.083z"/>
		<path fill="#555555" d="M424.071,214.083H303.004c-2.422,0-4.386,1.963-4.386,4.386c0,35.796,29.123,64.919,64.921,64.919
			c35.796,0,64.919-29.123,64.919-64.919C428.457,216.047,426.493,214.083,424.071,214.083z"/>
	</g>
</g>
</svg>
