<?xml version="1.0" encoding="utf-8"?>
<!-- Generator: Adobe Illustrator 16.0.0, SVG Export Plug-In . SVG Version: 6.00 Build 0)  -->
<!DOCTYPE svg PUBLIC "-//W3C//DTD SVG 1.1//EN" "http://www.w3.org/Graphics/SVG/1.1/DTD/svg11.dtd">
<svg version="1.1" id="Capa_1" xmlns="http://www.w3.org/2000/svg" xmlns:xlink="http://www.w3.org/1999/xlink" x="0px" y="0px"
	 width="565.074px" height="439.814px" viewBox="0 0 565.074 439.814" enable-background="new 0 0 565.074 439.814"
	 xml:space="preserve">
<polygon fill="#555555" points="517.396,311.571 517.396,231.712 479.252,231.712 479.252,311.571 431.574,311.571 498.325,391.429 
	565.074,311.571 "/>
<g>
	<g>
		<path fill="#555555" d="M365.214,381.138h-23.912v-16.232c0-0.925-0.754-1.679-1.679-1.679c-0.924,0-1.679,0.754-1.679,1.679
			v16.232h-30.221v-16.232c0-0.925-0.755-1.679-1.68-1.679s-1.679,0.754-1.679,1.679v16.232h-30.221v-16.232
			c0-0.925-0.755-1.679-1.679-1.679c-0.926,0-1.679,0.754-1.679,1.679v16.232h-30.222v-16.232c0-0.925-0.753-1.679-1.679-1.679
			c-0.924,0-1.679,0.754-1.679,1.679v16.232h-30.221v-16.232c0-0.925-0.751-1.679-1.68-1.679c-0.924,0-1.679,0.754-1.679,1.679
			v16.232h-30.221v-16.232c0-0.925-0.751-1.679-1.679-1.679c-0.925,0-1.679,0.754-1.679,1.679v16.232h-30.221v-16.232
			c0-0.925-0.751-1.679-1.68-1.679c-0.924,0-1.679,0.754-1.679,1.679v16.232H106.25v-16.232c0-0.925-0.751-1.679-1.679-1.679
			c-0.925,0-1.68,0.754-1.68,1.679v16.232h-61v-38.056h13.488c0.925,0,1.679-0.751,1.679-1.679c0-0.93-0.753-1.68-1.679-1.68H41.892
			v-30.221h13.488c0.925,0,1.679-0.75,1.679-1.68c0-0.928-0.753-1.679-1.679-1.679H41.892v-30.221h13.488
			c0.925,0,1.679-0.752,1.679-1.679c0-0.928-0.753-1.679-1.679-1.679H41.892v-30.222h13.488c0.925,0,1.679-0.751,1.679-1.678
			c0-0.929-0.753-1.68-1.679-1.68H41.892v-30.222h13.488c0.925,0,1.679-0.75,1.679-1.679c0-0.927-0.753-1.679-1.679-1.679H41.892
			v-30.221h13.488c0.925,0,1.679-0.751,1.679-1.679c0-0.927-0.753-1.679-1.679-1.679H41.892v-30.221h13.488
			c0.925,0,1.679-0.751,1.679-1.679c0-0.926-0.753-1.679-1.679-1.679H41.892v-30.221h13.488c0.925,0,1.679-0.751,1.679-1.679
			c0-0.926-0.753-1.679-1.679-1.679H41.892V77.248c0-2.781-2.255-5.037-5.036-5.037s-5.037,2.256-5.037,5.037v308.926
			c0,2.78,2.256,5.036,5.037,5.036h328.358c2.78,0,5.037-2.256,5.037-5.036S367.994,381.138,365.214,381.138z"/>
		<rect x="84.351" y="117.888" fill="#555555" width="34.418" height="227.649"/>
		<path fill="#555555" d="M191.804,225.026c-4.509-5.891-8.162-12.227-10.956-18.843h-23.462v139.354h34.418V225.026z"/>
		<path fill="#555555" d="M264.002,258.928c-1.115,0.05-2.229,0.117-3.346,0.117c-10.805,0-21.288-1.98-31.073-5.725v92.211h34.419
			V258.928z"/>
		<path fill="#555555" d="M339.554,279.639l-33.12-33.604c-0.425,0.263-0.871,0.492-1.298,0.745v98.752h34.418V279.639z"/>
		<path fill="#555555" d="M413.782,314.471l-92.936-94.298c23.306-30.059,21.229-73.58-6.361-101.169
			c-29.906-29.908-78.577-29.908-108.492,0c-29.906,29.913-29.906,78.574,0,108.49c27.591,27.592,71.105,29.664,101.173,6.361
			l92.936,94.297c3.777,3.778,9.896,3.778,13.674,0C417.56,324.374,417.56,318.248,413.782,314.471z M300.817,213.815
			c-22.371,22.372-58.77,22.374-81.141,0c-22.37-22.365-22.367-58.766,0-81.132c22.372-22.367,58.767-22.374,81.141,0
			C323.188,155.05,323.188,191.45,300.817,213.815z"/>
		<path fill="#555555" d="M263.041,165.043c-8.775-3.63-11.313-5.825-11.313-9.802c0-3.176,2.328-6.89,8.88-6.89
			c6.171,0,10.05,2.218,11.709,3.167c0.424,0.244,0.935,0.285,1.4,0.125c0.463-0.169,0.826-0.524,1.004-0.984l2.492-6.581
			c0.292-0.766-0.014-1.629-0.723-2.043c-3.57-2.077-7.548-3.269-12.116-3.615v-8.077c0-0.926-0.75-1.679-1.679-1.679h-6.171
			c-0.926,0-1.679,0.752-1.679,1.679v8.674c-9.183,2.028-15.035,8.74-15.035,17.42c0,10.474,8.407,15.222,17.471,18.788
			c7.25,2.932,10.205,5.916,10.205,10.289c0,4.832-4.092,8.079-10.165,8.079c-4.703,0-9.592-1.458-13.412-3.996
			c-0.427-0.289-0.964-0.356-1.457-0.198c-0.495,0.159-0.885,0.541-1.052,1.028l-2.39,6.665c-0.252,0.71-0.007,1.499,0.607,1.935
			c3.492,2.492,9.054,4.245,14.529,4.623v8.449c0,0.927,0.758,1.679,1.679,1.679h6.273c0.928,0,1.68-0.751,1.68-1.679v-8.969
			c9.467-2.12,15.736-9.329,15.736-18.314C279.513,175.657,274.58,169.744,263.041,165.043z"/>
	</g>
</g>
</svg>
