<?xml version="1.0" encoding="utf-8"?>
<!-- Generator: Adobe Illustrator 16.0.0, SVG Export Plug-In . SVG Version: 6.00 Build 0)  -->
<!DOCTYPE svg PUBLIC "-//W3C//DTD SVG 1.1//EN" "http://www.w3.org/Graphics/SVG/1.1/DTD/svg11.dtd">
<svg version="1.1" xmlns="http://www.w3.org/2000/svg" xmlns:xlink="http://www.w3.org/1999/xlink" x="0px" y="0px"
	 width="266.684px" height="67.333px" viewBox="0 0 266.684 67.333" enable-background="new 0 0 266.684 67.333"
	 xml:space="preserve">
<g id="Layer_2">
	<rect x="-0.316" y="-0.525" width="267" height="68"/>
	<path fill-rule="evenodd" clip-rule="evenodd" fill="#26944F" d="M65.479,27.519c0.455-0.444,0.751-0.609,0.956-0.566
		c0.052,0.011,0.12,0.043,0.138,0.133c0.107,0.557-2.443,4.002-7.509,10.586c-0.651,0.849-1.287,1.676-1.786,2.332
		c1.325-1.511,3.406-4.098,4.824-5.858l1.844-2.279c0.803-0.976,0.914-1.1,1.127-1.055c0.056,0.011,0.094,0.046,0.102,0.097
		c0.032,0.169-0.275,0.59-2.521,3.457c-1.604,2.046-4.18,5.331-4.655,6.29c0.644-0.62,2.144-2.393,3.188-3.626
		c2.493-2.944,2.673-3.11,2.94-3.055c0.069,0.015,0.113,0.058,0.126,0.122c0.057,0.295-0.707,1.425-3.028,4.441
		c0.317-0.362,0.608-0.696,0.841-0.957c0.494-0.551,0.625-0.7,0.825-0.659c0.055,0.011,0.091,0.044,0.103,0.095
		c0.03,0.153-0.224,0.544-1.959,2.828c-0.237,0.311-0.48,0.63-0.639,0.845c0.245-0.052,0.581-0.122,0.839-0.177
		c0.727-0.152,0.727-0.152,0.776-0.142c0.052,0.011,0.087,0.043,0.095,0.088c0.016,0.08,0.005,0.095-0.294,0.491
		c-0.1,0.135-0.257,0.34-0.283,0.386c0.038-0.064,0.034-0.165-0.075-0.188l-0.137,0.192l-0.138,0.191
		c-0.05-0.01-0.086-0.043-0.095-0.087c-0.019-0.085,0.01-0.124,0.357-0.584c0.007-0.009,0.016-0.021,0.023-0.032
		c-0.098,0.021-0.206,0.044-0.309,0.066c-1.228,0.258-1.229,0.258-1.292,0.246c-0.05-0.011-0.085-0.044-0.095-0.088
		c-0.02-0.096-0.02-0.096,0.896-1.299c0.09-0.119,0.192-0.251,0.298-0.395c-0.448,0.516-0.893,1.022-1.266,1.436
		c-0.789,0.874-0.963,1.021-1.164,0.978c-0.052-0.009-0.087-0.043-0.096-0.088c-0.019-0.098-0.019-0.098,1.176-1.631
		c0.992-1.275,3.052-3.92,3.851-5.145c-0.517,0.576-1.273,1.472-1.927,2.243c-3.178,3.756-3.608,4.147-3.938,4.08
		c-0.056-0.013-0.124-0.044-0.141-0.138c-0.052-0.286,0.517-1.18,1.785-2.875c-2.407,2.912-2.989,3.419-3.298,3.355
		c-0.053-0.011-0.089-0.046-0.098-0.09c-0.026-0.132,0.051-0.257,2.853-3.904c2.5-3.249,7.061-9.18,7.391-10.179
		c-0.867,0.607-3.968,4.82-6.262,7.937c-4.45,6.047-5.388,7.169-5.891,7.065c-0.058-0.012-0.096-0.049-0.105-0.101
		c-0.041-0.225,0.577-1.055,4.133-5.557C60.917,33,66.967,25.34,66.884,24.456c-0.715,0.653-3.351,4.239-5.693,7.424
		c-6.074,8.263-7.515,10.02-8.112,9.896c-0.089-0.019-0.198-0.072-0.226-0.229c-0.043-0.265,0.192-0.789,0.659-1.539
		c-1.341,1.696-1.826,2.106-2.118,2.046c-0.097-0.02-0.216-0.081-0.245-0.254c-0.057-0.333,0.282-1.059,0.908-2.063
		c-0.146,0.191-0.289,0.374-0.421,0.547c-0.481,0.616-0.838,1.065-1.094,1.373c-0.334,0.402-0.557,0.667-0.781,0.622
		c-0.082-0.018-0.182-0.066-0.206-0.208c-0.024-0.159,0.067-0.422,0.269-0.789c-0.217,0.266-0.413,0.498-0.585,0.699
		c-0.717,0.83-1.026,1.081-1.271,1.029c-0.058-0.012-0.097-0.047-0.107-0.099c-0.072-0.337,1.815-2.994,8.775-12.364
		c1.67-2.248,3.266-4.398,3.956-5.37c-1.733,1.668-6.794,8.619-9.657,12.547c-1.061,1.456-1.976,2.713-2.656,3.623
		c-0.362,0.484-0.631,0.837-0.825,1.075c-0.25,0.312-0.449,0.558-0.668,0.512c-0.071-0.014-0.164-0.059-0.185-0.185
		c-0.006-0.029-0.006-0.063-0.003-0.1c-0.535,0.612-0.796,0.801-1.011,0.757c-0.051-0.01-0.088-0.046-0.098-0.089
		c-0.032-0.15,0.335-0.703,3.99-5.644c-0.261,0.341-0.52,0.671-0.77,0.993c-3.334,4.257-4.004,4.534-4.369,4.458
		c-0.097-0.021-0.216-0.079-0.247-0.25c-0.015-0.103,0.004-0.242,0.058-0.412c-0.496,0.543-0.905,0.897-1.23,1.051
		C42.7,43.62,42.547,43.62,42.457,43.6c-0.066-0.012-0.109-0.055-0.121-0.116c-0.084-0.423,1.942-3.125,6.585-9.183
		c2.376-3.101,5.218-6.81,6.265-8.408c-1.42,1.729-4.671,6.096-7.383,9.74c-6.253,8.4-6.292,8.392-6.599,8.328
		c-0.092-0.019-0.206-0.076-0.235-0.242c-0.03-0.177,0.057-0.474,0.245-0.872h-0.001c-0.079-0.015-0.129-0.066-0.141-0.139
		c-0.083-0.47,1.603-2.635,5.47-7.463c0.042-0.052,0.084-0.105,0.127-0.157c1.783-2.649,3.334-4.915,4.597-6.604
		c-0.689,0.857-1.44,1.807-2.127,2.676c-4.751,6.01-5.808,7.207-6.277,7.109c-0.057-0.012-0.129-0.047-0.147-0.146
		c-0.092-0.511,1.843-3,5.04-7.04c0.821-1.038,1.735-2.192,2.485-3.171c-4.317,5.292-5.746,6.805-6.296,6.691
		c-0.058-0.011-0.093-0.046-0.104-0.097c-0.037-0.18,0.395-0.789,2.883-4.07c0.494-0.651,1.059-1.397,1.567-2.079
		c-2.279,2.634-2.75,3.033-3.068,2.966c-0.058-0.011-0.093-0.045-0.103-0.095c-0.028-0.14,0.098-0.334,1.589-2.257
		c0.422-0.544,0.969-1.249,1.37-1.792c-0.352,0.357-0.749,0.772-1.048,1.084c-0.272,0.286-0.531,0.556-0.722,0.75
		c-0.309,0.313-0.448,0.456-0.625,0.418c-0.063-0.013-0.103-0.052-0.111-0.108c-0.024-0.159,0.174-0.425,0.984-1.399
		c0.275-0.331,0.654-0.787,0.85-1.058c-0.034,0.012-0.068,0.024-0.1,0.037c-0.685,0.259-0.774,0.287-0.867,0.268
		c-0.054-0.012-0.094-0.049-0.1-0.098c-0.016-0.098,0.073-0.203,0.232-0.392c0.045-0.052,0.112-0.132,0.129-0.156
		c-0.036,0.053-0.04,0.16,0.07,0.183l0.138-0.191l0.137-0.191c0.054,0.011,0.092,0.049,0.1,0.096
		c0.009,0.064-0.024,0.129-0.095,0.22c0.084-0.03,0.165-0.061,0.232-0.087c0.482-0.182,0.511-0.194,0.592-0.177
		c0.068,0.014,0.109,0.055,0.118,0.115c0.017,0.118-0.083,0.298-0.397,0.704c1.036-1.06,1.196-1.147,1.386-1.108
		c0.06,0.012,0.099,0.048,0.108,0.103c0.038,0.189-0.302,0.672-2.012,2.877c-0.275,0.355-0.58,0.747-0.842,1.092
		c0.731-0.782,1.729-1.945,2.317-2.628c0.348-0.407,0.651-0.759,0.877-1.016c0.355-0.401,0.504-0.568,0.698-0.528
		c0.058,0.012,0.095,0.046,0.104,0.097c0.042,0.199-0.486,0.946-3.137,4.443c-0.94,1.24-2.06,2.718-2.547,3.425
		c1.186-1.053,4.274-4.844,5.689-6.583L51.358,26c0.472-0.568,0.585-0.703,0.785-0.662c0.07,0.015,0.114,0.058,0.125,0.122
		c0.065,0.355-1.151,1.936-4.153,5.728c-1.834,2.32-4.535,5.733-4.896,6.576c0.85-0.751,3.544-4.162,5.557-6.707
		c4.175-5.28,4.607-5.726,4.958-5.653c0.052,0.011,0.113,0.038,0.153,0.099c0.109-0.08,0.212-0.144,0.306-0.188
		c0.219-0.105,0.37-0.105,0.458-0.087c0.054,0.011,0.092,0.047,0.101,0.095c0.024,0.143-0.054,0.267-2.904,3.814
		c-0.423,0.527-0.888,1.106-1.381,1.721c-0.928,1.192-2.016,2.56-3.23,4.075c-0.076,0.098-0.151,0.194-0.226,0.292
		c-0.179,0.265-0.354,0.524-0.523,0.778c-2.695,4.01-4.045,5.972-4.741,6.604c-0.204,0.385-0.315,0.677-0.316,0.855
		c0.77-0.891,3.533-4.603,5.999-7.915c1.902-2.558,3.873-5.202,5.413-7.219c0.835-1.095,1.463-1.898,1.921-2.458
		c0.747-0.911,0.954-1.099,1.178-1.052c0.067,0.015,0.109,0.057,0.122,0.119c0.088,0.447-1.998,3.226-6.775,9.461
		c-2.743,3.582-6.129,8-6.462,8.801c0.005-0.001,0.009-0.003,0.014-0.004c0.42-0.199,1.14-0.988,2.022-2.111
		c0.748-1.207,1.992-2.896,3.54-4.884c0.484-0.697,0.969-1.4,1.443-2.087c3.655-5.294,5.956-8.549,7.106-9.095
		c0.213-0.1,0.359-0.1,0.445-0.082c0.062,0.013,0.102,0.052,0.113,0.109c0.044,0.268-0.789,1.343-4.128,5.47
		c-1.398,1.729-3.076,3.803-4.591,5.75c-1.44,2.069-2.633,3.742-3.599,4.966c-0.434,0.703-0.67,1.214-0.632,1.447
		c0.007,0.048,0.03,0.062,0.045,0.067c0.982-0.245,6.887-8.292,10.061-12.618c1.066-1.453,1.985-2.707,2.673-3.615
		c1.14-1.509,1.283-1.631,1.515-1.583c0.057,0.011,0.095,0.047,0.104,0.096c0.034,0.161-0.44,0.919-2.001,3.09
		c2.576-3.511,2.778-3.633,3.038-3.579c0.058,0.012,0.13,0.047,0.148,0.146c0.026,0.152-0.11,0.458-0.419,0.944
		c1.028-1.132,1.355-1.229,1.575-1.184c0.052,0.011,0.087,0.043,0.098,0.088c0.028,0.131,0.032,0.157-4.389,6.108
		c-2.936,3.953-7.163,9.645-8.359,11.51c1.4-1.556,4.935-6.307,7.622-9.917c5.82-7.82,6.097-8.078,6.449-8.004
		c0.084,0.018,0.191,0.07,0.214,0.217c0.043,0.272-0.229,0.824-0.777,1.637c0.283-0.342,0.534-0.638,0.756-0.89
		c0.817-0.931,1.161-1.212,1.417-1.159c0.054,0.011,0.09,0.047,0.098,0.094c0.021,0.125,0.024,0.141-2.407,3.144
		C58.576,31.519,51.407,40.369,51.614,41.6c0.003,0.022,0.009,0.035,0.017,0.046c0.723-0.532,3.866-4.806,6.406-8.261
		c1.781-2.423,3.623-4.929,5.088-6.807c2.398-3.076,2.852-3.272,3.166-3.207c0.078,0.016,0.128,0.066,0.141,0.142
		c0.08,0.467-1.597,2.594-5.438,7.335c-3.3,4.071-7.817,9.646-7.675,10.497c0.003,0.014,0.005,0.023,0.011,0.03
		c0.815-0.509,4.662-5.739,7.486-9.58c1.486-2.022,2.889-3.931,3.981-5.352c0.587-0.764,1.035-1.322,1.367-1.705
		c0.445-0.511,0.729-0.778,0.971-0.729c0.075,0.016,0.169,0.063,0.193,0.197C67.401,24.607,66.707,25.784,65.479,27.519z
		 M54.88,41.262c0.649-0.765,1.6-2.009,2.605-3.357C56.447,39.223,55.473,40.464,54.88,41.262z M54.091,25.75
		c-0.07,0.05-0.147,0.112-0.228,0.184c-0.028,0.077-0.063,0.161-0.109,0.254C53.889,26.015,54.002,25.867,54.091,25.75z
		 M50.05,30.821c1.164-1.495,2.215-2.892,2.834-3.838c-0.863,1.031-1.957,2.534-3.094,4.164
		C49.878,31.038,49.963,30.93,50.05,30.821z M53.023,30.403c1.743-2.154,3.539-4.373,3.939-5.027
		c-0.887,0.519-3.009,3.446-5.185,6.572C52.186,31.442,52.601,30.927,53.023,30.403z M47.099,41.509
		c0.054-0.068,0.108-0.138,0.164-0.21c0.035-0.053,0.07-0.108,0.107-0.163C47.277,41.264,47.185,41.389,47.099,41.509z
		 M48.858,39.792c-0.494,0.655-0.92,1.21-1.284,1.673c-0.238,0.366-0.402,0.657-0.476,0.851c0.592-0.739,1.992-2.66,3.459-4.674
		c0.716-0.983,1.497-2.055,2.296-3.146c-0.399,0.503-0.809,1.017-1.215,1.534C50.647,37.389,49.699,38.678,48.858,39.792z
		 M51.213,35.925c-0.376,0.508-0.755,1.021-1.127,1.522c0.366-0.471,0.753-0.968,1.167-1.49c0.902-1.237,1.811-2.493,2.64-3.636
		c0.312-0.431,0.608-0.839,0.887-1.224C53.81,32.417,52.633,34.009,51.213,35.925z M56.214,29.726
		c1.44-1.828,2.728-3.507,3.235-4.337C58.785,26.211,57.556,27.879,56.214,29.726z M62.468,24.709
		c-0.758,0.8-3.436,4.398-5.823,7.605c-0.544,0.733-1.095,1.472-1.64,2.202c0.311-0.378,0.632-0.768,0.966-1.171
		C58.83,29.881,62.37,25.593,62.468,24.709z M57.292,32.285c-0.312,0.38-0.635,0.771-0.968,1.175
		c-2.826,3.424-6.006,7.278-6.283,8.263c0.696-0.808,2.699-3.445,4.644-6.008C55.524,34.609,56.411,33.438,57.292,32.285z
		 M60.636,30.739c2.349-2.898,4.989-6.157,5.3-6.907c-0.995,0.754-4.747,5.859-7.524,9.637c-0.078,0.105-0.154,0.209-0.231,0.313
		C58.943,32.831,59.766,31.813,60.636,30.739z M43.72,26.365c-0.179,0.031-0.474-0.057-0.872-0.245v0.002
		c-0.015,0.078-0.066,0.128-0.139,0.141c-0.469,0.082-2.635-1.604-7.462-5.471c-0.052-0.041-0.105-0.084-0.158-0.126
		c-2.649-1.784-4.916-3.334-6.604-4.597c0.857,0.689,1.807,1.439,2.675,2.126c6.011,4.751,7.207,5.808,7.11,6.276
		c-0.012,0.058-0.047,0.13-0.146,0.147c-0.51,0.091-3-1.842-7.04-5.039c-1.037-0.821-2.189-1.734-3.17-2.484
		c5.292,4.317,6.804,5.746,6.691,6.295c-0.013,0.057-0.046,0.092-0.096,0.103c-0.181,0.036-0.789-0.395-4.071-2.883
		c-0.651-0.494-1.397-1.059-2.08-1.568c2.634,2.28,3.033,2.75,2.966,3.069c-0.011,0.057-0.044,0.092-0.095,0.102
		c-0.14,0.028-0.334-0.098-2.257-1.59c-0.544-0.422-1.249-0.968-1.792-1.369c0.356,0.352,0.771,0.749,1.083,1.048
		c0.287,0.273,0.556,0.531,0.75,0.723c0.313,0.308,0.456,0.448,0.419,0.625c-0.013,0.063-0.052,0.103-0.109,0.113
		c-0.16,0.024-0.425-0.176-1.399-0.986c-0.331-0.275-0.787-0.655-1.058-0.849c0.012,0.033,0.025,0.067,0.037,0.1
		c0.259,0.684,0.287,0.773,0.268,0.867c-0.011,0.053-0.049,0.093-0.096,0.1c-0.101,0.015-0.204-0.073-0.393-0.233
		c-0.052-0.044-0.131-0.112-0.157-0.127c0.054,0.034,0.161,0.039,0.184-0.073l-0.191-0.136l-0.191-0.137
		c0.011-0.055,0.049-0.093,0.096-0.1c0.065-0.01,0.128,0.023,0.22,0.094c-0.03-0.083-0.061-0.164-0.087-0.232
		c-0.183-0.481-0.194-0.511-0.177-0.592c0.014-0.066,0.055-0.109,0.115-0.118c0.117-0.019,0.298,0.083,0.703,0.397
		c-1.06-1.035-1.147-1.196-1.108-1.385c0.013-0.06,0.049-0.098,0.104-0.108c0.189-0.037,0.673,0.301,2.877,2.012
		c0.355,0.275,0.747,0.58,1.092,0.842c-0.782-0.73-1.945-1.729-2.628-2.315c-0.407-0.35-0.759-0.652-1.016-0.878
		c-0.402-0.357-0.567-0.504-0.527-0.698c0.012-0.058,0.047-0.095,0.098-0.104c0.198-0.041,0.946,0.487,4.442,3.137
		c1.24,0.94,2.717,2.06,3.425,2.547c-1.053-1.188-4.844-4.273-6.583-5.689L26,15.975c-0.568-0.472-0.703-0.584-0.662-0.785
		c0.015-0.068,0.058-0.114,0.122-0.124c0.355-0.065,1.936,1.151,5.728,4.152c2.32,1.836,5.733,4.537,6.576,4.896
		c-0.751-0.848-4.161-3.543-6.707-5.556c-5.279-4.175-5.726-4.607-5.653-4.958c0.011-0.052,0.038-0.115,0.099-0.154
		c-0.08-0.109-0.144-0.211-0.188-0.305c-0.105-0.218-0.105-0.371-0.087-0.459c0.011-0.053,0.047-0.092,0.095-0.1
		c0.143-0.024,0.267,0.053,3.814,2.903c0.528,0.425,1.107,0.891,1.722,1.383c1.193,0.927,2.557,2.013,4.072,3.225
		c0.099,0.077,0.196,0.153,0.293,0.229c0.264,0.178,0.524,0.353,0.778,0.524c4.01,2.694,5.972,4.044,6.604,4.739
		c0.385,0.204,0.677,0.315,0.855,0.317c-0.89-0.771-4.603-3.534-7.915-5.999c-2.557-1.903-5.201-3.871-7.219-5.414
		c-1.095-0.835-1.897-1.463-2.458-1.921c-0.91-0.745-1.097-0.954-1.051-1.176c0.014-0.068,0.057-0.112,0.119-0.125
		c0.447-0.087,3.226,1.998,9.461,6.776c3.582,2.744,8,6.128,8.801,6.462c-0.001-0.004-0.003-0.009-0.004-0.014
		c-0.199-0.419-0.988-1.139-2.111-2.022c-1.207-0.748-2.896-1.993-4.884-3.541c-0.697-0.483-1.4-0.969-2.087-1.443
		c-5.294-3.655-8.549-5.956-9.095-7.106c-0.1-0.211-0.1-0.359-0.082-0.444c0.013-0.063,0.051-0.103,0.109-0.113
		c0.268-0.045,1.343,0.789,5.47,4.127c1.729,1.399,3.803,3.076,5.751,4.592c2.068,1.44,3.74,2.634,4.964,3.599
		c0.703,0.433,1.214,0.672,1.447,0.633c0.048-0.008,0.062-0.031,0.067-0.045c-0.245-0.982-8.291-6.886-12.617-10.061
		c-1.454-1.066-2.708-1.986-3.615-2.672C25,8.855,24.878,8.711,24.925,8.479c0.011-0.056,0.047-0.092,0.096-0.104
		c0.16-0.034,0.919,0.44,3.089,2.001C24.6,7.8,24.478,7.599,24.532,7.338c0.012-0.058,0.046-0.13,0.146-0.148
		c0.152-0.026,0.458,0.11,0.943,0.417c-1.132-1.027-1.229-1.353-1.183-1.573c0.011-0.052,0.043-0.087,0.088-0.097
		c0.131-0.027,0.157-0.033,6.108,4.387c3.953,2.936,9.645,7.165,11.51,8.36c-1.558-1.401-6.306-4.935-9.917-7.622
		c-7.819-5.819-8.078-6.097-8.005-6.449c0.018-0.085,0.07-0.19,0.218-0.214c0.272-0.042,0.824,0.229,1.637,0.777
		c-0.342-0.283-0.638-0.534-0.89-0.756c-0.931-0.816-1.212-1.161-1.159-1.418c0.011-0.052,0.047-0.09,0.094-0.098
		c0.125-0.021,0.141-0.023,3.144,2.409C31.519,8.758,40.369,15.927,41.6,15.72c0.022-0.004,0.035-0.01,0.046-0.017
		c-0.532-0.724-4.806-3.866-8.261-6.405c-2.423-1.782-4.929-3.624-6.807-5.089c-3.075-2.399-3.271-2.853-3.207-3.166
		c0.016-0.079,0.067-0.129,0.142-0.142c0.468-0.079,2.594,1.597,7.335,5.439c4.071,3.299,9.646,7.816,10.497,7.674
		c0.014-0.002,0.023-0.005,0.03-0.01c-0.509-0.817-5.739-4.663-9.58-7.487c-2.021-1.485-3.931-2.889-5.352-3.981
		c-0.764-0.587-1.322-1.035-1.705-1.367c-0.511-0.443-0.778-0.73-0.729-0.969c0.016-0.077,0.063-0.171,0.197-0.195
		c0.4-0.072,1.576,0.623,3.311,1.85c-0.443-0.455-0.609-0.751-0.566-0.956c0.011-0.052,0.043-0.119,0.133-0.138
		c0.557-0.107,4.002,2.443,10.587,7.508c0.849,0.652,1.676,1.288,2.33,1.785c-1.509-1.322-4.096-3.403-5.856-4.82L31.866,3.39
		c-0.976-0.804-1.099-0.915-1.055-1.128c0.012-0.057,0.046-0.093,0.097-0.103c0.169-0.032,0.589,0.275,3.457,2.522
		c2.046,1.604,5.331,4.179,6.29,4.655c-0.62-0.644-2.394-2.144-3.626-3.188c-2.944-2.492-3.111-2.673-3.056-2.94
		c0.015-0.069,0.059-0.114,0.122-0.126c0.295-0.056,1.425,0.707,4.441,3.027c-0.362-0.316-0.698-0.608-0.956-0.84
		c-0.552-0.494-0.7-0.626-0.661-0.823c0.012-0.057,0.046-0.093,0.096-0.104c0.153-0.03,0.544,0.224,2.827,1.959
		c0.312,0.237,0.631,0.48,0.847,0.64c-0.052-0.247-0.123-0.582-0.177-0.84c-0.153-0.726-0.153-0.726-0.143-0.777
		c0.011-0.051,0.043-0.085,0.088-0.095c0.08-0.016,0.096-0.004,0.491,0.294c0.135,0.102,0.34,0.257,0.386,0.284
		c-0.064-0.039-0.166-0.034-0.189,0.075l0.192,0.138l0.191,0.137c-0.01,0.051-0.043,0.086-0.087,0.095
		c-0.085,0.018-0.124-0.01-0.584-0.357c-0.009-0.008-0.021-0.016-0.032-0.023c0.021,0.098,0.044,0.206,0.066,0.309
		c0.258,1.228,0.258,1.229,0.246,1.292c-0.011,0.051-0.044,0.087-0.088,0.095c-0.095,0.02-0.095,0.02-1.299-0.896
		c-0.119-0.09-0.252-0.191-0.395-0.299c0.515,0.449,1.021,0.894,1.436,1.267c0.874,0.789,1.021,0.963,0.978,1.164
		c-0.009,0.052-0.043,0.088-0.088,0.097c-0.098,0.018-0.098,0.018-1.631-1.175c-1.275-0.993-3.919-3.052-5.146-3.85
		c0.577,0.515,1.473,1.273,2.244,1.926c3.756,3.18,4.147,3.61,4.08,3.939c-0.013,0.055-0.044,0.123-0.138,0.141
		c-0.285,0.052-1.18-0.517-2.875-1.784c2.912,2.407,3.419,2.988,3.356,3.299c-0.011,0.052-0.046,0.088-0.09,0.097
		c-0.131,0.027-0.259-0.049-3.905-2.853c-3.249-2.5-9.179-7.06-10.179-7.391c0.607,0.866,4.82,3.967,7.938,6.262
		c6.046,4.451,7.168,5.388,7.064,5.89c-0.012,0.059-0.049,0.097-0.101,0.106c-0.225,0.041-1.055-0.577-5.557-4.131
		C33,6.416,25.34,0.367,24.456,0.45c0.654,0.714,4.239,3.35,7.424,5.692c8.263,6.075,10.02,7.516,9.896,8.113
		c-0.019,0.088-0.072,0.2-0.229,0.226c-0.264,0.043-0.789-0.191-1.539-0.658c1.696,1.34,2.106,1.824,2.046,2.118
		c-0.02,0.096-0.081,0.216-0.254,0.244c-0.333,0.057-1.058-0.283-2.063-0.909c0.191,0.147,0.375,0.29,0.547,0.422
		c0.616,0.481,1.066,0.839,1.374,1.094c0.402,0.334,0.666,0.557,0.621,0.782c-0.018,0.081-0.066,0.181-0.208,0.204
		c-0.159,0.024-0.424-0.067-0.789-0.269c0.266,0.217,0.498,0.413,0.698,0.585c0.831,0.717,1.081,1.025,1.029,1.27
		c-0.012,0.058-0.047,0.098-0.099,0.108c-0.337,0.071-2.994-1.815-12.364-8.774c-2.248-1.671-4.398-3.269-5.37-3.958
		c1.668,1.732,8.62,6.795,12.547,9.658c1.456,1.06,2.713,1.975,3.624,2.656c0.484,0.362,0.836,0.632,1.074,0.825
		c0.312,0.25,0.559,0.449,0.512,0.668c-0.015,0.071-0.059,0.164-0.185,0.185c-0.029,0.006-0.063,0.007-0.1,0.002
		c0.612,0.537,0.802,0.798,0.757,1.012c-0.011,0.051-0.046,0.089-0.089,0.098c-0.15,0.032-0.703-0.335-5.644-3.989
		c0.341,0.261,0.671,0.519,0.993,0.769c4.257,3.335,4.534,4.005,4.458,4.371c-0.02,0.095-0.078,0.215-0.251,0.244
		c-0.101,0.018-0.24-0.002-0.41-0.057c0.543,0.497,0.897,0.906,1.051,1.23c0.105,0.221,0.105,0.374,0.086,0.465
		c-0.013,0.065-0.056,0.109-0.117,0.121c-0.423,0.084-3.125-1.942-9.183-6.585c-3.101-2.376-6.81-5.218-8.409-6.265
		c1.729,1.42,6.096,4.671,9.74,7.382c8.4,6.254,8.393,6.293,8.329,6.6C43.943,26.221,43.885,26.337,43.72,26.365z M25.75,13.244
		c0.051,0.069,0.112,0.146,0.184,0.227c0.076,0.028,0.161,0.064,0.254,0.108C26.015,13.445,25.867,13.331,25.75,13.244z
		 M30.82,17.281c-1.495-1.162-2.892-2.212-3.837-2.833c1.031,0.863,2.534,1.957,4.163,3.093
		C31.037,17.455,30.928,17.368,30.82,17.281z M30.403,14.31c-2.154-1.743-4.373-3.538-5.028-3.939
		c0.52,0.888,3.447,3.01,6.573,5.187C31.442,15.148,30.927,14.732,30.403,14.31z M41.262,12.454
		c-0.765-0.65-2.009-1.601-3.356-2.605C39.223,10.886,40.464,11.86,41.262,12.454z M30.738,6.698c-2.897-2.35-6.156-4.99-6.906-5.3
		c0.754,0.994,5.859,4.746,9.637,7.523c0.105,0.078,0.21,0.154,0.313,0.231C32.832,8.391,31.814,7.568,30.738,6.698z M24.709,4.865
		c0.799,0.758,4.398,3.437,7.605,5.823c0.733,0.545,1.473,1.096,2.202,1.641c-0.378-0.311-0.767-0.632-1.171-0.965
		C29.881,8.504,25.593,4.964,24.709,4.865z M41.723,17.293c-0.808-0.695-3.445-2.699-6.008-4.644
		c-1.107-0.84-2.276-1.728-3.43-2.608c0.38,0.312,0.771,0.635,1.176,0.969C36.884,13.836,40.738,17.017,41.723,17.293z
		 M25.389,7.884c0.823,0.664,2.49,1.893,4.337,3.237C27.897,9.679,26.219,8.392,25.389,7.884z M31.098,12.555
		c1.32,0.969,2.912,2.146,4.828,3.565c0.508,0.376,1.019,0.755,1.52,1.127c-0.469-0.365-0.966-0.755-1.489-1.167
		c-1.236-0.902-2.492-1.811-3.635-2.639C31.89,13.129,31.483,12.834,31.098,12.555z M41.509,20.235
		c-0.068-0.054-0.138-0.109-0.21-0.165c-0.053-0.035-0.108-0.07-0.163-0.107C41.264,20.058,41.389,20.149,41.509,20.235z
		 M39.792,18.476c0.655,0.494,1.21,0.919,1.673,1.285c0.367,0.236,0.658,0.401,0.851,0.476c-0.739-0.594-2.66-1.993-4.674-3.46
		c-0.983-0.715-2.054-1.496-3.146-2.296c0.502,0.399,1.018,0.809,1.534,1.215C37.389,16.686,38.676,17.635,39.792,18.476z
		 M24.413,23.818c0.221-0.105,0.374-0.105,0.465-0.086c0.065,0.014,0.108,0.056,0.12,0.117c0.084,0.425-1.942,3.125-6.585,9.184
		c-2.376,3.101-5.217,6.81-6.265,8.409c1.42-1.729,4.671-6.097,7.382-9.74c6.254-8.4,6.293-8.392,6.6-8.329
		c0.092,0.019,0.206,0.077,0.235,0.242c0.031,0.179-0.057,0.475-0.245,0.871c0,0,0.002,0,0.002,0
		c0.078,0.015,0.128,0.066,0.141,0.14c0.082,0.469-1.604,2.634-5.471,7.462c-0.041,0.052-0.084,0.104-0.126,0.157
		c-1.784,2.648-3.334,4.915-4.597,6.605c0.689-0.858,1.439-1.807,2.126-2.676c4.751-6.01,5.808-7.206,6.276-7.109
		c0.058,0.012,0.13,0.047,0.148,0.146c0.091,0.511-1.844,3-5.04,7.039c-0.821,1.038-1.734,2.193-2.485,3.171
		c4.316-5.291,5.747-6.804,6.296-6.69c0.057,0.012,0.093,0.046,0.103,0.096c0.036,0.18-0.395,0.789-2.881,4.071
		c-0.495,0.65-1.06,1.396-1.569,2.078c2.279-2.635,2.75-3.032,3.069-2.965c0.056,0.011,0.093,0.045,0.102,0.095
		c0.027,0.14-0.098,0.334-1.59,2.258c-0.423,0.544-0.968,1.248-1.369,1.792c0.352-0.358,0.749-0.774,1.048-1.085
		c0.273-0.285,0.532-0.555,0.723-0.749c0.308-0.313,0.448-0.455,0.625-0.418c0.063,0.014,0.103,0.052,0.112,0.108
		c0.024,0.16-0.176,0.425-0.985,1.399c-0.275,0.332-0.655,0.788-0.849,1.058c0.034-0.013,0.067-0.026,0.1-0.038
		c0.685-0.259,0.773-0.286,0.867-0.267c0.054,0.011,0.093,0.049,0.101,0.097c0.015,0.099-0.075,0.203-0.233,0.391
		c-0.044,0.053-0.112,0.133-0.127,0.158c0.034-0.055,0.039-0.161-0.073-0.184l-0.136,0.191l-0.137,0.191
		c-0.055-0.011-0.093-0.049-0.1-0.096c-0.01-0.065,0.023-0.13,0.094-0.22c-0.083,0.031-0.164,0.063-0.232,0.087
		c-0.481,0.183-0.511,0.194-0.592,0.177c-0.066-0.016-0.109-0.055-0.118-0.117c-0.019-0.116,0.083-0.296,0.397-0.701
		c-1.035,1.059-1.196,1.146-1.385,1.109c-0.06-0.014-0.099-0.05-0.108-0.104c-0.037-0.19,0.301-0.673,2.012-2.878
		c0.275-0.355,0.58-0.746,0.842-1.092c-0.731,0.781-1.729,1.945-2.314,2.627c-0.351,0.406-0.653,0.759-0.879,1.015
		c-0.355,0.402-0.503,0.568-0.697,0.528c-0.058-0.012-0.095-0.045-0.105-0.097c-0.04-0.2,0.488-0.947,3.138-4.442
		c0.94-1.241,2.06-2.718,2.548-3.426c-1.188,1.053-4.274,4.843-5.69,6.583l-1.125,1.373c-0.472,0.569-0.584,0.703-0.785,0.662
		c-0.068-0.014-0.114-0.058-0.124-0.122c-0.065-0.356,1.151-1.936,4.152-5.728c1.836-2.32,4.537-5.733,4.896-6.576
		c-0.849,0.75-3.544,4.161-5.556,6.705c-4.174,5.281-4.607,5.727-4.958,5.655c-0.052-0.012-0.115-0.039-0.154-0.101
		c-0.109,0.081-0.211,0.145-0.305,0.189c-0.218,0.105-0.371,0.105-0.459,0.087c-0.053-0.011-0.092-0.047-0.1-0.095
		c-0.024-0.142,0.053-0.267,2.903-3.814c0.424-0.528,0.888-1.105,1.38-1.719c0.929-1.194,2.017-2.561,3.231-4.079
		c0.075-0.097,0.15-0.194,0.225-0.29c0.178-0.264,0.354-0.524,0.524-0.778c2.694-4.01,4.044-5.973,4.739-6.604
		c0.204-0.385,0.316-0.677,0.317-0.854c-0.771,0.89-3.534,4.603-5.999,7.915c-1.903,2.557-3.871,5.201-5.414,7.219
		c-0.835,1.094-1.463,1.897-1.922,2.458c-0.744,0.911-0.953,1.098-1.175,1.052c-0.068-0.015-0.112-0.056-0.125-0.119
		c-0.087-0.446,1.999-3.227,6.776-9.461c2.744-3.582,6.128-7.999,6.462-8.801c-0.004,0.002-0.009,0.004-0.014,0.005
		c-0.42,0.199-1.139,0.988-2.021,2.11c-0.749,1.208-1.994,2.896-3.542,4.886c-0.482,0.696-0.968,1.399-1.443,2.086
		c-3.654,5.295-5.955,8.551-7.105,9.096c-0.212,0.099-0.359,0.099-0.444,0.083c-0.063-0.014-0.103-0.052-0.113-0.11
		c-0.044-0.268,0.789-1.343,4.127-5.47c1.399-1.73,3.076-3.803,4.592-5.75c1.44-2.071,2.634-3.743,3.601-4.966
		c0.432-0.703,0.669-1.214,0.631-1.445c-0.008-0.05-0.031-0.064-0.046-0.068c-0.982,0.245-6.886,8.291-10.061,12.617
		c-1.066,1.453-1.986,2.707-2.672,3.615c-1.14,1.509-1.284,1.632-1.516,1.583c-0.056-0.011-0.092-0.046-0.104-0.095
		c-0.034-0.161,0.44-0.919,2.001-3.09c-2.577,3.511-2.778,3.634-3.038,3.58C7.28,42.79,7.208,42.755,7.19,42.656
		c-0.026-0.151,0.11-0.458,0.419-0.944c-1.029,1.133-1.354,1.229-1.575,1.184c-0.052-0.011-0.087-0.044-0.097-0.087
		c-0.028-0.132-0.034-0.159,4.387-6.109c2.936-3.953,7.165-9.645,8.36-11.51c-1.401,1.558-4.935,6.307-7.622,9.918
		c-5.82,7.818-6.097,8.077-6.449,8.003c-0.085-0.018-0.19-0.07-0.214-0.217c-0.042-0.273,0.229-0.825,0.777-1.638
		c-0.283,0.341-0.534,0.638-0.755,0.89c-0.816,0.932-1.161,1.212-1.418,1.16c-0.052-0.011-0.09-0.047-0.098-0.094
		c-0.021-0.125-0.023-0.141,2.408-3.144c3.445-4.252,10.614-13.104,10.408-14.333c-0.004-0.021-0.01-0.036-0.017-0.047
		c-0.724,0.532-3.866,4.806-6.405,8.261c-1.782,2.424-3.624,4.93-5.089,6.808c-2.399,3.074-2.853,3.271-3.165,3.206
		c-0.079-0.015-0.129-0.066-0.143-0.141c-0.079-0.468,1.597-2.593,5.439-7.335c3.299-4.071,7.816-9.646,7.674-10.497
		c-0.002-0.014-0.005-0.022-0.009-0.03c-0.817,0.509-4.663,5.739-7.487,9.58c-1.485,2.022-2.889,3.93-3.981,5.35
		c-0.587,0.766-1.035,1.324-1.368,1.707c-0.443,0.511-0.731,0.779-0.969,0.728c-0.077-0.016-0.171-0.062-0.195-0.196
		c-0.072-0.4,0.623-1.578,1.85-3.312c-0.455,0.445-0.751,0.61-0.956,0.567c-0.052-0.011-0.119-0.042-0.137-0.133
		c-0.108-0.557,2.443-4.003,7.508-10.587c0.651-0.85,1.288-1.675,1.785-2.331c-1.323,1.51-3.403,4.097-4.822,5.857l-1.843,2.28
		c-0.803,0.976-0.913,1.098-1.127,1.056c-0.057-0.012-0.093-0.046-0.103-0.098c-0.032-0.169,0.275-0.588,2.522-3.456
		c1.604-2.046,4.179-5.332,4.655-6.29c-0.644,0.62-2.144,2.392-3.188,3.626c-2.492,2.944-2.673,3.11-2.94,3.055
		c-0.069-0.015-0.114-0.058-0.125-0.122c-0.056-0.295,0.707-1.426,3.027-4.441C5.792,29.16,5.5,29.494,5.268,29.754
		c-0.493,0.552-0.626,0.7-0.823,0.66c-0.057-0.012-0.093-0.045-0.104-0.096c-0.03-0.154,0.224-0.544,1.96-2.827
		c0.237-0.312,0.479-0.63,0.639-0.845c-0.246,0.051-0.583,0.122-0.84,0.176c-0.726,0.153-0.726,0.153-0.777,0.143
		c-0.051-0.011-0.085-0.042-0.095-0.087c-0.015-0.081-0.004-0.096,0.294-0.491C5.625,26.25,5.78,26.044,5.807,26
		c-0.039,0.064-0.034,0.166,0.075,0.188l0.138-0.192l0.137-0.191c0.051,0.011,0.086,0.043,0.095,0.087
		c0.018,0.086-0.011,0.124-0.357,0.584c-0.008,0.009-0.016,0.02-0.024,0.032c0.098-0.021,0.207-0.044,0.309-0.066
		c1.228-0.258,1.229-0.258,1.292-0.246c0.051,0.011,0.087,0.043,0.095,0.088c0.02,0.095,0.02,0.095-0.896,1.299
		c-0.09,0.118-0.191,0.252-0.299,0.394c0.449-0.515,0.894-1.021,1.267-1.435c0.789-0.874,0.963-1.02,1.164-0.979
		c0.052,0.01,0.087,0.044,0.096,0.089c0.019,0.099,0.019,0.099-1.175,1.631c-0.993,1.276-3.052,3.92-3.85,5.146
		c0.515-0.577,1.273-1.472,1.926-2.244c3.18-3.756,3.61-4.147,3.939-4.079c0.055,0.011,0.123,0.043,0.141,0.137
		c0.052,0.284-0.517,1.18-1.784,2.875c2.407-2.912,2.988-3.42,3.299-3.356c0.052,0.012,0.088,0.046,0.097,0.091
		c0.026,0.132-0.049,0.257-2.853,3.904c-2.5,3.25-7.06,9.18-7.391,10.179C2.112,39.33,5.214,35.117,7.508,32
		c4.451-6.046,5.388-7.168,5.89-7.064c0.059,0.012,0.097,0.048,0.106,0.102c0.041,0.224-0.576,1.054-4.131,5.555
		C6.416,34.334,0.367,41.993,0.45,42.878c0.714-0.654,3.35-4.24,5.692-7.426c6.075-8.262,7.516-10.019,8.113-9.896
		c0.088,0.019,0.2,0.073,0.225,0.23c0.044,0.264-0.191,0.789-0.657,1.539c1.341-1.696,1.825-2.105,2.118-2.045
		c0.096,0.019,0.216,0.08,0.245,0.252c0.057,0.333-0.283,1.059-0.908,2.063c0.146-0.191,0.289-0.374,0.421-0.546
		c0.481-0.617,0.839-1.066,1.094-1.373c0.335-0.403,0.557-0.668,0.782-0.623c0.081,0.018,0.181,0.066,0.204,0.207
		c0.026,0.16-0.068,0.425-0.269,0.79c0.217-0.265,0.413-0.497,0.584-0.698c0.718-0.83,1.026-1.081,1.271-1.03
		c0.058,0.012,0.098,0.048,0.108,0.1c0.071,0.337-1.815,2.994-8.774,12.363c-1.671,2.248-3.268,4.398-3.957,5.369
		c1.732-1.668,6.795-8.618,9.658-12.547c1.06-1.456,1.976-2.713,2.656-3.623c0.362-0.484,0.632-0.835,0.825-1.075
		c0.25-0.312,0.449-0.558,0.668-0.512c0.071,0.015,0.164,0.059,0.185,0.186c0.006,0.028,0.007,0.062,0.002,0.099
		c0.537-0.612,0.798-0.801,1.012-0.757c0.051,0.011,0.089,0.046,0.098,0.089c0.032,0.15-0.335,0.703-3.992,5.646
		c0.263-0.341,0.521-0.673,0.771-0.994c3.335-4.257,4.005-4.534,4.371-4.458c0.096,0.02,0.216,0.08,0.245,0.251
		c0.018,0.101-0.003,0.24-0.057,0.411C23.679,24.327,24.088,23.972,24.413,23.818z M13.243,41.585
		c0.069-0.053,0.146-0.113,0.228-0.185c0.027-0.075,0.063-0.161,0.108-0.252C13.445,41.319,13.331,41.466,13.243,41.585z
		 M17.283,36.511c-1.164,1.497-2.215,2.894-2.835,3.84c0.864-1.03,1.957-2.534,3.095-4.164
		C17.457,36.296,17.37,36.404,17.283,36.511z M14.31,36.93c-1.743,2.153-3.538,4.374-3.94,5.028
		c0.889-0.521,3.011-3.446,5.187-6.572C15.148,35.892,14.732,36.407,14.31,36.93z M6.698,36.593c-2.35,2.9-4.99,6.158-5.3,6.908
		c0.994-0.754,4.746-5.858,7.523-9.637C9,33.759,9.075,33.653,9.152,33.55C8.391,34.502,7.568,35.52,6.698,36.593z M12.454,26.071
		c-0.65,0.765-1.601,2.01-2.605,3.356C10.886,28.111,11.86,26.87,12.454,26.071z M4.865,42.625c0.758-0.801,3.437-4.399,5.823-7.606
		c0.545-0.732,1.096-1.472,1.641-2.202c-0.311,0.378-0.632,0.768-0.965,1.171C8.504,37.453,4.964,41.741,4.865,42.625z
		 M12.649,31.62c-0.84,1.106-1.728,2.276-2.608,3.429c0.312-0.378,0.635-0.771,0.969-1.175c2.826-3.424,6.006-7.279,6.283-8.262
		C16.597,26.418,14.594,29.056,12.649,31.62z M7.884,41.946c0.664-0.822,1.894-2.491,3.236-4.337
		C9.679,39.435,8.392,41.114,7.884,41.946z M12.553,36.237c0.97-1.319,2.147-2.911,3.567-4.829c0.377-0.508,0.756-1.019,1.128-1.522
		c-0.366,0.471-0.756,0.968-1.167,1.49c-0.902,1.237-1.811,2.492-2.639,3.637C13.128,35.443,12.833,35.852,12.553,36.237z
		 M20.234,25.825c-0.054,0.068-0.109,0.138-0.165,0.209c-0.034,0.053-0.069,0.108-0.106,0.164
		C20.057,26.069,20.149,25.944,20.234,25.825z M18.476,27.541c0.494-0.655,0.918-1.21,1.284-1.673
		c0.237-0.366,0.402-0.658,0.475-0.851c-0.593,0.739-1.992,2.66-3.458,4.674c-0.715,0.983-1.497,2.053-2.297,3.145
		c0.4-0.502,0.809-1.019,1.217-1.534C16.687,29.945,17.635,28.655,18.476,27.541z M23.614,40.969
		c0.179-0.03,0.475,0.057,0.871,0.245c0,0,0-0.001,0-0.001c0.016-0.079,0.065-0.129,0.14-0.141c0.469-0.083,2.634,1.603,7.462,5.47
		c0.052,0.042,0.104,0.084,0.157,0.127c2.649,1.783,4.915,3.334,6.604,4.597c-0.857-0.689-1.806-1.44-2.676-2.127
		c-6.01-4.751-7.206-5.808-7.109-6.277c0.012-0.057,0.047-0.129,0.146-0.146c0.511-0.093,3,1.843,7.039,5.04
		c1.038,0.82,2.191,1.735,3.171,2.484c-5.291-4.315-6.804-5.746-6.69-6.294c0.011-0.058,0.045-0.093,0.094-0.104
		c0.181-0.037,0.79,0.395,4.072,2.883c0.65,0.494,1.397,1.059,2.078,1.568c-2.635-2.28-3.032-2.75-2.966-3.069
		c0.011-0.058,0.045-0.093,0.095-0.103c0.14-0.028,0.334,0.098,2.258,1.589c0.544,0.423,1.248,0.969,1.792,1.37
		c-0.358-0.351-0.774-0.749-1.085-1.049c-0.284-0.272-0.555-0.53-0.749-0.722c-0.313-0.309-0.455-0.448-0.418-0.625
		c0.014-0.063,0.052-0.103,0.108-0.111c0.16-0.025,0.425,0.174,1.399,0.984c0.33,0.275,0.788,0.654,1.058,0.849
		c-0.013-0.033-0.026-0.067-0.038-0.1c-0.259-0.684-0.286-0.773-0.268-0.867c0.012-0.053,0.051-0.093,0.098-0.099
		c0.099-0.016,0.203,0.073,0.391,0.232c0.052,0.044,0.131,0.112,0.158,0.129c-0.055-0.035-0.161-0.04-0.184,0.071l0.191,0.137
		l0.191,0.137c-0.011,0.054-0.049,0.092-0.096,0.1c-0.064,0.009-0.129-0.024-0.22-0.093c0.03,0.082,0.06,0.163,0.087,0.23
		c0.183,0.482,0.194,0.511,0.177,0.592c-0.015,0.067-0.055,0.109-0.116,0.118c-0.117,0.017-0.298-0.083-0.702-0.396
		c1.059,1.034,1.146,1.195,1.109,1.384c-0.014,0.06-0.05,0.099-0.105,0.108c-0.189,0.037-0.672-0.303-2.877-2.012
		c-0.355-0.275-0.747-0.58-1.092-0.841c0.781,0.729,1.945,1.728,2.627,2.315c0.406,0.348,0.76,0.651,1.015,0.877
		c0.402,0.354,0.568,0.503,0.528,0.697c-0.012,0.058-0.045,0.095-0.097,0.105c-0.2,0.04-0.947-0.488-4.442-3.138
		c-1.241-0.94-2.718-2.06-3.426-2.547c1.053,1.188,4.843,4.274,6.583,5.689l1.374,1.125c0.569,0.472,0.703,0.585,0.662,0.785
		c-0.015,0.07-0.058,0.114-0.122,0.125c-0.356,0.065-1.937-1.151-5.729-4.153c-2.32-1.834-5.733-4.536-6.576-4.896
		c0.751,0.85,4.161,3.544,6.705,5.557c5.281,4.175,5.727,4.607,5.654,4.958c-0.011,0.052-0.039,0.115-0.099,0.153
		c0.081,0.11,0.145,0.212,0.189,0.306c0.105,0.219,0.105,0.37,0.087,0.458c-0.011,0.054-0.047,0.092-0.094,0.101
		c-0.142,0.024-0.267-0.052-3.814-2.904c-0.528-0.424-1.107-0.891-1.722-1.383c-1.192-0.928-2.558-2.014-4.073-3.226
		c-0.097-0.075-0.195-0.152-0.293-0.228c-0.265-0.178-0.525-0.354-0.778-0.523c-4.01-2.695-5.973-4.045-6.604-4.741
		c-0.385-0.204-0.677-0.315-0.854-0.317c0.889,0.771,4.602,3.535,7.914,6c2.556,1.902,5.201,3.873,7.219,5.413
		c1.094,0.835,1.898,1.463,2.458,1.921c0.911,0.746,1.098,0.954,1.052,1.178c-0.016,0.067-0.056,0.109-0.12,0.122
		c-0.446,0.088-3.227-1.998-9.46-6.774c-3.582-2.743-8-6.129-8.802-6.463c0.002,0.005,0.004,0.01,0.005,0.014
		c0.199,0.42,0.988,1.14,2.11,2.022c1.208,0.748,2.896,1.992,4.886,3.54c0.696,0.484,1.399,0.969,2.086,1.443
		c5.295,3.655,8.549,5.956,9.096,7.106c0.099,0.212,0.099,0.359,0.081,0.444c-0.012,0.063-0.05,0.103-0.108,0.113
		c-0.268,0.044-1.343-0.789-5.47-4.128c-1.73-1.398-3.803-3.076-5.752-4.591c-2.068-1.44-3.741-2.633-4.964-3.599
		c-0.703-0.432-1.214-0.67-1.445-0.632c-0.05,0.008-0.064,0.031-0.068,0.046c0.245,0.982,8.291,6.886,12.617,10.061
		c1.453,1.066,2.705,1.985,3.615,2.673c1.51,1.139,1.632,1.284,1.583,1.515c-0.012,0.057-0.046,0.095-0.096,0.104
		c-0.161,0.034-0.918-0.44-3.089-2.001c3.511,2.578,3.634,2.778,3.58,3.039c-0.012,0.058-0.047,0.13-0.146,0.148
		c-0.151,0.026-0.457-0.11-0.944-0.419c1.133,1.029,1.229,1.355,1.184,1.575c-0.011,0.052-0.044,0.087-0.087,0.098
		c-0.132,0.028-0.159,0.033-6.109-4.388c-3.953-2.936-9.645-7.163-11.51-8.359c1.558,1.4,6.307,4.935,9.918,7.622
		c7.82,5.82,8.078,6.097,8.004,6.449c-0.018,0.084-0.07,0.191-0.217,0.214c-0.272,0.044-0.824-0.229-1.638-0.777
		c0.341,0.283,0.638,0.533,0.89,0.756c0.93,0.817,1.213,1.161,1.16,1.417c-0.011,0.054-0.047,0.091-0.094,0.098
		c-0.125,0.021-0.141,0.024-3.144-2.407c-4.253-3.445-13.104-10.615-14.333-10.408c-0.021,0.003-0.036,0.009-0.047,0.017
		c0.533,0.723,4.806,3.866,8.261,6.406c2.424,1.782,4.931,3.624,6.809,5.089c3.073,2.397,3.271,2.852,3.205,3.166
		c-0.015,0.078-0.066,0.128-0.141,0.14c-0.468,0.08-2.593-1.596-7.335-5.438c-4.071-3.3-9.646-7.817-10.497-7.675
		c-0.013,0.003-0.022,0.005-0.03,0.01c0.508,0.817,5.739,4.663,9.579,7.487c2.022,1.486,3.931,2.889,5.351,3.981
		c0.766,0.587,1.322,1.035,1.706,1.367c0.511,0.445,0.779,0.729,0.728,0.971c-0.015,0.075-0.062,0.169-0.196,0.193
		c-0.4,0.072-1.578-0.622-3.312-1.85c0.445,0.455,0.61,0.751,0.567,0.956c-0.011,0.052-0.042,0.12-0.133,0.138
		c-0.557,0.107-4.002-2.443-10.587-7.509c-0.85-0.651-1.675-1.287-2.331-1.784c1.51,1.323,4.097,3.404,5.857,4.822l2.279,1.843
		c0.977,0.804,1.099,0.915,1.056,1.128c-0.012,0.056-0.047,0.094-0.098,0.102c-0.169,0.032-0.589-0.275-3.456-2.521
		c-2.046-1.604-5.332-4.18-6.289-4.655c0.619,0.644,2.391,2.144,3.625,3.188c2.944,2.493,3.11,2.673,3.055,2.94
		c-0.015,0.069-0.058,0.113-0.122,0.126c-0.295,0.056-1.425-0.707-4.439-3.026c0.361,0.315,0.695,0.607,0.955,0.839
		c0.552,0.494,0.7,0.625,0.66,0.825c-0.012,0.055-0.045,0.091-0.096,0.103c-0.154,0.03-0.543-0.224-2.828-1.959
		c-0.311-0.238-0.63-0.48-0.845-0.64c0.051,0.245,0.122,0.582,0.176,0.84c0.153,0.727,0.153,0.727,0.143,0.776
		c-0.011,0.052-0.042,0.085-0.086,0.095c-0.082,0.016-0.097,0.005-0.492-0.294c-0.135-0.1-0.341-0.257-0.386-0.283
		c0.064,0.038,0.166,0.034,0.188-0.075l-0.192-0.137l-0.191-0.138c0.011-0.05,0.043-0.086,0.087-0.095
		c0.085-0.019,0.124,0.01,0.584,0.357c0.01,0.007,0.021,0.015,0.032,0.025c-0.021-0.101-0.044-0.208-0.065-0.311
		c-0.259-1.228-0.259-1.229-0.247-1.292c0.011-0.05,0.043-0.085,0.089-0.095c0.095-0.018,0.095-0.018,1.298,0.896
		c0.118,0.09,0.252,0.192,0.395,0.3c-0.516-0.45-1.022-0.895-1.436-1.268c-0.874-0.789-1.02-0.963-0.979-1.164
		c0.01-0.052,0.043-0.087,0.089-0.096c0.099-0.019,0.099-0.019,1.631,1.176c1.276,0.992,3.919,3.052,5.146,3.851
		c-0.578-0.517-1.472-1.273-2.244-1.927c-3.756-3.179-4.147-3.609-4.08-3.939c0.012-0.056,0.045-0.123,0.138-0.141
		c0.285-0.052,1.18,0.517,2.875,1.785c-2.912-2.408-3.42-2.989-3.356-3.298c0.012-0.053,0.045-0.089,0.091-0.098
		c0.132-0.025,0.257,0.049,3.903,2.853c3.251,2.5,9.181,7.061,10.18,7.391c-0.607-0.866-4.82-3.968-7.938-6.262
		c-6.045-4.45-7.167-5.385-7.063-5.891c0.012-0.058,0.048-0.096,0.102-0.105c0.224-0.041,1.054,0.576,5.555,4.133
		c3.742,2.956,11.4,9.005,12.285,8.922c-0.652-0.715-4.238-3.351-7.424-5.691c-8.262-6.076-10.019-7.517-9.896-8.114
		c0.019-0.089,0.073-0.198,0.23-0.227c0.263-0.042,0.789,0.193,1.539,0.659c-1.696-1.341-2.107-1.826-2.046-2.118
		c0.021-0.097,0.08-0.216,0.253-0.245c0.334-0.057,1.059,0.282,2.063,0.908c-0.191-0.146-0.374-0.289-0.547-0.421
		c-0.616-0.481-1.065-0.838-1.372-1.094c-0.403-0.334-0.669-0.557-0.623-0.781c0.018-0.082,0.066-0.182,0.208-0.206
		c0.16-0.024,0.424,0.067,0.789,0.269c-0.264-0.217-0.497-0.413-0.697-0.585c-0.83-0.718-1.081-1.027-1.03-1.271
		c0.012-0.058,0.048-0.097,0.1-0.107c0.337-0.072,2.994,1.815,12.363,8.774c2.248,1.671,4.398,3.267,5.369,3.956
		c-1.668-1.732-8.618-6.793-12.547-9.656c-1.456-1.062-2.713-1.976-3.622-2.656c-0.484-0.362-0.836-0.632-1.076-0.824
		c-0.312-0.25-0.558-0.45-0.512-0.668c0.015-0.071,0.059-0.164,0.186-0.185c0.029-0.006,0.063-0.006,0.099-0.003
		c-0.612-0.535-0.801-0.797-0.756-1.011c0.009-0.051,0.045-0.089,0.088-0.098c0.15-0.032,0.702,0.335,5.644,3.99
		c-0.34-0.262-0.672-0.52-0.992-0.771c-4.257-3.333-4.534-4.004-4.458-4.369c0.019-0.097,0.08-0.216,0.251-0.245
		c0.101-0.017,0.239,0.002,0.41,0.056c-0.543-0.496-0.898-0.905-1.051-1.23c-0.105-0.221-0.105-0.374-0.087-0.464
		c0.014-0.066,0.056-0.109,0.117-0.121c0.424-0.084,3.125,1.942,9.184,6.585c3.101,2.376,6.81,5.219,8.409,6.265
		c-1.729-1.419-6.096-4.671-9.74-7.383c-8.401-6.253-8.393-6.292-8.329-6.599C23.391,41.112,23.448,40.998,23.614,40.969z
		 M40.351,52.885c-1.03-0.863-2.534-1.957-4.163-3.094c0.108,0.088,0.215,0.175,0.325,0.26
		C38.008,51.214,39.405,52.265,40.351,52.885z M41.585,54.091c-0.053-0.07-0.113-0.147-0.185-0.228
		c-0.077-0.028-0.161-0.063-0.255-0.109C41.319,53.889,41.466,54.002,41.585,54.091z M29.427,57.485
		c-1.316-1.038-2.559-2.012-3.356-2.605C26.836,55.53,28.081,56.48,29.427,57.485z M36.593,60.636
		c2.9,2.349,6.158,4.989,6.908,5.301c-0.754-0.995-5.858-4.747-9.637-7.524c-0.105-0.078-0.21-0.154-0.314-0.231
		C34.502,58.942,35.52,59.766,36.593,60.636z M31.62,54.684c1.106,0.84,2.276,1.729,3.43,2.609c-0.379-0.313-0.772-0.636-1.176-0.97
		c-3.424-2.826-7.279-6.006-8.262-6.283C26.418,50.736,29.056,52.739,31.62,54.684z M33.987,55.97
		c3.466,2.86,7.754,6.399,8.638,6.498c-0.799-0.758-4.399-3.436-7.606-5.822c-0.732-0.545-1.473-1.096-2.202-1.641
		C33.195,55.315,33.585,55.639,33.987,55.97z M35.013,53.892c0.431,0.313,0.838,0.608,1.224,0.887
		c-1.321-0.969-2.913-2.146-4.829-3.566c-0.508-0.376-1.019-0.754-1.521-1.125c0.47,0.364,0.967,0.754,1.49,1.165
		C32.614,52.155,33.869,53.063,35.013,53.892z M37.609,56.213c1.826,1.441,3.505,2.729,4.337,3.236
		C41.124,58.785,39.455,57.556,37.609,56.213z M29.691,50.557c0.983,0.715,2.053,1.497,3.145,2.296
		c-0.501-0.399-1.019-0.809-1.534-1.215c-1.358-0.991-2.647-1.939-3.762-2.781c-0.655-0.494-1.21-0.92-1.673-1.284
		c-0.367-0.237-0.658-0.402-0.851-0.475C25.756,47.69,27.677,49.09,29.691,50.557z M26.198,47.37
		c-0.129-0.093-0.254-0.185-0.373-0.271c0.067,0.054,0.137,0.107,0.208,0.164C26.087,47.298,26.142,47.333,26.198,47.37z
		 M36.93,53.023c2.155,1.743,4.374,3.539,5.028,3.941c-0.52-0.889-3.446-3.011-6.574-5.188
		C35.892,52.186,36.407,52.601,36.93,53.023z"/>
</g>
<g id="Layer_1">
	<g>
		<path fill="#FFFFFF" d="M109.906,52.144c-4.353,0-7.904-0.736-10.656-2.208c-3.521-1.92-5.28-4.927-5.28-9.024V38.8h4.608v1.968
			c0,4.8,3.785,7.2,11.354,7.2c2.758,0,5.003-0.384,6.736-1.152c2.052-0.864,3.079-2.16,3.079-3.888c0-1.248-0.32-2.16-0.96-2.736
			c-0.641-0.576-1.776-1.087-3.408-1.536c-0.96-0.256-3.216-0.736-6.768-1.44c-4.192-0.832-7.056-1.616-8.592-2.352
			c-3.296-1.568-4.944-3.936-4.944-7.104c0-5.888,4.639-8.832,13.92-8.832c9.664,0,14.56,3.952,14.688,11.856h-4.512
			c-0.224-3.392-1.216-5.536-2.976-6.432c-1.568-0.832-3.968-1.248-7.2-1.248c-6.208,0-9.312,1.553-9.312,4.656
			c0,1.472,0.736,2.576,2.208,3.312c1.216,0.576,3.343,1.12,6.384,1.632c5.952,0.992,9.952,2.064,12,3.216
			c2.72,1.536,4.08,3.905,4.08,7.104c0,3.233-1.712,5.648-5.136,7.248C116.625,51.52,113.521,52.144,109.906,52.144z"/>
		<path fill="#FFFFFF" d="M148.642,49.408c-2.336,2.496-5.584,3.744-9.744,3.744c-3.36,0-6.176-0.912-8.448-2.736v9.456h-4.608
			V28.336h4.608v2.16c2.271-1.792,5.071-2.688,8.4-2.688c4.128,0,7.375,1.2,9.744,3.6c2.208,2.304,3.312,5.296,3.312,8.976
			C151.905,44.128,150.817,47.136,148.642,49.408z M145.167,34.343c-1.42-1.572-3.439-2.359-6.055-2.359
			c-2.681,0-4.795,0.771-6.342,2.311c-1.548,1.541-2.321,3.562-2.321,6.065c0,5.745,2.872,8.616,8.615,8.616
			c2.648,0,4.706-0.802,6.174-2.407c1.372-1.508,2.058-3.546,2.058-6.113C147.297,37.953,146.587,35.916,145.167,34.343z"/>
		<path fill="#FFFFFF" d="M156.033,41.872c0.544,4.256,3.36,6.384,8.448,6.384c4.159,0,6.96-1.744,8.4-5.232h4.752
			c-1.344,3.873-3.248,6.432-5.712,7.68c-2.145,1.088-4.656,1.632-7.536,1.632c-4.256,0-7.52-1.135-9.792-3.408
			c-2.176-2.144-3.264-5.072-3.264-8.784c0-3.552,1.2-6.496,3.6-8.832c2.4-2.335,5.632-3.504,9.696-3.504
			c3.967,0,7.167,1.04,9.6,3.12c2.432,2.081,3.648,4.864,3.648,8.352v2.592H156.033z M170.769,33.952
			c-1.472-1.375-3.521-2.064-6.144-2.064c-2.625,0-4.688,0.688-6.192,2.064c-1.152,1.056-1.904,2.352-2.256,3.888h16.704
			C172.593,36.304,171.889,35.008,170.769,33.952z"/>
		<path fill="#26944F" d="M207.825,28.432c-1.409-1.92-3-3.288-4.776-4.104c-1.776-0.816-3.992-1.224-6.648-1.224
			c-4.32,0-7.736,1.128-10.248,3.384c-2.512,2.256-3.768,5.288-3.768,9.096c0,3.776,1.192,6.785,3.576,9.024
			c2.383,2.24,5.688,3.36,9.912,3.36c2.527,0,4.696-0.416,6.504-1.248c1.808-0.832,3.496-2.208,5.064-4.128l3.936,2.352
			c-3.968,4.8-9.12,7.2-15.456,7.2c-5.504,0-9.904-1.479-13.2-4.44c-3.296-2.959-4.944-6.936-4.944-11.928
			c0-5.151,1.696-9.247,5.088-12.288c3.392-3.04,7.904-4.56,13.536-4.56c6.592,0,11.696,2.384,15.312,7.152L207.825,28.432z"/>
		<path fill="#FFFFFF" d="M220.208,33.04v18.768h-4.608V33.04h-4.8v-4.176h4.8v-6.528h4.608v6.528h4.848v4.176H220.208z"/>
		<path fill="#FFFFFF" d="M231.776,35.008c-1.28,1.824-1.92,4.208-1.92,7.152v9.648h-4.608v-23.52h4.608v2.16
			c2.271-1.76,5.68-2.64,10.224-2.64v4.08C235.983,31.888,233.216,32.928,231.776,35.008z"/>
		<path fill="#FFFFFF" d="M243.631,41.872c0.544,4.256,3.36,6.384,8.448,6.384c4.159,0,6.96-1.744,8.4-5.232h4.752
			c-1.344,3.873-3.248,6.432-5.712,7.68c-2.145,1.088-4.656,1.632-7.536,1.632c-4.256,0-7.52-1.135-9.792-3.408
			c-2.176-2.144-3.264-5.072-3.264-8.784c0-3.552,1.2-6.496,3.6-8.832c2.4-2.335,5.632-3.504,9.696-3.504
			c3.967,0,7.167,1.04,9.6,3.12c2.432,2.081,3.648,4.864,3.648,8.352v2.592H243.631z M258.367,33.952
			c-1.472-1.375-3.521-2.064-6.144-2.064c-2.625,0-4.688,0.688-6.192,2.064c-1.152,1.056-1.904,2.352-2.256,3.888h16.704
			C260.191,36.304,259.487,35.008,258.367,33.952z"/>
	</g>
</g>
</svg>
