<?xml version="1.0" encoding="utf-8"?>
<!-- Generator: Adobe Illustrator 16.0.0, SVG Export Plug-In . SVG Version: 6.00 Build 0)  -->
<!DOCTYPE svg PUBLIC "-//W3C//DTD SVG 1.1//EN" "http://www.w3.org/Graphics/SVG/1.1/DTD/svg11.dtd">
<svg version="1.1" id="Layer_1" xmlns="http://www.w3.org/2000/svg" xmlns:xlink="http://www.w3.org/1999/xlink" x="0px" y="0px"
	 width="37.365px" height="37.365px" viewBox="0 0 37.365 37.365" enable-background="new 0 0 37.365 37.365" xml:space="preserve">
<g id="Layer_2">
	<rect y="0" fill="#629EC3" width="37.365" height="37.365"/>
</g>
<g id="Layer_1_1_">
	<path id="opened_box" fill="#FFFFFF" d="M13.252,22.964L3,18.186l4.779-3.187l10.252,4.779L13.252,22.964z M34.524,11.013
		L24.272,6.234l-4.78,3.187l10.252,4.78L34.524,11.013z M24.457,22.964l10.253-4.779l-4.779-3.187l-10.252,4.779L24.457,22.964z
		 M7.965,14.2l10.252-4.78l-4.781-3.186L3.185,11.013L7.965,14.2z M13.39,24.787l-5.611-2.614v5.469l10.252,4.779V21.692
		L13.39,24.787z M24.318,24.787l-4.642-3.095v10.729l10.252-4.778v-5.47L24.318,24.787z"/>
</g>
</svg>
