<?xml version="1.0" encoding="utf-8"?>
<!-- Generator: Adobe Illustrator 16.0.0, SVG Export Plug-In . SVG Version: 6.00 Build 0)  -->
<!DOCTYPE svg PUBLIC "-//W3C//DTD SVG 1.1//EN" "http://www.w3.org/Graphics/SVG/1.1/DTD/svg11.dtd">
<svg version="1.1" id="Layer_1" xmlns="http://www.w3.org/2000/svg" xmlns:xlink="http://www.w3.org/1999/xlink" x="0px" y="0px"
	 width="192.023px" height="191.953px" viewBox="0 0 192.023 191.953" enable-background="new 0 0 192.023 191.953"
	 xml:space="preserve">
<g>
	<g>
		<path fill="#FFFFFF" d="M50.304,116.061c3.732,3.731,6.756,2.479,6.756-2.8V95.128h67.2c2.11,0,3.822-1.712,3.822-3.824V32.291
			c0-2.111-1.712-3.823-3.822-3.823h-67.2V10.334c0-5.277-3.023-6.531-6.756-2.799L2.799,55.041c-3.733,3.733-3.733,9.781,0,13.514
			L50.304,116.061z"/>
		<path fill="#FFFFFF" d="M141.951,81.28c-3.73-3.733-6.756-2.479-6.756,2.799v18.133H67.993c-2.111,0-3.822,1.712-3.822,3.824
			v59.013c0,2.11,1.712,3.823,3.822,3.823h67.201v18.135c0,5.275,3.025,6.529,6.754,2.798l47.508-47.506
			c3.731-3.733,3.731-9.782,0-13.514L141.951,81.28z"/>
	</g>
</g>
</svg>
