<?xml version="1.0" encoding="utf-8"?>
<!-- Generator: Adobe Illustrator 16.0.0, SVG Export Plug-In . SVG Version: 6.00 Build 0)  -->
<!DOCTYPE svg PUBLIC "-//W3C//DTD SVG 1.1//EN" "http://www.w3.org/Graphics/SVG/1.1/DTD/svg11.dtd">
<svg version="1.1" id="Layer_1" xmlns="http://www.w3.org/2000/svg" xmlns:xlink="http://www.w3.org/1999/xlink" x="0px" y="0px"
	 width="446.583px" height="431.476px" viewBox="-22 -239.523 446.583 431.476"
	 enable-background="new -22 -239.523 446.583 431.476" xml:space="preserve">
<g>
	<g>
		<path fill="#555555" d="M89.095,4.891c8.241,8.243,14.92,5.478,14.92-6.18v-40.049h148.408c4.658,0,8.438-3.778,8.438-8.442
			v-130.329c0-4.661-3.78-8.441-8.438-8.441H104.015v-40.048c0-11.653-6.678-14.424-14.92-6.18L-15.817-129.864
			c-8.245,8.241-8.245,21.601,0,29.844L89.095,4.891z"/>
		<path fill="#555555" d="M313.496-54.919c-8.244-8.239-14.925-5.474-14.925,6.18v40.052H150.16c-4.662,0-8.441,3.779-8.441,8.44
			v130.326c0,4.66,3.781,8.443,8.441,8.443h148.407v40.048c0,11.654,6.681,14.426,14.922,6.182L418.405,79.838
			c8.237-8.244,8.237-21.601,0-29.848L313.496-54.919z"/>
	</g>
</g>
</svg>
