<?xml version="1.0" encoding="utf-8"?>
<!-- Generator: Adobe Illustrator 16.0.0, SVG Export Plug-In . SVG Version: 6.00 Build 0)  -->
<!DOCTYPE svg PUBLIC "-//W3C//DTD SVG 1.1//EN" "http://www.w3.org/Graphics/SVG/1.1/DTD/svg11.dtd">
<svg version="1.1" id="Capa_1" xmlns="http://www.w3.org/2000/svg" xmlns:xlink="http://www.w3.org/1999/xlink" x="0px" y="0px"
	 width="1360px" height="800px" viewBox="0 0 1360 800" enable-background="new 0 0 1360 800" xml:space="preserve">
<g>
	<path fill="#B64040" d="M1005.419,208.807H833.46v-13.459c0-41.128-33.464-74.593-74.581-74.593h-31.92V70.743
		c0-7.115-5.767-12.879-12.893-12.879h-68.135c-7.131,0-12.894,5.766-12.894,12.879v50.012h-31.92
		c-41.115,0-74.577,33.462-74.577,74.593v13.459h-171.96c-41.117,0-74.581,33.462-74.581,74.591v384.145
		c0,41.129,33.464,74.595,74.581,74.595h650.84c41.114,0,74.581-33.464,74.581-74.595V283.398
		C1080,242.269,1046.535,208.807,1005.419,208.807z M1026.33,667.543c0,11.541-9.382,20.925-20.909,20.925h-650.84
		c-11.529,0-20.909-9.384-20.909-20.925V283.398c0-11.541,9.38-20.923,20.909-20.923h198.796c14.833,0,26.833-12.016,26.833-26.835
		v-40.292c0-11.543,9.38-20.923,20.909-20.923h31.92v24.319c-14.833,0-26.833,12.014-26.833,26.833
		c0,14.819,12.002,26.837,26.833,26.837h93.922c14.833,0,26.833-12.018,26.833-26.837c0-14.819-12-26.833-26.833-26.833v-24.319
		h31.92c11.529,0,20.909,9.38,20.909,20.923v40.292c0,14.819,12.002,26.835,26.837,26.835h198.792
		c11.529,0,20.909,9.382,20.909,20.923v384.145H1026.33L1026.33,667.543z"/>
	<path fill="#B64040" d="M951.698,339.624H659.872c-14.829,0-26.833,12.013-26.833,26.834c0,14.818,12.004,26.835,26.833,26.835
		h291.824c14.83,0,26.833-12.017,26.833-26.835C978.531,351.637,966.526,339.624,951.698,339.624z"/>
	<path fill="#B64040" d="M951.698,446.961H659.872c-14.829,0-26.833,12.012-26.833,26.833c0,14.817,12.004,26.835,26.833,26.835
		h291.824c14.83,0,26.833-12.018,26.833-26.835C978.531,458.973,966.526,446.961,951.698,446.961z"/>
	<path fill="#B64040" d="M951.698,554.297H659.872c-14.829,0-26.833,12.014-26.833,26.835c0,14.817,12.004,26.835,26.833,26.835
		h291.824c14.83,0,26.833-12.018,26.833-26.835C978.531,566.311,966.526,554.297,951.698,554.297z"/>
	<path fill="#B64040" d="M549.566,535.872c-22.825-7.979-38.104-29.52-38.104-53.692c22.298-15.12,37.579-43.883,37.579-77.32
		c0-49.006-32.445-88.717-72.433-88.717c-40.02,0-72.434,39.711-72.434,88.717c0,33.438,15.281,62.2,37.58,77.32
		c0,24.172-15.277,45.715-38.104,53.692c-26.782,9.372-44.734,34.657-44.734,63.038v23.245c0,6.98,5.663,12.645,12.659,12.645
		h210.062c7.001,0,12.658-5.661,12.658-12.645v-23.257C594.297,570.517,576.349,545.244,549.566,535.872z"/>
</g>
</svg>
