<?xml version="1.0" encoding="utf-8"?>
<!-- Generator: Adobe Illustrator 16.0.0, SVG Export Plug-In . SVG Version: 6.00 Build 0)  -->
<!DOCTYPE svg PUBLIC "-//W3C//DTD SVG 1.1//EN" "http://www.w3.org/Graphics/SVG/1.1/DTD/svg11.dtd">
<svg version="1.1" id="Capa_1" xmlns="http://www.w3.org/2000/svg" xmlns:xlink="http://www.w3.org/1999/xlink" x="0px" y="0px"
	 width="595.279px" height="595.281px" viewBox="0 0 595.279 595.281" enable-background="new 0 0 595.279 595.281"
	 xml:space="preserve">
<g>
	<path fill="#3C72A5" d="M297.627,0C133.267,0,0,133.268,0,297.628C0,461.99,133.267,595.281,297.627,595.281
		c164.36,0,297.653-133.293,297.653-297.652C595.28,133.269,461.988,0,297.627,0z M359.588,461.283
		c-15.32,6.047-27.517,10.633-36.662,13.809c-9.121,3.176-19.729,4.762-31.8,4.762c-18.545,0-32.981-4.535-43.263-13.58
		c-10.281-9.047-15.396-20.51-15.396-34.445c0-5.416,0.379-10.961,1.135-16.604c0.78-5.645,2.016-11.994,3.704-19.125l19.175-67.729
		c1.688-6.502,3.148-12.674,4.309-18.42c1.159-5.795,1.714-11.111,1.714-15.949c0-8.617-1.789-14.664-5.342-18.066
		c-3.604-3.4-10.382-5.064-20.485-5.064c-4.938,0-10.027,0.73-15.243,2.269c-5.166,1.587-9.65,3.024-13.329,4.435l5.063-20.863
		c12.548-5.115,24.567-9.499,36.031-13.127c11.465-3.68,22.3-5.493,32.505-5.493c18.419,0,32.63,4.485,42.634,13.354
		c9.952,8.895,14.967,20.459,14.967,34.67c0,2.949-0.354,8.139-1.033,15.547c-0.68,7.436-1.965,14.211-3.83,20.436l-19.073,67.527
		c-1.563,5.418-2.947,11.617-4.208,18.545c-1.234,6.932-1.84,12.223-1.84,15.773c0,8.971,1.99,15.094,6.022,18.344
		c3.979,3.25,10.961,4.889,20.838,4.889c4.661,0,9.877-0.83,15.772-2.443c5.847-1.613,10.078-3.049,12.749-4.283L359.588,461.283z
		 M356.211,187.189c-8.896,8.266-19.604,12.397-32.126,12.397c-12.498,0-23.283-4.132-32.253-12.397
		c-8.92-8.265-13.43-18.318-13.43-30.06c0-11.716,4.535-21.795,13.43-30.136c8.97-8.365,19.755-12.522,32.253-12.522
		c12.521,0,23.257,4.157,32.126,12.522c8.895,8.34,13.354,18.419,13.354,30.136C369.565,168.896,365.105,178.924,356.211,187.189z"
		/>
</g>
<circle fill="#57ADC1" cx="297.64" cy="297.641" r="297.64"/>
<g>
	<g id="Layer_5_45_">
		<g>
			<g>
				<path fill="#FFFFFF" d="M215.643,366.534c0,9.469-7.749,17.218-17.219,17.218h-71.171c-9.47,0-17.219-7.749-17.219-17.218
					v-78.06c0-9.469,7.749-17.217,17.219-17.217h71.171c9.471,0,17.219,7.748,17.219,17.217V366.534z"/>
			</g>
			<g>
				<path fill="#FFFFFF" d="M342.2,366.534c0,9.469-7.749,17.218-17.219,17.218h-71.17c-9.471,0-17.219-7.749-17.219-17.218V247.149
					c0-9.469,7.749-17.218,17.219-17.218h71.17c9.47,0,17.219,7.749,17.219,17.218V366.534z"/>
			</g>
			<g>
				<path fill="#FFFFFF" d="M468.758,366.534c0,9.469-7.747,17.218-17.22,17.218h-71.171c-9.469,0-17.218-7.749-17.218-17.218
					V201.233c0-9.47,7.749-17.219,17.218-17.219h71.171c9.473,0,17.22,7.749,17.22,17.219V366.534z"/>
			</g>
		</g>
	</g>
</g>
</svg>
