<?xml version="1.0" encoding="utf-8"?>
<!-- Generator: Adobe Illustrator 16.0.0, SVG Export Plug-In . SVG Version: 6.00 Build 0)  -->
<!DOCTYPE svg PUBLIC "-//W3C//DTD SVG 1.1//EN" "http://www.w3.org/Graphics/SVG/1.1/DTD/svg11.dtd">
<svg version="1.1" id="Capa_1" xmlns="http://www.w3.org/2000/svg" xmlns:xlink="http://www.w3.org/1999/xlink" x="0px" y="0px"
	 width="613px" height="524.6px" viewBox="0 29.6 613 524.6" enable-background="new 0 29.6 613 524.6" xml:space="preserve">
<g>
	<path fill="#A78534" d="M600.635,473.392L344.458,58.922c-20.619-33.35-54.158-33.444-74.823,0L13.409,473.392
		c-27.672,44.774-7.482,80.808,44.87,80.808h497.485C608.116,554.199,628.211,518.023,600.635,473.392z M307.045,482.939
		c-13.135,0-23.753-10.617-23.753-23.753c0-13.135,10.618-23.753,23.753-23.753c13.16,0,23.754,10.618,23.754,23.753
		C330.799,472.322,320.18,482.939,307.045,482.939z M330.799,364.245c0,12.922-10.594,23.683-23.754,23.683
		c-13.207,0-23.753-10.595-23.753-23.683V221.584c0-12.922,10.618-23.682,23.753-23.682c13.23,0,23.754,10.594,23.754,23.682
		V364.245z"/>
</g>
</svg>
